# https://github.com/mikedh/trimesh
v 0.00000000 0.00000000 0.70011407
v 0.00000000 0.00000000 0.00000840
v 0.00000000 0.12493777 0.35006123
v 0.00000000 -0.12493777 0.35006123
v 0.07631373 -0.06568418 0.35006123
v 0.06115168 -0.02904271 0.59292025
v 0.06115168 -0.02904271 0.10720152
v -0.06018062 0.09040626 0.29319271
v -0.06018062 0.09040626 0.40692976
v -0.07731457 -0.03453226 0.20117587
v -0.07731457 -0.03453226 0.49894590
v -0.04012024 0.11174801 0.35006123
v -0.02451536 -0.12018236 0.35006123
v -0.04029751 -0.02904271 0.65204032
v -0.04029751 -0.02904271 0.04808145
v -0.04716451 -0.10627845 0.35006123
v 0.02046374 0.08428502 0.10430937
v 0.02046374 0.08428502 0.59581240
v 0.05273174 0.00000000 0.63325988
v 0.05273174 0.00000000 0.06686259
v -0.04497946 -0.06318441 0.59581310
v -0.04497946 -0.06318441 0.10430867
v -0.06622352 -0.08428427 0.35006123
v 0.00757537 0.12018261 0.44103561
v 0.00757537 0.12018261 0.25908616
v -0.01239817 0.03453251 0.01714149
v -0.01239817 0.03453251 0.68298028
v -0.06018098 -0.03453226 0.10915833
v -0.06018098 -0.03453226 0.59096344
v 0.02479526 0.05587400 0.05229191
v 0.02479526 0.05587400 0.64782986
v -0.08605693 -0.02904246 0.40628636
v -0.08605693 -0.02904246 0.29383541
v 0.00063032 0.06318441 0.04808285
v 0.00063032 0.06318441 0.65203892
v -0.07809166 0.02904271 0.50194307
v -0.07809166 0.02904271 0.19817870
v 0.01457425 0.10627870 0.17503657
v 0.01457425 0.10627870 0.52508590
v 0.04012041 0.09040651 0.53409351
v 0.04012041 0.09040651 0.16602895
v -0.02772278 0.00000000 0.01714079
v -0.02772278 0.00000000 0.68298098
v 0.03815677 -0.10627870 0.24189076
v 0.03815677 -0.10627870 0.45823171
v 0.06173930 0.06568418 0.52508660
v 0.06173930 0.06568418 0.17503587
v -0.05357576 0.08428477 0.50194237
v -0.05357576 0.08428477 0.19817940
v 0.08971256 0.00000000 0.35006123
v -0.03245802 -0.11174801 0.25804509
v -0.03245802 -0.11174801 0.44207667
v 0.06491604 -0.05587400 0.16603106
v 0.06491604 -0.05587400 0.53409071
v 0.08532182 0.00000000 0.24189006
v 0.08532182 0.00000000 0.45823171
v 0.08024119 0.05587400 0.35006123
v -0.01288818 -0.02904271 0.68679028
v -0.01288818 -0.02904271 0.01333219
v 0.01239799 -0.11174801 0.20117657
v 0.01239799 -0.11174801 0.49894520
v 0.02358270 -0.06568443 0.63325778
v 0.02358270 -0.06568443 0.06686399
v 0.07379907 0.06318416 0.25908546
v 0.07379907 0.06318416 0.44103631
v -0.07340918 0.06318441 0.44571725
v -0.07340918 0.06318441 0.25440522
v -0.08497696 0.03453226 0.40692976
v -0.08497696 0.03453226 0.29319201
v 0.03245838 -0.09040651 0.55581512
v 0.03245838 -0.09040651 0.14430735
v -0.00473595 0.09040651 0.59096204
v -0.00473595 0.09040651 0.10915973
v -0.07257915 0.00000000 0.14430595
v -0.07257915 0.00000000 0.55581652
v 0.04012095 -0.03453226 0.64783266
v 0.04012095 -0.03453226 0.05228911
v 0.04600039 -0.06318441 0.10720292
v 0.04600039 -0.06318441 0.59291885
v -0.01983323 0.12018261 0.29383611
v -0.01983323 0.12018261 0.40628636
v 0.05725400 0.09040601 0.44207737
v 0.05725400 0.09040601 0.25804509
v -0.05725400 -0.09040601 0.44207737
v -0.05725400 -0.09040601 0.25804509
v 0.01983323 -0.12018261 0.29383611
v 0.01983323 -0.12018261 0.40628636
v -0.04600039 0.06318441 0.10720292
v -0.04600039 0.06318441 0.59291885
v -0.04012095 0.03453226 0.64783266
v -0.04012095 0.03453226 0.05228911
v 0.07257915 0.00000000 0.14430595
v 0.07257915 0.00000000 0.55581652
v 0.00473595 -0.09040651 0.59096204
v 0.00473595 -0.09040651 0.10915973
v -0.03245838 0.09040651 0.55581512
v -0.03245838 0.09040651 0.14430735
v 0.08497696 -0.03453226 0.40692976
v 0.08497696 -0.03453226 0.29319201
v 0.07340918 -0.06318441 0.44571725
v 0.07340918 -0.06318441 0.25440522
v -0.07379907 -0.06318416 0.25908546
v -0.07379907 -0.06318416 0.44103631
v -0.02358270 0.06568443 0.63325778
v -0.02358270 0.06568443 0.06686399
v -0.01239799 0.11174801 0.20117657
v -0.01239799 0.11174801 0.49894520
v 0.01288818 0.02904271 0.68679028
v 0.01288818 0.02904271 0.01333219
v -0.08024119 -0.05587400 0.35006123
v -0.08532182 0.00000000 0.24189006
v -0.08532182 0.00000000 0.45823171
v -0.06491604 0.05587400 0.16603106
v -0.06491604 0.05587400 0.53409071
v 0.03245802 0.11174801 0.25804509
v 0.03245802 0.11174801 0.44207667
v -0.08971256 0.00000000 0.35006123
v 0.05357576 -0.08428477 0.50194237
v 0.05357576 -0.08428477 0.19817940
v -0.06173930 -0.06568418 0.52508660
v -0.06173930 -0.06568418 0.17503587
v -0.03815677 0.10627870 0.24189076
v -0.03815677 0.10627870 0.45823171
v 0.02772278 0.00000000 0.01714079
v 0.02772278 0.00000000 0.68298098
v -0.04012041 -0.09040651 0.53409351
v -0.04012041 -0.09040651 0.16602895
v -0.01457425 -0.10627870 0.17503657
v -0.01457425 -0.10627870 0.52508590
v 0.07809166 -0.02904271 0.50194307
v 0.07809166 -0.02904271 0.19817870
v -0.00063032 -0.06318441 0.04808285
v -0.00063032 -0.06318441 0.65203892
v 0.08605693 0.02904246 0.40628636
v 0.08605693 0.02904246 0.29383541
v -0.02479526 -0.05587400 0.05229191
v -0.02479526 -0.05587400 0.64782986
v 0.06018098 0.03453226 0.10915833
v 0.06018098 0.03453226 0.59096344
v 0.01239817 -0.03453251 0.01714149
v 0.01239817 -0.03453251 0.68298028
v -0.00757537 -0.12018261 0.44103561
v -0.00757537 -0.12018261 0.25908616
v 0.06622352 0.08428427 0.35006123
v 0.04497946 0.06318441 0.59581310
v 0.04497946 0.06318441 0.10430867
v -0.05273174 0.00000000 0.63325988
v -0.05273174 0.00000000 0.06686259
v -0.02046374 -0.08428502 0.10430937
v -0.02046374 -0.08428502 0.59581240
v 0.04716451 0.10627845 0.35006123
v 0.04029751 0.02904271 0.65204032
v 0.04029751 0.02904271 0.04808145
v 0.02451536 0.12018236 0.35006123
v 0.04012024 -0.11174801 0.35006123
v 0.07731457 0.03453226 0.20117587
v 0.07731457 0.03453226 0.49894590
v 0.06018062 -0.09040626 0.29319271
v 0.06018062 -0.09040626 0.40692976
v -0.06115168 0.02904271 0.59292025
v -0.06115168 0.02904271 0.10720152
v -0.07631373 0.06568418 0.35006123
vn 0.00000000 0.00000000 1.00000000
vn 0.00000000 0.00000000 -1.00000000
vn -0.01133439 0.99993576 0.00000009
vn 0.01133439 -0.99993576 0.00000009
vn 0.91120121 -0.41196159 0.00000003
vn 0.93672700 -0.23784462 0.25685105
vn 0.93672762 -0.23784170 -0.25685152
vn -0.77888409 0.62538769 -0.04722096
vn -0.77888409 0.62538768 0.04722108
vn -0.96646898 -0.22167549 -0.12960588
vn -0.96646915 -0.22167515 0.12960520
vn -0.56926217 0.82215606 0.00000000
vn -0.36185049 -0.93223614 0.00000015
vn -0.83183414 -0.32210033 0.45199927
vn -0.83183387 -0.32209837 -0.45200117
vn -0.64636275 -0.76303027 0.00000008
vn 0.39650274 0.85539683 -0.33328941
vn 0.39650240 0.85539649 0.33329071
vn 0.93539607 -0.00414118 0.35357748
vn 0.93539700 -0.00414107 -0.35357504
vn -0.76270031 -0.57650193 0.29314460
vn -0.76270047 -0.57650230 -0.29314346
vn -0.83273254 -0.55367546 0.00000006
vn 0.10691877 0.98956802 0.09655832
vn 0.10691815 0.98956808 -0.09655835
vn -0.36982972 0.54549345 -0.75210563
vn -0.36983916 0.54549580 0.75209928
vn -0.92860087 -0.27111967 -0.25336644
vn -0.92860027 -0.27112161 0.25336656
vn 0.55644866 0.67669518 -0.48212916
vn 0.55644962 0.67669650 0.48212620
vn -0.98369007 -0.17447295 0.04373834
vn -0.98369008 -0.17447291 -0.04373821
vn 0.01041739 0.83557831 -0.54927257
vn 0.01041609 0.83557964 0.54927058
vn -0.97371796 0.18899173 0.12710410
vn -0.97371799 0.18899150 -0.12710424
vn 0.23924458 0.94892333 -0.20568557
vn 0.23924199 0.94892386 0.20568610
vn 0.62978659 0.75163502 0.19599397
vn 0.62978690 0.75163507 -0.19599282
vn -0.72914347 0.02010931 -0.68406536
vn -0.72914895 0.02011411 0.68405938
vn 0.55823494 -0.82255353 -0.10853313
vn 0.55823469 -0.82255361 0.10853380
vn 0.86131713 0.48005645 0.16636888
vn 0.86131642 0.48005794 -0.16636826
vn -0.76075848 0.63222372 0.14676410
vn -0.76075732 0.63222514 -0.14676402
vn 0.99998287 -0.00585322 0.00000011
vn -0.49080077 -0.86612966 -0.09451988
vn -0.49080009 -0.86613010 0.09451940
vn 0.89649527 -0.40634041 -0.17658906
vn 0.89649524 -0.40634039 0.17658929
vn 0.99637963 0.00058812 -0.08501348
vn 0.99637964 0.00058811 0.08501333
vn 0.94146734 0.33710422 0.00000012
vn -0.37814733 -0.48441205 0.78889135
vn -0.37814999 -0.48441071 -0.78889090
vn 0.20965250 -0.96241711 -0.17262426
vn 0.20965186 -0.96241735 0.17262371
vn 0.50324780 -0.74908810 0.43082325
vn 0.50324788 -0.74908828 -0.43082283
vn 0.91217421 0.40289239 -0.07493951
vn 0.91217461 0.40289155 0.07493915
vn -0.90818920 0.41008871 0.08378327
vn -0.90818905 0.41008913 -0.08378279
vn -0.97846217 0.20227297 0.04119979
vn -0.97846212 0.20227322 -0.04119986
vn 0.53245731 -0.81203284 0.23893907
vn 0.53245759 -0.81203290 -0.23893826
vn -0.11118107 0.93760787 0.32943929
vn -0.11118283 0.93760809 -0.32943809
vn -0.98197740 -0.00741693 -0.18885280
vn -0.98197738 -0.00741659 0.18885293
vn 0.80963290 -0.37884071 0.44830155
vn 0.80963415 -0.37883839 -0.44830127
vn 0.77523838 -0.56401881 -0.28440859
vn 0.77523963 -0.56401689 0.28440896
vn -0.29631995 0.95329236 -0.05855055
vn -0.29631943 0.95329250 0.05855086
vn 0.76058468 0.64357741 0.08555151
vn 0.76058478 0.64357734 -0.08555121
vn -0.76058468 -0.64357741 0.08555151
vn -0.76058478 -0.64357734 -0.08555121
vn 0.29631995 -0.95329236 -0.05855055
vn 0.29631943 -0.95329250 0.05855086
vn -0.77523838 0.56401881 -0.28440859
vn -0.77523963 0.56401689 0.28440896
vn -0.80963290 0.37884071 0.44830155
vn -0.80963415 0.37883839 -0.44830127
vn 0.98197740 0.00741693 -0.18885280
vn 0.98197738 0.00741659 0.18885293
vn 0.11118107 -0.93760787 0.32943929
vn 0.11118283 -0.93760809 -0.32943809
vn -0.53245731 0.81203284 0.23893907
vn -0.53245759 0.81203290 -0.23893826
vn 0.97846217 -0.20227297 0.04119979
vn 0.97846212 -0.20227322 -0.04119986
vn 0.90818920 -0.41008871 0.08378327
vn 0.90818905 -0.41008913 -0.08378279
vn -0.91217421 -0.40289239 -0.07493951
vn -0.91217461 -0.40289155 0.07493915
vn -0.50324780 0.74908810 0.43082325
vn -0.50324788 0.74908828 -0.43082283
vn -0.20965250 0.96241711 -0.17262426
vn -0.20965186 0.96241735 0.17262371
vn 0.37814733 0.48441205 0.78889135
vn 0.37814999 0.48441071 -0.78889090
vn -0.94146734 -0.33710422 0.00000012
vn -0.99637963 -0.00058812 -0.08501348
vn -0.99637964 -0.00058811 0.08501333
vn -0.89649527 0.40634041 -0.17658906
vn -0.89649524 0.40634039 0.17658929
vn 0.49080077 0.86612966 -0.09451988
vn 0.49080009 0.86613010 0.09451940
vn -0.99998287 0.00585322 0.00000011
vn 0.76075848 -0.63222372 0.14676410
vn 0.76075732 -0.63222514 -0.14676402
vn -0.86131713 -0.48005645 0.16636888
vn -0.86131642 -0.48005794 -0.16636826
vn -0.55823494 0.82255353 -0.10853313
vn -0.55823469 0.82255361 0.10853380
vn 0.72914347 -0.02010931 -0.68406536
vn 0.72914895 -0.02011411 0.68405938
vn -0.62978659 -0.75163502 0.19599397
vn -0.62978690 -0.75163507 -0.19599282
vn -0.23924458 -0.94892333 -0.20568557
vn -0.23924199 -0.94892386 0.20568610
vn 0.97371796 -0.18899173 0.12710410
vn 0.97371799 -0.18899150 -0.12710424
vn -0.01041739 -0.83557831 -0.54927257
vn -0.01041609 -0.83557964 0.54927058
vn 0.98369007 0.17447295 0.04373834
vn 0.98369008 0.17447291 -0.04373821
vn -0.55644866 -0.67669518 -0.48212916
vn -0.55644962 -0.67669650 0.48212620
vn 0.92860087 0.27111967 -0.25336644
vn 0.92860027 0.27112161 0.25336656
vn 0.36982972 -0.54549345 -0.75210563
vn 0.36983916 -0.54549580 0.75209928
vn -0.10691877 -0.98956802 0.09655832
vn -0.10691815 -0.98956808 -0.09655835
vn 0.83273254 0.55367546 0.00000006
vn 0.76270031 0.57650193 0.29314460
vn 0.76270047 0.57650230 -0.29314346
vn -0.93539607 0.00414118 0.35357748
vn -0.93539700 0.00414107 -0.35357504
vn -0.39650274 -0.85539683 -0.33328941
vn -0.39650240 -0.85539649 0.33329071
vn 0.64636275 0.76303027 0.00000008
vn 0.83183414 0.32210033 0.45199927
vn 0.83183387 0.32209837 -0.45200117
vn 0.36185049 0.93223614 0.00000015
vn 0.56926217 -0.82215606 0.00000000
vn 0.96646898 0.22167549 -0.12960588
vn 0.96646915 0.22167515 0.12960520
vn 0.77888409 -0.62538769 -0.04722096
vn 0.77888409 -0.62538768 0.04722108
vn -0.93672700 0.23784462 0.25685105
vn -0.93672762 0.23784170 -0.25685152
vn -0.91120121 0.41196159 0.00000003
f 71//71 60//60 95//95
f 159//159 155//155 158//158
f 127//127 51//51 85//85
f 84//84 52//52 126//126
f 94//94 61//61 70//70
f 50//50 98//98 99//99
f 124//124 77//77 140//140
f 74//74 28//28 10//10
f 75//75 11//11 29//29
f 125//125 141//141 76//76
f 156//156 92//92 138//138
f 26//26 42//42 91//91
f 69//69 117//117 68//68
f 90//90 43//43 27//27
f 139//139 93//93 157//157
f 115//115 83//83 41//41
f 106//106 73//73 97//97
f 12//12 8//8 9//9
f 107//107 96//96 72//72
f 116//116 40//40 82//82
f 40//40 18//18 145//145
f 116//116 154//154 24//24
f 82//82 65//65 144//144
f 96//96 48//48 89//89
f 107//107 24//24 81//81
f 72//72 35//35 18//18
f 8//8 49//49 67//67
f 12//12 81//81 80//80
f 9//9 66//66 48//48
f 73//73 17//17 34//34
f 106//106 80//80 25//25
f 97//97 88//88 49//49
f 83//83 144//144 64//64
f 115//115 25//25 154//154
f 41//41 146//146 17//17
f 6//6 130//130 93//93
f 134//134 65//65 157//157
f 145//145 152//152 139//139
f 14//14 58//58 43//43
f 108//108 35//35 27//27
f 89//89 160//160 90//90
f 33//33 32//32 117//117
f 36//36 66//66 68//68
f 67//67 37//37 69//69
f 59//59 15//15 42//42
f 161//161 88//88 91//91
f 34//34 109//109 26//26
f 131//131 7//7 92//92
f 153//153 146//146 138//138
f 64//64 135//135 156//156
f 141//141 58//58 133//133
f 125//125 152//152 108//108
f 76//76 79//79 6//6
f 11//11 32//32 103//103
f 75//75 160//160 36//36
f 29//29 21//21 14//14
f 28//28 15//15 22//22
f 74//74 37//37 161//161
f 10//10 102//102 33//33
f 77//77 7//7 78//78
f 124//124 109//109 153//153
f 140//140 132//132 59//59
f 98//98 130//130 100//100
f 50//50 135//135 134//134
f 99//99 101//101 131//131
f 142//142 87//87 61//61
f 118//118 79//79 70//70
f 133//133 150//150 94//94
f 13//13 142//142 52//52
f 150//150 21//21 126//126
f 103//103 23//23 84//84
f 143//143 13//13 51//51
f 23//23 102//102 85//85
f 22//22 149//149 127//127
f 155//155 87//87 86//86
f 159//159 100//100 118//118
f 158//158 119//119 101//101
f 86//86 143//143 60//60
f 149//149 132//132 95//95
f 78//78 119//119 71//71
f 119//119 44//44 71//71
f 71//71 63//63 78//78
f 78//78 53//53 119//119
f 132//132 63//63 95//95
f 95//95 128//128 149//149
f 149//149 136//136 132//132
f 143//143 128//128 60//60
f 60//60 44//44 86//86
f 86//86 4//4 143//143
f 158//158 44//44 119//119
f 101//101 5//5 158//158
f 119//119 53//53 101//101
f 159//159 5//5 100//100
f 118//118 45//45 159//159
f 100//100 54//54 118//118
f 155//155 45//45 87//87
f 86//86 44//44 155//155
f 87//87 4//4 86//86
f 149//149 128//128 127//127
f 127//127 121//121 22//22
f 22//22 136//136 149//149
f 102//102 121//121 85//85
f 85//85 16//16 23//23
f 23//23 110//110 102//102
f 13//13 16//16 51//51
f 51//51 128//128 143//143
f 143//143 4//4 13//13
f 23//23 16//16 84//84
f 84//84 120//120 103//103
f 103//103 110//110 23//23
f 21//21 120//120 126//126
f 126//126 129//129 150//150
f 150//150 137//137 21//21
f 142//142 129//129 52//52
f 52//52 16//16 13//13
f 13//13 4//4 142//142
f 150//150 129//129 94//94
f 94//94 62//62 133//133
f 133//133 137//137 150//150
f 79//79 62//62 70//70
f 70//70 45//45 118//118
f 118//118 54//54 79//79
f 87//87 45//45 61//61
f 61//61 129//129 142//142
f 142//142 4//4 87//87
f 99//99 5//5 101//101
f 131//131 55//55 99//99
f 101//101 53//53 131//131
f 50//50 55//55 135//135
f 134//134 56//56 50//50
f 135//135 57//57 134//134
f 98//98 56//56 130//130
f 100//100 5//5 98//98
f 130//130 54//54 100//100
f 140//140 63//63 132//132
f 59//59 2//2 140//140
f 132//132 136//136 59//59
f 124//124 2//2 109//109
f 153//153 20//20 124//124
f 109//109 30//30 153//153
f 77//77 20//20 7//7
f 78//78 63//63 77//77
f 7//7 53//53 78//78
f 10//10 121//121 102//102
f 33//33 111//111 10//10
f 102//102 110//110 33//33
f 74//74 111//111 37//37
f 161//161 148//148 74//74
f 37//37 113//113 161//161
f 28//28 148//148 15//15
f 22//22 121//121 28//28
f 15//15 136//136 22//22
f 29//29 120//120 21//21
f 14//14 147//147 29//29
f 21//21 137//137 14//14
f 75//75 147//147 160//160
f 36//36 112//112 75//75
f 160//160 114//114 36//36
f 11//11 112//112 32//32
f 103//103 120//120 11//11
f 32//32 110//110 103//103
f 76//76 62//62 79//79
f 6//6 19//19 76//76
f 79//79 54//54 6//6
f 125//125 19//19 152//152
f 108//108 1//1 125//125
f 152//152 31//31 108//108
f 141//141 1//1 58//58
f 133//133 62//62 141//141
f 58//58 137//137 133//133
f 135//135 55//55 156//156
f 156//156 47//47 64//64
f 64//64 57//57 135//135
f 146//146 47//47 138//138
f 138//138 20//20 153//153
f 153//153 30//30 146//146
f 7//7 20//20 92//92
f 92//92 55//55 131//131
f 131//131 53//53 7//7
f 109//109 2//2 26//26
f 26//26 105//105 34//34
f 34//34 30//30 109//109
f 88//88 105//105 91//91
f 91//91 148//148 161//161
f 161//161 113//113 88//88
f 15//15 148//148 42//42
f 42//42 2//2 59//59
f 59//59 136//136 15//15
f 37//37 111//111 69//69
f 69//69 162//162 67//67
f 67//67 113//113 37//37
f 66//66 162//162 68//68
f 68//68 112//112 36//36
f 36//36 114//114 66//66
f 32//32 112//112 117//117
f 117//117 111//111 33//33
f 33//33 110//110 32//32
f 160//160 147//147 90//90
f 90//90 104//104 89//89
f 89//89 114//114 160//160
f 35//35 104//104 27//27
f 27//27 1//1 108//108
f 108//108 31//31 35//35
f 58//58 1//1 43//43
f 43//43 147//147 14//14
f 14//14 137//137 58//58
f 152//152 19//19 139//139
f 139//139 46//46 145//145
f 145//145 31//31 152//152
f 65//65 46//46 157//157
f 157//157 56//56 134//134
f 134//134 57//57 65//65
f 130//130 56//56 93//93
f 93//93 19//19 6//6
f 6//6 54//54 130//130
f 41//41 47//47 146//146
f 17//17 38//38 41//41
f 146//146 30//30 17//17
f 115//115 38//38 25//25
f 154//154 151//151 115//115
f 25//25 3//3 154//154
f 83//83 151//151 144//144
f 64//64 47//47 83//83
f 144//144 57//57 64//64
f 97//97 105//105 88//88
f 49//49 122//122 97//97
f 88//88 113//113 49//49
f 106//106 122//122 80//80
f 25//25 38//38 106//106
f 80//80 3//3 25//25
f 73//73 38//38 17//17
f 34//34 105//105 73//73
f 17//17 30//30 34//34
f 9//9 162//162 66//66
f 48//48 123//123 9//9
f 66//66 114//114 48//48
f 12//12 123//123 81//81
f 80//80 122//122 12//12
f 81//81 3//3 80//80
f 8//8 122//122 49//49
f 67//67 162//162 8//8
f 49//49 113//113 67//67
f 72//72 104//104 35//35
f 18//18 39//39 72//72
f 35//35 31//31 18//18
f 107//107 39//39 24//24
f 81//81 123//123 107//107
f 24//24 3//3 81//81
f 96//96 123//123 48//48
f 89//89 104//104 96//96
f 48//48 114//114 89//89
f 82//82 46//46 65//65
f 144//144 151//151 82//82
f 65//65 57//57 144//144
f 116//116 151//151 154//154
f 24//24 39//39 116//116
f 154//154 3//3 24//24
f 40//40 39//39 18//18
f 145//145 46//46 40//40
f 18//18 31//31 145//145
f 116//116 39//39 40//40
f 82//82 151//151 116//116
f 40//40 46//46 82//82
f 107//107 123//123 96//96
f 72//72 39//39 107//107
f 96//96 104//104 72//72
f 12//12 122//122 8//8
f 9//9 123//123 12//12
f 8//8 162//162 9//9
f 106//106 38//38 73//73
f 97//97 122//122 106//106
f 73//73 105//105 97//97
f 115//115 151//151 83//83
f 41//41 38//38 115//115
f 83//83 47//47 41//41
f 93//93 56//56 157//157
f 157//157 46//46 139//139
f 139//139 19//19 93//93
f 43//43 1//1 27//27
f 27//27 104//104 90//90
f 90//90 147//147 43//43
f 117//117 112//112 68//68
f 68//68 162//162 69//69
f 69//69 111//111 117//117
f 42//42 148//148 91//91
f 91//91 105//105 26//26
f 26//26 2//2 42//42
f 92//92 20//20 138//138
f 138//138 47//47 156//156
f 156//156 55//55 92//92
f 125//125 1//1 141//141
f 76//76 19//19 125//125
f 141//141 62//62 76//76
f 75//75 112//112 11//11
f 29//29 147//147 75//75
f 11//11 120//120 29//29
f 74//74 148//148 28//28
f 10//10 111//111 74//74
f 28//28 121//121 10//10
f 124//124 20//20 77//77
f 140//140 2//2 124//124
f 77//77 63//63 140//140
f 50//50 56//56 98//98
f 99//99 55//55 50//50
f 98//98 5//5 99//99
f 61//61 45//45 70//70
f 70//70 62//62 94//94
f 94//94 129//129 61//61
f 52//52 129//129 126//126
f 126//126 120//120 84//84
f 84//84 16//16 52//52
f 51//51 16//16 85//85
f 85//85 121//121 127//127
f 127//127 128//128 51//51
f 159//159 45//45 155//155
f 158//158 5//5 159//159
f 155//155 44//44 158//158
f 60//60 128//128 95//95
f 95//95 63//63 71//71
f 71//71 44//44 60//60