# https://github.com/mikedh/trimesh
v 0.00000663 0.00008789 0.30115673
v 0.00000663 0.00008789 0.00019196
v 0.00000663 -0.00020439 0.30093674
v 0.00000663 -0.00020439 0.00041194
v 0.00000663 -0.00000468 0.00000121
v 0.00000663 -0.00000468 0.30134748
v 0.05832924 -0.08945987 0.15092552
v 0.05832924 -0.08945987 0.15042287
v -0.05856879 -0.08958183 0.15067419
v -0.05856879 0.08958183 0.15067419
v 0.00018651 -0.00000468 0.00056744
v 0.00018651 -0.00000468 0.30078125
v -0.00002414 -0.00000468 0.30125044
v -0.00002414 -0.00000468 0.00009794
v 0.05856879 -0.08958183 0.15067419
v 0.05856879 0.08958183 0.15067419
v -0.05854992 -0.08949550 0.15073356
v -0.05854992 -0.08949550 0.15061513
v -0.05854992 0.08949550 0.15073356
v -0.05854992 0.08949550 0.15061513
v -0.05832924 -0.08945987 0.15042317
v -0.05832924 -0.08945987 0.15092552
v 0.05845743 0.08952514 0.15079111
v 0.05845743 0.08952514 0.15055757
v -0.05845760 0.08952514 0.15079111
v -0.05845760 0.08952514 0.15055757
v 0.05845879 0.08907683 0.15032794
v 0.05845879 0.08907683 0.15102074
v 0.05845879 -0.08907683 0.15032794
v 0.05845879 -0.08907683 0.15102074
vn -0.00025188 0.89569438 0.44467011
vn -0.00025083 0.89569440 -0.44467008
vn 0.00045558 -0.89539022 0.44528209
vn 0.00045452 -0.89539020 -0.44528214
vn 0.00010382 0.00023720 -0.99999997
vn -0.00014415 0.00023732 0.99999996
vn 0.07015668 -0.86109317 0.50358375
vn 0.07015720 -0.86109265 -0.50358457
vn -0.68450009 -0.72901273 -0.00026811
vn -0.68451309 0.72900048 -0.00037528
vn 0.94989135 0.00031576 -0.31258012
vn 0.94989133 0.00031625 0.31258016
vn -0.95003799 -0.00004722 0.31213429
vn -0.94980363 -0.00004638 -0.31284672
vn 0.68439502 -0.72911141 -0.00003012
vn 0.68438382 0.72912189 -0.00022973
vn -0.93415566 -0.03245355 0.35538707
vn -0.93418367 -0.03143505 -0.35540498
vn -0.93417401 0.03241431 0.35534241
vn -0.93420151 0.03139694 -0.35536147
vn -0.06933105 -0.86127248 -0.50339142
vn -0.06982819 -0.86124366 0.50337202
vn 0.07023208 0.86122085 0.50335485
vn 0.06916022 0.86128395 -0.50339529
vn -0.07059439 0.86109385 0.50352142
vn -0.06951802 0.86115861 -0.50356042
vn 0.93412367 0.03249980 -0.35546693
vn 0.93411857 0.03267432 0.35546433
vn 0.93423912 -0.03225326 -0.35518585
vn 0.93423437 -0.03242701 0.35518252
f 16//16 10//10 25//25
f 16//16 25//25 23//23
f 6//6 16//16 23//23
f 6//6 23//23 1//1
f 10//10 6//6 1//1
f 10//10 1//1 25//25
f 23//23 25//25 1//1
f 10//10 9//9 17//17
f 10//10 17//17 19//19
f 9//9 6//6 13//13
f 9//9 13//13 17//17
f 6//6 10//10 19//19
f 6//6 19//19 13//13
f 17//17 13//13 19//19
f 9//9 15//15 7//7
f 9//9 7//7 22//22
f 15//15 6//6 3//3
f 15//15 3//3 7//7
f 6//6 9//9 22//22
f 6//6 22//22 3//3
f 7//7 3//3 22//22
f 15//15 16//16 28//28
f 15//15 28//28 30//30
f 6//6 15//15 30//30
f 6//6 30//30 12//12
f 16//16 6//6 12//12
f 16//16 12//12 28//28
f 28//28 12//12 30//30
f 27//27 29//29 11//11
f 11//11 5//5 16//16
f 27//27 11//11 16//16
f 29//29 15//15 5//5
f 11//11 29//29 5//5
f 16//16 15//15 27//27
f 27//27 15//15 29//29
f 21//21 4//4 8//8
f 9//9 5//5 21//21
f 21//21 5//5 4//4
f 5//5 15//15 4//4
f 8//8 4//4 15//15
f 8//8 15//15 9//9
f 21//21 8//8 9//9
f 18//18 20//20 14//14
f 10//10 5//5 20//20
f 14//14 20//20 5//5
f 14//14 5//5 9//9
f 18//18 14//14 9//9
f 9//9 10//10 18//18
f 18//18 10//10 20//20
f 26//26 24//24 2//2
f 2//2 5//5 10//10
f 10//10 26//26 2//2
f 16//16 5//5 24//24
f 24//24 5//5 2//2
f 10//10 16//16 26//26
f 24//24 26//26 16//16