####
#
# OBJ File Generated by Meshlab
#
####
# Object cone.obj
#
# Vertices: 34
# Faces: 64
#
####
vn -1.923980 -1.923966 -1.584696
v -0.353554 -0.353554 0.000039
vn -1.511656 -2.262344 -1.584685
v -0.277786 -0.415736 0.000039
vn -1.041243 -2.513792 -1.584693
v -0.191342 -0.461941 0.000039
vn -0.530818 -2.668624 -1.584689
v -0.097545 -0.490394 0.000039
vn 0.000000 -2.720910 -1.584697
v 0.000000 -0.500001 0.000039
vn 0.530818 -2.668624 -1.584689
v 0.097545 -0.490394 0.000039
vn 1.041243 -2.513792 -1.584693
v 0.191342 -0.461941 0.000039
vn 1.511656 -2.262344 -1.584685
v 0.277786 -0.415736 0.000039
vn 1.923976 -1.923976 -1.584702
v 0.353554 -0.353554 0.000039
vn 2.262344 -1.511656 -1.584685
v 0.415736 -0.277786 0.000039
vn 2.513792 -1.041243 -1.584693
v 0.461941 -0.191342 0.000039
vn 2.668624 -0.530818 -1.584689
v 0.490394 -0.097545 0.000039
vn 2.720910 -0.000001 -1.584698
v 0.500001 0.000000 0.000039
vn 2.668621 0.530820 -1.584686
v 0.490394 0.097546 0.000039
vn 2.513791 1.041247 -1.584695
v 0.461941 0.191342 0.000039
vn 2.262344 1.511656 -1.584685
v 0.415736 0.277786 0.000039
vn 1.923967 1.923979 -1.584697
v 0.353554 0.353554 0.000039
vn 1.511657 2.262351 -1.584694
v 0.277785 0.415736 0.000039
vn 1.041248 2.513787 -1.584690
v 0.191342 0.461941 0.000039
vn 0.530818 2.668624 -1.584689
v 0.097545 0.490394 0.000039
vn 0.000001 2.720910 -1.584698
v 0.000000 0.500001 0.000039
vn -0.530828 2.668616 -1.584680
v -0.097546 0.490394 0.000039
vn -1.041262 2.513787 -1.584698
v -0.191343 0.461940 0.000039
vn -1.511651 2.262360 -1.584701
v -0.277786 0.415735 0.000039
vn -1.923965 1.923965 -1.584679
v -0.353555 0.353554 0.000039
vn -2.262361 1.511644 -1.584696
v -0.415736 0.277785 0.000039
vn -2.513792 1.041247 -1.584696
v -0.461941 0.191341 0.000039
vn -2.668621 0.530820 -1.584686
v -0.490394 0.097545 0.000039
vn -2.720910 -0.000001 -1.584698
v -0.500001 -0.000001 0.000039
vn -2.668616 -0.530829 -1.584681
v -0.490394 -0.097546 0.000039
vn -2.513787 -1.041262 -1.584698
v -0.461940 -0.191343 0.000039
vn -2.262352 -1.511656 -1.584696
v -0.415735 -0.277786 0.000039
vn -0.000007 0.000002 1.250322
v 0.000000 0.000000 0.999969
vn 0.000000 0.000000 -6.283174
v 0.000000 0.000000 0.000039
# 34 vertices, 0 vertices normals

f 1//1 2//2 33//33
f 3//3 33//33 2//2
f 4//4 33//33 3//3
f 5//5 33//33 4//4
f 6//6 33//33 5//5
f 7//7 33//33 6//6
f 8//8 33//33 7//7
f 9//9 33//33 8//8
f 10//10 33//33 9//9
f 11//11 33//33 10//10
f 12//12 33//33 11//11
f 13//13 33//33 12//12
f 14//14 33//33 13//13
f 15//15 33//33 14//14
f 16//16 33//33 15//15
f 17//17 33//33 16//16
f 18//18 33//33 17//17
f 19//19 33//33 18//18
f 20//20 33//33 19//19
f 21//21 33//33 20//20
f 22//22 33//33 21//21
f 23//23 33//33 22//22
f 24//24 33//33 23//23
f 25//25 33//33 24//24
f 26//26 33//33 25//25
f 27//27 33//33 26//26
f 28//28 33//33 27//27
f 29//29 33//33 28//28
f 30//30 33//33 29//29
f 31//31 33//33 30//30
f 32//32 33//33 31//31
f 1//1 33//33 32//32
f 1//1 34//34 2//2
f 2//2 34//34 3//3
f 3//3 34//34 4//4
f 4//4 34//34 5//5
f 5//5 34//34 6//6
f 6//6 34//34 7//7
f 7//7 34//34 8//8
f 8//8 34//34 9//9
f 9//9 34//34 10//10
f 10//10 34//34 11//11
f 11//11 34//34 12//12
f 12//12 34//34 13//13
f 13//13 34//34 14//14
f 14//14 34//34 15//15
f 15//15 34//34 16//16
f 16//16 34//34 17//17
f 17//17 34//34 18//18
f 18//18 34//34 19//19
f 19//19 34//34 20//20
f 20//20 34//34 21//21
f 21//21 34//34 22//22
f 22//22 34//34 23//23
f 23//23 34//34 24//24
f 24//24 34//34 25//25
f 25//25 34//34 26//26
f 26//26 34//34 27//27
f 27//27 34//34 28//28
f 28//28 34//34 29//29
f 29//29 34//34 30//30
f 30//30 34//34 31//31
f 31//31 34//34 32//32
f 1//1 32//32 34//34
# 64 faces, 0 coords texture

# End of File
