####
#
# OBJ File Generated by Meshlab
#
####
# Object cube.obj
#
# Vertices: 32
# Faces: 60
#
####
vn 1.570800 -1.570788 1.570848
v 0.500000 -0.500000 0.999968
vn 1.570799 -1.570787 -1.570796
v 0.500000 -0.500000 -0.000032
vn -1.570782 -1.570787 -1.570796
v -0.500000 -0.500000 -0.000032
vn -1.570780 -1.570787 1.570848
v -0.500000 -0.500000 0.999969
vn 1.570799 1.570831 1.570848
v 0.500000 0.500000 0.999968
vn -1.570781 1.570758 1.570848
v -0.500000 0.500000 0.999968
vn -1.570782 1.570832 -1.570796
v -0.500000 0.500000 -0.000031
vn 1.570798 1.570831 -1.570796
v 0.500000 0.500000 -0.000032
vn 0.000003 0.000003 6.283237
v 0.499361 -0.499361 0.999968
vn 0.000002 0.000002 6.283237
v -0.499361 -0.499361 0.999969
vn 0.000000 0.000000 6.283237
v 0.499362 0.499361 0.999968
vn 0.000003 0.000003 6.283236
v -0.499361 0.499361 0.999968
vn 0.000000 6.283220 0.000000
v 0.499190 0.500000 0.999158
vn 0.000000 6.283221 0.000000
v -0.499190 0.500000 0.999158
vn 0.000000 6.283146 0.000000
v -0.499190 0.500000 0.000779
vn 0.000000 6.283220 0.000000
v 0.499190 0.500000 0.000778
vn -6.283170 0.000000 0.000000
v -0.500000 -0.499387 0.000581
vn -6.283171 0.000000 0.000000
v -0.500000 -0.499387 0.999356
vn -6.283170 0.000000 0.000000
v -0.500000 0.499387 0.999356
vn -6.283170 0.000000 0.000000
v -0.500000 0.499387 0.000581
vn 6.283187 0.000000 0.000000
v 0.500000 -0.498912 0.998881
vn 6.283188 0.000000 0.000000
v 0.500000 -0.498912 0.001056
vn 6.283189 0.000000 0.000000
v 0.500000 0.498912 0.998880
vn 6.283187 0.000000 0.000000
v 0.500000 0.498912 0.001056
vn 0.000000 0.000000 -6.283185
v 0.499228 -0.499228 -0.000032
vn -0.000003 0.000003 -6.283185
v -0.499228 -0.499228 -0.000032
vn -0.000002 0.000002 -6.283185
v -0.499228 0.499228 -0.000031
vn -0.000003 0.000003 -6.283185
v 0.499228 0.499228 -0.000032
vn 0.000000 -6.283175 0.000000
v 0.499220 -0.500000 0.999188
vn 0.000000 -6.283177 0.000000
v 0.499220 -0.500000 0.000749
vn 0.000000 -6.283175 0.000000
v -0.499220 -0.500000 0.000749
vn 0.000000 -6.283177 0.000000
v -0.499220 -0.500000 0.999188
# 32 vertices, 0 vertices normals

f 4//4 1//1 10//10
f 10//10 1//1 9//9
f 5//5 6//6 11//11
f 11//11 6//6 12//12
f 1//1 5//5 9//9
f 9//9 5//5 11//11
f 6//6 4//4 12//12
f 12//12 4//4 10//10
f 10//10 9//9 12//12
f 12//12 9//9 11//11
f 6//6 5//5 14//14
f 14//14 5//5 13//13
f 7//7 6//6 15//15
f 15//15 6//6 14//14
f 8//8 7//7 16//16
f 16//16 7//7 15//15
f 5//5 8//8 13//13
f 13//13 8//8 16//16
f 14//14 13//13 15//15
f 15//15 13//13 16//16
f 3//3 4//4 17//17
f 17//17 4//4 18//18
f 6//6 7//7 19//19
f 19//19 7//7 20//20
f 7//7 3//3 20//20
f 20//20 3//3 17//17
f 4//4 6//6 18//18
f 18//18 6//6 19//19
f 20//20 17//17 19//19
f 19//19 17//17 18//18
f 1//1 2//2 21//21
f 21//21 2//2 22//22
f 8//8 5//5 24//24
f 24//24 5//5 23//23
f 5//5 1//1 23//23
f 23//23 1//1 21//21
f 2//2 8//8 22//22
f 22//22 8//8 24//24
f 23//23 21//21 24//24
f 24//24 21//21 22//22
f 2//2 3//3 25//25
f 25//25 3//3 26//26
f 7//7 8//8 27//27
f 27//27 8//8 28//28
f 8//8 2//2 28//28
f 28//28 2//2 25//25
f 3//3 7//7 26//26
f 26//26 7//7 27//27
f 25//25 26//26 28//28
f 28//28 26//26 27//27
f 2//2 1//1 30//30
f 30//30 1//1 29//29
f 3//3 2//2 31//31
f 31//31 2//2 30//30
f 4//4 3//3 32//32
f 32//32 3//3 31//31
f 1//1 4//4 29//29
f 29//29 4//4 32//32
f 30//30 29//29 31//31
f 31//31 29//29 32//32
# 60 faces, 0 coords texture

# End of File
