####
#
# OBJ File Generated by Meshlab
#
####
# Object cylinder.obj
#
# Vertices: 66
# Faces: 128
#
####
vn 2.210744 -2.210744 2.945246
v 0.312500 -0.312500 0.999967
vn 1.736974 -2.599558 2.945243
v 0.245530 -0.367461 0.999967
vn 1.196449 -2.888476 2.945240
v 0.169124 -0.408301 0.999967
vn 0.609947 -3.066390 2.945243
v 0.086219 -0.433450 0.999967
vn 0.000000 -3.126465 2.945239
v 0.000000 -0.441942 0.999967
vn -0.609947 -3.066390 2.945244
v -0.086219 -0.433450 0.999967
vn -1.196450 -2.888476 2.945242
v -0.169124 -0.408301 0.999967
vn -1.736974 -2.599558 2.945243
v -0.245530 -0.367461 0.999967
vn -2.210744 -2.210744 2.945246
v -0.312500 -0.312500 0.999967
vn -2.599558 -1.736974 2.945243
v -0.367461 -0.245530 0.999967
vn -2.888476 -1.196444 2.945239
v -0.408301 -0.169124 0.999967
vn -3.066391 -0.609943 2.945249
v -0.433450 -0.086218 0.999967
vn -3.126464 -0.000002 2.945238
v -0.441942 0.000000 0.999967
vn -3.066390 0.609947 2.945244
v -0.433450 0.086219 0.999967
vn -2.888476 1.196449 2.945242
v -0.408301 0.169124 0.999967
vn -2.599557 1.736974 2.945244
v -0.367461 0.245530 0.999967
vn -2.210736 2.210752 2.945239
v -0.312500 0.312500 0.999967
vn -1.736965 2.599566 2.945251
v -0.245529 0.367461 0.999967
vn -1.196450 2.888475 2.945243
v -0.169123 0.408301 0.999967
vn -0.609949 3.066390 2.945247
v -0.086218 0.433450 0.999967
vn -0.000001 3.126465 2.945238
v 0.000000 0.441942 0.999967
vn 0.609946 3.066391 2.945244
v 0.086219 0.433450 0.999967
vn 1.196449 2.888476 2.945244
v 0.169124 0.408301 0.999967
vn 1.736975 2.599558 2.945245
v 0.245530 0.367461 0.999967
vn 2.210752 2.210737 2.945240
v 0.312500 0.312500 0.999967
vn 2.599567 1.736965 2.945253
v 0.367461 0.245529 0.999967
vn 2.888476 1.196449 2.945243
v 0.408301 0.169123 0.999967
vn 3.066390 0.609948 2.945245
v 0.433450 0.086218 0.999967
vn 3.126464 -0.000002 2.945240
v 0.441942 -0.000001 0.999967
vn 3.066391 -0.609945 2.945249
v 0.433450 -0.086219 0.999967
vn 2.888474 -1.196452 2.945233
v 0.408301 -0.169125 0.999967
vn 2.599553 -1.736982 2.945249
v 0.367461 -0.245530 0.999967
vn 2.210747 -2.210742 -2.945243
v 0.312499 -0.312501 -0.000033
vn 1.736959 -2.599566 -2.945232
v 0.245529 -0.367462 -0.000033
vn 1.196430 -2.888484 -2.945249
v 0.169123 -0.408301 -0.000033
vn 0.609944 -3.066391 -2.945250
v 0.086217 -0.433450 -0.000033
vn -0.000000 -3.126464 -2.945237
v -0.000001 -0.441942 -0.000033
vn -0.609949 -3.066390 -2.945245
v -0.086219 -0.433450 -0.000033
vn -1.196449 -2.888475 -2.945242
v -0.169124 -0.408301 -0.000033
vn -1.736974 -2.599558 -2.945243
v -0.245530 -0.367461 -0.000033
vn -2.210744 -2.210744 -2.945246
v -0.312500 -0.312500 -0.000033
vn -2.599558 -1.736974 -2.945243
v -0.367461 -0.245530 -0.000033
vn -2.888476 -1.196450 -2.945242
v -0.408301 -0.169124 -0.000033
vn -3.066389 -0.609946 -2.945244
v -0.433450 -0.086219 -0.000033
vn -3.126464 0.000002 -2.945238
v -0.441942 0.000000 -0.000033
vn -3.066389 0.609948 -2.945246
v -0.433450 0.086218 -0.000033
vn -2.888483 1.196435 -2.945254
v -0.408301 0.169123 -0.000033
vn -2.599566 1.736961 -2.945233
v -0.367462 0.245529 -0.000033
vn -2.210745 2.210744 -2.945246
v -0.312501 0.312499 -0.000033
vn -1.736974 2.599558 -2.945243
v -0.245531 0.367460 -0.000033
vn -1.196466 2.888470 -2.945253
v -0.169125 0.408300 -0.000033
vn -0.609964 3.066385 -2.945235
v -0.086220 0.433450 -0.000033
vn -0.000002 3.126464 -2.945238
v -0.000002 0.441942 -0.000033
vn 0.609930 3.066396 -2.945257
v 0.086217 0.433450 -0.000033
vn 1.196419 2.888488 -2.945242
v 0.169122 0.408302 -0.000033
vn 1.736961 2.599566 -2.945233
v 0.245528 0.367463 -0.000033
vn 2.210735 2.210756 -2.945255
v 0.312498 0.312502 -0.000033
vn 2.599549 1.736984 -2.945233
v 0.367460 0.245532 -0.000033
vn 2.888476 1.196450 -2.945241
v 0.408300 0.169126 -0.000033
vn 3.066389 0.609967 -2.945259
v 0.433449 0.086221 -0.000033
vn 3.126465 0.000036 -2.945238
v 0.441942 0.000003 -0.000033
vn 3.066392 -0.609931 -2.945235
v 0.433451 -0.086215 -0.000033
vn 2.888488 -1.196426 -2.945260
v 0.408302 -0.169120 -0.000033
vn 2.599573 -1.736951 -2.945233
v 0.367463 -0.245527 -0.000033
vn 0.000000 0.000000 6.283187
v 0.000000 0.000000 0.999967
vn 0.000000 0.000000 -6.283184
v 0.000000 0.000000 -0.000033
# 66 vertices, 0 vertices normals

f 33//33 1//1 34//34
f 34//34 1//1 2//2
f 34//34 2//2 35//35
f 35//35 2//2 3//3
f 35//35 3//3 36//36
f 36//36 3//3 4//4
f 36//36 4//4 37//37
f 37//37 4//4 5//5
f 37//37 5//5 38//38
f 38//38 5//5 6//6
f 38//38 6//6 39//39
f 39//39 6//6 7//7
f 39//39 7//7 40//40
f 40//40 7//7 8//8
f 40//40 8//8 41//41
f 41//41 8//8 9//9
f 41//41 9//9 42//42
f 42//42 9//9 10//10
f 42//42 10//10 43//43
f 43//43 10//10 11//11
f 43//43 11//11 44//44
f 44//44 11//11 12//12
f 44//44 12//12 45//45
f 45//45 12//12 13//13
f 45//45 13//13 46//46
f 46//46 13//13 14//14
f 46//46 14//14 47//47
f 47//47 14//14 15//15
f 47//47 15//15 48//48
f 48//48 15//15 16//16
f 48//48 16//16 49//49
f 49//49 16//16 17//17
f 49//49 17//17 50//50
f 50//50 17//17 18//18
f 50//50 18//18 51//51
f 51//51 18//18 19//19
f 51//51 19//19 52//52
f 52//52 19//19 20//20
f 52//52 20//20 53//53
f 53//53 20//20 21//21
f 53//53 21//21 54//54
f 54//54 21//21 22//22
f 54//54 22//22 55//55
f 55//55 22//22 23//23
f 55//55 23//23 56//56
f 56//56 23//23 24//24
f 56//56 24//24 57//57
f 57//57 24//24 25//25
f 57//57 25//25 58//58
f 58//58 25//25 26//26
f 58//58 26//26 59//59
f 59//59 26//26 27//27
f 59//59 27//27 60//60
f 60//60 27//27 28//28
f 60//60 28//28 61//61
f 61//61 28//28 29//29
f 61//61 29//29 62//62
f 62//62 29//29 30//30
f 62//62 30//30 63//63
f 63//63 30//30 31//31
f 63//63 31//31 64//64
f 64//64 31//31 32//32
f 1//1 33//33 32//32
f 32//32 33//33 64//64
f 1//1 65//65 2//2
f 34//34 66//66 33//33
f 2//2 65//65 3//3
f 35//35 66//66 34//34
f 3//3 65//65 4//4
f 36//36 66//66 35//35
f 4//4 65//65 5//5
f 37//37 66//66 36//36
f 5//5 65//65 6//6
f 38//38 66//66 37//37
f 6//6 65//65 7//7
f 39//39 66//66 38//38
f 7//7 65//65 8//8
f 40//40 66//66 39//39
f 8//8 65//65 9//9
f 41//41 66//66 40//40
f 9//9 65//65 10//10
f 42//42 66//66 41//41
f 10//10 65//65 11//11
f 43//43 66//66 42//42
f 11//11 65//65 12//12
f 44//44 66//66 43//43
f 12//12 65//65 13//13
f 45//45 66//66 44//44
f 13//13 65//65 14//14
f 46//46 66//66 45//45
f 14//14 65//65 15//15
f 47//47 66//66 46//46
f 15//15 65//65 16//16
f 48//48 66//66 47//47
f 16//16 65//65 17//17
f 49//49 66//66 48//48
f 17//17 65//65 18//18
f 50//50 66//66 49//49
f 18//18 65//65 19//19
f 51//51 66//66 50//50
f 19//19 65//65 20//20
f 52//52 66//66 51//51
f 20//20 65//65 21//21
f 53//53 66//66 52//52
f 21//21 65//65 22//22
f 54//54 66//66 53//53
f 22//22 65//65 23//23
f 55//55 66//66 54//54
f 23//23 65//65 24//24
f 56//56 66//66 55//55
f 24//24 65//65 25//25
f 57//57 66//66 56//56
f 25//25 65//65 26//26
f 58//58 66//66 57//57
f 26//26 65//65 27//27
f 59//59 66//66 58//58
f 27//27 65//65 28//28
f 60//60 66//66 59//59
f 28//28 65//65 29//29
f 61//61 66//66 60//60
f 29//29 65//65 30//30
f 62//62 66//66 61//61
f 30//30 65//65 31//31
f 63//63 66//66 62//62
f 31//31 65//65 32//32
f 64//64 66//66 63//63
f 1//1 32//32 65//65
f 33//33 66//66 64//64
# 128 faces, 0 coords texture

# End of File
