####
#
# OBJ File Generated by Meshlab
#
####
# Object cone.obj
#
# Vertices: 34
# Faces: 64
#
####
vn -0.639427 -0.556048 -0.639427
v -0.353554 0.000039 -0.353554
vn -0.502399 -0.556054 -0.751880
v -0.277786 0.000039 -0.415736
vn -0.346067 -0.556056 -0.835442
v -0.191342 0.000039 -0.461941
vn -0.176408 -0.556052 -0.886910
v -0.097545 0.000039 -0.490394
vn -0.000000 -0.556060 -0.904280
v 0.000000 0.000039 -0.500001
vn 0.176408 -0.556052 -0.886910
v 0.097545 0.000039 -0.490394
vn 0.346067 -0.556056 -0.835442
v 0.191342 0.000039 -0.461941
vn 0.502399 -0.556054 -0.751880
v 0.277786 0.000039 -0.415736
vn 0.639427 -0.556048 -0.639427
v 0.353554 0.000039 -0.353554
vn 0.751880 -0.556054 -0.502399
v 0.415736 0.000039 -0.277786
vn 0.835442 -0.556056 -0.346067
v 0.461941 0.000039 -0.191342
vn 0.886910 -0.556052 -0.176408
v 0.490394 0.000039 -0.097545
vn 0.904280 -0.556060 0.000000
v 0.500001 0.000039 0.000000
vn 0.886910 -0.556052 0.176408
v 0.490394 0.000039 0.097546
vn 0.835442 -0.556056 0.346067
v 0.461941 0.000039 0.191342
vn 0.751880 -0.556054 0.502399
v 0.415736 0.000039 0.277786
vn 0.639427 -0.556048 0.639427
v 0.353554 0.000039 0.353554
vn 0.502399 -0.556054 0.751880
v 0.277785 0.000039 0.415736
vn 0.346041 -0.556061 0.835451
v 0.191342 0.000039 0.461941
vn 0.176408 -0.556052 0.886910
v 0.097545 0.000039 0.490394
vn 0.000000 -0.556060 0.904280
v 0.000000 0.000039 0.500001
vn -0.176408 -0.556052 0.886910
v -0.097546 0.000039 0.490394
vn -0.346067 -0.556056 0.835442
v -0.191343 0.000039 0.461940
vn -0.502399 -0.556054 0.751880
v -0.277786 0.000039 0.415735
vn -0.639427 -0.556048 0.639427
v -0.353555 0.000039 0.353554
vn -0.751880 -0.556054 0.502399
v -0.415736 0.000039 0.277785
vn -0.835451 -0.556061 0.346041
v -0.461941 0.000039 0.191341
vn -0.886910 -0.556052 0.176408
v -0.490394 0.000039 0.097545
vn -0.904280 -0.556060 -0.000000
v -0.500001 0.000039 -0.000001
vn -0.886910 -0.556052 -0.176408
v -0.490394 0.000039 -0.097546
vn -0.835442 -0.556056 -0.346067
v -0.461940 0.000039 -0.191343
vn -0.751880 -0.556054 -0.502399
v -0.415735 0.000039 -0.277786
vn 0.000000 1.145056 0.000000
v 0.000000 0.999969 0.000000
vn 0.000000 -1.145056 0.000000
v 0.000000 0.000039 0.000000
# 34 vertices, 0 vertices normals

f 2//2 1//1 33//33
f 33//33 3//3 2//2
f 33//33 4//4 3//3
f 33//33 5//5 4//4
f 33//33 6//6 5//5
f 33//33 7//7 6//6
f 33//33 8//8 7//7
f 33//33 9//9 8//8
f 33//33 10//10 9//9
f 33//33 11//11 10//10
f 33//33 12//12 11//11
f 33//33 13//13 12//12
f 33//33 14//14 13//13
f 33//33 15//15 14//14
f 33//33 16//16 15//15
f 33//33 17//17 16//16
f 33//33 18//18 17//17
f 33//33 19//19 18//18
f 33//33 20//20 19//19
f 33//33 21//21 20//20
f 33//33 22//22 21//21
f 33//33 23//23 22//22
f 33//33 24//24 23//23
f 33//33 25//25 24//24
f 33//33 26//26 25//25
f 33//33 27//27 26//26
f 33//33 28//28 27//27
f 33//33 29//29 28//28
f 33//33 30//30 29//29
f 33//33 31//31 30//30
f 33//33 32//32 31//31
f 33//33 1//1 32//32
f 34//34 1//1 2//2
f 34//34 2//2 3//3
f 34//34 3//3 4//4
f 34//34 4//4 5//5
f 34//34 5//5 6//6
f 34//34 6//6 7//7
f 34//34 7//7 8//8
f 34//34 8//8 9//9
f 34//34 9//9 10//10
f 34//34 10//10 11//11
f 34//34 11//11 12//12
f 34//34 12//12 13//13
f 34//34 13//13 14//14
f 34//34 14//14 15//15
f 34//34 15//15 16//16
f 34//34 16//16 17//17
f 34//34 17//17 18//18
f 34//34 18//18 19//19
f 34//34 19//19 20//20
f 34//34 20//20 21//21
f 34//34 21//21 22//22
f 34//34 22//22 23//23
f 34//34 23//23 24//24
f 34//34 24//24 25//25
f 34//34 25//25 26//26
f 34//34 26//26 27//27
f 34//34 27//27 28//28
f 34//34 28//28 29//29
f 34//34 29//29 30//30
f 34//34 30//30 31//31
f 34//34 31//31 32//32
f 32//32 1//1 34//34
# 64 faces, 0 coords texture

# End of File
