####
#
# OBJ File Generated by Meshlab
#
####
# Object cylinder.obj
#
# Vertices: 66
# Faces: 128
#
####
vn 0.589269 0.506740 -0.629267
v 0.312500 0.999967 -0.312500
vn 0.455177 0.506740 -0.732140
v 0.245530 0.999967 -0.367461
vn 0.303595 0.506737 -0.806876
v 0.169124 0.999967 -0.408301
vn 0.140360 0.506744 -0.850594
v 0.086219 0.999967 -0.433450
vn -0.028293 0.506735 -0.861638
v 0.000000 0.999967 -0.441942
vn -0.195841 0.506744 -0.839558
v -0.086219 0.999967 -0.433450
vn -0.355873 0.506738 -0.785220
v -0.169124 0.999967 -0.408301
vn -0.502221 0.506737 -0.700708
v -0.245530 0.999967 -0.367461
vn -0.629267 0.506740 -0.589269
v -0.312500 0.999967 -0.312500
vn -0.732140 0.506740 -0.455177
v -0.367461 0.999967 -0.245530
vn -0.806876 0.506737 -0.303595
v -0.408301 0.999967 -0.169124
vn -0.850594 0.506744 -0.140360
v -0.433450 0.999967 -0.086218
vn -0.861638 0.506735 0.028293
v -0.441942 0.999967 0.000000
vn -0.839558 0.506744 0.195841
v -0.433450 0.999967 0.086219
vn -0.785220 0.506738 0.355873
v -0.408301 0.999967 0.169124
vn -0.700708 0.506737 0.502221
v -0.367461 0.999967 0.245530
vn -0.589269 0.506740 0.629267
v -0.312500 0.999967 0.312500
vn -0.455177 0.506740 0.732140
v -0.245529 0.999967 0.367461
vn -0.303595 0.506737 0.806876
v -0.169123 0.999967 0.408301
vn -0.140360 0.506744 0.850594
v -0.086218 0.999967 0.433450
vn 0.028293 0.506735 0.861638
v 0.000000 0.999967 0.441942
vn 0.195841 0.506744 0.839558
v 0.086219 0.999967 0.433450
vn 0.355873 0.506738 0.785220
v 0.169124 0.999967 0.408301
vn 0.502221 0.506737 0.700708
v 0.245530 0.999967 0.367461
vn 0.629267 0.506740 0.589269
v 0.312500 0.999967 0.312500
vn 0.732140 0.506740 0.455177
v 0.367461 0.999967 0.245529
vn 0.806876 0.506737 0.303595
v 0.408301 0.999967 0.169123
vn 0.850594 0.506744 0.140360
v 0.433450 0.999967 0.086218
vn 0.861638 0.506735 -0.028293
v 0.441942 0.999967 -0.000001
vn 0.839558 0.506744 -0.195841
v 0.433450 0.999967 -0.086219
vn 0.785220 0.506738 -0.355873
v 0.408301 0.999967 -0.169125
vn 0.700708 0.506737 -0.502221
v 0.367461 0.999967 -0.245530
vn 0.629267 -0.506740 -0.589269
v 0.312499 -0.000033 -0.312501
vn 0.502221 -0.506737 -0.700708
v 0.245529 -0.000033 -0.367462
vn 0.355873 -0.506738 -0.785220
v 0.169123 -0.000033 -0.408301
vn 0.195841 -0.506744 -0.839558
v 0.086217 -0.000033 -0.433450
vn 0.028293 -0.506735 -0.861638
v -0.000001 -0.000033 -0.441942
vn -0.140360 -0.506744 -0.850594
v -0.086219 -0.000033 -0.433450
vn -0.303595 -0.506737 -0.806876
v -0.169124 -0.000033 -0.408301
vn -0.455177 -0.506740 -0.732140
v -0.245530 -0.000033 -0.367461
vn -0.589269 -0.506740 -0.629267
v -0.312500 -0.000033 -0.312500
vn -0.700708 -0.506737 -0.502221
v -0.367461 -0.000033 -0.245530
vn -0.785220 -0.506738 -0.355873
v -0.408301 -0.000033 -0.169124
vn -0.839558 -0.506744 -0.195841
v -0.433450 -0.000033 -0.086219
vn -0.861638 -0.506735 -0.028293
v -0.441942 -0.000033 0.000000
vn -0.850594 -0.506744 0.140360
v -0.433450 -0.000033 0.086218
vn -0.806876 -0.506737 0.303595
v -0.408301 -0.000033 0.169123
vn -0.732140 -0.506740 0.455177
v -0.367462 -0.000033 0.245529
vn -0.629267 -0.506740 0.589269
v -0.312501 -0.000033 0.312499
vn -0.502221 -0.506737 0.700708
v -0.245531 -0.000033 0.367460
vn -0.355873 -0.506738 0.785220
v -0.169125 -0.000033 0.408300
vn -0.195841 -0.506744 0.839558
v -0.086220 -0.000033 0.433450
vn -0.028293 -0.506735 0.861638
v -0.000002 -0.000033 0.441942
vn 0.140357 -0.506734 0.850600
v 0.086217 -0.000033 0.433450
vn 0.303595 -0.506737 0.806876
v 0.169122 -0.000033 0.408302
vn 0.455177 -0.506740 0.732140
v 0.245528 -0.000033 0.367463
vn 0.589269 -0.506740 0.629267
v 0.312498 -0.000033 0.312502
vn 0.700708 -0.506737 0.502221
v 0.367460 -0.000033 0.245532
vn 0.785220 -0.506738 0.355873
v 0.408300 -0.000033 0.169126
vn 0.839558 -0.506744 0.195841
v 0.433449 -0.000033 0.086221
vn 0.861638 -0.506735 0.028293
v 0.441942 -0.000033 0.000003
vn 0.850600 -0.506734 -0.140357
v 0.433451 -0.000033 -0.086215
vn 0.806876 -0.506737 -0.303595
v 0.408302 -0.000033 -0.169120
vn 0.732140 -0.506740 -0.455177
v 0.367463 -0.000033 -0.245527
vn 0.000000 1.000000 0.000000
v 0.000000 0.999967 0.000000
vn 0.000000 -1.000000 0.000000
v 0.000000 -0.000033 0.000000
# 66 vertices, 0 vertices normals

f 1//1 33//33 34//34
f 1//1 34//34 2//2
f 2//2 34//34 35//35
f 2//2 35//35 3//3
f 3//3 35//35 36//36
f 3//3 36//36 4//4
f 4//4 36//36 37//37
f 4//4 37//37 5//5
f 5//5 37//37 38//38
f 5//5 38//38 6//6
f 6//6 38//38 39//39
f 6//6 39//39 7//7
f 7//7 39//39 40//40
f 7//7 40//40 8//8
f 8//8 40//40 41//41
f 8//8 41//41 9//9
f 9//9 41//41 42//42
f 9//9 42//42 10//10
f 10//10 42//42 43//43
f 10//10 43//43 11//11
f 11//11 43//43 44//44
f 11//11 44//44 12//12
f 12//12 44//44 45//45
f 12//12 45//45 13//13
f 13//13 45//45 46//46
f 13//13 46//46 14//14
f 14//14 46//46 47//47
f 14//14 47//47 15//15
f 15//15 47//47 48//48
f 15//15 48//48 16//16
f 16//16 48//48 49//49
f 16//16 49//49 17//17
f 17//17 49//49 50//50
f 17//17 50//50 18//18
f 18//18 50//50 51//51
f 18//18 51//51 19//19
f 19//19 51//51 52//52
f 19//19 52//52 20//20
f 20//20 52//52 53//53
f 20//20 53//53 21//21
f 21//21 53//53 54//54
f 21//21 54//54 22//22
f 22//22 54//54 55//55
f 22//22 55//55 23//23
f 23//23 55//55 56//56
f 23//23 56//56 24//24
f 24//24 56//56 57//57
f 24//24 57//57 25//25
f 25//25 57//57 58//58
f 25//25 58//58 26//26
f 26//26 58//58 59//59
f 26//26 59//59 27//27
f 27//27 59//59 60//60
f 27//27 60//60 28//28
f 28//28 60//60 61//61
f 28//28 61//61 29//29
f 29//29 61//61 62//62
f 29//29 62//62 30//30
f 30//30 62//62 63//63
f 30//30 63//63 31//31
f 31//31 63//63 64//64
f 31//31 64//64 32//32
f 33//33 1//1 32//32
f 33//33 32//32 64//64
f 65//65 1//1 2//2
f 66//66 34//34 33//33
f 65//65 2//2 3//3
f 66//66 35//35 34//34
f 65//65 3//3 4//4
f 66//66 36//36 35//35
f 65//65 4//4 5//5
f 66//66 37//37 36//36
f 65//65 5//5 6//6
f 66//66 38//38 37//37
f 65//65 6//6 7//7
f 66//66 39//39 38//38
f 65//65 7//7 8//8
f 66//66 40//40 39//39
f 65//65 8//8 9//9
f 66//66 41//41 40//40
f 65//65 9//9 10//10
f 66//66 42//42 41//41
f 65//65 10//10 11//11
f 66//66 43//43 42//42
f 65//65 11//11 12//12
f 66//66 44//44 43//43
f 65//65 12//12 13//13
f 66//66 45//45 44//44
f 65//65 13//13 14//14
f 66//66 46//46 45//45
f 65//65 14//14 15//15
f 66//66 47//47 46//46
f 65//65 15//15 16//16
f 66//66 48//48 47//47
f 65//65 16//16 17//17
f 66//66 49//49 48//48
f 65//65 17//17 18//18
f 66//66 50//50 49//49
f 65//65 18//18 19//19
f 66//66 51//51 50//50
f 65//65 19//19 20//20
f 66//66 52//52 51//51
f 65//65 20//20 21//21
f 66//66 53//53 52//52
f 65//65 21//21 22//22
f 66//66 54//54 53//53
f 65//65 22//22 23//23
f 66//66 55//55 54//54
f 65//65 23//23 24//24
f 66//66 56//56 55//55
f 65//65 24//24 25//25
f 66//66 57//57 56//56
f 65//65 25//25 26//26
f 66//66 58//58 57//57
f 65//65 26//26 27//27
f 66//66 59//59 58//58
f 65//65 27//27 28//28
f 66//66 60//60 59//59
f 65//65 28//28 29//29
f 66//66 61//61 60//60
f 65//65 29//29 30//30
f 66//66 62//62 61//61
f 65//65 30//30 31//31
f 66//66 63//63 62//62
f 65//65 31//31 32//32
f 66//66 64//64 63//63
f 32//32 1//1 65//65
f 66//66 33//33 64//64
# 128 faces, 0 coords texture

# End of File
