####
#
# OBJ File Generated by Meshlab
#
####
# Object diamond.obj
#
# Vertices: 30
# Faces: 56
#
####
vn 0.707149 0.000000 0.707065
v 0.344488 0.500000 0.344488
vn -0.706995 0.000056 0.707218
v -0.344488 0.500000 0.344488
vn -0.042427 0.556485 0.829774
v -0.343834 0.500388 0.344270
vn 0.042370 0.556371 0.829853
v 0.343833 0.500388 0.344270
vn -0.000112 1.000000 0.000140
v 0.000039 0.999997 -0.000018
vn -0.000140 0.503788 0.863828
v 0.000039 0.999364 0.000338
vn -0.707121 0.000112 -0.707093
v -0.344488 0.500000 -0.344488
vn -0.829737 0.556563 -0.042119
v -0.344377 0.500197 -0.344156
vn -0.829795 0.556481 0.042063
v -0.344377 0.500197 0.344156
vn -0.863922 0.503626 -0.000056
v -0.000142 0.999675 -0.000018
vn 0.707107 0.000000 -0.707107
v 0.344488 0.500000 -0.344488
vn 0.042510 0.556599 -0.829693
v 0.343079 0.500834 -0.344019
vn -0.042315 0.556372 -0.829855
v -0.343079 0.500834 -0.344019
vn 0.000307 0.503788 -0.863827
v 0.000039 0.998634 -0.000786
vn 0.829636 0.556682 0.042538
v 0.343841 0.501150 0.342546
vn 0.829858 0.556374 -0.042231
v 0.343841 0.501150 -0.342546
vn 0.863840 0.503767 0.000447
v 0.001097 0.998118 -0.000018
vn 0.863827 -0.503788 0.000419
v 0.001097 0.001883 -0.000018
vn 0.829870 -0.556354 -0.042260
v 0.343841 0.498851 -0.342546
vn 0.829634 -0.556681 0.042594
v 0.343841 0.498851 0.342546
vn 0.000307 -0.503821 -0.863808
v 0.000039 0.001367 -0.000786
vn -0.042288 -0.556354 -0.829869
v -0.343079 0.499167 -0.344019
vn 0.042567 -0.556578 -0.829704
v 0.343079 0.499166 -0.344019
vn -0.863815 -0.503809 -0.000084
v -0.000142 0.000325 -0.000018
vn -0.829800 -0.556457 0.042287
v -0.344377 0.499804 0.344156
vn -0.829756 -0.556520 -0.042315
v -0.344377 0.499804 -0.344156
vn -0.000167 -0.503788 0.863828
v 0.000039 0.000637 0.000338
vn -0.000028 -1.000000 0.000056
v 0.000039 0.000004 -0.000018
vn 0.042370 -0.556371 0.829853
v 0.343833 0.499613 0.344270
vn -0.042510 -0.556483 0.829771
v -0.343834 0.499613 0.344270
# 30 vertices, 0 vertices normals

f 2//2 1//1 3//3
f 3//3 1//1 4//4
f 1//1 5//5 4//4
f 4//4 5//5 6//6
f 5//5 2//2 6//6
f 6//6 2//2 3//3
f 3//3 4//4 6//6
f 7//7 2//2 8//8
f 8//8 2//2 9//9
f 5//5 7//7 10//10
f 10//10 7//7 8//8
f 2//2 5//5 9//9
f 9//9 5//5 10//10
f 10//10 8//8 9//9
f 11//11 7//7 12//12
f 12//12 7//7 13//13
f 5//5 11//11 14//14
f 14//14 11//11 12//12
f 7//7 5//5 13//13
f 13//13 5//5 14//14
f 14//14 12//12 13//13
f 1//1 11//11 15//15
f 15//15 11//11 16//16
f 11//11 5//5 16//16
f 16//16 5//5 17//17
f 5//5 1//1 17//17
f 17//17 1//1 15//15
f 17//17 15//15 16//16
f 19//19 20//20 18//18
f 28//28 18//18 1//1
f 18//18 20//20 1//1
f 11//11 19//19 28//28
f 19//19 18//18 28//28
f 11//11 1//1 20//20
f 11//11 20//20 19//19
f 21//21 22//22 23//23
f 28//28 7//7 22//22
f 28//28 22//22 21//21
f 11//11 28//28 21//21
f 21//21 23//23 11//11
f 11//11 23//23 7//7
f 23//23 22//22 7//7
f 25//25 26//26 24//24
f 28//28 2//2 25//25
f 25//25 24//24 28//28
f 28//28 24//24 7//7
f 24//24 26//26 7//7
f 2//2 7//7 26//26
f 2//2 26//26 25//25
f 29//29 30//30 27//27
f 28//28 27//27 2//2
f 30//30 2//2 27//27
f 28//28 1//1 29//29
f 28//28 29//29 27//27
f 1//1 2//2 30//30
f 30//30 29//29 1//1
# 56 faces, 0 coords texture

# End of File
