# https://github.com/mikedh/trimesh
v 0.00000000 0.00000000 0.00001944
v 0.00000000 0.00000000 0.49836540
v 0.00000000 -0.13274632 0.00001944
v 0.00000000 0.13274632 0.00001944
v -0.05708747 -0.12264169 0.00001944
v 0.10548391 0.09386580 0.00001944
v 0.10548391 -0.09386580 0.00001944
v -0.02910315 0.13019574 0.00001944
v -0.14917682 -0.00000027 0.00001944
v -0.12403610 0.07374972 0.00001944
v 0.14631055 -0.02589743 0.00001944
v 0.14631055 0.02589769 0.00001944
v 0.08287830 -0.11037463 0.00001944
v -0.13782151 0.05079952 0.00001944
v -0.02910285 -0.13019574 0.00001944
v -0.12403581 -0.07374999 0.00001944
v 0.02910285 0.13019574 0.00001944
v 0.02910285 -0.13019574 0.00001944
v -0.10548421 0.09386580 0.00001944
v -0.05708777 0.12264142 0.00001944
v -0.13782121 -0.05080006 0.00001944
v 0.13782151 -0.05079979 0.00001944
v 0.13782151 0.05079979 0.00001944
v 0.08287800 0.11037463 0.00001944
v -0.08287830 -0.11037463 0.00001944
v -0.08287830 0.11037436 0.00001944
v -0.14631055 -0.02589769 0.00001944
v -0.14631055 0.02589743 0.00001944
v 0.12403610 0.07374999 0.00001944
v 0.12403610 -0.07374999 0.00001944
v 0.14917682 0.00000000 0.00001944
v -0.10548391 -0.09386580 0.00001944
v 0.05708747 -0.12264169 0.00001944
v 0.05708747 0.12264169 0.00001944
vn 0.00000000 0.00000000 -1.00000000
vn -0.00000006 0.00000002 1.00000000
vn 0.00000000 -0.80821079 -0.58889329
vn 0.00000036 0.80821072 -0.58889339
vn -0.28148318 -0.75929255 -0.58672143
vn 0.54287028 0.60638613 -0.58102299
vn 0.54287181 -0.60638413 -0.58102366
vn -0.14171646 0.79610083 -0.58833657
vn -0.82050375 -0.00000048 -0.57164114
vn -0.65422525 0.48818866 -0.57763409
vn 0.80046103 -0.17776626 -0.57241707
vn 0.80046119 0.17776719 -0.57241655
vn 0.41659883 -0.69653966 -0.58418997
vn -0.74284721 0.34357832 -0.57457111
vn -0.14171314 -0.79610057 -0.58833772
vn -0.65422245 -0.48819246 -0.57763406
vn 0.14171314 0.79610057 -0.58833772
vn 0.14171314 -0.79610057 -0.58833772
vn -0.54287376 0.60638556 -0.58102034
vn -0.28148804 0.75929033 -0.58672197
vn -0.74284483 -0.34358287 -0.57457146
vn 0.74284804 -0.34357727 -0.57457066
vn 0.74284725 0.34357837 -0.57457103
vn 0.41659764 0.69653926 -0.58419129
vn -0.41659883 -0.69653966 -0.58418997
vn -0.41659465 0.69654025 -0.58419224
vn -0.80046091 -0.17777065 -0.57241588
vn -0.80046117 0.17776716 -0.57241660
vn 0.65422274 0.48819398 -0.57763245
vn 0.65422274 -0.48819398 -0.57763245
vn 0.82050375 -0.00000045 -0.57164114
vn -0.54287469 -0.60638245 -0.58102272
vn 0.28148318 -0.75929255 -0.58672143
vn 0.28148501 0.75929227 -0.58672091
f 32//32 25//25 2//2
f 5//5 2//2 25//25
f 15//15 2//2 5//5
f 3//3 2//2 15//15
f 18//18 2//2 3//3
f 33//33 2//2 18//18
f 13//13 2//2 33//33
f 7//7 2//2 13//13
f 30//30 2//2 7//7
f 22//22 2//2 30//30
f 11//11 2//2 22//22
f 31//31 2//2 11//11
f 12//12 2//2 31//31
f 23//23 2//2 12//12
f 29//29 2//2 23//23
f 6//6 2//2 29//29
f 24//24 2//2 6//6
f 34//34 2//2 24//24
f 17//17 2//2 34//34
f 4//4 2//2 17//17
f 8//8 2//2 4//4
f 20//20 2//2 8//8
f 26//26 2//2 20//20
f 19//19 2//2 26//26
f 10//10 2//2 19//19
f 14//14 2//2 10//10
f 28//28 2//2 14//14
f 9//9 2//2 28//28
f 27//27 2//2 9//9
f 21//21 2//2 27//27
f 16//16 2//2 21//21
f 32//32 2//2 16//16
f 32//32 1//1 25//25
f 25//25 1//1 5//5
f 5//5 1//1 15//15
f 15//15 1//1 3//3
f 3//3 1//1 18//18
f 18//18 1//1 33//33
f 33//33 1//1 13//13
f 13//13 1//1 7//7
f 7//7 1//1 30//30
f 30//30 1//1 22//22
f 22//22 1//1 11//11
f 11//11 1//1 31//31
f 31//31 1//1 12//12
f 12//12 1//1 23//23
f 23//23 1//1 29//29
f 29//29 1//1 6//6
f 6//6 1//1 24//24
f 24//24 1//1 34//34
f 34//34 1//1 17//17
f 17//17 1//1 4//4
f 4//4 1//1 8//8
f 8//8 1//1 20//20
f 20//20 1//1 26//26
f 26//26 1//1 19//19
f 19//19 1//1 10//10
f 10//10 1//1 14//14
f 14//14 1//1 28//28
f 28//28 1//1 9//9
f 9//9 1//1 27//27
f 27//27 1//1 21//21
f 21//21 1//1 16//16
f 32//32 16//16 1//1