# https://github.com/mikedh/trimesh
v 0.00000000 0.00000000 0.33630780
v 0.00000000 0.00000000 -0.00001110
v 0.00000000 -0.07003191 0.33630780
v 0.00000000 0.07003191 0.33630780
v 0.12049814 0.01366293 -0.00001110
v 0.04701620 -0.06470103 0.33630780
v 0.04701620 0.06470103 0.33630780
v 0.10215330 0.03890799 -0.00001110
v -0.02396847 0.06868624 0.33630780
v -0.10215386 0.03890752 -0.00001110
v 0.06825695 0.05822935 0.33630780
v 0.06825695 -0.05822935 0.33630780
v 0.11350675 0.02680039 -0.00001110
v -0.00000056 0.07003191 -0.00001110
v -0.06825667 0.05822935 0.33630780
v 0.10215413 -0.03890720 -0.00001110
v 0.04701565 0.06470118 -0.00001110
v -0.08687478 0.04951985 -0.00001110
v 0.02396875 0.06868624 0.33630780
v 0.02396875 -0.06868624 0.33630780
v -0.02396902 0.06868624 -0.00001110
v 0.08687451 0.04952001 0.33630780
v 0.08687451 -0.04952001 0.33630780
v -0.04701593 0.06470103 0.33630780
v 0.06825640 0.05822967 -0.00001110
v 0.12049841 -0.01366261 0.33630780
v 0.12049841 0.01366245 0.33630780
v -0.12285918 0.00000000 0.33630780
v -0.12285918 0.00000000 -0.00001110
v -0.11350703 0.02680007 0.33630780
v -0.11350703 0.02679991 -0.00001110
v -0.11350703 -0.02680007 0.33630780
v -0.11350703 -0.02680007 -0.00001110
v -0.06825723 0.05822920 -0.00001110
v 0.10215358 0.03890752 0.33630780
v 0.10215358 -0.03890768 0.33630780
v 0.02396819 0.06868624 -0.00001110
v 0.02396819 -0.06868624 -0.00001110
v 0.08687395 0.04952033 -0.00001110
v -0.10215358 0.03890768 0.33630780
v -0.10215358 -0.03890768 0.33630780
v -0.10215358 -0.03890768 -0.00001110
v -0.04701648 0.06470087 -0.00001110
v 0.11350703 -0.02680023 0.33630780
v 0.11350703 0.02679991 0.33630780
v 0.12285918 0.00000048 -0.00001110
v 0.12285918 -0.00000016 0.33630780
v -0.12049841 -0.01366245 0.33630780
v -0.12049841 0.01366261 0.33630780
v -0.12049841 -0.01366261 -0.00001110
v -0.12049841 0.01366245 -0.00001110
v -0.00000028 -0.07003191 -0.00001110
v 0.04701593 -0.06470103 -0.00001110
v -0.08687451 0.04952001 0.33630780
v -0.08687451 -0.04952001 0.33630780
v -0.08687451 -0.04952001 -0.00001110
v -0.02396875 -0.06868624 0.33630780
v -0.02396875 -0.06868624 -0.00001110
v 0.06825667 -0.05822951 -0.00001110
v 0.12049869 -0.01366198 -0.00001110
v -0.06825695 -0.05822935 0.33630780
v -0.06825695 -0.05822935 -0.00001110
v 0.08687423 -0.04952017 -0.00001110
v -0.04701620 -0.06470103 0.33630780
v -0.04701620 -0.06470103 -0.00001110
v 0.11350731 -0.02679944 -0.00001110
vn 0.00000000 0.00000000 1.00000000
vn 0.00000000 0.00000000 -1.00000000
vn 0.00000001 -0.71929469 0.69470508
vn -0.00000019 0.71929475 0.69470502
vn 0.69958048 0.23969207 -0.67315292
vn 0.16672025 -0.70103327 0.69336622
vn 0.16672017 0.70103309 0.69336642
vn 0.47664109 0.55196792 -0.68421099
vn -0.08160896 0.71496290 0.69438320
vn -0.47664684 0.55196334 -0.68421069
vn 0.25896591 0.67435909 0.69150305
vn 0.25896583 -0.67435925 0.69150292
vn 0.59728591 0.42745336 -0.67862594
vn -0.00000028 0.71929475 -0.69470502
vn -0.25896368 0.67435937 0.69150362
vn 0.47664940 -0.55196145 -0.68421043
vn 0.16671555 0.70103423 -0.69336638
vn -0.36179250 0.62850498 -0.68854025
vn 0.08160872 0.71496305 0.69438307
vn 0.08160884 -0.71496311 0.69438300
vn -0.08161141 0.71496338 -0.69438242
vn 0.36179484 0.62850429 0.68853965
vn 0.36179250 -0.62850498 0.68854025
vn -0.16672029 0.70103312 0.69336636
vn 0.25896389 0.67436075 -0.69150219
vn 0.69958479 -0.23968396 0.67315134
vn 0.69958504 0.23968512 0.67315066
vn -0.74171439 -0.00000070 0.67071586
vn -0.74171439 0.00000070 -0.67071586
vn -0.59728599 0.42745315 0.67862600
vn -0.59728753 0.42744885 -0.67862735
vn -0.59728732 -0.42745205 0.67862552
vn -0.59728593 -0.42745325 -0.67862599
vn -0.25896587 0.67435921 -0.69150296
vn 0.47664420 0.55196293 0.68421285
vn 0.47664048 -0.55196640 0.68421264
vn 0.08160627 0.71496258 -0.69438385
vn 0.08160824 -0.71496280 -0.69438339
vn 0.36178929 0.62850583 -0.68854116
vn -0.47664270 0.55196529 0.68421199
vn -0.47664278 -0.55196531 0.68421193
vn -0.47664278 -0.55196531 -0.68421193
vn -0.16672246 0.70103191 -0.69336706
vn 0.59728660 -0.42745424 0.67862477
vn 0.59728595 0.42745314 0.67862605
vn 0.74171441 0.00001459 -0.67071584
vn 0.74171425 -0.00000068 0.67071602
vn -0.69958485 -0.23968371 0.67315136
vn -0.69958515 0.23968510 0.67315056
vn -0.69958513 -0.23968504 -0.67315060
vn -0.69958469 0.23968561 -0.67315085
vn -0.00000003 -0.71929481 -0.69470496
vn 0.16671710 -0.70103342 -0.69336682
vn -0.36179096 0.62850647 0.68853970
vn -0.36179246 -0.62850500 0.68854025
vn -0.36179246 -0.62850500 -0.68854025
vn -0.08160878 -0.71496306 0.69438306
vn -0.08160900 -0.71496297 -0.69438312
vn 0.25896383 -0.67436080 -0.69150216
vn 0.69958871 -0.23967936 -0.67314890
vn -0.25896589 -0.67435920 0.69150295
vn -0.25896589 -0.67435920 -0.69150295
vn 0.36179327 -0.62850479 -0.68854002
vn -0.16672024 -0.70103318 0.69336631
vn -0.16672024 -0.70103318 -0.69336631
vn 0.59728844 -0.42744633 -0.67862814
f 63//63 23//23 59//59
f 59//59 23//23 12//12
f 59//59 12//12 53//53
f 53//53 12//12 6//6
f 53//53 6//6 38//38
f 38//38 6//6 20//20
f 38//38 20//20 52//52
f 52//52 20//20 3//3
f 52//52 3//3 58//58
f 58//58 3//3 57//57
f 58//58 57//57 65//65
f 65//65 57//57 64//64
f 65//65 64//64 62//62
f 62//62 64//64 61//61
f 62//62 61//61 56//56
f 56//56 61//61 55//55
f 56//56 55//55 42//42
f 42//42 55//55 41//41
f 42//42 41//41 33//33
f 33//33 41//41 32//32
f 33//33 32//32 50//50
f 50//50 32//32 48//48
f 50//50 48//48 29//29
f 29//29 48//48 28//28
f 29//29 28//28 51//51
f 51//51 28//28 49//49
f 51//51 49//49 31//31
f 31//31 49//49 30//30
f 31//31 30//30 10//10
f 10//10 30//30 40//40
f 10//10 40//40 18//18
f 18//18 40//40 54//54
f 18//18 54//54 34//34
f 34//34 54//54 15//15
f 34//34 15//15 43//43
f 43//43 15//15 24//24
f 43//43 24//24 21//21
f 21//21 24//24 9//9
f 21//21 9//9 14//14
f 14//14 9//9 4//4
f 14//14 4//4 37//37
f 37//37 4//4 19//19
f 37//37 19//19 17//17
f 17//17 19//19 7//7
f 17//17 7//7 25//25
f 25//25 7//7 11//11
f 25//25 11//11 39//39
f 39//39 11//11 22//22
f 39//39 22//22 8//8
f 8//8 22//22 35//35
f 8//8 35//35 13//13
f 13//13 35//35 45//45
f 13//13 45//45 5//5
f 5//5 45//45 27//27
f 5//5 27//27 46//46
f 46//46 27//27 47//47
f 46//46 47//47 60//60
f 60//60 47//47 26//26
f 60//60 26//26 66//66
f 66//66 26//26 44//44
f 66//66 44//44 16//16
f 16//16 44//44 36//36
f 23//23 63//63 36//36
f 36//36 63//63 16//16
f 23//23 1//1 12//12
f 59//59 2//2 63//63
f 12//12 1//1 6//6
f 53//53 2//2 59//59
f 6//6 1//1 20//20
f 38//38 2//2 53//53
f 20//20 1//1 3//3
f 52//52 2//2 38//38
f 3//3 1//1 57//57
f 58//58 2//2 52//52
f 57//57 1//1 64//64
f 65//65 2//2 58//58
f 64//64 1//1 61//61
f 62//62 2//2 65//65
f 61//61 1//1 55//55
f 56//56 2//2 62//62
f 55//55 1//1 41//41
f 42//42 2//2 56//56
f 41//41 1//1 32//32
f 33//33 2//2 42//42
f 32//32 1//1 48//48
f 50//50 2//2 33//33
f 48//48 1//1 28//28
f 29//29 2//2 50//50
f 28//28 1//1 49//49
f 51//51 2//2 29//29
f 49//49 1//1 30//30
f 31//31 2//2 51//51
f 30//30 1//1 40//40
f 10//10 2//2 31//31
f 40//40 1//1 54//54
f 18//18 2//2 10//10
f 54//54 1//1 15//15
f 34//34 2//2 18//18
f 15//15 1//1 24//24
f 43//43 2//2 34//34
f 24//24 1//1 9//9
f 21//21 2//2 43//43
f 9//9 1//1 4//4
f 14//14 2//2 21//21
f 4//4 1//1 19//19
f 37//37 2//2 14//14
f 19//19 1//1 7//7
f 17//17 2//2 37//37
f 7//7 1//1 11//11
f 25//25 2//2 17//17
f 11//11 1//1 22//22
f 39//39 2//2 25//25
f 22//22 1//1 35//35
f 8//8 2//2 39//39
f 35//35 1//1 45//45
f 13//13 2//2 8//8
f 45//45 1//1 27//27
f 5//5 2//2 13//13
f 27//27 1//1 47//47
f 46//46 2//2 5//5
f 47//47 1//1 26//26
f 60//60 2//2 46//46
f 26//26 1//1 44//44
f 66//66 2//2 60//60
f 44//44 1//1 36//36
f 16//16 2//2 66//66
f 23//23 36//36 1//1
f 63//63 2//2 16//16