# https://github.com/mikedh/trimesh
v 0.00000410 0.00006125 0.48628897
v 0.00000410 0.00006125 0.00030996
v 0.00000410 -0.00014244 0.48593376
v 0.00000410 -0.00014244 0.00066518
v 0.00000410 -0.00000326 0.00000195
v 0.00000410 -0.00000326 0.48659699
v 0.03610677 -0.06234323 0.24370505
v 0.03610677 -0.06234323 0.24289340
v -0.03625506 -0.06242822 0.24329923
v -0.03625506 0.06242822 0.24329923
v 0.00011545 -0.00000326 0.00091626
v 0.00011545 -0.00000326 0.48568267
v -0.00001494 -0.00000326 0.48644031
v -0.00001494 -0.00000326 0.00015814
v 0.03625506 -0.06242822 0.24329923
v 0.03625506 0.06242822 0.24329923
v -0.03624338 -0.06236805 0.24339509
v -0.03624338 -0.06236805 0.24320385
v -0.03624338 0.06236805 0.24339509
v -0.03624338 0.06236805 0.24320385
v -0.03610677 -0.06234323 0.24289389
v -0.03610677 -0.06234323 0.24370505
v 0.03618612 0.06238871 0.24348803
v 0.03618612 0.06238871 0.24311091
v -0.03618623 0.06238871 0.24348803
v -0.03618623 0.06238871 0.24311091
v 0.03618697 0.06207629 0.24274012
v 0.03618697 0.06207629 0.24385881
v 0.03618697 -0.06207629 0.24274012
v 0.03618697 -0.06207629 0.24385881
vn -0.00030147 0.97831997 0.20709890
vn -0.00030021 0.97831997 -0.20709889
vn 0.00054564 -0.97824410 0.20745647
vn 0.00054438 -0.97824409 -0.20745649
vn 0.00004216 0.00012855 -0.99999999
vn -0.00005885 0.00012862 0.99999999
vn 0.09680454 -0.96397586 0.24774871
vn 0.09680530 -0.96397561 -0.24774940
vn -0.69076978 -0.72307473 -0.00020700
vn -0.69077693 0.72306787 -0.00028731
vn 0.99240438 0.00029964 -0.12301815
vn 0.99240437 0.00030010 0.12301816
vn -0.99242907 -0.00004481 0.12281916
vn -0.99238686 -0.00004402 -0.12315970
vn 0.69071113 -0.72313079 -0.00002353
vn 0.69069773 0.72314357 -0.00017311
vn -0.98866601 -0.03252734 0.14656563
vn -0.98870815 -0.03149302 -0.14650726
vn -0.98867037 0.03249035 0.14654445
vn -0.98871235 0.03145718 -0.14648664
vn -0.09567915 -0.96412574 -0.24760261
vn -0.09636863 -0.96405464 0.24761206
vn 0.09691122 0.96399978 0.24761390
vn 0.09542497 0.96415342 -0.24759292
vn -0.09739465 0.96392444 0.24771749
vn -0.09590219 0.96407968 -0.24769568
vn 0.98865664 0.03257863 -0.14661747
vn 0.98864926 0.03275599 0.14662770
vn 0.98868403 -0.03234632 -0.14648413
vn 0.98867678 -0.03252286 0.14649399
f 16//16 10//10 25//25
f 16//16 25//25 23//23
f 6//6 16//16 23//23
f 6//6 23//23 1//1
f 10//10 6//6 1//1
f 10//10 1//1 25//25
f 23//23 25//25 1//1
f 10//10 9//9 17//17
f 10//10 17//17 19//19
f 9//9 6//6 13//13
f 9//9 13//13 17//17
f 6//6 10//10 19//19
f 6//6 19//19 13//13
f 17//17 13//13 19//19
f 9//9 15//15 7//7
f 9//9 7//7 22//22
f 15//15 6//6 3//3
f 15//15 3//3 7//7
f 6//6 9//9 22//22
f 6//6 22//22 3//3
f 7//7 3//3 22//22
f 15//15 16//16 28//28
f 15//15 28//28 30//30
f 6//6 15//15 30//30
f 6//6 30//30 12//12
f 16//16 6//6 12//12
f 16//16 12//12 28//28
f 28//28 12//12 30//30
f 27//27 29//29 11//11
f 11//11 5//5 16//16
f 27//27 11//11 16//16
f 29//29 15//15 5//5
f 11//11 29//29 5//5
f 16//16 15//15 27//27
f 27//27 15//15 29//29
f 21//21 4//4 8//8
f 9//9 5//5 21//21
f 21//21 5//5 4//4
f 5//5 15//15 4//4
f 8//8 4//4 15//15
f 8//8 15//15 9//9
f 21//21 8//8 9//9
f 18//18 20//20 14//14
f 10//10 5//5 20//20
f 14//14 20//20 5//5
f 14//14 5//5 9//9
f 18//18 14//14 9//9
f 9//9 10//10 18//18
f 18//18 10//10 20//20
f 26//26 24//24 2//2
f 2//2 5//5 10//10
f 10//10 26//26 2//2
f 16//16 5//5 24//24
f 24//24 5//5 2//2
f 10//10 16//16 26//26
f 24//24 26//26 16//16