# https://github.com/mikedh/trimesh
v 0.00000000 0.00000000 0.38669222
v 0.00000000 0.00000000 -0.00001276
v 0.00000000 -0.09495526 0.38669222
v 0.00000000 0.09495526 0.38669222
v 0.10546175 0.01852537 -0.00001276
v 0.04114928 -0.08772719 0.38669222
v 0.04114928 0.08772719 0.38669222
v 0.08940608 0.05275479 -0.00001276
v -0.02097756 0.09313068 0.38669222
v -0.08940656 0.05275414 -0.00001276
v 0.05973949 0.07895234 0.38669222
v 0.05973949 -0.07895234 0.38669222
v 0.09934279 0.03633826 -0.00001276
v -0.00000049 0.09495526 -0.00001276
v -0.05973925 0.07895234 0.38669222
v 0.08940681 -0.05275371 -0.00001276
v 0.04114879 0.08772740 -0.00001276
v -0.07603409 0.06714326 -0.00001276
v 0.02097780 0.09313068 0.38669222
v 0.02097780 -0.09313068 0.38669222
v -0.02097804 0.09313068 -0.00001276
v 0.07603385 0.06714347 0.38669222
v 0.07603385 -0.06714347 0.38669222
v -0.04114903 0.08772719 0.38669222
v 0.05973901 0.07895277 -0.00001276
v 0.10546199 -0.01852494 0.38669222
v 0.10546199 0.01852472 0.38669222
v -0.10752817 0.00000000 0.38669222
v -0.10752817 0.00000000 -0.00001276
v -0.09934303 0.03633783 0.38669222
v -0.09934303 0.03633762 -0.00001276
v -0.09934303 -0.03633783 0.38669222
v -0.09934303 -0.03633783 -0.00001276
v -0.05973974 0.07895213 -0.00001276
v 0.08940632 0.05275414 0.38669222
v 0.08940632 -0.05275436 0.38669222
v 0.02097731 0.09313068 -0.00001276
v 0.02097731 -0.09313068 -0.00001276
v 0.07603336 0.06714390 -0.00001276
v -0.08940632 0.05275436 0.38669222
v -0.08940632 -0.05275436 0.38669222
v -0.08940632 -0.05275436 -0.00001276
v -0.04114952 0.08772697 -0.00001276
v 0.09934303 -0.03633805 0.38669222
v 0.09934303 0.03633762 0.38669222
v 0.10752817 0.00000064 -0.00001276
v 0.10752817 -0.00000021 0.38669222
v -0.10546199 -0.01852472 0.38669222
v -0.10546199 0.01852494 0.38669222
v -0.10546199 -0.01852494 -0.00001276
v -0.10546199 0.01852472 -0.00001276
v -0.00000024 -0.09495526 -0.00001276
v 0.04114903 -0.08772719 -0.00001276
v -0.07603385 0.06714347 0.38669222
v -0.07603385 -0.06714347 0.38669222
v -0.07603385 -0.06714347 -0.00001276
v -0.02097780 -0.09313068 0.38669222
v -0.02097780 -0.09313068 -0.00001276
v 0.05973925 -0.07895256 -0.00001276
v 0.10546223 -0.01852408 -0.00001276
v -0.05973949 -0.07895234 0.38669222
v -0.05973949 -0.07895234 -0.00001276
v 0.07603361 -0.06714369 -0.00001276
v -0.04114928 -0.08772719 0.38669222
v -0.04114928 -0.08772719 -0.00001276
v 0.09934327 -0.03633697 -0.00001276
vn 0.00000000 0.00000000 1.00000000
vn 0.00000000 0.00000000 -1.00000000
vn 0.00000001 -0.72560257 0.68811403
vn -0.00000031 0.72560266 0.68811393
vn 0.71244186 0.16005445 -0.68323435
vn 0.24994135 -0.68181372 0.68750227
vn 0.24994123 0.68181353 0.68750250
vn 0.58162069 0.43899299 -0.68483759
vn -0.12582003 0.71475957 0.68795935
vn -0.58162503 0.43898742 -0.68483748
vn 0.37000369 0.62564658 0.68677771
vn 0.37000363 -0.62564678 0.68677757
vn 0.66082961 0.30916331 -0.68390224
vn -0.00000041 0.72560266 -0.68811393
vn -0.37000102 0.62564739 0.68677841
vn 0.58162695 -0.43898515 -0.68483730
vn 0.24993478 0.68181601 -0.68750239
vn -0.48235349 0.54492422 -0.68585181
vn 0.12581968 0.71475980 0.68795918
vn 0.12581983 -0.71475986 0.68795910
vn -0.12582375 0.71476000 -0.68795823
vn 0.48235580 0.54492298 0.68585117
vn 0.48235349 -0.54492422 0.68585181
vn -0.24994137 0.68181354 0.68750244
vn 0.37000126 0.62564927 -0.68677657
vn 0.71244413 -0.16004879 0.68323330
vn 0.71244442 0.16004967 0.68323280
vn -0.73042988 -0.00000045 0.68298770
vn -0.73042988 0.00000045 -0.68298770
vn -0.66082964 0.30916312 0.68390229
vn -0.66083026 0.30915912 -0.68390351
vn -0.66083047 -0.30916217 0.68390193
vn -0.66082961 -0.30916321 -0.68390229
vn -0.37000366 0.62564672 -0.68677761
vn 0.58162283 0.43898711 0.68483955
vn 0.58162008 -0.43899127 0.68483922
vn 0.12581597 0.71475938 -0.68796030
vn 0.12581894 -0.71475949 -0.68795964
vn 0.48235034 0.54492581 -0.68585276
vn -0.58162180 0.43898988 0.68483864
vn -0.58162187 -0.43898988 0.68483858
vn -0.58162187 -0.43898988 -0.68483858
vn -0.24994442 0.68181139 -0.68750346
vn 0.66083020 -0.30916420 0.68390126
vn 0.66082960 0.30916311 0.68390233
vn 0.73042988 0.00000943 -0.68298770
vn 0.73042976 -0.00000044 0.68298782
vn -0.71244416 -0.16004859 0.68323332
vn -0.71244450 0.16004965 0.68323272
vn -0.71244448 -0.16004960 -0.68323275
vn -0.71244422 0.16004999 -0.68323293
vn -0.00000004 -0.72560275 -0.68811383
vn 0.24993695 -0.68181455 -0.68750305
vn -0.48235199 0.54492641 0.68585112
vn -0.48235346 -0.54492425 0.68585181
vn -0.48235346 -0.54492425 -0.68585181
vn -0.12581975 -0.71475980 0.68795917
vn -0.12582008 -0.71475965 -0.68795926
vn 0.37000120 -0.62564934 -0.68677654
vn 0.71244645 -0.16004571 -0.68323161
vn -0.37000368 -0.62564671 0.68677760
vn -0.37000368 -0.62564671 -0.68677760
vn 0.48235427 -0.54492385 -0.68585156
vn -0.24994133 -0.68181362 0.68750238
vn -0.24994133 -0.68181362 -0.68750238
vn 0.66083062 -0.30915678 -0.68390422
f 63//63 23//23 59//59
f 59//59 23//23 12//12
f 59//59 12//12 53//53
f 53//53 12//12 6//6
f 53//53 6//6 38//38
f 38//38 6//6 20//20
f 38//38 20//20 52//52
f 52//52 20//20 3//3
f 52//52 3//3 58//58
f 58//58 3//3 57//57
f 58//58 57//57 65//65
f 65//65 57//57 64//64
f 65//65 64//64 62//62
f 62//62 64//64 61//61
f 62//62 61//61 56//56
f 56//56 61//61 55//55
f 56//56 55//55 42//42
f 42//42 55//55 41//41
f 42//42 41//41 33//33
f 33//33 41//41 32//32
f 33//33 32//32 50//50
f 50//50 32//32 48//48
f 50//50 48//48 29//29
f 29//29 48//48 28//28
f 29//29 28//28 51//51
f 51//51 28//28 49//49
f 51//51 49//49 31//31
f 31//31 49//49 30//30
f 31//31 30//30 10//10
f 10//10 30//30 40//40
f 10//10 40//40 18//18
f 18//18 40//40 54//54
f 18//18 54//54 34//34
f 34//34 54//54 15//15
f 34//34 15//15 43//43
f 43//43 15//15 24//24
f 43//43 24//24 21//21
f 21//21 24//24 9//9
f 21//21 9//9 14//14
f 14//14 9//9 4//4
f 14//14 4//4 37//37
f 37//37 4//4 19//19
f 37//37 19//19 17//17
f 17//17 19//19 7//7
f 17//17 7//7 25//25
f 25//25 7//7 11//11
f 25//25 11//11 39//39
f 39//39 11//11 22//22
f 39//39 22//22 8//8
f 8//8 22//22 35//35
f 8//8 35//35 13//13
f 13//13 35//35 45//45
f 13//13 45//45 5//5
f 5//5 45//45 27//27
f 5//5 27//27 46//46
f 46//46 27//27 47//47
f 46//46 47//47 60//60
f 60//60 47//47 26//26
f 60//60 26//26 66//66
f 66//66 26//26 44//44
f 66//66 44//44 16//16
f 16//16 44//44 36//36
f 23//23 63//63 36//36
f 36//36 63//63 16//16
f 23//23 1//1 12//12
f 59//59 2//2 63//63
f 12//12 1//1 6//6
f 53//53 2//2 59//59
f 6//6 1//1 20//20
f 38//38 2//2 53//53
f 20//20 1//1 3//3
f 52//52 2//2 38//38
f 3//3 1//1 57//57
f 58//58 2//2 52//52
f 57//57 1//1 64//64
f 65//65 2//2 58//58
f 64//64 1//1 61//61
f 62//62 2//2 65//65
f 61//61 1//1 55//55
f 56//56 2//2 62//62
f 55//55 1//1 41//41
f 42//42 2//2 56//56
f 41//41 1//1 32//32
f 33//33 2//2 42//42
f 32//32 1//1 48//48
f 50//50 2//2 33//33
f 48//48 1//1 28//28
f 29//29 2//2 50//50
f 28//28 1//1 49//49
f 51//51 2//2 29//29
f 49//49 1//1 30//30
f 31//31 2//2 51//51
f 30//30 1//1 40//40
f 10//10 2//2 31//31
f 40//40 1//1 54//54
f 18//18 2//2 10//10
f 54//54 1//1 15//15
f 34//34 2//2 18//18
f 15//15 1//1 24//24
f 43//43 2//2 34//34
f 24//24 1//1 9//9
f 21//21 2//2 43//43
f 9//9 1//1 4//4
f 14//14 2//2 21//21
f 4//4 1//1 19//19
f 37//37 2//2 14//14
f 19//19 1//1 7//7
f 17//17 2//2 37//37
f 7//7 1//1 11//11
f 25//25 2//2 17//17
f 11//11 1//1 22//22
f 39//39 2//2 25//25
f 22//22 1//1 35//35
f 8//8 2//2 39//39
f 35//35 1//1 45//45
f 13//13 2//2 8//8
f 45//45 1//1 27//27
f 5//5 2//2 13//13
f 27//27 1//1 47//47
f 46//46 2//2 5//5
f 47//47 1//1 26//26
f 60//60 2//2 46//46
f 26//26 1//1 44//44
f 66//66 2//2 60//60
f 44//44 1//1 36//36
f 16//16 2//2 66//66
f 23//23 36//36 1//1
f 63//63 2//2 16//16