# https://github.com/mikedh/trimesh
v 0.00000000 0.02047623 0.82311086
v 0.00000000 0.02047623 0.02488757
v 0.00000000 -0.01122777 0.20528262
v 0.00000000 -0.01122777 0.64274380
v 0.00000000 -0.02782340 0.15794585
v 0.00000000 -0.02782340 0.69006191
v 0.00000000 -0.02016725 0.02377737
v 0.00000000 -0.02016725 0.82424057
v 0.00000000 0.01062383 0.64213823
v 0.00000000 0.01062383 0.20586952
v 0.00000000 -0.03135780 0.76180451
v 0.00000000 -0.03135780 0.08619392
v 0.00000000 0.02745656 0.15949793
v 0.00000000 0.02745656 0.68851068
v 0.00000000 -0.00005099 -0.00004241
v 0.00000000 -0.00005099 0.84805016
v 0.00000000 0.03134964 0.76004209
v 0.00000000 0.03134964 0.08797499
v 0.11218551 -0.02016725 0.57715948
v 0.09466528 -0.03135780 0.29472233
v -0.08561005 0.02047623 0.14177283
v -0.04678822 0.01062383 0.26974655
v -0.06130102 -0.01122777 0.34028735
v -0.09467377 -0.03135780 0.29471300
v -0.03088297 -0.02782340 0.17818566
v -0.04633436 0.02047623 0.79272909
v -0.02538911 -0.01122777 0.22192381
v 0.04679954 0.01062383 0.57825272
v -0.03070776 0.02745656 0.66837179
v 0.04922473 -0.00005099 0.03224003
v 0.04633719 0.02047623 0.79272909
v -0.08585499 -0.02016725 0.70699655
v -0.09467634 -0.03135780 0.55325828
v 0.05674858 0.02745656 0.61103979
v -0.07413220 0.02745656 0.32276411
v 0.06128739 -0.01122777 0.34029584
v 0.09419187 0.03134964 0.55258826
v 0.07207159 0.03134964 0.18639218
v -0.05707431 -0.02782340 0.61212286
v 0.08025538 0.02745656 0.42398098
v 0.03070210 0.02745656 0.17963597
v 0.11184847 0.02047623 0.27126132
v 0.04632870 0.02047623 0.05527019
v -0.06113688 0.01062383 0.50745494
v -0.04646532 -0.02016725 0.79376550
v 0.11885723 -0.00005099 0.58626587
v 0.11883485 -0.00005099 0.26172408
v 0.12108483 0.02047623 0.42398098
v 0.05707997 -0.02782340 0.61213219
v 0.07457782 -0.02782340 0.52580342
v 0.07455544 -0.02782340 0.32218568
v 0.09416691 0.03134964 0.29540169
v 0.08560439 0.02047623 0.14178216
v -0.08071207 -0.02782340 0.42398098
v -0.08584958 -0.02016725 0.14098322
v -0.11216879 -0.02016725 0.27082029
v -0.02532505 0.01062383 0.62552418
v 0.10248707 -0.03135780 0.42398098
v 0.02531965 0.01062383 0.22247509
v -0.10247600 -0.03135780 0.42398098
v 0.03921728 -0.03135780 0.73609425
v 0.08586065 -0.02016725 0.70701521
v -0.04633153 0.02047623 0.05526086
v -0.10193853 0.03134964 0.42398098
v 0.08072313 -0.02782340 0.42398098
v -0.03070493 0.02745656 0.17962748
v -0.12863647 -0.00005099 0.42398098
v 0.09095339 -0.00005099 0.12415883
v 0.06618794 0.01062383 0.42398098
v 0.08561828 0.02047623 0.70620779
v -0.04679388 0.01062383 0.57823406
v -0.12107376 0.02047623 0.42398098
v -0.03901119 0.03134964 0.73446075
v -0.11884617 -0.00005099 0.58626587
v 0.06114794 0.01062383 0.50747275
v 0.05672903 0.02745656 0.23696796
v -0.03088863 -0.02782340 0.66980344
v -0.02539478 -0.01122777 0.62608395
v -0.04691635 -0.01122777 0.26933351
v -0.04922756 -0.00005099 0.81576773
v -0.04922756 -0.00005099 0.03223070
v 0.12143011 -0.02016725 0.42398098
v -0.07246164 -0.03135780 0.66285470
v -0.09418080 0.03134964 0.55257893
v -0.07208291 0.03134964 0.66160709
v -0.07456933 -0.02782340 0.52579409
v 0.04693024 -0.01122777 0.57867424
v 0.07245314 -0.03135780 0.18513440
v -0.03921728 -0.03135780 0.73608492
v -0.06113405 0.01062383 0.34050702
v -0.02531965 0.01062383 0.22246576
v 0.02532505 0.01062383 0.62554200
v 0.06112298 0.01062383 0.34051635
v -0.09096188 -0.00005099 0.72384045
v 0.07246704 -0.03135780 0.66286403
v 0.12865036 -0.00005099 0.42398098
v 0.11186519 0.02047623 0.57671930
v -0.05674009 0.02745656 0.61103046
v 0.09468483 -0.03135780 0.55326677
v 0.07411831 0.02745656 0.32277344
v 0.04646532 -0.02016725 0.79377483
v 0.06131801 -0.01122777 0.50770259
v 0.08584109 -0.02016725 0.14099255
v 0.04678281 0.01062383 0.26975588
v -0.08561288 0.02047623 0.70620779
v 0.06637190 -0.01122777 0.42398098
v 0.04923039 -0.00005099 0.81577706
v 0.02539761 -0.01122777 0.62609328
v 0.03071033 0.02745656 0.66838112
v 0.03089146 -0.02782340 0.66981277
v -0.06130386 -0.01122777 0.50768393
v -0.03900836 0.03134964 0.11354786
v -0.11884334 -0.00005099 0.26171475
v -0.11217445 -0.02016725 0.57714167
v 0.11215773 -0.02016725 0.27082962
v 0.03901402 0.03134964 0.73446075
v 0.04645683 -0.02016725 0.05424226
v 0.03921162 -0.03135780 0.11191351
v -0.08024149 0.02745656 0.42398098
v -0.11185696 0.02047623 0.57671930
v -0.11185696 0.02047623 0.27125199
v -0.07245881 -0.03135780 0.18512507
v -0.09417797 0.03134964 0.29539236
v -0.07208008 0.03134964 0.18638285
v -0.07456650 -0.02782340 0.32216787
v -0.12141338 -0.02016725 0.42398098
v -0.05706865 -0.02782340 0.23585776
v 0.07414610 0.02745656 0.52521566
v 0.03088297 -0.02782340 0.17820432
v -0.03921445 -0.03135780 0.11190418
v -0.04645966 -0.02016725 0.05423293
v 0.03900553 0.03134964 0.11355634
v -0.07413503 0.02745656 0.52520718
v 0.05706325 -0.02782340 0.23587557
v -0.06635235 -0.01122777 0.42398098
v 0.09096754 -0.00005099 0.72384978
v -0.06617122 0.01062383 0.42398098
v -0.04692201 -0.01122777 0.57865643
v 0.07209114 0.03134964 0.66161642
v -0.09095905 -0.00005099 0.12414950
v 0.04690811 -0.01122777 0.26934200
v 0.02538654 -0.01122777 0.22193314
v 0.10195526 0.03134964 0.42398098
v -0.05673726 0.02745656 0.23695864
vn -0.00002899 0.87298771 0.48774221
vn 0.00005200 0.87293528 -0.48783603
vn -0.00013533 -0.70718696 0.70702658
vn 0.00014529 -0.70740095 -0.70681248
vn -0.00002864 -0.99013640 0.14010680
vn 0.00001671 -0.99013031 -0.14014980
vn 0.00004515 -0.86805459 -0.49646876
vn -0.00006742 -0.86800024 0.49656376
vn 0.00021093 0.68363461 -0.72982442
vn -0.00011166 0.68391644 0.72956034
vn -0.00001797 -0.99444004 0.10530439
vn 0.00001284 -0.99443611 -0.10534143
vn -0.00001703 0.98912142 0.14710137
vn 0.00001823 0.98912186 -0.14709840
vn 0.00005888 0.00502887 -0.99998735
vn -0.00006559 0.00517717 0.99998660
vn -0.00000418 0.99506576 0.09921763
vn 0.00001756 0.99506931 -0.09918195
vn 0.74971561 -0.65456679 0.09730790
vn 0.19877861 -0.97994429 -0.01400897
vn -0.65909445 0.72452838 -0.20162624
vn 0.87930050 0.40028806 0.25806994
vn 0.92282152 -0.36939621 0.10930177
vn -0.19878751 -0.97994289 -0.01398031
vn 0.16721598 -0.97366450 0.15497177
vn -0.47122292 0.81084230 0.34710765
vn 0.66689218 -0.54416959 0.50905234
vn -0.87934954 0.40017949 -0.25807124
vn 0.17558930 0.97112472 -0.16150909
vn 0.70513974 0.00581295 -0.70904454
vn 0.47115450 0.81089647 0.34707398
vn -0.66647791 -0.71688006 0.20467089
vn -0.19877005 -0.97994650 0.01397614
vn -0.35910752 0.92453901 -0.12755163
vn 0.46111382 0.88483852 0.06659456
vn -0.92278356 -0.36943572 0.10948859
vn 0.18356499 0.98293479 0.01196219
vn 0.17121289 0.98464687 -0.03400996
vn 0.34561132 -0.93021932 -0.12346994
vn -0.49219324 0.87048596 0.00007494
vn -0.17562909 0.97111362 0.16153254
vn 0.74185269 0.66366008 -0.09596817
vn 0.47121890 0.81083935 -0.34712001
vn 0.92919873 0.35293733 -0.10965837
vn -0.47682597 -0.80503369 0.35292741
vn 0.98934895 0.00457856 0.14549119
vn 0.98934580 0.00432978 -0.14552026
vn 0.76797367 0.64048141 -0.00005457
vn -0.34563120 -0.93020804 -0.12349927
vn -0.44638998 -0.89247840 -0.06494838
vn -0.44624586 -0.89254831 0.06497798
vn 0.18343980 0.98295804 -0.01197222
vn 0.65909941 0.72452867 -0.20160895
vn 0.47741543 -0.87867771 0.00000936
vn -0.66646077 -0.71688559 -0.20470735
vn -0.74970980 -0.65457320 -0.09730957
vn 0.68065554 0.52091336 -0.51512843
vn 0.19779242 -0.98024393 -0.00002091
vn -0.68048816 0.52115073 0.51510948
vn -0.19783842 -0.98023465 -0.00000279
vn 0.13306198 -0.98852186 0.07154755
vn 0.66646648 -0.71687909 0.20471148
vn -0.47118574 0.81084715 -0.34714680
vn -0.18141314 0.98340697 0.00000004
vn -0.47751604 -0.87862303 0.00005249
vn 0.17556955 0.97112531 0.16152700
vn -0.99999169 0.00407673 -0.00001239
vn 0.93847590 0.00526246 -0.34530463
vn -0.93990897 0.34142510 0.00016706
vn 0.65906341 0.72456326 0.20160234
vn 0.87937058 0.40018560 -0.25799005
vn -0.76797008 0.64048571 -0.00000565
vn -0.12590433 0.98982738 0.06625605
vn -0.98935001 0.00446578 0.14548750
vn -0.92921701 0.35287135 -0.10971584
vn -0.35917411 0.92451425 0.12754358
vn 0.16733680 -0.97363571 -0.15502228
vn 0.66694221 -0.54425545 -0.50889497
vn 0.87100021 -0.41876739 0.25689008
vn -0.70511272 0.00591231 0.70907058
vn -0.70506448 0.00580762 -0.70911942
vn 0.77586123 -0.63090359 -0.00007411
vn -0.18346056 -0.98229970 0.03780898
vn -0.18353417 0.98294069 0.01195033
vn -0.17125582 0.98463911 0.03401853
vn 0.44630788 -0.89252145 -0.06492104
vn -0.87098642 -0.41879008 -0.25689984
vn 0.18351219 -0.98228953 -0.03782274
vn -0.13308194 -0.98851956 0.07154211
vn 0.92917796 0.35297193 0.10972299
vn 0.68037031 0.52119040 0.51522500
vn -0.68045334 0.52102026 -0.51528744
vn -0.92914950 0.35300270 0.10986496
vn -0.93846529 0.00534843 0.34533216
vn 0.18342989 -0.98230540 0.03780982
vn 0.99999121 0.00419184 -0.00007576
vn 0.74184703 0.66367417 0.09591445
vn 0.35913257 0.92453144 -0.12753590
vn 0.19873043 -0.97995455 0.01397518
vn -0.46114551 0.88481911 0.06663306
vn 0.47674794 -0.80507552 0.35293740
vn -0.92282746 -0.36937559 -0.10932131
vn 0.66644383 -0.71690826 -0.20468307
vn -0.87933063 0.40027079 0.25799406
vn -0.65910008 0.72453150 0.20159659
vn -0.93394327 -0.35742124 0.00015615
vn 0.70505846 0.00597333 0.70912403
vn -0.66685483 -0.54424248 -0.50902333
vn -0.17554979 0.97112933 -0.16152428
vn -0.16728195 -0.97364566 -0.15501895
vn 0.92282489 -0.36939787 -0.10926770
vn -0.12585030 0.98983555 -0.06623658
vn -0.98935065 0.00438379 -0.14548567
vn -0.74972628 -0.65456006 0.09727091
vn 0.74966176 -0.65462160 -0.09735402
vn 0.12588900 0.98982926 0.06625702
vn 0.47675263 -0.80508286 -0.35291432
vn 0.13310477 -0.98851529 -0.07155870
vn 0.49219468 0.87048515 0.00000584
vn -0.74186521 0.66365512 0.09590565
vn -0.74189371 0.66361968 -0.09593042
vn -0.18347758 -0.98229608 -0.03782041
vn -0.18350065 0.98294692 -0.01195248
vn -0.17123458 0.98464281 -0.03401837
vn 0.44625972 -0.89254377 0.06494528
vn -0.77585237 -0.63091450 -0.00001158
vn 0.34552786 -0.93024995 0.12347278
vn -0.46111723 0.88483709 -0.06659002
vn -0.16730558 -0.97364702 0.15498488
vn -0.13309502 -0.98851601 -0.07156684
vn -0.47671441 -0.80509248 -0.35294400
vn 0.12586156 0.98983455 -0.06623009
vn 0.46110751 0.88484315 -0.06657677
vn -0.34556533 -0.93023797 0.12345818
vn 0.93392757 -0.35746230 0.00002111
vn 0.93845342 0.00546325 0.34536262
vn 0.93987871 0.34150842 0.00001573
vn 0.87101686 -0.41877227 -0.25682566
vn 0.17129744 0.98463139 0.03403252
vn -0.93846196 0.00530222 -0.34534190
vn -0.87104948 -0.41869790 0.25683627
vn -0.66703508 -0.54405850 0.50898385
vn 0.18151517 0.98338814 -0.00001695
vn 0.35911438 0.92453663 0.12754952
f 97//97 46//46 96//96
f 97//97 96//96 48//48
f 37//37 97//97 48//48
f 37//37 48//48 143//143
f 128//128 37//37 143//143
f 128//128 143//143 40//40
f 75//75 128//128 40//40
f 75//75 40//40 69//69
f 102//102 75//75 69//69
f 102//102 69//69 106//106
f 50//50 102//102 106//106
f 50//50 106//106 65//65
f 99//99 50//50 65//65
f 99//99 65//65 58//58
f 19//19 99//99 58//58
f 19//19 58//58 82//82
f 96//96 46//46 19//19
f 82//82 96//96 19//19
f 70//70 136//136 46//46
f 70//70 46//46 97//97
f 139//139 70//70 97//97
f 139//139 97//97 37//37
f 34//34 139//139 37//37
f 34//34 37//37 128//128
f 28//28 34//34 128//128
f 28//28 128//128 75//75
f 87//87 28//28 75//75
f 87//87 75//75 102//102
f 49//49 87//87 102//102
f 49//49 102//102 50//50
f 95//95 49//49 50//50
f 95//95 50//50 99//99
f 62//62 95//95 99//99
f 62//62 99//99 19//19
f 62//62 46//46 136//136
f 62//62 19//19 46//46
f 31//31 107//107 136//136
f 31//31 136//136 70//70
f 116//116 31//31 70//70
f 116//116 70//70 139//139
f 109//109 116//116 139//139
f 109//109 139//139 34//34
f 92//92 109//109 34//34
f 92//92 34//34 28//28
f 108//108 92//92 28//28
f 108//108 28//28 87//87
f 110//110 108//108 87//87
f 110//110 87//87 49//49
f 61//61 110//110 49//49
f 61//61 49//49 95//95
f 101//101 61//61 95//95
f 101//101 95//95 62//62
f 101//101 136//136 107//107
f 101//101 62//62 136//136
f 1//1 16//16 107//107
f 1//1 107//107 31//31
f 17//17 1//1 31//31
f 17//17 31//31 116//116
f 14//14 17//17 116//116
f 14//14 116//116 109//109
f 9//9 14//14 109//109
f 9//9 109//109 92//92
f 4//4 9//9 92//92
f 4//4 92//92 108//108
f 6//6 4//4 108//108
f 6//6 108//108 110//110
f 11//11 6//6 110//110
f 11//11 110//110 61//61
f 8//8 11//11 61//61
f 8//8 61//61 101//101
f 8//8 107//107 16//16
f 8//8 101//101 107//107
f 26//26 80//80 16//16
f 26//26 16//16 1//1
f 73//73 26//26 1//1
f 73//73 1//1 17//17
f 29//29 73//73 17//17
f 29//29 17//17 14//14
f 57//57 29//29 14//14
f 57//57 14//14 9//9
f 78//78 57//57 9//9
f 78//78 9//9 4//4
f 77//77 78//78 4//4
f 77//77 4//4 6//6
f 89//89 77//77 6//6
f 89//89 6//6 11//11
f 45//45 89//89 11//11
f 45//45 11//11 8//8
f 45//45 16//16 80//80
f 45//45 8//8 16//16
f 105//105 94//94 80//80
f 105//105 80//80 26//26
f 85//85 105//105 26//26
f 85//85 26//26 73//73
f 98//98 85//85 73//73
f 98//98 73//73 29//29
f 71//71 98//98 29//29
f 71//71 29//29 57//57
f 138//138 71//71 57//57
f 138//138 57//57 78//78
f 39//39 138//138 78//78
f 39//39 78//78 77//77
f 83//83 39//39 77//77
f 83//83 77//77 89//89
f 32//32 83//83 89//89
f 32//32 89//89 45//45
f 32//32 80//80 94//94
f 32//32 45//45 80//80
f 120//120 74//74 94//94
f 120//120 94//94 105//105
f 84//84 120//120 105//105
f 84//84 105//105 85//85
f 133//133 84//84 85//85
f 133//133 85//85 98//98
f 44//44 133//133 98//98
f 44//44 98//98 71//71
f 111//111 44//44 71//71
f 111//111 71//71 138//138
f 86//86 111//111 138//138
f 86//86 138//138 39//39
f 33//33 86//86 39//39
f 33//33 39//39 83//83
f 114//114 33//33 83//83
f 114//114 83//83 32//32
f 114//114 94//94 74//74
f 114//114 32//32 94//94
f 72//72 67//67 74//74
f 72//72 74//74 120//120
f 64//64 72//72 120//120
f 64//64 120//120 84//84
f 119//119 64//64 84//84
f 119//119 84//84 133//133
f 137//137 119//119 133//133
f 137//137 133//133 44//44
f 135//135 137//137 44//44
f 135//135 44//44 111//111
f 54//54 135//135 111//111
f 54//54 111//111 86//86
f 60//60 54//54 86//86
f 60//60 86//86 33//33
f 126//126 60//60 33//33
f 126//126 33//33 114//114
f 126//126 74//74 67//67
f 126//126 114//114 74//74
f 121//121 113//113 67//67
f 121//121 67//67 72//72
f 123//123 121//121 72//72
f 123//123 72//72 64//64
f 35//35 123//123 64//64
f 35//35 64//64 119//119
f 90//90 35//35 119//119
f 90//90 119//119 137//137
f 23//23 90//90 137//137
f 23//23 137//137 135//135
f 125//125 23//23 135//135
f 125//125 135//135 54//54
f 24//24 125//125 54//54
f 24//24 54//54 60//60
f 56//56 24//24 60//60
f 56//56 60//60 126//126
f 56//56 67//67 113//113
f 56//56 126//126 67//67
f 21//21 140//140 113//113
f 21//21 113//113 121//121
f 124//124 21//21 121//121
f 124//124 121//121 123//123
f 144//144 124//124 123//123
f 144//144 123//123 35//35
f 22//22 144//144 35//35
f 22//22 35//35 90//90
f 79//79 22//22 90//90
f 79//79 90//90 23//23
f 127//127 79//79 23//23
f 127//127 23//23 125//125
f 122//122 127//127 125//125
f 122//122 125//125 24//24
f 55//55 122//122 24//24
f 55//55 24//24 56//56
f 55//55 113//113 140//140
f 55//55 56//56 113//113
f 63//63 81//81 140//140
f 63//63 140//140 21//21
f 112//112 63//63 21//21
f 112//112 21//21 124//124
f 66//66 112//112 124//124
f 66//66 124//124 144//144
f 91//91 66//66 144//144
f 91//91 144//144 22//22
f 27//27 91//91 22//22
f 27//27 22//22 79//79
f 25//25 27//27 79//79
f 25//25 79//79 127//127
f 130//130 25//25 127//127
f 130//130 127//127 122//122
f 131//131 130//130 122//122
f 131//131 122//122 55//55
f 131//131 140//140 81//81
f 131//131 55//55 140//140
f 2//2 15//15 81//81
f 2//2 81//81 63//63
f 18//18 2//2 63//63
f 18//18 63//63 112//112
f 13//13 18//18 112//112
f 13//13 112//112 66//66
f 10//10 13//13 66//66
f 10//10 66//66 91//91
f 3//3 10//10 91//91
f 3//3 91//91 27//27
f 5//5 3//3 27//27
f 5//5 27//27 25//25
f 12//12 5//5 25//25
f 12//12 25//25 130//130
f 7//7 12//12 130//130
f 7//7 130//130 131//131
f 7//7 81//81 15//15
f 7//7 131//131 81//81
f 43//43 30//30 15//15
f 43//43 15//15 2//2
f 132//132 43//43 2//2
f 132//132 2//2 18//18
f 41//41 132//132 18//18
f 41//41 18//18 13//13
f 59//59 41//41 13//13
f 59//59 13//13 10//10
f 142//142 59//59 10//10
f 142//142 10//10 3//3
f 129//129 142//142 3//3
f 129//129 3//3 5//5
f 118//118 129//129 5//5
f 118//118 5//5 12//12
f 117//117 118//118 12//12
f 117//117 12//12 7//7
f 117//117 15//15 30//30
f 117//117 7//7 15//15
f 53//53 68//68 30//30
f 53//53 30//30 43//43
f 38//38 53//53 43//43
f 38//38 43//43 132//132
f 76//76 38//38 132//132
f 76//76 132//132 41//41
f 104//104 76//76 41//41
f 104//104 41//41 59//59
f 141//141 104//104 59//59
f 141//141 59//59 142//142
f 134//134 141//141 142//142
f 134//134 142//142 129//129
f 88//88 134//134 129//129
f 88//88 129//129 118//118
f 103//103 88//88 118//118
f 103//103 118//118 117//117
f 103//103 30//30 68//68
f 103//103 117//117 30//30
f 42//42 47//47 68//68
f 42//42 68//68 53//53
f 52//52 42//42 53//53
f 52//52 53//53 38//38
f 100//100 52//52 38//38
f 100//100 38//38 76//76
f 93//93 100//100 76//76
f 93//93 76//76 104//104
f 36//36 93//93 104//104
f 36//36 104//104 141//141
f 51//51 36//36 141//141
f 51//51 141//141 134//134
f 20//20 51//51 134//134
f 20//20 134//134 88//88
f 115//115 20//20 88//88
f 115//115 88//88 103//103
f 115//115 68//68 47//47
f 115//115 103//103 68//68
f 47//47 42//42 96//96
f 42//42 48//48 96//96
f 96//96 115//115 47//47
f 96//96 82//82 115//115
f 42//42 52//52 48//48
f 52//52 143//143 48//48
f 52//52 100//100 143//143
f 100//100 40//40 143//143
f 100//100 93//93 40//40
f 93//93 69//69 40//40
f 93//93 36//36 69//69
f 36//36 106//106 69//69
f 36//36 51//51 106//106
f 51//51 65//65 106//106
f 51//51 20//20 65//65
f 20//20 58//58 65//65
f 20//20 115//115 58//58
f 115//115 82//82 58//58