# https://github.com/mikedh/trimesh
v 0.00000000 0.00000000 0.58323713
v 0.00000000 0.00000000 -0.00001925
v 0.00000000 -0.05510613 0.58323713
v 0.00000000 0.05510613 0.58323713
v 0.06151360 0.01075097 -0.00001925
v 0.02400150 -0.05091140 0.58323713
v 0.02400150 0.05091140 0.58323713
v 0.05214867 0.03061560 -0.00001925
v -0.01223576 0.05404725 0.58323713
v -0.05214895 0.03061522 -0.00001925
v 0.03484478 0.04581903 0.58323713
v 0.03484478 -0.04581903 0.58323713
v 0.05794454 0.02108847 -0.00001925
v -0.00000028 0.05510613 -0.00001925
v -0.03484464 0.04581903 0.58323713
v 0.05214909 -0.03061497 -0.00001925
v 0.02400122 0.05091153 -0.00001925
v -0.04434907 0.03896577 -0.00001925
v 0.01223591 0.05404725 0.58323713
v 0.01223591 -0.05404725 0.58323713
v -0.01223605 0.05404725 -0.00001925
v 0.04434893 0.03896589 0.58323713
v 0.04434893 -0.03896589 0.58323713
v -0.02400136 0.05091140 0.58323713
v 0.03484449 0.04581928 -0.00001925
v 0.06151374 -0.01075072 0.58323713
v 0.06151374 0.01075060 0.58323713
v -0.06271890 0.00000000 0.58323713
v -0.06271890 0.00000000 -0.00001925
v -0.05794468 0.02108822 0.58323713
v -0.05794468 0.02108809 -0.00001925
v -0.05794468 -0.02108822 0.58323713
v -0.05794468 -0.02108822 -0.00001925
v -0.03484492 0.04581890 -0.00001925
v 0.05214881 0.03061522 0.58323713
v 0.05214881 -0.03061535 0.58323713
v 0.01223562 0.05404725 -0.00001925
v 0.01223562 -0.05404725 -0.00001925
v 0.04434865 0.03896614 -0.00001925
v -0.05214881 0.03061535 0.58323713
v -0.05214881 -0.03061535 0.58323713
v -0.05214881 -0.03061535 -0.00001925
v -0.02400164 0.05091128 -0.00001925
v 0.05794468 -0.02108834 0.58323713
v 0.05794468 0.02108809 0.58323713
v 0.06271890 0.00000037 -0.00001925
v 0.06271890 -0.00000012 0.58323713
v -0.06151374 -0.01075060 0.58323713
v -0.06151374 0.01075072 0.58323713
v -0.06151374 -0.01075072 -0.00001925
v -0.06151374 0.01075060 -0.00001925
v -0.00000014 -0.05510613 -0.00001925
v 0.02400136 -0.05091140 -0.00001925
v -0.04434893 0.03896589 0.58323713
v -0.04434893 -0.03896589 0.58323713
v -0.04434893 -0.03896589 -0.00001925
v -0.01223591 -0.05404725 0.58323713
v -0.01223591 -0.05404725 -0.00001925
v 0.03484464 -0.04581915 -0.00001925
v 0.06151388 -0.01075022 -0.00001925
v -0.03484478 -0.04581903 0.58323713
v -0.03484478 -0.04581903 -0.00001925
v 0.04434879 -0.03896602 -0.00001925
v -0.02400150 -0.05091140 0.58323713
v -0.02400150 -0.05091140 -0.00001925
v 0.05794482 -0.02108772 -0.00001925
vn 0.00000000 0.00000000 1.00000000
vn 0.00000000 0.00000000 -1.00000000
vn 0.00000000 -0.72551477 0.68820659
vn -0.00000034 0.72551487 0.68820649
vn 0.71236753 0.16082907 -0.68312994
vn 0.24882346 -0.68214890 0.68757528
vn 0.24882341 0.68214883 0.68757537
vn 0.58059550 0.44039360 -0.68480825
vn -0.12519958 0.71478414 0.68804702
vn -0.58059997 0.44038796 -0.68480809
vn 0.36861971 0.62641063 0.68682547
vn 0.36861968 -0.62641071 0.68682542
vn 0.66030225 0.31044631 -0.68383041
vn -0.00000038 0.72551487 -0.68820649
vn -0.36861710 0.62641137 0.68682620
vn 0.58060201 -0.44038571 -0.68480781
vn 0.24881689 0.68215128 -0.68757529
vn -0.48100324 0.54610040 -0.68586459
vn 0.12519924 0.71478433 0.68804689
vn 0.12519930 -0.71478435 0.68804685
vn -0.12520329 0.71478453 -0.68804594
vn 0.48100568 0.54609916 0.68586386
vn 0.48100324 -0.54610040 0.68586459
vn -0.24882346 0.68214883 0.68757534
vn 0.36861725 0.62641323 -0.68682442
vn 0.71236978 -0.16082333 0.68312894
vn 0.71237007 0.16082427 0.68312842
vn -0.73053892 -0.00000046 0.68287106
vn -0.73053892 0.00000046 -0.68287106
vn -0.66030226 0.31044623 0.68383043
vn -0.66030295 0.31044220 -0.68383160
vn -0.66030314 -0.31044521 0.68383005
vn -0.66030225 -0.31044627 -0.68383042
vn -0.36861969 0.62641069 -0.68682543
vn 0.58059777 0.44038778 0.68481007
vn 0.58059499 -0.44039180 0.68480984
vn 0.12519554 0.71478394 -0.68804796
vn 0.12519847 -0.71478404 -0.68804732
vn 0.48100013 0.54610193 -0.68586555
vn -0.58059672 0.44039045 0.68480924
vn -0.58059675 -0.44039045 0.68480922
vn -0.58059675 -0.44039045 -0.68480922
vn -0.24882650 0.68214668 -0.68757638
vn 0.66030280 -0.31044732 0.68382942
vn 0.66030225 0.31044623 0.68383044
vn 0.73053900 0.00000951 -0.68287098
vn 0.73053888 -0.00000046 0.68287111
vn -0.71236979 -0.16082325 0.68312895
vn -0.71237010 0.16082426 0.68312839
vn -0.71237009 -0.16082424 -0.68312841
vn -0.71236985 0.16082466 -0.68312856
vn -0.00000001 -0.72551497 -0.68820639
vn 0.24881902 -0.68214979 -0.68757600
vn -0.48100176 0.54610261 0.68586387
vn -0.48100323 -0.54610041 0.68586459
vn -0.48100323 -0.54610041 -0.68586459
vn -0.12519927 -0.71478433 0.68804688
vn -0.12519960 -0.71478417 -0.68804698
vn 0.36861723 -0.62641326 -0.68682441
vn 0.71237212 -0.16082032 -0.68312721
vn -0.36861970 -0.62641068 0.68682543
vn -0.36861970 -0.62641068 -0.68682543
vn 0.48100407 -0.54610000 -0.68586433
vn -0.24882345 -0.68214886 0.68757532
vn -0.24882345 -0.68214886 -0.68757532
vn 0.66030333 -0.31043997 -0.68383225
f 63//63 23//23 59//59
f 59//59 23//23 12//12
f 59//59 12//12 53//53
f 53//53 12//12 6//6
f 53//53 6//6 38//38
f 38//38 6//6 20//20
f 38//38 20//20 52//52
f 52//52 20//20 3//3
f 52//52 3//3 58//58
f 58//58 3//3 57//57
f 58//58 57//57 65//65
f 65//65 57//57 64//64
f 65//65 64//64 62//62
f 62//62 64//64 61//61
f 62//62 61//61 56//56
f 56//56 61//61 55//55
f 56//56 55//55 42//42
f 42//42 55//55 41//41
f 42//42 41//41 33//33
f 33//33 41//41 32//32
f 33//33 32//32 50//50
f 50//50 32//32 48//48
f 50//50 48//48 29//29
f 29//29 48//48 28//28
f 29//29 28//28 51//51
f 51//51 28//28 49//49
f 51//51 49//49 31//31
f 31//31 49//49 30//30
f 31//31 30//30 10//10
f 10//10 30//30 40//40
f 10//10 40//40 18//18
f 18//18 40//40 54//54
f 18//18 54//54 34//34
f 34//34 54//54 15//15
f 34//34 15//15 43//43
f 43//43 15//15 24//24
f 43//43 24//24 21//21
f 21//21 24//24 9//9
f 21//21 9//9 14//14
f 14//14 9//9 4//4
f 14//14 4//4 37//37
f 37//37 4//4 19//19
f 37//37 19//19 17//17
f 17//17 19//19 7//7
f 17//17 7//7 25//25
f 25//25 7//7 11//11
f 25//25 11//11 39//39
f 39//39 11//11 22//22
f 39//39 22//22 8//8
f 8//8 22//22 35//35
f 8//8 35//35 13//13
f 13//13 35//35 45//45
f 13//13 45//45 5//5
f 5//5 45//45 27//27
f 5//5 27//27 46//46
f 46//46 27//27 47//47
f 46//46 47//47 60//60
f 60//60 47//47 26//26
f 60//60 26//26 66//66
f 66//66 26//26 44//44
f 66//66 44//44 16//16
f 16//16 44//44 36//36
f 23//23 63//63 36//36
f 36//36 63//63 16//16
f 23//23 1//1 12//12
f 59//59 2//2 63//63
f 12//12 1//1 6//6
f 53//53 2//2 59//59
f 6//6 1//1 20//20
f 38//38 2//2 53//53
f 20//20 1//1 3//3
f 52//52 2//2 38//38
f 3//3 1//1 57//57
f 58//58 2//2 52//52
f 57//57 1//1 64//64
f 65//65 2//2 58//58
f 64//64 1//1 61//61
f 62//62 2//2 65//65
f 61//61 1//1 55//55
f 56//56 2//2 62//62
f 55//55 1//1 41//41
f 42//42 2//2 56//56
f 41//41 1//1 32//32
f 33//33 2//2 42//42
f 32//32 1//1 48//48
f 50//50 2//2 33//33
f 48//48 1//1 28//28
f 29//29 2//2 50//50
f 28//28 1//1 49//49
f 51//51 2//2 29//29
f 49//49 1//1 30//30
f 31//31 2//2 51//51
f 30//30 1//1 40//40
f 10//10 2//2 31//31
f 40//40 1//1 54//54
f 18//18 2//2 10//10
f 54//54 1//1 15//15
f 34//34 2//2 18//18
f 15//15 1//1 24//24
f 43//43 2//2 34//34
f 24//24 1//1 9//9
f 21//21 2//2 43//43
f 9//9 1//1 4//4
f 14//14 2//2 21//21
f 4//4 1//1 19//19
f 37//37 2//2 14//14
f 19//19 1//1 7//7
f 17//17 2//2 37//37
f 7//7 1//1 11//11
f 25//25 2//2 17//17
f 11//11 1//1 22//22
f 39//39 2//2 25//25
f 22//22 1//1 35//35
f 8//8 2//2 39//39
f 35//35 1//1 45//45
f 13//13 2//2 8//8
f 45//45 1//1 27//27
f 5//5 2//2 13//13
f 27//27 1//1 47//47
f 46//46 2//2 5//5
f 47//47 1//1 26//26
f 60//60 2//2 46//46
f 26//26 1//1 44//44
f 66//66 2//2 60//60
f 44//44 1//1 36//36
f 16//16 2//2 66//66
f 23//23 36//36 1//1
f 63//63 2//2 16//16