# https://github.com/mikedh/trimesh
v 0.00000832 0.00006577 0.33862558
v 0.00000832 0.00006577 0.00021584
v 0.00000832 -0.00015295 0.33837823
v 0.00000832 -0.00015295 0.00046320
v 0.00000832 -0.00000350 0.00000136
v 0.00000832 -0.00000350 0.33884007
v 0.07315001 -0.06694298 0.16970314
v 0.07315001 -0.06694298 0.16913795
v -0.07345044 -0.06703424 0.16942054
v -0.07345044 0.06703424 0.16942054
v 0.00023390 -0.00000350 0.00063804
v 0.00023390 -0.00000350 0.33820338
v -0.00003028 -0.00000350 0.33873096
v -0.00003028 -0.00000350 0.00011012
v 0.07345044 -0.06703424 0.16942054
v 0.07345044 0.06703424 0.16942054
v -0.07342677 -0.06696964 0.16948729
v -0.07342677 -0.06696964 0.16935413
v -0.07342677 0.06696964 0.16948729
v -0.07342677 0.06696964 0.16935413
v -0.07315001 -0.06694298 0.16913829
v -0.07315001 -0.06694298 0.16970314
v 0.07331078 0.06699182 0.16955201
v 0.07331078 0.06699182 0.16928941
v -0.07331099 0.06699182 0.16955201
v -0.07331099 0.06699182 0.16928941
v 0.07331248 0.06665635 0.16903121
v 0.07331248 0.06665635 0.16981021
v 0.07331248 -0.06665635 0.16903121
v 0.07331248 -0.06665635 0.16981021
vn -0.00016419 0.94911728 0.31492279
vn -0.00016351 0.94911729 -0.31492276
vn 0.00029685 -0.94895817 0.31540182
vn 0.00029616 -0.94895815 -0.31540187
vn 0.00010867 0.00018330 -0.99999998
vn -0.00014949 0.00018339 0.99999997
vn 0.04591611 -0.93092062 0.36232377
vn 0.04591650 -0.93092033 -0.36232446
vn -0.71176576 -0.70241682 -0.00035252
vn -0.71177447 0.70240795 -0.00042026
vn 0.93995253 0.00052105 -0.34130481
vn 0.93995252 0.00052185 0.34130484
vn -0.94012952 -0.00007790 0.34081737
vn -0.93983444 -0.00007656 -0.34163024
vn 0.71160935 -0.70257536 -0.00005034
vn 0.71160120 0.70258359 -0.00017640
vn -0.91831731 -0.05410048 0.39213066
vn -0.91841439 -0.05241998 -0.39213155
vn -0.91834045 0.05403915 0.39208492
vn -0.91843684 0.05236039 -0.39208693
vn -0.04535093 -0.93102374 -0.36212994
vn -0.04568608 -0.93100695 0.36213097
vn 0.04596073 0.93099281 0.36213257
vn 0.04523811 0.93102955 -0.36212912
vn -0.04620916 0.93092080 0.36228605
vn -0.04548319 0.93095852 -0.36228100
vn 0.91827286 0.05417327 -0.39222470
vn 0.91825578 0.05446106 0.39222483
vn 0.91841842 -0.05378809 -0.39193679
vn 0.91840182 -0.05407469 0.39193624
f 16//16 10//10 25//25
f 16//16 25//25 23//23
f 6//6 16//16 23//23
f 6//6 23//23 1//1
f 10//10 6//6 1//1
f 10//10 1//1 25//25
f 23//23 25//25 1//1
f 10//10 9//9 17//17
f 10//10 17//17 19//19
f 9//9 6//6 13//13
f 9//9 13//13 17//17
f 6//6 10//10 19//19
f 6//6 19//19 13//13
f 17//17 13//13 19//19
f 9//9 15//15 7//7
f 9//9 7//7 22//22
f 15//15 6//6 3//3
f 15//15 3//3 7//7
f 6//6 9//9 22//22
f 6//6 22//22 3//3
f 7//7 3//3 22//22
f 15//15 16//16 28//28
f 15//15 28//28 30//30
f 6//6 15//15 30//30
f 6//6 30//30 12//12
f 16//16 6//6 12//12
f 16//16 12//12 28//28
f 28//28 12//12 30//30
f 27//27 29//29 11//11
f 11//11 5//5 16//16
f 27//27 11//11 16//16
f 29//29 15//15 5//5
f 11//11 29//29 5//5
f 16//16 15//15 27//27
f 27//27 15//15 29//29
f 21//21 4//4 8//8
f 9//9 5//5 21//21
f 21//21 5//5 4//4
f 5//5 15//15 4//4
f 8//8 4//4 15//15
f 8//8 15//15 9//9
f 21//21 8//8 9//9
f 18//18 20//20 14//14
f 10//10 5//5 20//20
f 14//14 20//20 5//5
f 14//14 5//5 9//9
f 18//18 14//14 9//9
f 9//9 10//10 18//18
f 18//18 10//10 20//20
f 26//26 24//24 2//2
f 2//2 5//5 10//10
f 10//10 26//26 2//2
f 16//16 5//5 24//24
f 24//24 5//5 2//2
f 10//10 16//16 26//26
f 24//24 26//26 16//16