# https://github.com/mikedh/trimesh
v 0.00000000 0.00000000 0.00002730
v 0.00000000 0.00000000 0.69997830
v 0.00000000 -0.05000010 0.00002730
v 0.00000000 0.05000010 0.00002730
v -0.01913420 -0.04619410 0.00002730
v 0.03535540 0.03535540 0.00002730
v 0.03535540 -0.03535540 0.00002730
v -0.00975460 0.04903940 0.00002730
v -0.05000010 -0.00000010 0.00002730
v -0.04157360 0.02777850 0.00002730
v 0.04903940 -0.00975450 0.00002730
v 0.04903940 0.00975460 0.00002730
v 0.02777860 -0.04157360 0.00002730
v -0.04619410 0.01913410 0.00002730
v -0.00975450 -0.04903940 0.00002730
v -0.04157350 -0.02777860 0.00002730
v 0.00975450 0.04903940 0.00002730
v 0.00975450 -0.04903940 0.00002730
v -0.03535550 0.03535540 0.00002730
v -0.01913430 0.04619400 0.00002730
v -0.04619400 -0.01913430 0.00002730
v 0.04619410 -0.01913420 0.00002730
v 0.04619410 0.01913420 0.00002730
v 0.02777850 0.04157360 0.00002730
v -0.02777860 -0.04157360 0.00002730
v -0.02777860 0.04157350 0.00002730
v -0.04903940 -0.00975460 0.00002730
v -0.04903940 0.00975450 0.00002730
v 0.04157360 0.02777860 0.00002730
v 0.04157360 -0.02777860 0.00002730
v 0.05000010 0.00000000 0.00002730
v -0.03535540 -0.03535540 0.00002730
v 0.01913420 -0.04619410 0.00002730
v 0.01913420 0.04619410 0.00002730
vn 0.00000000 0.00000000 -1.00000000
vn -0.00000002 0.00000001 1.00000000
vn 0.00000000 -0.75175673 -0.65944054
vn 0.00000037 0.75175663 -0.65944065
vn -0.28768411 -0.69453344 -0.65944003
vn 0.53157061 0.53157403 -0.65944047
vn 0.53157189 -0.53157189 -0.65944117
vn -0.14666276 0.73731354 -0.65943823
vn -0.75175663 -0.00000038 -0.65944065
vn -0.62506518 0.41765047 -0.65944038
vn 0.73731317 -0.14665934 -0.65943940
vn 0.73731341 0.14666014 -0.65943896
vn 0.41765571 -0.62506334 -0.65943880
vn -0.69453274 0.28768501 -0.65944037
vn -0.14665934 -0.73731317 -0.65943940
vn -0.62506295 -0.41765407 -0.65944021
vn 0.14665934 0.73731317 -0.65943940
vn 0.14665934 -0.73731317 -0.65943940
vn -0.53157384 0.53157383 -0.65943803
vn -0.28768897 0.69453089 -0.65944060
vn -0.69453089 -0.28768897 -0.65944060
vn 0.69453344 -0.28768411 -0.65944003
vn 0.69453275 0.28768503 -0.65944035
vn 0.41765458 0.62506278 -0.65944004
vn -0.41765571 -0.62506334 -0.65943880
vn -0.41765171 0.62506378 -0.65944091
vn -0.73731338 -0.14666311 -0.65943834
vn -0.73731340 0.14666013 -0.65943897
vn 0.62506334 0.41765571 -0.65943880
vn 0.62506334 -0.41765571 -0.65943880
vn 0.75175663 -0.00000037 -0.65944065
vn -0.53157450 -0.53157033 -0.65944032
vn 0.28768411 -0.69453344 -0.65944003
vn 0.28768595 0.69453317 -0.65943951
f 32//32 25//25 2//2
f 5//5 2//2 25//25
f 15//15 2//2 5//5
f 3//3 2//2 15//15
f 18//18 2//2 3//3
f 33//33 2//2 18//18
f 13//13 2//2 33//33
f 7//7 2//2 13//13
f 30//30 2//2 7//7
f 22//22 2//2 30//30
f 11//11 2//2 22//22
f 31//31 2//2 11//11
f 12//12 2//2 31//31
f 23//23 2//2 12//12
f 29//29 2//2 23//23
f 6//6 2//2 29//29
f 24//24 2//2 6//6
f 34//34 2//2 24//24
f 17//17 2//2 34//34
f 4//4 2//2 17//17
f 8//8 2//2 4//4
f 20//20 2//2 8//8
f 26//26 2//2 20//20
f 19//19 2//2 26//26
f 10//10 2//2 19//19
f 14//14 2//2 10//10
f 28//28 2//2 14//14
f 9//9 2//2 28//28
f 27//27 2//2 9//9
f 21//21 2//2 27//27
f 16//16 2//2 21//21
f 32//32 2//2 16//16
f 32//32 1//1 25//25
f 25//25 1//1 5//5
f 5//5 1//1 15//15
f 15//15 1//1 3//3
f 3//3 1//1 18//18
f 18//18 1//1 33//33
f 33//33 1//1 13//13
f 13//13 1//1 7//7
f 7//7 1//1 30//30
f 30//30 1//1 22//22
f 22//22 1//1 11//11
f 11//11 1//1 31//31
f 31//31 1//1 12//12
f 12//12 1//1 23//23
f 23//23 1//1 29//29
f 29//29 1//1 6//6
f 6//6 1//1 24//24
f 24//24 1//1 34//34
f 34//34 1//1 17//17
f 17//17 1//1 4//4
f 4//4 1//1 8//8
f 8//8 1//1 20//20
f 20//20 1//1 26//26
f 26//26 1//1 19//19
f 19//19 1//1 10//10
f 10//10 1//1 14//14
f 14//14 1//1 28//28
f 28//28 1//1 9//9
f 9//9 1//1 27//27
f 27//27 1//1 21//21
f 21//21 1//1 16//16
f 32//32 16//16 1//1