# https://github.com/mikedh/trimesh
v 0.00000000 0.00000000 0.00002473
v 0.00000000 0.00000000 0.63399802
v 0.00000000 -0.12708189 0.00002473
v 0.00000000 0.12708189 0.00002473
v -0.02260611 -0.11740843 0.00002473
v 0.04177066 0.08986044 0.00002473
v 0.04177066 -0.08986044 0.00002473
v -0.01152458 0.12464014 0.00002473
v -0.05907265 -0.00000025 0.00002473
v -0.04911715 0.07060274 0.00002473
v 0.05793763 -0.02479236 0.00002473
v 0.05793763 0.02479261 0.00002473
v 0.03281904 -0.10566482 0.00002473
v -0.05457604 0.04863185 0.00002473
v -0.01152446 -0.12464014 0.00002473
v -0.04911703 -0.07060300 0.00002473
v 0.01152446 0.12464014 0.00002473
v 0.01152446 -0.12464014 0.00002473
v -0.04177077 0.08986044 0.00002473
v -0.02260623 0.11740818 0.00002473
v -0.05457593 -0.04863236 0.00002473
v 0.05457604 -0.04863211 0.00002473
v 0.05457604 0.04863211 0.00002473
v 0.03281892 0.10566482 0.00002473
v -0.03281904 -0.10566482 0.00002473
v -0.03281904 0.10566457 0.00002473
v -0.05793763 -0.02479261 0.00002473
v -0.05793763 0.02479236 0.00002473
v 0.04911715 0.07060300 0.00002473
v 0.04911715 -0.07060300 0.00002473
v 0.05907265 0.00000000 0.00002473
v -0.04177066 -0.08986044 0.00002473
v 0.02260611 -0.11740843 0.00002473
v 0.02260611 0.11740843 0.00002473
vn 0.00000000 0.00000000 -1.00000000
vn -0.00000002 0.00000002 1.00000000
vn 0.00000000 -0.80891274 -0.58792872
vn 0.00000082 0.80891259 -0.58792892
vn -0.51253723 -0.59802658 -0.61617351
vn 0.68900050 0.32826423 -0.64615857
vn 0.68900092 -0.32826190 -0.64615931
vn -0.30273137 0.74285065 -0.59709850
vn -0.74864598 -0.00000018 -0.66296998
vn -0.72081891 0.22862228 -0.65433321
vn 0.74611555 -0.07020864 -0.66210447
vn 0.74611572 0.07020905 -0.66210423
vn 0.62864920 -0.45085422 -0.63366446
vn -0.73775211 0.14473590 -0.65937345
vn -0.30272601 -0.74285145 -0.59710023
vn -0.72081832 -0.22862495 -0.65433293
vn 0.30272601 0.74285145 -0.59710023
vn 0.30272601 -0.74285145 -0.59710023
vn -0.68900224 0.32826429 -0.64615669
vn -0.51254306 0.59801998 -0.61617507
vn -0.73775165 -0.14473815 -0.65937347
vn 0.73775236 -0.14473542 -0.65937327
vn 0.73775213 0.14473591 -0.65937342
vn 0.62864850 0.45085334 -0.63366578
vn -0.62864920 -0.45085422 -0.63366446
vn -0.62864663 0.45085502 -0.63366644
vn -0.74611590 -0.07021054 -0.66210388
vn -0.74611571 0.07020904 -0.66210425
vn 0.72081881 0.22862631 -0.65433191
vn 0.72081881 -0.22862631 -0.65433191
vn 0.74864598 -0.00000017 -0.66296998
vn -0.68900212 -0.32826036 -0.64615881
vn 0.51253723 -0.59802658 -0.61617351
vn 0.51253908 0.59802553 -0.61617300
f 32//32 25//25 2//2
f 5//5 2//2 25//25
f 15//15 2//2 5//5
f 3//3 2//2 15//15
f 18//18 2//2 3//3
f 33//33 2//2 18//18
f 13//13 2//2 33//33
f 7//7 2//2 13//13
f 30//30 2//2 7//7
f 22//22 2//2 30//30
f 11//11 2//2 22//22
f 31//31 2//2 11//11
f 12//12 2//2 31//31
f 23//23 2//2 12//12
f 29//29 2//2 23//23
f 6//6 2//2 29//29
f 24//24 2//2 6//6
f 34//34 2//2 24//24
f 17//17 2//2 34//34
f 4//4 2//2 17//17
f 8//8 2//2 4//4
f 20//20 2//2 8//8
f 26//26 2//2 20//20
f 19//19 2//2 26//26
f 10//10 2//2 19//19
f 14//14 2//2 10//10
f 28//28 2//2 14//14
f 9//9 2//2 28//28
f 27//27 2//2 9//9
f 21//21 2//2 27//27
f 16//16 2//2 21//21
f 32//32 2//2 16//16
f 32//32 1//1 25//25
f 25//25 1//1 5//5
f 5//5 1//1 15//15
f 15//15 1//1 3//3
f 3//3 1//1 18//18
f 18//18 1//1 33//33
f 33//33 1//1 13//13
f 13//13 1//1 7//7
f 7//7 1//1 30//30
f 30//30 1//1 22//22
f 22//22 1//1 11//11
f 11//11 1//1 31//31
f 31//31 1//1 12//12
f 12//12 1//1 23//23
f 23//23 1//1 29//29
f 29//29 1//1 6//6
f 6//6 1//1 24//24
f 24//24 1//1 34//34
f 34//34 1//1 17//17
f 17//17 1//1 4//4
f 4//4 1//1 8//8
f 8//8 1//1 20//20
f 20//20 1//1 26//26
f 26//26 1//1 19//19
f 19//19 1//1 10//10
f 10//10 1//1 14//14
f 14//14 1//1 28//28
f 28//28 1//1 9//9
f 9//9 1//1 27//27
f 27//27 1//1 21//21
f 21//21 1//1 16//16
f 32//32 16//16 1//1