# https://github.com/mikedh/trimesh
v 0.00000000 0.00000000 0.00001230
v 0.00000000 0.00000000 0.31536238
v 0.00000000 -0.12391259 0.00001230
v 0.00000000 0.12391259 0.00001230
v -0.03440233 -0.11448038 0.00001230
v 0.06356724 0.08761941 0.00001230
v 0.06356724 -0.08761941 0.00001230
v -0.01753828 0.12153174 0.00001230
v -0.08989768 -0.00000025 0.00001230
v -0.07474725 0.06884198 0.00001230
v 0.08817039 -0.02417406 0.00001230
v 0.08817039 0.02417431 0.00001230
v 0.04994453 -0.10302964 0.00001230
v -0.08305468 0.04741902 0.00001230
v -0.01753810 -0.12153174 0.00001230
v -0.07474707 -0.06884223 0.00001230
v 0.01753810 0.12153174 0.00001230
v 0.01753810 -0.12153174 0.00001230
v -0.06356742 0.08761941 0.00001230
v -0.03440251 0.11448013 0.00001230
v -0.08305450 -0.04741952 0.00001230
v 0.08305468 -0.04741927 0.00001230
v 0.08305468 0.04741927 0.00001230
v 0.04994435 0.10302964 0.00001230
v -0.04994453 -0.10302964 0.00001230
v -0.04994453 0.10302939 0.00001230
v -0.08817039 -0.02417431 0.00001230
v -0.08817039 0.02417406 0.00001230
v 0.07474725 0.06884223 0.00001230
v 0.07474725 -0.06884223 0.00001230
v 0.08989768 0.00000000 0.00001230
v -0.06356724 -0.08761941 0.00001230
v 0.03440233 -0.11448038 0.00001230
v 0.03440233 0.11448038 0.00001230
vn 0.00000000 0.00000000 -1.00000000
vn -0.00000006 0.00000003 1.00000000
vn -0.00000000 -0.84646157 -0.53244983
vn 0.00000056 0.84646147 -0.53244997
vn -0.40947821 -0.73247399 -0.54388368
vn 0.66357912 0.49021635 -0.56511120
vn 0.66358032 -0.49021374 -0.56511206
vn -0.21870653 0.81565402 -0.53560804
vn -0.81060284 -0.00000032 -0.58559631
vn -0.73447212 0.36210933 -0.57395779
vn 0.80295562 -0.11768975 -0.58430420
vn 0.80295580 0.11769044 -0.58430381
vn 0.55775382 -0.61755114 -0.55456403
vn -0.77881247 0.23782912 -0.58042092
vn -0.21870199 -0.81565429 -0.53560948
vn -0.73447055 -0.36211301 -0.57395747
vn 0.21870199 0.81565429 -0.53560948
vn 0.21870199 -0.81565429 -0.53560948
vn -0.66358134 0.49021615 -0.56510879
vn -0.40948444 0.73246964 -0.54388484
vn -0.77881136 -0.23783262 -0.58042098
vn 0.77881293 -0.23782838 -0.58042061
vn 0.77881252 0.23782916 -0.58042084
vn 0.55775306 0.61755052 -0.55456549
vn -0.55775382 -0.61755114 -0.55456403
vn -0.55775047 0.61755213 -0.55456630
vn -0.80295584 -0.11769286 -0.58430327
vn -0.80295577 0.11769041 -0.58430385
vn 0.73447082 0.36211482 -0.57395599
vn 0.73447082 -0.36211482 -0.57395599
vn 0.81060284 -0.00000029 -0.58559631
vn -0.66358229 -0.49021185 -0.56511140
vn 0.40947821 -0.73247399 -0.54388368
vn 0.40948025 0.73247323 -0.54388316
f 32//32 25//25 2//2
f 5//5 2//2 25//25
f 15//15 2//2 5//5
f 3//3 2//2 15//15
f 18//18 2//2 3//3
f 33//33 2//2 18//18
f 13//13 2//2 33//33
f 7//7 2//2 13//13
f 30//30 2//2 7//7
f 22//22 2//2 30//30
f 11//11 2//2 22//22
f 31//31 2//2 11//11
f 12//12 2//2 31//31
f 23//23 2//2 12//12
f 29//29 2//2 23//23
f 6//6 2//2 29//29
f 24//24 2//2 6//6
f 34//34 2//2 24//24
f 17//17 2//2 34//34
f 4//4 2//2 17//17
f 8//8 2//2 4//4
f 20//20 2//2 8//8
f 26//26 2//2 20//20
f 19//19 2//2 26//26
f 10//10 2//2 19//19
f 14//14 2//2 10//10
f 28//28 2//2 14//14
f 9//9 2//2 28//28
f 27//27 2//2 9//9
f 21//21 2//2 27//27
f 16//16 2//2 21//21
f 32//32 2//2 16//16
f 32//32 1//1 25//25
f 25//25 1//1 5//5
f 5//5 1//1 15//15
f 15//15 1//1 3//3
f 3//3 1//1 18//18
f 18//18 1//1 33//33
f 33//33 1//1 13//13
f 13//13 1//1 7//7
f 7//7 1//1 30//30
f 30//30 1//1 22//22
f 22//22 1//1 11//11
f 11//11 1//1 31//31
f 31//31 1//1 12//12
f 12//12 1//1 23//23
f 23//23 1//1 29//29
f 29//29 1//1 6//6
f 6//6 1//1 24//24
f 24//24 1//1 34//34
f 34//34 1//1 17//17
f 17//17 1//1 4//4
f 4//4 1//1 8//8
f 8//8 1//1 20//20
f 20//20 1//1 26//26
f 26//26 1//1 19//19
f 19//19 1//1 10//10
f 10//10 1//1 14//14
f 14//14 1//1 28//28
f 28//28 1//1 9//9
f 9//9 1//1 27//27
f 27//27 1//1 21//21
f 21//21 1//1 16//16
f 32//32 16//16 1//1