# https://github.com/mikedh/trimesh
v 0.00000000 0.00000000 0.00002541
v 0.00000000 0.00000000 0.65160854
v 0.00000000 -0.12472138 0.00002541
v 0.00000000 0.12472138 0.00002541
v -0.02290484 -0.11522760 0.00002541
v 0.04232264 0.08819131 0.00002541
v 0.04232264 -0.08819131 0.00002541
v -0.01167687 0.12232498 0.00002541
v -0.05985328 -0.00000025 0.00002541
v -0.04976622 0.06929132 0.00002541
v 0.05870326 -0.02433184 0.00002541
v 0.05870326 0.02433209 0.00002541
v 0.03325274 -0.10370212 0.00002541
v -0.05529725 0.04772853 0.00002541
v -0.01167675 -0.12232498 0.00002541
v -0.04976610 -0.06929157 0.00002541
v 0.01167675 0.12232498 0.00002541
v 0.01167675 -0.12232498 0.00002541
v -0.04232276 0.08819131 0.00002541
v -0.02290496 0.11522735 0.00002541
v -0.05529713 -0.04772903 0.00002541
v 0.05529725 -0.04772878 0.00002541
v 0.05529725 0.04772878 0.00002541
v 0.03325262 0.10370212 0.00002541
v -0.03325274 -0.10370212 0.00002541
v -0.03325274 0.10370187 0.00002541
v -0.05870326 -0.02433209 0.00002541
v -0.05870326 0.02433184 0.00002541
v 0.04976622 0.06929157 0.00002541
v 0.04976622 -0.06929157 0.00002541
v 0.05985328 0.00000000 0.00002541
v -0.04232264 -0.08819131 0.00002541
v 0.02290484 -0.11522760 0.00002541
v 0.02290484 0.11522760 0.00002541
vn 0.00000000 0.00000000 -1.00000000
vn -0.00000002 0.00000002 1.00000000
vn -0.00000000 -0.80549840 -0.59259794
vn 0.00000079 0.80549825 -0.59259815
vn -0.50271878 -0.60408300 -0.61835068
vn 0.68455731 0.33631235 -0.64674206
vn 0.68455776 -0.33631000 -0.64674280
vn -0.29442926 0.74315461 -0.60085991
vn -0.74850987 -0.00000019 -0.66312365
vn -0.71844923 0.23502895 -0.65466945
vn 0.74575712 -0.07239326 -0.66227300
vn 0.74575730 0.07239369 -0.66227276
vn 0.62136237 -0.45931079 -0.63477745
vn -0.73668801 0.14908639 -0.65959383
vn -0.29442393 -0.74315533 -0.60086163
vn -0.71844860 -0.23503167 -0.65466918
vn 0.29442393 0.74315533 -0.60086163
vn 0.29442393 -0.74315533 -0.60086163
vn -0.68455911 0.33631238 -0.64674014
vn -0.50272465 0.60407658 -0.61835217
vn -0.73668752 -0.14908870 -0.65959386
vn 0.73668828 -0.14908589 -0.65959364
vn 0.73668804 0.14908640 -0.65959380
vn 0.62136165 0.45930993 -0.63477877
vn -0.62136237 -0.45931079 -0.63477745
vn -0.62135971 0.45931161 -0.63477945
vn -0.74575747 -0.07239522 -0.66227240
vn -0.74575729 0.07239368 -0.66227277
vn 0.71844909 0.23503306 -0.65466814
vn 0.71844909 -0.23503306 -0.65466814
vn 0.74850987 -0.00000018 -0.66312365
vn -0.68455902 -0.33630843 -0.64674228
vn 0.50271878 -0.60408300 -0.61835068
vn 0.50272067 0.60408196 -0.61835016
f 32//32 25//25 2//2
f 5//5 2//2 25//25
f 15//15 2//2 5//5
f 3//3 2//2 15//15
f 18//18 2//2 3//3
f 33//33 2//2 18//18
f 13//13 2//2 33//33
f 7//7 2//2 13//13
f 30//30 2//2 7//7
f 22//22 2//2 30//30
f 11//11 2//2 22//22
f 31//31 2//2 11//11
f 12//12 2//2 31//31
f 23//23 2//2 12//12
f 29//29 2//2 23//23
f 6//6 2//2 29//29
f 24//24 2//2 6//6
f 34//34 2//2 24//24
f 17//17 2//2 34//34
f 4//4 2//2 17//17
f 8//8 2//2 4//4
f 20//20 2//2 8//8
f 26//26 2//2 20//20
f 19//19 2//2 26//26
f 10//10 2//2 19//19
f 14//14 2//2 10//10
f 28//28 2//2 14//14
f 9//9 2//2 28//28
f 27//27 2//2 9//9
f 21//21 2//2 27//27
f 16//16 2//2 21//21
f 32//32 2//2 16//16
f 32//32 1//1 25//25
f 25//25 1//1 5//5
f 5//5 1//1 15//15
f 15//15 1//1 3//3
f 3//3 1//1 18//18
f 18//18 1//1 33//33
f 33//33 1//1 13//13
f 13//13 1//1 7//7
f 7//7 1//1 30//30
f 30//30 1//1 22//22
f 22//22 1//1 11//11
f 11//11 1//1 31//31
f 31//31 1//1 12//12
f 12//12 1//1 23//23
f 23//23 1//1 29//29
f 29//29 1//1 6//6
f 6//6 1//1 24//24
f 24//24 1//1 34//34
f 34//34 1//1 17//17
f 17//17 1//1 4//4
f 4//4 1//1 8//8
f 8//8 1//1 20//20
f 20//20 1//1 26//26
f 26//26 1//1 19//19
f 19//19 1//1 10//10
f 10//10 1//1 14//14
f 14//14 1//1 28//28
f 28//28 1//1 9//9
f 9//9 1//1 27//27
f 27//27 1//1 21//21
f 21//21 1//1 16//16
f 32//32 16//16 1//1