# https://github.com/mikedh/trimesh
v 0.00000000 0.00000000 0.00002340
v 0.00000000 0.00000000 0.59998140
v 0.00000000 -0.12500025 0.00002340
v 0.00000000 0.12500025 0.00002340
v -0.04783550 -0.11548525 0.00002340
v 0.08838850 0.08838850 0.00002340
v 0.08838850 -0.08838850 0.00002340
v -0.02438650 0.12259850 0.00002340
v -0.12500025 -0.00000025 0.00002340
v -0.10393400 0.06944625 0.00002340
v 0.12259850 -0.02438625 0.00002340
v 0.12259850 0.02438650 0.00002340
v 0.06944650 -0.10393400 0.00002340
v -0.11548525 0.04783525 0.00002340
v -0.02438625 -0.12259850 0.00002340
v -0.10393375 -0.06944650 0.00002340
v 0.02438625 0.12259850 0.00002340
v 0.02438625 -0.12259850 0.00002340
v -0.08838875 0.08838850 0.00002340
v -0.04783575 0.11548500 0.00002340
v -0.11548500 -0.04783575 0.00002340
v 0.11548525 -0.04783550 0.00002340
v 0.11548525 0.04783550 0.00002340
v 0.06944625 0.10393400 0.00002340
v -0.06944650 -0.10393400 0.00002340
v -0.06944650 0.10393375 0.00002340
v -0.12259850 -0.02438650 0.00002340
v -0.12259850 0.02438625 0.00002340
v 0.10393400 0.06944650 0.00002340
v 0.10393400 -0.06944650 0.00002340
v 0.12500025 0.00000000 0.00002340
v -0.08838850 -0.08838850 0.00002340
v 0.04783550 -0.11548525 0.00002340
v 0.04783550 0.11548525 0.00002340
vn 0.00000000 0.00000000 -1.00000000
vn -0.00000004 0.00000002 1.00000000
vn -0.00000000 -0.79381209 -0.60816311
vn 0.00000039 0.79381201 -0.60816322
vn -0.30377794 -0.73338752 -0.60816256
vn 0.56130815 0.56131174 -0.60816305
vn 0.56130955 -0.56130955 -0.60816377
vn -0.15486742 0.77856063 -0.60816069
vn -0.79381201 -0.00000041 -0.60816322
vn -0.66003303 0.44101500 -0.60816295
vn 0.77856039 -0.15486385 -0.60816191
vn 0.77856059 0.15486469 -0.60816144
vn 0.44102041 -0.66003096 -0.60816127
vn -0.73338681 0.30377889 -0.60816295
vn -0.15486385 -0.77856039 -0.60816191
vn -0.66003065 -0.44101876 -0.60816281
vn 0.15486385 0.77856039 -0.60816191
vn 0.15486385 -0.77856039 -0.60816191
vn -0.56131134 0.56131132 -0.60816048
vn -0.30378306 0.73338488 -0.60816320
vn -0.73338488 -0.30378306 -0.60816320
vn 0.73338752 -0.30377794 -0.60816256
vn 0.73338684 0.30377892 -0.60816289
vn 0.44101928 0.66003048 -0.60816261
vn -0.44102041 -0.66003096 -0.60816127
vn -0.44101635 0.66003160 -0.60816352
vn -0.77856047 -0.15486779 -0.60816080
vn -0.77856057 0.15486467 -0.60816147
vn 0.66003096 0.44102041 -0.60816127
vn 0.66003096 -0.44102041 -0.60816127
vn 0.79381201 -0.00000039 -0.60816322
vn -0.56131221 -0.56130784 -0.60816290
vn 0.30377794 -0.73338752 -0.60816256
vn 0.30377984 0.73338718 -0.60816203
f 32//32 25//25 2//2
f 5//5 2//2 25//25
f 15//15 2//2 5//5
f 3//3 2//2 15//15
f 18//18 2//2 3//3
f 33//33 2//2 18//18
f 13//13 2//2 33//33
f 7//7 2//2 13//13
f 30//30 2//2 7//7
f 22//22 2//2 30//30
f 11//11 2//2 22//22
f 31//31 2//2 11//11
f 12//12 2//2 31//31
f 23//23 2//2 12//12
f 29//29 2//2 23//23
f 6//6 2//2 29//29
f 24//24 2//2 6//6
f 34//34 2//2 24//24
f 17//17 2//2 34//34
f 4//4 2//2 17//17
f 8//8 2//2 4//4
f 20//20 2//2 8//8
f 26//26 2//2 20//20
f 19//19 2//2 26//26
f 10//10 2//2 19//19
f 14//14 2//2 10//10
f 28//28 2//2 14//14
f 9//9 2//2 28//28
f 27//27 2//2 9//9
f 21//21 2//2 27//27
f 16//16 2//2 21//21
f 32//32 2//2 16//16
f 32//32 1//1 25//25
f 25//25 1//1 5//5
f 5//5 1//1 15//15
f 15//15 1//1 3//3
f 3//3 1//1 18//18
f 18//18 1//1 33//33
f 33//33 1//1 13//13
f 13//13 1//1 7//7
f 7//7 1//1 30//30
f 30//30 1//1 22//22
f 22//22 1//1 11//11
f 11//11 1//1 31//31
f 31//31 1//1 12//12
f 12//12 1//1 23//23
f 23//23 1//1 29//29
f 29//29 1//1 6//6
f 6//6 1//1 24//24
f 24//24 1//1 34//34
f 34//34 1//1 17//17
f 17//17 1//1 4//4
f 4//4 1//1 8//8
f 8//8 1//1 20//20
f 20//20 1//1 26//26
f 26//26 1//1 19//19
f 19//19 1//1 10//10
f 10//10 1//1 14//14
f 14//14 1//1 28//28
f 28//28 1//1 9//9
f 9//9 1//1 27//27
f 27//27 1//1 21//21
f 21//21 1//1 16//16
f 32//32 16//16 1//1