# https://github.com/mikedh/trimesh
v -0.08706398 -0.06020735 -0.00002770
v -0.08706398 0.06020735 -0.00002684
v 0.08705735 0.06030046 0.86500144
v 0.08705735 0.06030046 0.00067354
v -0.08708717 -0.06022339 0.86570355
v -0.08708717 0.06022339 0.86570268
v -0.08706258 -0.06030046 0.00064843
v -0.08706258 -0.06030046 0.86502742
v 0.08708735 0.06022339 0.86570268
v -0.08719861 0.06022653 0.86517286
v -0.08719861 0.06022653 0.00050299
v -0.08719861 -0.06030046 -0.00002770
v -0.08719861 -0.06030046 0.86570355
v -0.08719861 0.06030046 0.86570268
v -0.08719861 0.06030046 -0.00002684
v -0.08719861 -0.06022653 0.86517286
v -0.08719861 -0.06022653 0.00050299
v 0.08719861 -0.06030046 0.86570268
v 0.08719861 -0.06030046 -0.00002770
v 0.08719861 0.06016924 0.86476077
v 0.08719861 0.06016924 0.00091421
v 0.08719861 -0.06016924 0.00091421
v 0.08719861 -0.06016924 0.86476164
v 0.08719861 0.06030046 0.86570268
v 0.08719861 0.06030046 -0.00002770
v 0.08706258 -0.06030046 0.00064843
v 0.08706258 -0.06030046 0.86502742
v 0.08708717 -0.06022339 0.86570268
v -0.08705735 0.06030046 0.86500144
v -0.08705735 0.06030046 0.00067440
v 0.08706398 -0.06020735 -0.00002770
v 0.08706398 0.06020735 -0.00002770
vn -0.00000248 0.00000359 -1.00000000
vn -0.00000153 0.00000139 -1.00000000
vn 0.00000000 1.00000000 0.00000000
vn 0.00000000 1.00000000 0.00000000
vn 0.00000153 0.00000139 1.00000000
vn 0.00000248 0.00000359 1.00000000
vn 0.00000000 -1.00000000 0.00000000
vn 0.00000000 -1.00000000 0.00000000
vn 0.00000000 0.00000000 1.00000000
vn -1.00000000 0.00000000 0.00000000
vn -1.00000000 0.00000000 0.00000000
vn -0.57735053 -0.57734886 -0.57735141
vn -0.57734987 -0.57734908 0.57735186
vn -0.57735000 0.57735168 0.57734913
vn -0.57735066 0.57735146 -0.57734868
vn -1.00000000 0.00000000 0.00000000
vn -1.00000000 0.00000000 0.00000000
vn 0.57735093 -0.57735005 0.57734982
vn 0.57735027 -0.57735027 -0.57735027
vn 1.00000000 0.00000000 0.00000000
vn 1.00000000 0.00000000 0.00000000
vn 1.00000000 0.00000000 0.00000000
vn 1.00000000 0.00000000 0.00000000
vn 0.57735027 0.57735027 0.57735027
vn 0.57734961 0.57735049 -0.57735071
vn 0.00000000 -1.00000000 0.00000000
vn 0.00000000 -1.00000000 0.00000000
vn 0.00000249 0.00000359 1.00000000
vn 0.00000000 1.00000000 0.00000000
vn 0.00000000 1.00000000 0.00000000
vn 0.00000000 0.00000000 -1.00000000
vn -0.00000249 0.00000359 -1.00000000
f 13//13 18//18 5//5
f 5//5 18//18 28//28
f 24//24 14//14 9//9
f 9//9 14//14 6//6
f 18//18 24//24 28//28
f 28//28 24//24 9//9
f 14//14 13//13 6//6
f 6//6 13//13 5//5
f 5//5 28//28 6//6
f 6//6 28//28 9//9
f 14//14 24//24 29//29
f 29//29 24//24 3//3
f 15//15 14//14 30//30
f 30//30 14//14 29//29
f 25//25 15//15 4//4
f 4//4 15//15 30//30
f 24//24 25//25 3//3
f 3//3 25//25 4//4
f 29//29 3//3 30//30
f 30//30 3//3 4//4
f 12//12 13//13 17//17
f 17//17 13//13 16//16
f 14//14 15//15 10//10
f 10//10 15//15 11//11
f 15//15 12//12 11//11
f 11//11 12//12 17//17
f 13//13 14//14 16//16
f 16//16 14//14 10//10
f 11//11 17//17 10//10
f 10//10 17//17 16//16
f 18//18 19//19 23//23
f 23//23 19//19 22//22
f 25//25 24//24 21//21
f 21//21 24//24 20//20
f 24//24 18//18 20//20
f 20//20 18//18 23//23
f 19//19 25//25 22//22
f 22//22 25//25 21//21
f 20//20 23//23 21//21
f 21//21 23//23 22//22
f 19//19 12//12 31//31
f 31//31 12//12 1//1
f 15//15 25//25 2//2
f 2//2 25//25 32//32
f 25//25 19//19 32//32
f 32//32 19//19 31//31
f 12//12 15//15 1//1
f 1//1 15//15 2//2
f 31//31 1//1 32//32
f 32//32 1//1 2//2
f 19//19 18//18 26//26
f 26//26 18//18 27//27
f 12//12 19//19 7//7
f 7//7 19//19 26//26
f 13//13 12//12 8//8
f 8//8 12//12 7//7
f 18//18 13//13 27//27
f 27//27 13//13 8//8
f 26//26 27//27 7//7
f 7//7 27//27 8//8