# https://github.com/mikedh/trimesh
v -0.10037003 -0.07504592 -0.00001552
v -0.10037003 0.07504592 -0.00001503
v 0.10036239 0.07516197 0.48451357
v 0.10036239 0.07516197 0.00037727
v -0.10039677 -0.07506591 0.48490685
v -0.10039677 0.07506591 0.48490636
v -0.10036842 -0.07516197 0.00036321
v -0.10036842 -0.07516197 0.48452812
v 0.10039697 0.07506591 0.48490636
v -0.10052524 0.07506982 0.48460959
v -0.10052524 0.07506982 0.00028174
v -0.10052524 -0.07516197 -0.00001552
v -0.10052524 -0.07516197 0.48490685
v -0.10052524 0.07516197 0.48490636
v -0.10052524 0.07516197 -0.00001503
v -0.10052524 -0.07506982 0.48460959
v -0.10052524 -0.07506982 0.00028174
v 0.10052524 -0.07516197 0.48490636
v 0.10052524 -0.07516197 -0.00001552
v 0.10052524 0.07499842 0.48437877
v 0.10052524 0.07499842 0.00051208
v 0.10052524 -0.07499842 0.00051208
v 0.10052524 -0.07499842 0.48437925
v 0.10052524 0.07516197 0.48490636
v 0.10052524 0.07516197 -0.00001552
v 0.10036842 -0.07516197 0.00036321
v 0.10036842 -0.07516197 0.48452812
v 0.10039677 -0.07506591 0.48490636
v -0.10036239 0.07516197 0.48451357
v -0.10036239 0.07516197 0.00037775
v 0.10037003 -0.07504592 -0.00001552
v 0.10037003 0.07504592 -0.00001552
vn -0.00000121 0.00000161 -1.00000000
vn -0.00000071 0.00000066 -1.00000000
vn 0.00000000 1.00000000 0.00000000
vn 0.00000000 1.00000000 0.00000000
vn 0.00000071 0.00000066 1.00000000
vn 0.00000121 0.00000161 1.00000000
vn 0.00000000 -1.00000000 0.00000000
vn 0.00000000 -1.00000000 0.00000000
vn 0.00000000 0.00000000 1.00000000
vn -1.00000000 0.00000000 0.00000000
vn -1.00000000 0.00000000 0.00000000
vn -0.57735039 -0.57734966 -0.57735076
vn -0.57735006 -0.57734976 0.57735099
vn -0.57735014 0.57735088 0.57734978
vn -0.57735048 0.57735078 -0.57734955
vn -1.00000000 0.00000000 0.00000000
vn -1.00000000 0.00000000 0.00000000
vn 0.57735061 -0.57735016 0.57735004
vn 0.57735027 -0.57735027 -0.57735027
vn 1.00000000 0.00000000 0.00000000
vn 1.00000000 0.00000000 0.00000000
vn 1.00000000 0.00000000 0.00000000
vn 1.00000000 0.00000000 0.00000000
vn 0.57735027 0.57735027 0.57735027
vn 0.57734993 0.57735038 -0.57735050
vn 0.00000000 -1.00000000 0.00000000
vn 0.00000000 -1.00000000 0.00000000
vn 0.00000121 0.00000161 1.00000000
vn 0.00000000 1.00000000 0.00000000
vn 0.00000000 1.00000000 0.00000000
vn 0.00000000 0.00000000 -1.00000000
vn -0.00000121 0.00000162 -1.00000000
f 13//13 18//18 5//5
f 5//5 18//18 28//28
f 24//24 14//14 9//9
f 9//9 14//14 6//6
f 18//18 24//24 28//28
f 28//28 24//24 9//9
f 14//14 13//13 6//6
f 6//6 13//13 5//5
f 5//5 28//28 6//6
f 6//6 28//28 9//9
f 14//14 24//24 29//29
f 29//29 24//24 3//3
f 15//15 14//14 30//30
f 30//30 14//14 29//29
f 25//25 15//15 4//4
f 4//4 15//15 30//30
f 24//24 25//25 3//3
f 3//3 25//25 4//4
f 29//29 3//3 30//30
f 30//30 3//3 4//4
f 12//12 13//13 17//17
f 17//17 13//13 16//16
f 14//14 15//15 10//10
f 10//10 15//15 11//11
f 15//15 12//12 11//11
f 11//11 12//12 17//17
f 13//13 14//14 16//16
f 16//16 14//14 10//10
f 11//11 17//17 10//10
f 10//10 17//17 16//16
f 18//18 19//19 23//23
f 23//23 19//19 22//22
f 25//25 24//24 21//21
f 21//21 24//24 20//20
f 24//24 18//18 20//20
f 20//20 18//18 23//23
f 19//19 25//25 22//22
f 22//22 25//25 21//21
f 20//20 23//23 21//21
f 21//21 23//23 22//22
f 19//19 12//12 31//31
f 31//31 12//12 1//1
f 15//15 25//25 2//2
f 2//2 25//25 32//32
f 25//25 19//19 32//32
f 32//32 19//19 31//31
f 12//12 15//15 1//1
f 1//1 15//15 2//2
f 31//31 1//1 32//32
f 32//32 1//1 2//2
f 19//19 18//18 26//26
f 26//26 18//18 27//27
f 12//12 19//19 7//7
f 7//7 19//19 26//26
f 13//13 12//12 8//8
f 8//8 12//12 7//7
f 18//18 13//13 27//27
f 27//27 13//13 8//8
f 26//26 27//27 7//7
f 7//7 27//27 8//8