# https://github.com/mikedh/trimesh
v -0.10217489 -0.05379382 -0.00001965
v -0.10217489 0.05379382 -0.00001903
v 0.10216711 0.05387700 0.61341456
v 0.10216711 0.05387700 0.00047764
v -0.10220211 -0.05380815 0.61391246
v -0.10220211 0.05380815 0.61391184
v -0.10217325 -0.05387700 0.00045983
v -0.10217325 -0.05387700 0.61343298
v 0.10220231 0.05380815 0.61391184
v -0.10233289 0.05381095 0.61353612
v -0.10233289 0.05381095 0.00035669
v -0.10233289 -0.05387700 -0.00001965
v -0.10233289 -0.05387700 0.61391246
v -0.10233289 0.05387700 0.61391184
v -0.10233289 0.05387700 -0.00001903
v -0.10233289 -0.05381095 0.61353612
v -0.10233289 -0.05381095 0.00035669
v 0.10233289 -0.05387700 0.61391184
v 0.10233289 -0.05387700 -0.00001965
v 0.10233289 0.05375977 0.61324388
v 0.10233289 0.05375977 0.00064831
v 0.10233289 -0.05375977 0.00064831
v 0.10233289 -0.05375977 0.61324450
v 0.10233289 0.05387700 0.61391184
v 0.10233289 0.05387700 -0.00001965
v 0.10217325 -0.05387700 0.00045983
v 0.10217325 -0.05387700 0.61343298
v 0.10220211 -0.05380815 0.61391184
v -0.10216711 0.05387700 0.61341456
v -0.10216711 0.05387700 0.00047825
v 0.10217489 -0.05379382 -0.00001965
v 0.10217489 0.05379382 -0.00001965
vn -0.00000150 0.00000285 -1.00000000
vn -0.00000104 0.00000088 -1.00000000
vn 0.00000000 1.00000000 0.00000000
vn 0.00000000 1.00000000 0.00000000
vn 0.00000104 0.00000088 1.00000000
vn 0.00000150 0.00000285 1.00000000
vn 0.00000000 -1.00000000 0.00000000
vn 0.00000000 -1.00000000 0.00000000
vn 0.00000000 0.00000000 1.00000000
vn -1.00000000 0.00000000 0.00000000
vn -1.00000000 0.00000000 0.00000000
vn -0.57735043 -0.57734905 -0.57735133
vn -0.57735010 -0.57734917 0.57735153
vn -0.57735011 0.57735149 0.57734921
vn -0.57735044 0.57735137 -0.57734900
vn -1.00000000 0.00000000 0.00000000
vn -1.00000000 0.00000000 0.00000000
vn 0.57735060 -0.57735015 0.57735006
vn 0.57735027 -0.57735027 -0.57735027
vn 1.00000000 0.00000000 0.00000000
vn 1.00000000 0.00000000 0.00000000
vn 1.00000000 0.00000000 0.00000000
vn 1.00000000 0.00000000 0.00000000
vn 0.57735027 0.57735027 0.57735027
vn 0.57734994 0.57735039 -0.57735048
vn 0.00000000 -1.00000000 0.00000000
vn 0.00000000 -1.00000000 0.00000000
vn 0.00000150 0.00000285 1.00000000
vn 0.00000000 1.00000000 0.00000000
vn 0.00000000 1.00000000 0.00000000
vn 0.00000000 0.00000000 -1.00000000
vn -0.00000150 0.00000285 -1.00000000
f 13//13 18//18 5//5
f 5//5 18//18 28//28
f 24//24 14//14 9//9
f 9//9 14//14 6//6
f 18//18 24//24 28//28
f 28//28 24//24 9//9
f 14//14 13//13 6//6
f 6//6 13//13 5//5
f 5//5 28//28 6//6
f 6//6 28//28 9//9
f 14//14 24//24 29//29
f 29//29 24//24 3//3
f 15//15 14//14 30//30
f 30//30 14//14 29//29
f 25//25 15//15 4//4
f 4//4 15//15 30//30
f 24//24 25//25 3//3
f 3//3 25//25 4//4
f 29//29 3//3 30//30
f 30//30 3//3 4//4
f 12//12 13//13 17//17
f 17//17 13//13 16//16
f 14//14 15//15 10//10
f 10//10 15//15 11//11
f 15//15 12//12 11//11
f 11//11 12//12 17//17
f 13//13 14//14 16//16
f 16//16 14//14 10//10
f 11//11 17//17 10//10
f 10//10 17//17 16//16
f 18//18 19//19 23//23
f 23//23 19//19 22//22
f 25//25 24//24 21//21
f 21//21 24//24 20//20
f 24//24 18//18 20//20
f 20//20 18//18 23//23
f 19//19 25//25 22//22
f 22//22 25//25 21//21
f 20//20 23//23 21//21
f 21//21 23//23 22//22
f 19//19 12//12 31//31
f 31//31 12//12 1//1
f 15//15 25//25 2//2
f 2//2 25//25 32//32
f 25//25 19//19 32//32
f 32//32 19//19 31//31
f 12//12 15//15 1//1
f 1//1 15//15 2//2
f 31//31 1//1 32//32
f 32//32 1//1 2//2
f 19//19 18//18 26//26
f 26//26 18//18 27//27
f 12//12 19//19 7//7
f 7//7 19//19 26//26
f 13//13 12//12 8//8
f 8//8 12//12 7//7
f 18//18 13//13 27//27
f 27//27 13//13 8//8
f 26//26 27//27 7//7
f 7//7 27//27 8//8