# https://github.com/mikedh/trimesh
v 0.00000000 0.00000000 0.65657043
v 0.00000000 0.00000000 -0.00002167
v 0.00000000 -0.07769460 0.65657043
v 0.00000000 0.07769460 0.65657043
v 0.06723009 0.01515789 -0.00002167
v 0.02623197 -0.07178042 0.65657043
v 0.02623197 0.07178042 0.65657043
v 0.05699487 0.04316519 -0.00002167
v -0.01337284 0.07620169 0.65657043
v -0.05699518 0.04316466 -0.00002167
v 0.03808292 0.06460064 0.65657043
v 0.03808292 -0.06460064 0.65657043
v 0.06332935 0.02973281 -0.00002167
v -0.00000031 0.07769460 -0.00002167
v -0.03808277 0.06460064 0.65657043
v 0.05699533 -0.04316431 -0.00002167
v 0.02623166 0.07178060 -0.00002167
v -0.04847045 0.05493817 -0.00002167
v 0.01337299 0.07620169 0.65657043
v 0.01337299 -0.07620169 0.65657043
v -0.01337315 0.07620169 -0.00002167
v 0.04847030 0.05493835 0.65657043
v 0.04847030 -0.05493835 0.65657043
v -0.02623182 0.07178042 0.65657043
v 0.03808261 0.06460099 -0.00002167
v 0.06723024 -0.01515753 0.65657043
v 0.06723024 0.01515736 0.65657043
v -0.06854739 0.00000000 0.65657043
v -0.06854739 0.00000000 -0.00002167
v -0.06332951 0.02973246 0.65657043
v -0.06332951 0.02973228 -0.00002167
v -0.06332951 -0.02973246 0.65657043
v -0.06332951 -0.02973246 -0.00002167
v -0.03808308 0.06460046 -0.00002167
v 0.05699502 0.04316466 0.65657043
v 0.05699502 -0.04316484 0.65657043
v 0.01337268 0.07620169 -0.00002167
v 0.01337268 -0.07620169 -0.00002167
v 0.04846999 0.05493870 -0.00002167
v -0.05699502 0.04316484 0.65657043
v -0.05699502 -0.04316484 0.65657043
v -0.05699502 -0.04316484 -0.00002167
v -0.02623213 0.07178025 -0.00002167
v 0.06332951 -0.02973263 0.65657043
v 0.06332951 0.02973228 0.65657043
v 0.06854739 0.00000053 -0.00002167
v 0.06854739 -0.00000018 0.65657043
v -0.06723024 -0.01515736 0.65657043
v -0.06723024 0.01515753 0.65657043
v -0.06723024 -0.01515753 -0.00002167
v -0.06723024 0.01515736 -0.00002167
v -0.00000016 -0.07769460 -0.00002167
v 0.02623182 -0.07178042 -0.00002167
v -0.04847030 0.05493835 0.65657043
v -0.04847030 -0.05493835 0.65657043
v -0.04847030 -0.05493835 -0.00002167
v -0.01337299 -0.07620169 0.65657043
v -0.01337299 -0.07620169 -0.00002167
v 0.03808277 -0.06460082 -0.00002167
v 0.06723040 -0.01515683 -0.00002167
v -0.03808292 -0.06460064 0.65657043
v -0.03808292 -0.06460064 -0.00002167
v 0.04847014 -0.05493852 -0.00002167
v -0.02623197 -0.07178042 0.65657043
v -0.02623197 -0.07178042 -0.00002167
v 0.06332966 -0.02973175 -0.00002167
vn 0.00000000 0.00000000 1.00000000
vn 0.00000000 0.00000000 -1.00000000
vn 0.00000001 -0.73044942 0.68296680
vn -0.00000044 0.73044954 0.68296667
vn 0.71476244 0.12571124 -0.68797626
vn 0.30939487 -0.66073468 0.68388924
vn 0.30939481 0.66073460 0.68388935
vn 0.62578432 0.36975660 -0.68678530
vn -0.16018974 0.71243086 0.68321410
vn -0.62578767 0.36975104 -0.68678524
vn 0.43924303 0.58143695 0.68483329
vn 0.43924301 -0.58143704 0.68483323
vn 0.68187445 0.24973910 -0.68751554
vn -0.00000049 0.73044954 -0.68296667
vn -0.43924039 0.58143805 0.68483405
vn 0.62578921 -0.36974882 -0.68678503
vn 0.30938730 0.66073829 -0.68388918
vn -0.54513712 0.48210964 -0.68585408
vn 0.16018931 0.71243112 0.68321394
vn 0.16018938 -0.71243114 0.68321390
vn -0.16019436 0.71243108 -0.68321280
vn 0.54513927 0.48210818 0.68585339
vn 0.54513712 -0.48210964 0.68585408
vn -0.30939487 0.66073460 0.68388932
vn 0.43924054 0.58144024 -0.68483209
vn 0.71476400 -0.12570669 0.68797547
vn 0.71476427 0.12570744 0.68797505
vn -0.72558677 -0.00000036 0.68813069
vn -0.72558677 0.00000036 -0.68813069
vn -0.68187445 0.24973902 0.68751557
vn -0.68187470 0.24973549 -0.68751660
vn -0.68187508 -0.24973815 0.68751526
vn -0.68187444 -0.24973906 -0.68751556
vn -0.43924302 0.58143701 -0.68483325
vn 0.62578580 0.36975084 0.68678705
vn 0.62578375 -0.36975483 0.68678677
vn 0.16018470 0.71243090 -0.68321525
vn 0.16018836 -0.71243081 -0.68321448
vn 0.54513436 0.48211146 -0.68585499
vn -0.62578511 0.36975349 0.68678625
vn -0.62578514 -0.36975349 0.68678622
vn -0.62578514 -0.36975349 -0.68678622
vn -0.30939840 0.66073163 -0.68389059
vn 0.68187497 -0.24973999 0.68751470
vn 0.68187443 0.24973902 0.68751558
vn 0.72558682 0.00000735 -0.68813063
vn 0.72558673 -0.00000035 0.68813073
vn -0.71476401 -0.12570661 0.68797548
vn -0.71476430 0.12570743 0.68797502
vn -0.71476429 -0.12570742 -0.68797504
vn -0.71476412 0.12570774 -0.68797516
vn -0.00000002 -0.73044966 -0.68296654
vn 0.30938979 -0.66073624 -0.68389004
vn -0.54513586 0.48211214 0.68585332
vn -0.54513711 -0.48210965 0.68585408
vn -0.54513711 -0.48210965 -0.68585408
vn -0.16018935 -0.71243112 0.68321393
vn -0.16018977 -0.71243090 -0.68321406
vn 0.43924052 -0.58144027 -0.68483208
vn 0.71476575 -0.12570431 -0.68797409
vn -0.43924303 -0.58143700 0.68483324
vn -0.43924303 -0.58143700 -0.68483324
vn 0.54513785 -0.48210916 -0.68585383
vn -0.30939485 -0.66073464 0.68388929
vn -0.30939485 -0.66073464 -0.68388929
vn 0.68187484 -0.24973353 -0.68751718
f 63//63 23//23 59//59
f 59//59 23//23 12//12
f 59//59 12//12 53//53
f 53//53 12//12 6//6
f 53//53 6//6 38//38
f 38//38 6//6 20//20
f 38//38 20//20 52//52
f 52//52 20//20 3//3
f 52//52 3//3 58//58
f 58//58 3//3 57//57
f 58//58 57//57 65//65
f 65//65 57//57 64//64
f 65//65 64//64 62//62
f 62//62 64//64 61//61
f 62//62 61//61 56//56
f 56//56 61//61 55//55
f 56//56 55//55 42//42
f 42//42 55//55 41//41
f 42//42 41//41 33//33
f 33//33 41//41 32//32
f 33//33 32//32 50//50
f 50//50 32//32 48//48
f 50//50 48//48 29//29
f 29//29 48//48 28//28
f 29//29 28//28 51//51
f 51//51 28//28 49//49
f 51//51 49//49 31//31
f 31//31 49//49 30//30
f 31//31 30//30 10//10
f 10//10 30//30 40//40
f 10//10 40//40 18//18
f 18//18 40//40 54//54
f 18//18 54//54 34//34
f 34//34 54//54 15//15
f 34//34 15//15 43//43
f 43//43 15//15 24//24
f 43//43 24//24 21//21
f 21//21 24//24 9//9
f 21//21 9//9 14//14
f 14//14 9//9 4//4
f 14//14 4//4 37//37
f 37//37 4//4 19//19
f 37//37 19//19 17//17
f 17//17 19//19 7//7
f 17//17 7//7 25//25
f 25//25 7//7 11//11
f 25//25 11//11 39//39
f 39//39 11//11 22//22
f 39//39 22//22 8//8
f 8//8 22//22 35//35
f 8//8 35//35 13//13
f 13//13 35//35 45//45
f 13//13 45//45 5//5
f 5//5 45//45 27//27
f 5//5 27//27 46//46
f 46//46 27//27 47//47
f 46//46 47//47 60//60
f 60//60 47//47 26//26
f 60//60 26//26 66//66
f 66//66 26//26 44//44
f 66//66 44//44 16//16
f 16//16 44//44 36//36
f 23//23 63//63 36//36
f 36//36 63//63 16//16
f 23//23 1//1 12//12
f 59//59 2//2 63//63
f 12//12 1//1 6//6
f 53//53 2//2 59//59
f 6//6 1//1 20//20
f 38//38 2//2 53//53
f 20//20 1//1 3//3
f 52//52 2//2 38//38
f 3//3 1//1 57//57
f 58//58 2//2 52//52
f 57//57 1//1 64//64
f 65//65 2//2 58//58
f 64//64 1//1 61//61
f 62//62 2//2 65//65
f 61//61 1//1 55//55
f 56//56 2//2 62//62
f 55//55 1//1 41//41
f 42//42 2//2 56//56
f 41//41 1//1 32//32
f 33//33 2//2 42//42
f 32//32 1//1 48//48
f 50//50 2//2 33//33
f 48//48 1//1 28//28
f 29//29 2//2 50//50
f 28//28 1//1 49//49
f 51//51 2//2 29//29
f 49//49 1//1 30//30
f 31//31 2//2 51//51
f 30//30 1//1 40//40
f 10//10 2//2 31//31
f 40//40 1//1 54//54
f 18//18 2//2 10//10
f 54//54 1//1 15//15
f 34//34 2//2 18//18
f 15//15 1//1 24//24
f 43//43 2//2 34//34
f 24//24 1//1 9//9
f 21//21 2//2 43//43
f 9//9 1//1 4//4
f 14//14 2//2 21//21
f 4//4 1//1 19//19
f 37//37 2//2 14//14
f 19//19 1//1 7//7
f 17//17 2//2 37//37
f 7//7 1//1 11//11
f 25//25 2//2 17//17
f 11//11 1//1 22//22
f 39//39 2//2 25//25
f 22//22 1//1 35//35
f 8//8 2//2 39//39
f 35//35 1//1 45//45
f 13//13 2//2 8//8
f 45//45 1//1 27//27
f 5//5 2//2 13//13
f 27//27 1//1 47//47
f 46//46 2//2 5//5
f 47//47 1//1 26//26
f 60//60 2//2 46//46
f 26//26 1//1 44//44
f 66//66 2//2 60//60
f 44//44 1//1 36//36
f 16//16 2//2 66//66
f 23//23 36//36 1//1
f 63//63 2//2 16//16