# https://github.com/mikedh/trimesh
v 0.00000000 0.00000000 0.84016501
v 0.00000000 0.00000000 -0.00002773
v 0.00000000 -0.11395663 0.84016501
v 0.00000000 0.11395663 0.84016501
v 0.12285232 0.02223245 -0.00002773
v 0.04793477 -0.10528216 0.84016501
v 0.04793477 0.10528216 0.84016501
v 0.10414908 0.06331147 -0.00002773
v -0.02443674 0.11176693 0.84016501
v -0.10414965 0.06331070 -0.00002773
v 0.06959050 0.09475139 0.84016501
v 0.06959050 -0.09475139 0.84016501
v 0.11572435 0.04360986 -0.00002773
v -0.00000057 0.11395663 -0.00002773
v -0.06959021 0.09475139 0.84016501
v 0.10414993 -0.06331018 -0.00002773
v 0.04793420 0.10528241 -0.00002773
v -0.08857207 0.08057920 -0.00002773
v 0.02443703 0.11176693 0.84016501
v 0.02443703 -0.11176693 0.84016501
v -0.02443731 0.11176693 -0.00002773
v 0.08857178 0.08057946 0.84016501
v 0.08857178 -0.08057946 0.84016501
v -0.04793448 0.10528216 0.84016501
v 0.06958993 0.09475190 -0.00002773
v 0.12285261 -0.02223194 0.84016501
v 0.12285261 0.02223168 0.84016501
v -0.12525949 0.00000000 0.84016501
v -0.12525949 0.00000000 -0.00002773
v -0.11572463 0.04360935 0.84016501
v -0.11572463 0.04360909 -0.00002773
v -0.11572463 -0.04360935 0.84016501
v -0.11572463 -0.04360935 -0.00002773
v -0.06959078 0.09475113 -0.00002773
v 0.10414936 0.06331070 0.84016501
v 0.10414936 -0.06331096 0.84016501
v 0.02443646 0.11176693 -0.00002773
v 0.02443646 -0.11176693 -0.00002773
v 0.08857122 0.08057997 -0.00002773
v -0.10414936 0.06331096 0.84016501
v -0.10414936 -0.06331096 0.84016501
v -0.10414936 -0.06331096 -0.00002773
v -0.04793505 0.10528190 -0.00002773
v 0.11572463 -0.04360960 0.84016501
v 0.11572463 0.04360909 0.84016501
v 0.12525949 0.00000077 -0.00002773
v 0.12525949 -0.00000026 0.84016501
v -0.12285261 -0.02223168 0.84016501
v -0.12285261 0.02223194 0.84016501
v -0.12285261 -0.02223194 -0.00002773
v -0.12285261 0.02223168 -0.00002773
v -0.00000028 -0.11395663 -0.00002773
v 0.04793448 -0.10528216 -0.00002773
v -0.08857178 0.08057946 0.84016501
v -0.08857178 -0.08057946 0.84016501
v -0.08857178 -0.08057946 -0.00002773
v -0.02443703 -0.11176693 0.84016501
v -0.02443703 -0.11176693 -0.00002773
v 0.06959021 -0.09475165 -0.00002773
v 0.12285289 -0.02223091 -0.00002773
v -0.06959050 -0.09475139 0.84016501
v -0.06959050 -0.09475139 -0.00002773
v 0.08857150 -0.08057972 -0.00002773
v -0.04793477 -0.10528216 0.84016501
v -0.04793477 -0.10528216 -0.00002773
v 0.11572492 -0.04360831 -0.00002773
vn 0.00000000 0.00000000 1.00000000
vn 0.00000000 0.00000000 -1.00000000
vn 0.00000001 -0.72612764 0.68755992
vn -0.00000035 0.72612774 0.68755982
vn 0.71285450 0.15555713 -0.68384241
vn 0.25659939 -0.67977167 0.68707149
vn 0.25659933 0.67977156 0.68707162
vn 0.58755604 0.43072710 -0.68501976
vn -0.12953346 0.71459989 0.68743588
vn -0.58756033 0.43072146 -0.68501962
vn 0.37818402 0.62104144 0.68650155
vn 0.37818399 -0.62104155 0.68650147
vn 0.66384827 0.30166362 -0.68432780
vn -0.00000040 0.72612774 -0.68755982
vn -0.37818138 0.62104224 0.68650227
vn 0.58756227 -0.43071920 -0.68501938
vn 0.25659268 0.67977416 -0.68707153
vn -0.49025691 0.53790784 -0.68578664
vn 0.12953310 0.71460009 0.68743573
vn 0.12953318 -0.71460012 0.68743569
vn -0.12953727 0.71460027 -0.68743476
vn 0.49025929 0.53790656 0.68578594
vn 0.49025691 -0.53790784 0.68578664
vn -0.25659940 0.67977157 0.68707159
vn 0.37818156 0.62104415 -0.68650045
vn 0.71285665 -0.15555158 0.68384143
vn 0.71285693 0.15555248 0.68384093
vn -0.72979673 -0.00000045 0.68366419
vn -0.72979673 0.00000045 -0.68366419
vn -0.66384828 0.30166352 0.68432783
vn -0.66384889 0.30165955 -0.68432899
vn -0.66384911 -0.30166253 0.68432746
vn -0.66384827 -0.30166357 -0.68432783
vn -0.37818401 0.62104152 -0.68650149
vn 0.58755817 0.43072124 0.68502161
vn 0.58755550 -0.43072532 0.68502134
vn 0.12952928 0.71459971 -0.68743685
vn 0.12953232 -0.71459979 -0.68743619
vn 0.49025383 0.53790943 -0.68578760
vn -0.58755718 0.43072395 0.68502076
vn -0.58755722 -0.43072395 0.68502073
vn -0.58755722 -0.43072395 -0.68502073
vn -0.25660251 0.67976932 -0.68707265
vn 0.66384882 -0.30166459 0.68432683
vn 0.66384826 0.30166351 0.68432785
vn 0.72979679 0.00000917 -0.68366414
vn 0.72979667 -0.00000044 0.68366426
vn -0.71285666 -0.15555148 0.68384144
vn -0.71285697 0.15555247 0.68384089
vn -0.71285696 -0.15555244 -0.68384091
vn -0.71285673 0.15555284 -0.68384106
vn -0.00000002 -0.72612784 -0.68755971
vn 0.25659487 -0.67977262 -0.68707224
vn -0.49025545 0.53791009 0.68578593
vn -0.49025690 -0.53790785 0.68578664
vn -0.49025690 -0.53790785 -0.68578664
vn -0.12953314 -0.71460009 0.68743573
vn -0.12953348 -0.71459993 -0.68743583
vn 0.37818153 -0.62104419 -0.68650044
vn 0.71285889 -0.15554865 -0.68383976
vn -0.37818402 -0.62104151 0.68650148
vn -0.37818402 -0.62104151 -0.68650148
vn 0.49025772 -0.53790743 -0.68578639
vn -0.25659938 -0.67977161 0.68707155
vn -0.25659938 -0.67977161 -0.68707155
vn 0.66384922 -0.30165732 -0.68432965
f 63//63 23//23 59//59
f 59//59 23//23 12//12
f 59//59 12//12 53//53
f 53//53 12//12 6//6
f 53//53 6//6 38//38
f 38//38 6//6 20//20
f 38//38 20//20 52//52
f 52//52 20//20 3//3
f 52//52 3//3 58//58
f 58//58 3//3 57//57
f 58//58 57//57 65//65
f 65//65 57//57 64//64
f 65//65 64//64 62//62
f 62//62 64//64 61//61
f 62//62 61//61 56//56
f 56//56 61//61 55//55
f 56//56 55//55 42//42
f 42//42 55//55 41//41
f 42//42 41//41 33//33
f 33//33 41//41 32//32
f 33//33 32//32 50//50
f 50//50 32//32 48//48
f 50//50 48//48 29//29
f 29//29 48//48 28//28
f 29//29 28//28 51//51
f 51//51 28//28 49//49
f 51//51 49//49 31//31
f 31//31 49//49 30//30
f 31//31 30//30 10//10
f 10//10 30//30 40//40
f 10//10 40//40 18//18
f 18//18 40//40 54//54
f 18//18 54//54 34//34
f 34//34 54//54 15//15
f 34//34 15//15 43//43
f 43//43 15//15 24//24
f 43//43 24//24 21//21
f 21//21 24//24 9//9
f 21//21 9//9 14//14
f 14//14 9//9 4//4
f 14//14 4//4 37//37
f 37//37 4//4 19//19
f 37//37 19//19 17//17
f 17//17 19//19 7//7
f 17//17 7//7 25//25
f 25//25 7//7 11//11
f 25//25 11//11 39//39
f 39//39 11//11 22//22
f 39//39 22//22 8//8
f 8//8 22//22 35//35
f 8//8 35//35 13//13
f 13//13 35//35 45//45
f 13//13 45//45 5//5
f 5//5 45//45 27//27
f 5//5 27//27 46//46
f 46//46 27//27 47//47
f 46//46 47//47 60//60
f 60//60 47//47 26//26
f 60//60 26//26 66//66
f 66//66 26//26 44//44
f 66//66 44//44 16//16
f 16//16 44//44 36//36
f 23//23 63//63 36//36
f 36//36 63//63 16//16
f 23//23 1//1 12//12
f 59//59 2//2 63//63
f 12//12 1//1 6//6
f 53//53 2//2 59//59
f 6//6 1//1 20//20
f 38//38 2//2 53//53
f 20//20 1//1 3//3
f 52//52 2//2 38//38
f 3//3 1//1 57//57
f 58//58 2//2 52//52
f 57//57 1//1 64//64
f 65//65 2//2 58//58
f 64//64 1//1 61//61
f 62//62 2//2 65//65
f 61//61 1//1 55//55
f 56//56 2//2 62//62
f 55//55 1//1 41//41
f 42//42 2//2 56//56
f 41//41 1//1 32//32
f 33//33 2//2 42//42
f 32//32 1//1 48//48
f 50//50 2//2 33//33
f 48//48 1//1 28//28
f 29//29 2//2 50//50
f 28//28 1//1 49//49
f 51//51 2//2 29//29
f 49//49 1//1 30//30
f 31//31 2//2 51//51
f 30//30 1//1 40//40
f 10//10 2//2 31//31
f 40//40 1//1 54//54
f 18//18 2//2 10//10
f 54//54 1//1 15//15
f 34//34 2//2 18//18
f 15//15 1//1 24//24
f 43//43 2//2 34//34
f 24//24 1//1 9//9
f 21//21 2//2 43//43
f 9//9 1//1 4//4
f 14//14 2//2 21//21
f 4//4 1//1 19//19
f 37//37 2//2 14//14
f 19//19 1//1 7//7
f 17//17 2//2 37//37
f 7//7 1//1 11//11
f 25//25 2//2 17//17
f 11//11 1//1 22//22
f 39//39 2//2 25//25
f 22//22 1//1 35//35
f 8//8 2//2 39//39
f 35//35 1//1 45//45
f 13//13 2//2 8//8
f 45//45 1//1 27//27
f 5//5 2//2 13//13
f 27//27 1//1 47//47
f 46//46 2//2 5//5
f 47//47 1//1 26//26
f 60//60 2//2 46//46
f 26//26 1//1 44//44
f 66//66 2//2 60//60
f 44//44 1//1 36//36
f 16//16 2//2 66//66
f 23//23 36//36 1//1
f 63//63 2//2 16//16