# https://github.com/mikedh/trimesh
v 0.00000000 0.00000000 0.59998020
v 0.00000000 0.00000000 -0.00001980
v 0.00000000 -0.11048550 0.59998020
v 0.00000000 0.11048550 0.59998020
v 0.10836225 0.02155525 -0.00001980
v 0.04228100 -0.10207525 0.59998020
v 0.04228100 0.10207525 0.59998020
v 0.09186500 0.06138300 -0.00001980
v -0.02155450 0.10836250 0.59998020
v -0.09186550 0.06138225 -0.00001980
v 0.06138250 0.09186525 0.59998020
v 0.06138250 -0.09186525 0.59998020
v 0.10207500 0.04228150 -0.00001980
v -0.00000050 0.11048550 -0.00001980
v -0.06138225 0.09186525 0.59998020
v 0.09186575 -0.06138175 -0.00001980
v 0.04228050 0.10207550 -0.00001980
v -0.07812525 0.07812475 -0.00001980
v 0.02155475 0.10836250 0.59998020
v 0.02155475 -0.10836250 0.59998020
v -0.02155500 0.10836250 -0.00001980
v 0.07812500 0.07812500 0.59998020
v 0.07812500 -0.07812500 0.59998020
v -0.04228075 0.10207525 0.59998020
v 0.06138200 0.09186575 -0.00001980
v 0.10836250 -0.02155475 0.59998020
v 0.10836250 0.02155450 0.59998020
v -0.11048550 0.00000000 0.59998020
v -0.11048550 0.00000000 -0.00001980
v -0.10207525 0.04228100 0.59998020
v -0.10207525 0.04228075 -0.00001980
v -0.10207525 -0.04228100 0.59998020
v -0.10207525 -0.04228100 -0.00001980
v -0.06138275 0.09186500 -0.00001980
v 0.09186525 0.06138225 0.59998020
v 0.09186525 -0.06138250 0.59998020
v 0.02155425 0.10836250 -0.00001980
v 0.02155425 -0.10836250 -0.00001980
v 0.07812450 0.07812550 -0.00001980
v -0.09186525 0.06138250 0.59998020
v -0.09186525 -0.06138250 0.59998020
v -0.09186525 -0.06138250 -0.00001980
v -0.04228125 0.10207500 -0.00001980
v 0.10207525 -0.04228125 0.59998020
v 0.10207525 0.04228075 0.59998020
v 0.11048550 0.00000075 -0.00001980
v 0.11048550 -0.00000025 0.59998020
v -0.10836250 -0.02155450 0.59998020
v -0.10836250 0.02155475 0.59998020
v -0.10836250 -0.02155475 -0.00001980
v -0.10836250 0.02155450 -0.00001980
v -0.00000025 -0.11048550 -0.00001980
v 0.04228075 -0.10207525 -0.00001980
v -0.07812500 0.07812500 0.59998020
v -0.07812500 -0.07812500 0.59998020
v -0.07812500 -0.07812500 -0.00001980
v -0.02155475 -0.10836250 0.59998020
v -0.02155475 -0.10836250 -0.00001980
v 0.06138225 -0.09186550 -0.00001980
v 0.10836275 -0.02155375 -0.00001980
v -0.06138250 -0.09186525 0.59998020
v -0.06138250 -0.09186525 -0.00001980
v 0.07812475 -0.07812525 -0.00001980
v -0.04228100 -0.10207525 0.59998020
v -0.04228100 -0.10207525 -0.00001980
v 0.10207550 -0.04228000 -0.00001980
vn 0.00000000 0.00000000 1.00000000
vn 0.00000000 0.00000000 -1.00000000
vn 0.00000001 -0.72788801 0.68569603
vn -0.00000037 0.72788811 0.68569592
vn 0.71389895 0.14200897 -0.68569800
vn 0.27855123 -0.67248036 0.68569627
vn 0.27855114 0.67248023 0.68569644
vn 0.60521486 0.40439664 -0.68569551
vn -0.14200500 0.71390090 0.68569679
vn -0.60521872 0.40439102 -0.68569542
vn 0.40439350 0.60521577 0.68569656
vn 0.40439346 -0.60521592 0.68569645
vn 0.67248029 0.27855128 -0.68569632
vn -0.00000045 0.72788811 -0.68569592
vn -0.40439082 0.60521673 0.68569729
vn 0.60522045 -0.40438875 -0.68569523
vn 0.27854414 0.67248326 -0.68569631
vn -0.51469411 0.51469407 -0.68569672
vn 0.14200461 0.71390114 0.68569662
vn 0.14200472 -0.71390118 0.68569656
vn -0.14200915 0.71390124 -0.68569557
vn 0.51469636 0.51469271 0.68569605
vn 0.51469411 -0.51469407 0.68569672
vn -0.27855124 0.67248023 0.68569640
vn 0.40439102 0.60521876 -0.68569538
vn 0.71390083 -0.14200389 0.68569709
vn 0.71390111 0.14200471 0.68569663
vn -0.72788812 -0.00000040 0.68569591
vn -0.72788812 0.00000040 -0.68569591
vn -0.67248031 0.27855115 0.68569636
vn -0.67248073 0.27854737 -0.68569748
vn -0.67248103 -0.27855023 0.68569602
vn -0.67248029 -0.27855121 -0.68569635
vn -0.40439348 0.60521587 -0.68569648
vn 0.60521668 0.40439077 0.68569737
vn 0.60521428 -0.40439488 0.68569706
vn 0.14200046 0.71390080 -0.68569783
vn 0.14200377 -0.71390083 -0.68569712
vn 0.51469113 0.51469580 -0.68569766
vn -0.60521582 0.40439350 0.68569651
vn -0.60521587 -0.40439350 0.68569647
vn -0.60521587 -0.40439350 -0.68569647
vn -0.27855454 0.67247770 -0.68569754
vn 0.67248085 -0.27855218 0.68569541
vn 0.67248028 0.27855115 0.68569638
vn 0.72788815 0.00000833 -0.68569588
vn 0.72788804 -0.00000039 0.68569600
vn -0.71390085 -0.14200376 0.68569710
vn -0.71390116 0.14200469 0.68569658
vn -0.71390115 -0.14200466 -0.68569660
vn -0.71390093 0.14200502 -0.68569675
vn -0.00000003 -0.72788822 -0.68569581
vn 0.27854647 -0.67248153 -0.68569706
vn -0.51469271 0.51469643 0.68569599
vn -0.51469409 -0.51469409 0.68569672
vn -0.51469409 -0.51469409 -0.68569672
vn -0.14200467 -0.71390114 0.68569661
vn -0.14200504 -0.71390096 -0.68569672
vn 0.40439098 -0.60521881 -0.68569536
vn 0.71390284 -0.14200118 -0.68569556
vn -0.40439350 -0.60521587 0.68569647
vn -0.40439350 -0.60521587 -0.68569647
vn 0.51469487 -0.51469364 -0.68569647
vn -0.27855121 -0.67248029 0.68569635
vn -0.27855121 -0.67248029 -0.68569635
vn 0.67248096 -0.27854521 -0.68569813
f 63//63 23//23 59//59
f 59//59 23//23 12//12
f 59//59 12//12 53//53
f 53//53 12//12 6//6
f 53//53 6//6 38//38
f 38//38 6//6 20//20
f 38//38 20//20 52//52
f 52//52 20//20 3//3
f 52//52 3//3 58//58
f 58//58 3//3 57//57
f 58//58 57//57 65//65
f 65//65 57//57 64//64
f 65//65 64//64 62//62
f 62//62 64//64 61//61
f 62//62 61//61 56//56
f 56//56 61//61 55//55
f 56//56 55//55 42//42
f 42//42 55//55 41//41
f 42//42 41//41 33//33
f 33//33 41//41 32//32
f 33//33 32//32 50//50
f 50//50 32//32 48//48
f 50//50 48//48 29//29
f 29//29 48//48 28//28
f 29//29 28//28 51//51
f 51//51 28//28 49//49
f 51//51 49//49 31//31
f 31//31 49//49 30//30
f 31//31 30//30 10//10
f 10//10 30//30 40//40
f 10//10 40//40 18//18
f 18//18 40//40 54//54
f 18//18 54//54 34//34
f 34//34 54//54 15//15
f 34//34 15//15 43//43
f 43//43 15//15 24//24
f 43//43 24//24 21//21
f 21//21 24//24 9//9
f 21//21 9//9 14//14
f 14//14 9//9 4//4
f 14//14 4//4 37//37
f 37//37 4//4 19//19
f 37//37 19//19 17//17
f 17//17 19//19 7//7
f 17//17 7//7 25//25
f 25//25 7//7 11//11
f 25//25 11//11 39//39
f 39//39 11//11 22//22
f 39//39 22//22 8//8
f 8//8 22//22 35//35
f 8//8 35//35 13//13
f 13//13 35//35 45//45
f 13//13 45//45 5//5
f 5//5 45//45 27//27
f 5//5 27//27 46//46
f 46//46 27//27 47//47
f 46//46 47//47 60//60
f 60//60 47//47 26//26
f 60//60 26//26 66//66
f 66//66 26//26 44//44
f 66//66 44//44 16//16
f 16//16 44//44 36//36
f 23//23 63//63 36//36
f 36//36 63//63 16//16
f 23//23 1//1 12//12
f 59//59 2//2 63//63
f 12//12 1//1 6//6
f 53//53 2//2 59//59
f 6//6 1//1 20//20
f 38//38 2//2 53//53
f 20//20 1//1 3//3
f 52//52 2//2 38//38
f 3//3 1//1 57//57
f 58//58 2//2 52//52
f 57//57 1//1 64//64
f 65//65 2//2 58//58
f 64//64 1//1 61//61
f 62//62 2//2 65//65
f 61//61 1//1 55//55
f 56//56 2//2 62//62
f 55//55 1//1 41//41
f 42//42 2//2 56//56
f 41//41 1//1 32//32
f 33//33 2//2 42//42
f 32//32 1//1 48//48
f 50//50 2//2 33//33
f 48//48 1//1 28//28
f 29//29 2//2 50//50
f 28//28 1//1 49//49
f 51//51 2//2 29//29
f 49//49 1//1 30//30
f 31//31 2//2 51//51
f 30//30 1//1 40//40
f 10//10 2//2 31//31
f 40//40 1//1 54//54
f 18//18 2//2 10//10
f 54//54 1//1 15//15
f 34//34 2//2 18//18
f 15//15 1//1 24//24
f 43//43 2//2 34//34
f 24//24 1//1 9//9
f 21//21 2//2 43//43
f 9//9 1//1 4//4
f 14//14 2//2 21//21
f 4//4 1//1 19//19
f 37//37 2//2 14//14
f 19//19 1//1 7//7
f 17//17 2//2 37//37
f 7//7 1//1 11//11
f 25//25 2//2 17//17
f 11//11 1//1 22//22
f 39//39 2//2 25//25
f 22//22 1//1 35//35
f 8//8 2//2 39//39
f 35//35 1//1 45//45
f 13//13 2//2 8//8
f 45//45 1//1 27//27
f 5//5 2//2 13//13
f 27//27 1//1 47//47
f 46//46 2//2 5//5
f 47//47 1//1 26//26
f 60//60 2//2 46//46
f 26//26 1//1 44//44
f 66//66 2//2 60//60
f 44//44 1//1 36//36
f 16//16 2//2 66//66
f 23//23 36//36 1//1
f 63//63 2//2 16//16