# https://github.com/mikedh/trimesh
v 0.00000975 0.00008450 0.59961840
v 0.00000975 0.00008450 0.00038220
v 0.00000975 -0.00019650 0.59918040
v 0.00000975 -0.00019650 0.00082020
v 0.00000975 -0.00000450 0.00000240
v 0.00000975 -0.00000450 0.59999820
v 0.08576975 -0.08600475 0.30050040
v 0.08576975 -0.08600475 0.29949960
v -0.08612200 -0.08612200 0.30000000
v -0.08612200 0.08612200 0.30000000
v 0.00027425 -0.00000450 0.00112980
v 0.00027425 -0.00000450 0.59887080
v -0.00003550 -0.00000450 0.59980500
v -0.00003550 -0.00000450 0.00019500
v 0.08612200 -0.08612200 0.30000000
v 0.08612200 0.08612200 0.30000000
v -0.08609425 -0.08603900 0.30011820
v -0.08609425 -0.08603900 0.29988240
v -0.08609425 0.08603900 0.30011820
v -0.08609425 0.08603900 0.29988240
v -0.08576975 -0.08600475 0.29950020
v -0.08576975 -0.08600475 0.30050040
v 0.08595825 0.08606750 0.30023280
v 0.08595825 0.08606750 0.29976780
v -0.08595850 0.08606750 0.30023280
v -0.08595850 0.08606750 0.29976780
v 0.08596025 0.08563650 0.29931060
v 0.08596025 0.08563650 0.30069000
v 0.08596025 -0.08563650 0.29931060
v 0.08596025 -0.08563650 0.30069000
vn -0.00018431 0.97263236 0.23234942
vn -0.00018355 0.97263237 -0.23234941
vn 0.00033329 -0.97254063 0.23273292
vn 0.00033252 -0.97254062 -0.23273295
vn 0.00007737 0.00014152 -0.99999999
vn -0.00010728 0.00014160 0.99999998
vn 0.05379098 -0.96037471 0.27347202
vn 0.05379142 -0.96037451 -0.27347264
vn -0.70725673 -0.70695674 -0.00030745
vn -0.70726436 0.70694907 -0.00037508
vn 0.97257163 0.00049544 -0.23260303
vn 0.97257163 0.00049621 0.23260305
vn -0.97265773 -0.00007407 0.23224326
vn -0.97251135 -0.00007280 -0.23285548
vn 0.70713837 -0.70707519 -0.00004258
vn 0.70712748 0.70708606 -0.00016854
vn -0.96039691 -0.05344226 0.27346244
vn -0.96050503 -0.05176531 -0.27340525
vn -0.96041048 0.05338226 0.27342649
vn -0.96051815 0.05170709 -0.27337020
vn -0.05313595 -0.96045948 -0.27330231
vn -0.05352997 -0.96043390 0.27331531
vn 0.05384688 0.96041399 0.27332303
vn 0.05299739 0.96046947 -0.27329412
vn -0.05413284 0.96036254 0.27344730
vn -0.05327944 0.96041886 -0.27341710
vn 0.96036844 0.05352128 -0.27354696
vn 0.96034951 0.05380862 0.27355703
vn 0.96045379 -0.05314445 -0.27332065
vn 0.96043522 -0.05343054 0.27333015
f 16//16 10//10 25//25
f 16//16 25//25 23//23
f 6//6 16//16 23//23
f 6//6 23//23 1//1
f 10//10 6//6 1//1
f 10//10 1//1 25//25
f 23//23 25//25 1//1
f 10//10 9//9 17//17
f 10//10 17//17 19//19
f 9//9 6//6 13//13
f 9//9 13//13 17//17
f 6//6 10//10 19//19
f 6//6 19//19 13//13
f 17//17 13//13 19//19
f 9//9 15//15 7//7
f 9//9 7//7 22//22
f 15//15 6//6 3//3
f 15//15 3//3 7//7
f 6//6 9//9 22//22
f 6//6 22//22 3//3
f 7//7 3//3 22//22
f 15//15 16//16 28//28
f 15//15 28//28 30//30
f 6//6 15//15 30//30
f 6//6 30//30 12//12
f 16//16 6//6 12//12
f 16//16 12//12 28//28
f 28//28 12//12 30//30
f 27//27 29//29 11//11
f 11//11 5//5 16//16
f 27//27 11//11 16//16
f 29//29 15//15 5//5
f 11//11 29//29 5//5
f 16//16 15//15 27//27
f 27//27 15//15 29//29
f 21//21 4//4 8//8
f 9//9 5//5 21//21
f 21//21 5//5 4//4
f 5//5 15//15 4//4
f 8//8 4//4 15//15
f 8//8 15//15 9//9
f 21//21 8//8 9//9
f 18//18 20//20 14//14
f 10//10 5//5 20//20
f 14//14 20//20 5//5
f 14//14 5//5 9//9
f 18//18 14//14 9//9
f 9//9 10//10 18//18
f 18//18 10//10 20//20
f 26//26 24//24 2//2
f 2//2 5//5 10//10
f 10//10 26//26 2//2
f 16//16 5//5 24//24
f 24//24 5//5 2//2
f 10//10 16//16 26//26
f 24//24 26//26 16//16