# https://github.com/mikedh/trimesh
v 0.00000922 0.00007851 0.46436273
v 0.00000922 0.00007851 0.00029599
v 0.00000922 -0.00018256 0.46402353
v 0.00000922 -0.00018256 0.00063519
v 0.00000922 -0.00000418 0.00000186
v 0.00000922 -0.00000418 0.46465686
v 0.08114980 -0.07990416 0.23271665
v 0.08114980 -0.07990416 0.23194160
v -0.08148308 -0.08001309 0.23232913
v -0.08148308 0.08001309 0.23232913
v 0.00025948 -0.00000418 0.00087495
v 0.00025948 -0.00000418 0.46378377
v -0.00003359 -0.00000418 0.46450724
v -0.00003359 -0.00000418 0.00015101
v 0.08148308 -0.08001309 0.23232913
v 0.08148308 0.08001309 0.23232913
v -0.08145682 -0.07993598 0.23242066
v -0.08145682 -0.07993598 0.23223805
v -0.08145682 0.07993598 0.23242066
v -0.08145682 0.07993598 0.23223805
v -0.08114980 -0.07990416 0.23194207
v -0.08114980 -0.07990416 0.23271665
v 0.08132815 0.07996246 0.23250941
v 0.08132815 0.07996246 0.23214930
v -0.08132838 0.07996246 0.23250941
v -0.08132838 0.07996246 0.23214930
v 0.08133004 0.07956203 0.23179523
v 0.08133004 0.07956203 0.23286348
v 0.08133004 -0.07956203 0.23179523
v 0.08133004 -0.07956203 0.23286348
vn -0.00017877 0.96104702 0.27638485
vn -0.00017803 0.96104703 -0.27638483
vn 0.00032325 -0.96092067 0.27682372
vn 0.00032249 -0.96092066 -0.27682375
vn 0.00009200 0.00016458 -0.99999998
vn -0.00012719 0.00016467 0.99999998
vn 0.05105003 -0.94547369 0.32167281
vn 0.05105045 -0.94547344 -0.32167348
vn -0.70808320 -0.70612894 -0.00032882
vn -0.70809167 0.70612040 -0.00039938
vn 0.95963260 0.00049680 -0.28125616
vn 0.95963259 0.00049757 0.28125618
vn -0.95975597 -0.00007428 0.28083531
vn -0.95954862 -0.00007299 -0.28154296
vn 0.70794824 -0.70626432 -0.00004583
vn 0.70793820 0.70627436 -0.00017723
vn -0.94356224 -0.05252609 0.32700352
vn -0.94366427 -0.05088299 -0.32696892
vn -0.94357977 0.05246653 0.32696250
vn -0.94368124 0.05082516 -0.32692892
vn -0.05042558 -0.94557010 -0.32148785
vn -0.05079883 -0.94554747 0.32149567
vn 0.05110165 0.94552949 0.32150054
vn 0.05029690 0.94557873 -0.32148264
vn -0.05137532 0.94546675 0.32164143
vn -0.05056686 0.94551692 -0.32162207
vn 0.94352697 0.05260039 -0.32709334
vn 0.94350908 0.05288187 0.32709957
vn 0.94363722 -0.05222631 -0.32683513
vn 0.94361973 -0.05250659 0.32684072
f 16//16 10//10 25//25
f 16//16 25//25 23//23
f 6//6 16//16 23//23
f 6//6 23//23 1//1
f 10//10 6//6 1//1
f 10//10 1//1 25//25
f 23//23 25//25 1//1
f 10//10 9//9 17//17
f 10//10 17//17 19//19
f 9//9 6//6 13//13
f 9//9 13//13 17//17
f 6//6 10//10 19//19
f 6//6 19//19 13//13
f 17//17 13//13 19//19
f 9//9 15//15 7//7
f 9//9 7//7 22//22
f 15//15 6//6 3//3
f 15//15 3//3 7//7
f 6//6 9//9 22//22
f 6//6 22//22 3//3
f 7//7 3//3 22//22
f 15//15 16//16 28//28
f 15//15 28//28 30//30
f 6//6 15//15 30//30
f 6//6 30//30 12//12
f 16//16 6//6 12//12
f 16//16 12//12 28//28
f 28//28 12//12 30//30
f 27//27 29//29 11//11
f 11//11 5//5 16//16
f 27//27 11//11 16//16
f 29//29 15//15 5//5
f 11//11 29//29 5//5
f 16//16 15//15 27//27
f 27//27 15//15 29//29
f 21//21 4//4 8//8
f 9//9 5//5 21//21
f 21//21 5//5 4//4
f 5//5 15//15 4//4
f 8//8 4//4 15//15
f 8//8 15//15 9//9
f 21//21 8//8 9//9
f 18//18 20//20 14//14
f 10//10 5//5 20//20
f 14//14 20//20 5//5
f 14//14 5//5 9//9
f 18//18 14//14 9//9
f 9//9 10//10 18//18
f 18//18 10//10 20//20
f 26//26 24//24 2//2
f 2//2 5//5 10//10
f 10//10 26//26 2//2
f 16//16 5//5 24//24
f 24//24 5//5 2//2
f 10//10 16//16 26//26
f 24//24 26//26 16//16