# https://github.com/mikedh/trimesh
v 0.00000625 0.00005629 0.68652424
v 0.00000625 0.00005629 0.00043759
v 0.00000625 -0.00013091 0.68602276
v 0.00000625 -0.00013091 0.00093908
v 0.00000625 -0.00000300 0.00000275
v 0.00000625 -0.00000300 0.68695908
v 0.05495952 -0.05729640 0.34405350
v 0.05495952 -0.05729640 0.34290765
v -0.05518524 -0.05737452 0.34348057
v -0.05518524 0.05737452 0.34348057
v 0.00017573 -0.00000300 0.00129355
v 0.00017573 -0.00000300 0.68566828
v -0.00002275 -0.00000300 0.68673788
v -0.00002275 -0.00000300 0.00022326
v 0.05518524 -0.05737452 0.34348057
v 0.05518524 0.05737452 0.34348057
v -0.05516745 -0.05731922 0.34361590
v -0.05516745 -0.05731922 0.34334593
v -0.05516745 0.05731922 0.34361590
v -0.05516745 0.05731922 0.34334593
v -0.05495952 -0.05729640 0.34290833
v -0.05495952 -0.05729640 0.34405350
v 0.05508031 0.05733821 0.34374711
v 0.05508031 0.05733821 0.34321472
v -0.05508047 0.05733821 0.34374711
v -0.05508047 0.05733821 0.34321472
v 0.05508159 0.05705108 0.34269125
v 0.05508159 0.05705108 0.34427058
v 0.05508159 -0.05705108 0.34269125
v 0.05508159 -0.05705108 0.34427058
vn -0.00019494 0.99062362 0.13661922
vn -0.00019413 0.99062362 -0.13661921
vn 0.00035255 -0.99059021 0.13686090
vn 0.00035173 -0.99059021 -0.13686091
vn 0.00004498 0.00008653 -1.00000000
vn -0.00006265 0.00008658 0.99999999
vn 0.06010301 -0.98450029 0.16476286
vn 0.06010351 -0.98450018 -0.16476333
vn -0.70620074 -0.70801162 -0.00022338
vn -0.70620572 0.70800664 -0.00027460
vn 0.99128898 0.00048749 -0.13170394
vn 0.99128898 0.00048825 0.13170395
vn -0.99131759 -0.00007288 0.13148927
vn -0.99126761 -0.00007163 -0.13186554
vn 0.70612476 -0.70808744 -0.00003058
vn 0.70611520 0.70809697 -0.00012598
vn -0.98579996 -0.05521514 0.15858666
vn -0.98590695 -0.05348201 -0.15851551
vn -0.98580694 0.05515517 0.15856415
vn -0.98591363 0.05342387 -0.15849357
vn -0.05938317 -0.98456368 -0.16464506
vn -0.05982245 -0.98453432 0.16466164
vn 0.06016896 0.98451160 0.16467119
vn 0.05922199 0.98457507 -0.16463499
vn -0.06047887 0.98447941 0.16475011
vn -0.05952760 0.98454358 -0.16471310
vn 0.98578477 0.05530677 -0.15864913
vn 0.98576608 0.05560379 0.15866147
vn 0.98582862 -0.05493023 -0.15850739
vn 0.98581018 -0.05522595 0.15851937
f 16//16 10//10 25//25
f 16//16 25//25 23//23
f 6//6 16//16 23//23
f 6//6 23//23 1//1
f 10//10 6//6 1//1
f 10//10 1//1 25//25
f 23//23 25//25 1//1
f 10//10 9//9 17//17
f 10//10 17//17 19//19
f 9//9 6//6 13//13
f 9//9 13//13 17//17
f 6//6 10//10 19//19
f 6//6 19//19 13//13
f 17//17 13//13 19//19
f 9//9 15//15 7//7
f 9//9 7//7 22//22
f 15//15 6//6 3//3
f 15//15 3//3 7//7
f 6//6 9//9 22//22
f 6//6 22//22 3//3
f 7//7 3//3 22//22
f 15//15 16//16 28//28
f 15//15 28//28 30//30
f 6//6 15//15 30//30
f 6//6 30//30 12//12
f 16//16 6//6 12//12
f 16//16 12//12 28//28
f 28//28 12//12 30//30
f 27//27 29//29 11//11
f 11//11 5//5 16//16
f 27//27 11//11 16//16
f 29//29 15//15 5//5
f 11//11 29//29 5//5
f 16//16 15//15 27//27
f 27//27 15//15 29//29
f 21//21 4//4 8//8
f 9//9 5//5 21//21
f 21//21 5//5 4//4
f 5//5 15//15 4//4
f 8//8 4//4 15//15
f 8//8 15//15 9//9
f 21//21 8//8 9//9
f 18//18 20//20 14//14
f 10//10 5//5 20//20
f 14//14 20//20 5//5
f 14//14 5//5 9//9
f 18//18 14//14 9//9
f 9//9 10//10 18//18
f 18//18 10//10 20//20
f 26//26 24//24 2//2
f 2//2 5//5 10//10
f 10//10 26//26 2//2
f 16//16 5//5 24//24
f 24//24 5//5 2//2
f 10//10 16//16 26//26
f 24//24 26//26 16//16