# https://github.com/mikedh/trimesh
v 0.00000428 0.00004663 0.58928430
v 0.00000428 0.00004663 0.00037561
v 0.00000428 -0.00010844 0.58885385
v 0.00000428 -0.00010844 0.00080606
v 0.00000428 -0.00000248 0.00000236
v 0.00000428 -0.00000248 0.58965756
v 0.03769060 -0.04746097 0.29532144
v 0.03769060 -0.04746097 0.29433789
v -0.03784540 -0.04752567 0.29482966
v -0.03784540 0.04752567 0.29482966
v 0.00012052 -0.00000248 0.00111033
v 0.00012052 -0.00000248 0.58854959
v -0.00001560 -0.00000248 0.58946769
v -0.00001560 -0.00000248 0.00019164
v 0.03784540 -0.04752567 0.29482966
v 0.03784540 0.04752567 0.29482966
v -0.03783320 -0.04747987 0.29494583
v -0.03783320 -0.04747987 0.29471409
v -0.03783320 0.04747987 0.29494583
v -0.03783320 0.04747987 0.29471409
v -0.03769060 -0.04746097 0.29433848
v -0.03769060 -0.04746097 0.29532144
v 0.03777344 0.04749560 0.29505845
v 0.03777344 0.04749560 0.29460146
v -0.03777355 0.04749560 0.29505845
v -0.03777355 0.04749560 0.29460146
v 0.03777432 0.04725775 0.29415214
v 0.03777432 0.04725775 0.29550777
v 0.03777432 -0.04725775 0.29415214
v 0.03777432 -0.04725775 0.29550777
vn -0.00023200 0.99129686 0.13164532
vn -0.00023103 0.99129686 -0.13164531
vn 0.00041967 -0.99126554 0.13188047
vn 0.00041870 -0.99126554 -0.13188048
vn 0.00003622 0.00008369 -1.00000000
vn -0.00005051 0.00008373 1.00000000
vn 0.07342363 -0.98447714 0.15941686
vn 0.07342423 -0.98447701 -0.15941736
vn -0.70188968 -0.71228564 -0.00018991
vn -0.70189449 0.71228089 -0.00024256
vn 0.99441749 0.00040863 -0.10551634
vn 0.99441748 0.00040926 0.10551634
vn -0.99443594 -0.00006109 0.10534307
vn -0.99440367 -0.00006003 -0.10564725
vn 0.70182984 -0.71234463 -0.00002466
vn 0.70182015 0.71235417 -0.00012269
vn -0.99077232 -0.04615246 0.12743688
vn -0.99084737 -0.04469810 -0.12737181
vn -0.99077704 0.04610216 0.12741839
vn -0.99085188 0.04464936 -0.12735380
vn -0.07255549 -0.98455968 -0.15930453
vn -0.07308759 -0.98451782 0.15932000
vn 0.07350508 0.98448540 0.15932826
vn 0.07235805 0.98457583 -0.15929451
vn -0.07387689 0.98444551 0.15940275
vn -0.07272479 0.98453687 -0.15936828
vn 0.99076205 0.04623024 -0.12748850
vn 0.99074893 0.04647955 0.12749980
vn 0.99079172 -0.04591440 -0.12737206
vn 0.99077877 -0.04616260 0.12738304
f 16//16 10//10 25//25
f 16//16 25//25 23//23
f 6//6 16//16 23//23
f 6//6 23//23 1//1
f 10//10 6//6 1//1
f 10//10 1//1 25//25
f 23//23 25//25 1//1
f 10//10 9//9 17//17
f 10//10 17//17 19//19
f 9//9 6//6 13//13
f 9//9 13//13 17//17
f 6//6 10//10 19//19
f 6//6 19//19 13//13
f 17//17 13//13 19//19
f 9//9 15//15 7//7
f 9//9 7//7 22//22
f 15//15 6//6 3//3
f 15//15 3//3 7//7
f 6//6 9//9 22//22
f 6//6 22//22 3//3
f 7//7 3//3 22//22
f 15//15 16//16 28//28
f 15//15 28//28 30//30
f 6//6 15//15 30//30
f 6//6 30//30 12//12
f 16//16 6//6 12//12
f 16//16 12//12 28//28
f 28//28 12//12 30//30
f 27//27 29//29 11//11
f 11//11 5//5 16//16
f 27//27 11//11 16//16
f 29//29 15//15 5//5
f 11//11 29//29 5//5
f 16//16 15//15 27//27
f 27//27 15//15 29//29
f 21//21 4//4 8//8
f 9//9 5//5 21//21
f 21//21 5//5 4//4
f 5//5 15//15 4//4
f 8//8 4//4 15//15
f 8//8 15//15 9//9
f 21//21 8//8 9//9
f 18//18 20//20 14//14
f 10//10 5//5 20//20
f 14//14 20//20 5//5
f 14//14 5//5 9//9
f 18//18 14//14 9//9
f 9//9 10//10 18//18
f 18//18 10//10 20//20
f 26//26 24//24 2//2
f 2//2 5//5 10//10
f 10//10 26//26 2//2
f 16//16 5//5 24//24
f 24//24 5//5 2//2
f 10//10 16//16 26//26
f 24//24 26//26 16//16