# https://github.com/mikedh/trimesh
v 0.00000000 0.00000000 0.70000420
v 0.00000000 0.00000000 0.00000840
v 0.00000000 0.04999970 0.35000630
v 0.00000000 -0.04999970 0.35000630
v 0.04253210 -0.02628660 0.35000630
v 0.03408180 -0.01162280 0.59282720
v 0.03408180 -0.01162280 0.10718470
v -0.03354060 0.03618030 0.29314670
v -0.03354060 0.03618030 0.40686590
v -0.04308990 -0.01381970 0.20114430
v -0.04308990 -0.01381970 0.49886760
v -0.02236030 0.04472120 0.35000630
v -0.01366320 -0.04809660 0.35000630
v -0.02245910 -0.01162280 0.65193800
v -0.02245910 -0.01162280 0.04807390
v -0.02628630 -0.04253230 0.35000630
v 0.01140510 0.03373060 0.10429300
v 0.01140510 0.03373060 0.59571890
v 0.02938910 0.00000000 0.63316050
v 0.02938910 0.00000000 0.06685210
v -0.02506850 -0.02528620 0.59571960
v -0.02506850 -0.02528620 0.10429230
v -0.03690850 -0.03373030 0.35000630
v 0.00422200 0.04809670 0.44096640
v 0.00422200 0.04809670 0.25904550
v -0.00690990 0.01381980 0.01713880
v -0.00690990 0.01381980 0.68287310
v -0.03354080 -0.01381970 0.10914120
v -0.03354080 -0.01381970 0.59087070
v 0.01381920 0.02236060 0.05228370
v 0.01381920 0.02236060 0.64772820
v -0.04796230 -0.01162270 0.40622260
v -0.04796230 -0.01162270 0.29378930
v 0.00035130 0.02528620 0.04807530
v 0.00035130 0.02528620 0.65193660
v -0.04352300 0.01162280 0.50186430
v -0.04352300 0.01162280 0.19814760
v 0.00812270 0.04253240 0.17500910
v 0.00812270 0.04253240 0.52500350
v 0.02236040 0.03618040 0.53400970
v 0.02236040 0.03618040 0.16600290
v -0.01545080 0.00000000 0.01713810
v -0.01545080 0.00000000 0.68287380
v 0.02126600 -0.04253240 0.24185280
v 0.02126600 -0.04253240 0.45815980
v 0.03440930 0.02628660 0.52500420
v 0.03440930 0.02628660 0.17500840
v -0.02985950 0.03373050 0.50186360
v -0.02985950 0.03373050 0.19814830
v 0.04999970 0.00000000 0.35000630
v -0.01808990 -0.04472120 0.25800460
v -0.01808990 -0.04472120 0.44200730
v 0.03617980 -0.02236060 0.16600500
v 0.03617980 -0.02236060 0.53400690
v 0.04755260 0.00000000 0.24185210
v 0.04755260 0.00000000 0.45815980
v 0.04472100 0.02236060 0.35000630
v -0.00718300 -0.01162280 0.68668250
v -0.00718300 -0.01162280 0.01333010
v 0.00690980 -0.04472120 0.20114500
v 0.00690980 -0.04472120 0.49886690
v 0.01314340 -0.02628670 0.63315840
v 0.01314340 -0.02628670 0.06685350
v 0.04113060 0.02528610 0.25904480
v 0.04113060 0.02528610 0.44096710
v -0.04091330 0.02528620 0.44564730
v -0.04091330 0.02528620 0.25436530
v -0.04736040 0.01381970 0.40686590
v -0.04736040 0.01381970 0.29314600
v 0.01809010 -0.03618040 0.55572790
v 0.01809010 -0.03618040 0.14428470
v -0.00263950 0.03618040 0.59086930
v -0.00263950 0.03618040 0.10914260
v -0.04045070 0.00000000 0.14428330
v -0.04045070 0.00000000 0.55572930
v 0.02236070 -0.01381970 0.64773100
v 0.02236070 -0.01381970 0.05228090
v 0.02563750 -0.02528620 0.10718610
v 0.02563750 -0.02528620 0.59282580
v -0.01105370 0.04809670 0.29379000
v -0.01105370 0.04809670 0.40622260
v 0.03190950 0.03618020 0.44200800
v 0.03190950 0.03618020 0.25800460
v -0.03190950 -0.03618020 0.44200800
v -0.03190950 -0.03618020 0.25800460
v 0.01105370 -0.04809670 0.29379000
v 0.01105370 -0.04809670 0.40622260
v -0.02563750 0.02528620 0.10718610
v -0.02563750 0.02528620 0.59282580
v -0.02236070 0.01381970 0.64773100
v -0.02236070 0.01381970 0.05228090
v 0.04045070 0.00000000 0.14428330
v 0.04045070 0.00000000 0.55572930
v 0.00263950 -0.03618040 0.59086930
v 0.00263950 -0.03618040 0.10914260
v -0.01809010 0.03618040 0.55572790
v -0.01809010 0.03618040 0.14428470
v 0.04736040 -0.01381970 0.40686590
v 0.04736040 -0.01381970 0.29314600
v 0.04091330 -0.02528620 0.44564730
v 0.04091330 -0.02528620 0.25436530
v -0.04113060 -0.02528610 0.25904480
v -0.04113060 -0.02528610 0.44096710
v -0.01314340 0.02628670 0.63315840
v -0.01314340 0.02628670 0.06685350
v -0.00690980 0.04472120 0.20114500
v -0.00690980 0.04472120 0.49886690
v 0.00718300 0.01162280 0.68668250
v 0.00718300 0.01162280 0.01333010
v -0.04472100 -0.02236060 0.35000630
v -0.04755260 0.00000000 0.24185210
v -0.04755260 0.00000000 0.45815980
v -0.03617980 0.02236060 0.16600500
v -0.03617980 0.02236060 0.53400690
v 0.01808990 0.04472120 0.25800460
v 0.01808990 0.04472120 0.44200730
v -0.04999970 0.00000000 0.35000630
v 0.02985950 -0.03373050 0.50186360
v 0.02985950 -0.03373050 0.19814830
v -0.03440930 -0.02628660 0.52500420
v -0.03440930 -0.02628660 0.17500840
v -0.02126600 0.04253240 0.24185280
v -0.02126600 0.04253240 0.45815980
v 0.01545080 0.00000000 0.01713810
v 0.01545080 0.00000000 0.68287380
v -0.02236040 -0.03618040 0.53400970
v -0.02236040 -0.03618040 0.16600290
v -0.00812270 -0.04253240 0.17500910
v -0.00812270 -0.04253240 0.52500350
v 0.04352300 -0.01162280 0.50186430
v 0.04352300 -0.01162280 0.19814760
v -0.00035130 -0.02528620 0.04807530
v -0.00035130 -0.02528620 0.65193660
v 0.04796230 0.01162270 0.40622260
v 0.04796230 0.01162270 0.29378930
v -0.01381920 -0.02236060 0.05228370
v -0.01381920 -0.02236060 0.64772820
v 0.03354080 0.01381970 0.10914120
v 0.03354080 0.01381970 0.59087070
v 0.00690990 -0.01381980 0.01713880
v 0.00690990 -0.01381980 0.68287310
v -0.00422200 -0.04809670 0.44096640
v -0.00422200 -0.04809670 0.25904550
v 0.03690850 0.03373030 0.35000630
v 0.02506850 0.02528620 0.59571960
v 0.02506850 0.02528620 0.10429230
v -0.02938910 0.00000000 0.63316050
v -0.02938910 0.00000000 0.06685210
v -0.01140510 -0.03373060 0.10429300
v -0.01140510 -0.03373060 0.59571890
v 0.02628630 0.04253230 0.35000630
v 0.02245910 0.01162280 0.65193800
v 0.02245910 0.01162280 0.04807390
v 0.01366320 0.04809660 0.35000630
v 0.02236030 -0.04472120 0.35000630
v 0.04308990 0.01381970 0.20114430
v 0.04308990 0.01381970 0.49886760
v 0.03354060 -0.03618030 0.29314670
v 0.03354060 -0.03618030 0.40686590
v -0.03408180 0.01162280 0.59282720
v -0.03408180 0.01162280 0.10718470
v -0.04253210 0.02628660 0.35000630
vn 0.00000000 0.00000000 1.00000000
vn 0.00000000 0.00000000 -1.00000000
vn -0.01158632 0.99993288 0.00000003
vn 0.01158632 -0.99993288 0.00000003
vn 0.85064708 -0.52573714 0.00000001
vn 0.93693430 -0.31849956 0.14391716
vn 0.93693562 -0.31849556 -0.14391745
vn -0.67367220 0.73870075 -0.02206759
vn -0.67367220 0.73870075 0.02206762
vn -0.95214694 -0.29736277 -0.07065120
vn -0.95214708 -0.29736242 0.07065073
vn -0.45402179 0.89099058 -0.00000000
vn -0.27321324 -0.96195349 0.00000006
vn -0.86070778 -0.43374392 0.26654893
vn -0.86070918 -0.43374047 -0.26655001
vn -0.52572875 -0.85065227 0.00000003
vn 0.32472649 0.93405901 -0.14861520
vn 0.32472635 0.93405896 0.14861578
vn 0.97901595 -0.00492641 0.20372406
vn 0.97901622 -0.00492641 -0.20372278
vn -0.69021539 -0.70817783 0.14861654
vn -0.69021536 -0.70817798 -0.14861595
vn -0.73821224 -0.67456852 0.00000003
vn 0.07630418 0.99631353 0.03920478
vn 0.07630364 0.99631358 -0.03920476
vn -0.41483136 0.76507074 -0.49252583
vn -0.41484104 0.76507185 0.49251597
vn -0.92291448 -0.35863200 -0.14004268
vn -0.92291331 -0.35863497 0.14004276
vn 0.51025858 0.82563943 -0.24073991
vn 0.51025884 0.82563984 0.24073797
vn -0.97148559 -0.23590280 0.02378290
vn -0.97148561 -0.23590271 -0.02378277
vn 0.00301169 0.96381749 -0.26654602
vn 0.00301049 0.96381794 0.26654439
vn -0.96434481 0.25537167 0.06945788
vn -0.96434490 0.25537132 -0.06945796
vn 0.18119217 0.97973157 -0.08541345
vn 0.18119011 0.97973193 0.08541361
vn 0.52352833 0.84710205 0.09130285
vn 0.52352839 0.84710208 -0.09130221
vn -0.86981093 0.02888640 -0.49253885
vn -0.86981601 0.02889456 0.49252940
vn 0.44610674 -0.89374531 -0.04699032
vn 0.44610667 -0.89374533 0.04699064
vn 0.79526375 0.60021657 0.08541447
vn 0.79526240 0.60021842 -0.08541413
vn -0.65967438 0.74833509 0.06945720
vn -0.65967321 0.74833613 -0.06945706
vn 0.99997092 -0.00762627 0.00000003
vn -0.38404646 -0.92241828 -0.04065517
vn -0.38404571 -0.92241860 0.04065486
vn 0.84676961 -0.52334080 -0.09537104
vn 0.84676960 -0.52334080 0.09537110
vn 0.99889510 0.00068655 -0.04699052
vn 0.99889510 0.00068655 0.04699048
vn 0.89955003 0.43681774 0.00000004
vn -0.43630955 -0.70599365 0.55785925
vn -0.43631065 -0.70599543 -0.55785613
vn 0.15984535 -0.98461056 -0.07065064
vn 0.15984468 -0.98461069 0.07065037
vn 0.44223903 -0.87345429 0.20372097
vn 0.44223904 -0.87345432 -0.20372085
vn 0.85700235 0.51381897 -0.03920497
vn 0.85700286 0.51381815 0.03920468
vn -0.84978113 0.52520355 0.04509178
vn -0.84978076 0.52520416 -0.04509156
vn -0.96198695 0.27220236 0.02206770
vn -0.96198688 0.27220261 -0.02206769
vn 0.43639756 -0.89358836 0.10515237
vn 0.43639713 -0.89358859 -0.10515213
vn -0.09197476 0.98586465 0.14004122
vn -0.09197636 0.98586459 -0.14004054
vn -0.99441244 -0.00930128 -0.10515409
vn -0.99441244 -0.00930079 0.10515415
vn 0.82135831 -0.50763371 0.26015100
vn 0.82136069 -0.50763000 -0.26015074
vn 0.70387756 -0.69558954 -0.14391516
vn 0.70387907 -0.69558793 0.14391554
vn -0.22346675 0.97442136 -0.02378276
vn -0.22346638 0.97442144 0.02378287
vn 0.65328129 0.75602295 0.04065526
vn 0.65328122 0.75602303 -0.04065490
vn -0.65328129 -0.75602295 0.04065526
vn -0.65328122 -0.75602303 -0.04065490
vn 0.22346675 -0.97442136 -0.02378276
vn 0.22346638 -0.97442144 0.02378287
vn -0.70387756 0.69558954 -0.14391516
vn -0.70387907 0.69558793 0.14391554
vn -0.82135831 0.50763371 0.26015100
vn -0.82136069 0.50763000 -0.26015074
vn 0.99441244 0.00930128 -0.10515409
vn 0.99441244 0.00930079 0.10515415
vn 0.09197476 -0.98586465 0.14004122
vn 0.09197636 -0.98586459 -0.14004054
vn -0.43639756 0.89358836 0.10515237
vn -0.43639713 0.89358859 -0.10515213
vn 0.96198695 -0.27220236 0.02206770
vn 0.96198688 -0.27220261 -0.02206769
vn 0.84978113 -0.52520355 0.04509178
vn 0.84978076 -0.52520416 -0.04509156
vn -0.85700235 -0.51381897 -0.03920497
vn -0.85700286 -0.51381815 0.03920468
vn -0.44223903 0.87345429 0.20372097
vn -0.44223904 0.87345432 -0.20372085
vn -0.15984535 0.98461056 -0.07065064
vn -0.15984468 0.98461069 0.07065037
vn 0.43630955 0.70599365 0.55785925
vn 0.43631065 0.70599543 -0.55785613
vn -0.89955003 -0.43681774 0.00000004
vn -0.99889510 -0.00068655 -0.04699052
vn -0.99889510 -0.00068655 0.04699048
vn -0.84676961 0.52334080 -0.09537104
vn -0.84676960 0.52334080 0.09537110
vn 0.38404646 0.92241828 -0.04065517
vn 0.38404571 0.92241860 0.04065486
vn -0.99997092 0.00762627 0.00000003
vn 0.65967438 -0.74833509 0.06945720
vn 0.65967321 -0.74833613 -0.06945706
vn -0.79526375 -0.60021657 0.08541447
vn -0.79526240 -0.60021842 -0.08541413
vn -0.44610674 0.89374531 -0.04699032
vn -0.44610667 0.89374533 0.04699064
vn 0.86981093 -0.02888640 -0.49253885
vn 0.86981601 -0.02889456 0.49252940
vn -0.52352833 -0.84710205 0.09130285
vn -0.52352839 -0.84710208 -0.09130221
vn -0.18119217 -0.97973157 -0.08541345
vn -0.18119011 -0.97973193 0.08541361
vn 0.96434481 -0.25537167 0.06945788
vn 0.96434490 -0.25537132 -0.06945796
vn -0.00301169 -0.96381749 -0.26654602
vn -0.00301049 -0.96381794 0.26654439
vn 0.97148559 0.23590280 0.02378290
vn 0.97148561 0.23590271 -0.02378277
vn -0.51025858 -0.82563943 -0.24073991
vn -0.51025884 -0.82563984 0.24073797
vn 0.92291448 0.35863200 -0.14004268
vn 0.92291331 0.35863497 0.14004276
vn 0.41483136 -0.76507074 -0.49252583
vn 0.41484104 -0.76507185 0.49251597
vn -0.07630418 -0.99631353 0.03920478
vn -0.07630364 -0.99631358 -0.03920476
vn 0.73821224 0.67456852 0.00000003
vn 0.69021539 0.70817783 0.14861654
vn 0.69021536 0.70817798 -0.14861595
vn -0.97901595 0.00492641 0.20372406
vn -0.97901622 0.00492641 -0.20372278
vn -0.32472649 -0.93405901 -0.14861520
vn -0.32472635 -0.93405896 0.14861578
vn 0.52572875 0.85065227 0.00000003
vn 0.86070778 0.43374392 0.26654893
vn 0.86070918 0.43374047 -0.26655001
vn 0.27321324 0.96195349 0.00000006
vn 0.45402179 -0.89099058 -0.00000000
vn 0.95214694 0.29736277 -0.07065120
vn 0.95214708 0.29736242 0.07065073
vn 0.67367220 -0.73870075 -0.02206759
vn 0.67367220 -0.73870075 0.02206762
vn -0.93693430 0.31849956 0.14391716
vn -0.93693562 0.31849556 -0.14391745
vn -0.85064708 0.52573714 0.00000001
f 71//71 60//60 95//95
f 159//159 155//155 158//158
f 127//127 51//51 85//85
f 84//84 52//52 126//126
f 94//94 61//61 70//70
f 50//50 98//98 99//99
f 124//124 77//77 140//140
f 74//74 28//28 10//10
f 75//75 11//11 29//29
f 125//125 141//141 76//76
f 156//156 92//92 138//138
f 26//26 42//42 91//91
f 69//69 117//117 68//68
f 90//90 43//43 27//27
f 139//139 93//93 157//157
f 115//115 83//83 41//41
f 106//106 73//73 97//97
f 12//12 8//8 9//9
f 107//107 96//96 72//72
f 116//116 40//40 82//82
f 40//40 18//18 145//145
f 116//116 154//154 24//24
f 82//82 65//65 144//144
f 96//96 48//48 89//89
f 107//107 24//24 81//81
f 72//72 35//35 18//18
f 8//8 49//49 67//67
f 12//12 81//81 80//80
f 9//9 66//66 48//48
f 73//73 17//17 34//34
f 106//106 80//80 25//25
f 97//97 88//88 49//49
f 83//83 144//144 64//64
f 115//115 25//25 154//154
f 41//41 146//146 17//17
f 6//6 130//130 93//93
f 134//134 65//65 157//157
f 145//145 152//152 139//139
f 14//14 58//58 43//43
f 108//108 35//35 27//27
f 89//89 160//160 90//90
f 33//33 32//32 117//117
f 36//36 66//66 68//68
f 67//67 37//37 69//69
f 59//59 15//15 42//42
f 161//161 88//88 91//91
f 34//34 109//109 26//26
f 131//131 7//7 92//92
f 153//153 146//146 138//138
f 64//64 135//135 156//156
f 141//141 58//58 133//133
f 125//125 152//152 108//108
f 76//76 79//79 6//6
f 11//11 32//32 103//103
f 75//75 160//160 36//36
f 29//29 21//21 14//14
f 28//28 15//15 22//22
f 74//74 37//37 161//161
f 10//10 102//102 33//33
f 77//77 7//7 78//78
f 124//124 109//109 153//153
f 140//140 132//132 59//59
f 98//98 130//130 100//100
f 50//50 135//135 134//134
f 99//99 101//101 131//131
f 142//142 87//87 61//61
f 118//118 79//79 70//70
f 133//133 150//150 94//94
f 13//13 142//142 52//52
f 150//150 21//21 126//126
f 103//103 23//23 84//84
f 143//143 13//13 51//51
f 23//23 102//102 85//85
f 22//22 149//149 127//127
f 155//155 87//87 86//86
f 159//159 100//100 118//118
f 158//158 119//119 101//101
f 86//86 143//143 60//60
f 149//149 132//132 95//95
f 78//78 119//119 71//71
f 119//119 44//44 71//71
f 71//71 63//63 78//78
f 78//78 53//53 119//119
f 132//132 63//63 95//95
f 95//95 128//128 149//149
f 149//149 136//136 132//132
f 143//143 128//128 60//60
f 60//60 44//44 86//86
f 86//86 4//4 143//143
f 158//158 44//44 119//119
f 101//101 5//5 158//158
f 119//119 53//53 101//101
f 159//159 5//5 100//100
f 118//118 45//45 159//159
f 100//100 54//54 118//118
f 155//155 45//45 87//87
f 86//86 44//44 155//155
f 87//87 4//4 86//86
f 149//149 128//128 127//127
f 127//127 121//121 22//22
f 22//22 136//136 149//149
f 102//102 121//121 85//85
f 85//85 16//16 23//23
f 23//23 110//110 102//102
f 13//13 16//16 51//51
f 51//51 128//128 143//143
f 143//143 4//4 13//13
f 23//23 16//16 84//84
f 84//84 120//120 103//103
f 103//103 110//110 23//23
f 21//21 120//120 126//126
f 126//126 129//129 150//150
f 150//150 137//137 21//21
f 142//142 129//129 52//52
f 52//52 16//16 13//13
f 13//13 4//4 142//142
f 150//150 129//129 94//94
f 94//94 62//62 133//133
f 133//133 137//137 150//150
f 79//79 62//62 70//70
f 70//70 45//45 118//118
f 118//118 54//54 79//79
f 87//87 45//45 61//61
f 61//61 129//129 142//142
f 142//142 4//4 87//87
f 99//99 5//5 101//101
f 131//131 55//55 99//99
f 101//101 53//53 131//131
f 50//50 55//55 135//135
f 134//134 56//56 50//50
f 135//135 57//57 134//134
f 98//98 56//56 130//130
f 100//100 5//5 98//98
f 130//130 54//54 100//100
f 140//140 63//63 132//132
f 59//59 2//2 140//140
f 132//132 136//136 59//59
f 124//124 2//2 109//109
f 153//153 20//20 124//124
f 109//109 30//30 153//153
f 77//77 20//20 7//7
f 78//78 63//63 77//77
f 7//7 53//53 78//78
f 10//10 121//121 102//102
f 33//33 111//111 10//10
f 102//102 110//110 33//33
f 74//74 111//111 37//37
f 161//161 148//148 74//74
f 37//37 113//113 161//161
f 28//28 148//148 15//15
f 22//22 121//121 28//28
f 15//15 136//136 22//22
f 29//29 120//120 21//21
f 14//14 147//147 29//29
f 21//21 137//137 14//14
f 75//75 147//147 160//160
f 36//36 112//112 75//75
f 160//160 114//114 36//36
f 11//11 112//112 32//32
f 103//103 120//120 11//11
f 32//32 110//110 103//103
f 76//76 62//62 79//79
f 6//6 19//19 76//76
f 79//79 54//54 6//6
f 125//125 19//19 152//152
f 108//108 1//1 125//125
f 152//152 31//31 108//108
f 141//141 1//1 58//58
f 133//133 62//62 141//141
f 58//58 137//137 133//133
f 135//135 55//55 156//156
f 156//156 47//47 64//64
f 64//64 57//57 135//135
f 146//146 47//47 138//138
f 138//138 20//20 153//153
f 153//153 30//30 146//146
f 7//7 20//20 92//92
f 92//92 55//55 131//131
f 131//131 53//53 7//7
f 109//109 2//2 26//26
f 26//26 105//105 34//34
f 34//34 30//30 109//109
f 88//88 105//105 91//91
f 91//91 148//148 161//161
f 161//161 113//113 88//88
f 15//15 148//148 42//42
f 42//42 2//2 59//59
f 59//59 136//136 15//15
f 37//37 111//111 69//69
f 69//69 162//162 67//67
f 67//67 113//113 37//37
f 66//66 162//162 68//68
f 68//68 112//112 36//36
f 36//36 114//114 66//66
f 32//32 112//112 117//117
f 117//117 111//111 33//33
f 33//33 110//110 32//32
f 160//160 147//147 90//90
f 90//90 104//104 89//89
f 89//89 114//114 160//160
f 35//35 104//104 27//27
f 27//27 1//1 108//108
f 108//108 31//31 35//35
f 58//58 1//1 43//43
f 43//43 147//147 14//14
f 14//14 137//137 58//58
f 152//152 19//19 139//139
f 139//139 46//46 145//145
f 145//145 31//31 152//152
f 65//65 46//46 157//157
f 157//157 56//56 134//134
f 134//134 57//57 65//65
f 130//130 56//56 93//93
f 93//93 19//19 6//6
f 6//6 54//54 130//130
f 41//41 47//47 146//146
f 17//17 38//38 41//41
f 146//146 30//30 17//17
f 115//115 38//38 25//25
f 154//154 151//151 115//115
f 25//25 3//3 154//154
f 83//83 151//151 144//144
f 64//64 47//47 83//83
f 144//144 57//57 64//64
f 97//97 105//105 88//88
f 49//49 122//122 97//97
f 88//88 113//113 49//49
f 106//106 122//122 80//80
f 25//25 38//38 106//106
f 80//80 3//3 25//25
f 73//73 38//38 17//17
f 34//34 105//105 73//73
f 17//17 30//30 34//34
f 9//9 162//162 66//66
f 48//48 123//123 9//9
f 66//66 114//114 48//48
f 12//12 123//123 81//81
f 80//80 122//122 12//12
f 81//81 3//3 80//80
f 8//8 122//122 49//49
f 67//67 162//162 8//8
f 49//49 113//113 67//67
f 72//72 104//104 35//35
f 18//18 39//39 72//72
f 35//35 31//31 18//18
f 107//107 39//39 24//24
f 81//81 123//123 107//107
f 24//24 3//3 81//81
f 96//96 123//123 48//48
f 89//89 104//104 96//96
f 48//48 114//114 89//89
f 82//82 46//46 65//65
f 144//144 151//151 82//82
f 65//65 57//57 144//144
f 116//116 151//151 154//154
f 24//24 39//39 116//116
f 154//154 3//3 24//24
f 40//40 39//39 18//18
f 145//145 46//46 40//40
f 18//18 31//31 145//145
f 116//116 39//39 40//40
f 82//82 151//151 116//116
f 40//40 46//46 82//82
f 107//107 123//123 96//96
f 72//72 39//39 107//107
f 96//96 104//104 72//72
f 12//12 122//122 8//8
f 9//9 123//123 12//12
f 8//8 162//162 9//9
f 106//106 38//38 73//73
f 97//97 122//122 106//106
f 73//73 105//105 97//97
f 115//115 151//151 83//83
f 41//41 38//38 115//115
f 83//83 47//47 41//41
f 93//93 56//56 157//157
f 157//157 46//46 139//139
f 139//139 19//19 93//93
f 43//43 1//1 27//27
f 27//27 104//104 90//90
f 90//90 147//147 43//43
f 117//117 112//112 68//68
f 68//68 162//162 69//69
f 69//69 111//111 117//117
f 42//42 148//148 91//91
f 91//91 105//105 26//26
f 26//26 2//2 42//42
f 92//92 20//20 138//138
f 138//138 47//47 156//156
f 156//156 55//55 92//92
f 125//125 1//1 141//141
f 76//76 19//19 125//125
f 141//141 62//62 76//76
f 75//75 112//112 11//11
f 29//29 147//147 75//75
f 11//11 120//120 29//29
f 74//74 148//148 28//28
f 10//10 111//111 74//74
f 28//28 121//121 10//10
f 124//124 20//20 77//77
f 140//140 2//2 124//124
f 77//77 63//63 140//140
f 50//50 56//56 98//98
f 99//99 55//55 50//50
f 98//98 5//5 99//99
f 61//61 45//45 70//70
f 70//70 62//62 94//94
f 94//94 129//129 61//61
f 52//52 129//129 126//126
f 126//126 120//120 84//84
f 84//84 16//16 52//52
f 51//51 16//16 85//85
f 85//85 121//121 127//127
f 127//127 128//128 51//51
f 159//159 45//45 155//155
f 158//158 5//5 159//159
f 155//155 44//44 158//158
f 60//60 128//128 95//95
f 95//95 63//63 71//71
f 71//71 44//44 60//60