# https://github.com/mikedh/trimesh
v 0.00000000 0.00000000 0.60000360
v 0.00000000 0.00000000 0.00000720
v 0.00000000 0.12499925 0.30000540
v 0.00000000 -0.12499925 0.30000540
v 0.10633025 -0.06571650 0.30000540
v 0.08520450 -0.02905700 0.50813760
v 0.08520450 -0.02905700 0.09187260
v -0.08385150 0.09045075 0.25126860
v -0.08385150 0.09045075 0.34874220
v -0.10772475 -0.03454925 0.17240940
v -0.10772475 -0.03454925 0.42760080
v -0.05590075 0.11180300 0.30000540
v -0.03415800 -0.12024150 0.30000540
v -0.05614775 -0.02905700 0.55880400
v -0.05614775 -0.02905700 0.04120620
v -0.06571575 -0.10633075 0.30000540
v 0.02851275 0.08432650 0.08939400
v 0.02851275 0.08432650 0.51061620
v 0.07347275 0.00000000 0.54270900
v 0.07347275 0.00000000 0.05730180
v -0.06267125 -0.06321550 0.51061680
v -0.06267125 -0.06321550 0.08939340
v -0.09227125 -0.08432575 0.30000540
v 0.01055500 0.12024175 0.37797120
v 0.01055500 0.12024175 0.22203900
v -0.01727475 0.03454950 0.01469040
v -0.01727475 0.03454950 0.58531980
v -0.08385200 -0.03454925 0.09354960
v -0.08385200 -0.03454925 0.50646060
v 0.03454800 0.05590150 0.04481460
v 0.03454800 0.05590150 0.55519560
v -0.11990575 -0.02905675 0.34819080
v -0.11990575 -0.02905675 0.25181940
v 0.00087825 0.06321550 0.04120740
v 0.00087825 0.06321550 0.55880280
v -0.10880750 0.02905700 0.43016940
v -0.10880750 0.02905700 0.16984080
v 0.02030675 0.10633100 0.15000780
v 0.02030675 0.10633100 0.45000300
v 0.05590100 0.09045100 0.45772260
v 0.05590100 0.09045100 0.14228820
v -0.03862700 0.00000000 0.01468980
v -0.03862700 0.00000000 0.58532040
v 0.05316500 -0.10633100 0.20730240
v 0.05316500 -0.10633100 0.39270840
v 0.08602325 0.06571650 0.45000360
v 0.08602325 0.06571650 0.15000720
v -0.07464875 0.08432625 0.43016880
v -0.07464875 0.08432625 0.16984140
v 0.12499925 0.00000000 0.30000540
v -0.04522475 -0.11180300 0.22114680
v -0.04522475 -0.11180300 0.37886340
v 0.09044950 -0.05590150 0.14229000
v 0.09044950 -0.05590150 0.45772020
v 0.11888150 0.00000000 0.20730180
v 0.11888150 0.00000000 0.39270840
v 0.11180250 0.05590150 0.30000540
v -0.01795750 -0.02905700 0.58858500
v -0.01795750 -0.02905700 0.01142580
v 0.01727450 -0.11180300 0.17241000
v 0.01727450 -0.11180300 0.42760020
v 0.03285850 -0.06571675 0.54270720
v 0.03285850 -0.06571675 0.05730300
v 0.10282650 0.06321525 0.22203840
v 0.10282650 0.06321525 0.37797180
v -0.10228325 0.06321550 0.38198340
v -0.10228325 0.06321550 0.21802740
v -0.11840100 0.03454925 0.34874220
v -0.11840100 0.03454925 0.25126800
v 0.04522525 -0.09045100 0.47633820
v 0.04522525 -0.09045100 0.12367260
v -0.00659875 0.09045100 0.50645940
v -0.00659875 0.09045100 0.09355080
v -0.10112675 0.00000000 0.12367140
v -0.10112675 0.00000000 0.47633940
v 0.05590175 -0.03454925 0.55519800
v 0.05590175 -0.03454925 0.04481220
v 0.06409375 -0.06321550 0.09187380
v 0.06409375 -0.06321550 0.50813640
v -0.02763425 0.12024175 0.25182000
v -0.02763425 0.12024175 0.34819080
v 0.07977375 0.09045050 0.37886400
v 0.07977375 0.09045050 0.22114680
v -0.07977375 -0.09045050 0.37886400
v -0.07977375 -0.09045050 0.22114680
v 0.02763425 -0.12024175 0.25182000
v 0.02763425 -0.12024175 0.34819080
v -0.06409375 0.06321550 0.09187380
v -0.06409375 0.06321550 0.50813640
v -0.05590175 0.03454925 0.55519800
v -0.05590175 0.03454925 0.04481220
v 0.10112675 0.00000000 0.12367140
v 0.10112675 0.00000000 0.47633940
v 0.00659875 -0.09045100 0.50645940
v 0.00659875 -0.09045100 0.09355080
v -0.04522525 0.09045100 0.47633820
v -0.04522525 0.09045100 0.12367260
v 0.11840100 -0.03454925 0.34874220
v 0.11840100 -0.03454925 0.25126800
v 0.10228325 -0.06321550 0.38198340
v 0.10228325 -0.06321550 0.21802740
v -0.10282650 -0.06321525 0.22203840
v -0.10282650 -0.06321525 0.37797180
v -0.03285850 0.06571675 0.54270720
v -0.03285850 0.06571675 0.05730300
v -0.01727450 0.11180300 0.17241000
v -0.01727450 0.11180300 0.42760020
v 0.01795750 0.02905700 0.58858500
v 0.01795750 0.02905700 0.01142580
v -0.11180250 -0.05590150 0.30000540
v -0.11888150 0.00000000 0.20730180
v -0.11888150 0.00000000 0.39270840
v -0.09044950 0.05590150 0.14229000
v -0.09044950 0.05590150 0.45772020
v 0.04522475 0.11180300 0.22114680
v 0.04522475 0.11180300 0.37886340
v -0.12499925 0.00000000 0.30000540
v 0.07464875 -0.08432625 0.43016880
v 0.07464875 -0.08432625 0.16984140
v -0.08602325 -0.06571650 0.45000360
v -0.08602325 -0.06571650 0.15000720
v -0.05316500 0.10633100 0.20730240
v -0.05316500 0.10633100 0.39270840
v 0.03862700 0.00000000 0.01468980
v 0.03862700 0.00000000 0.58532040
v -0.05590100 -0.09045100 0.45772260
v -0.05590100 -0.09045100 0.14228820
v -0.02030675 -0.10633100 0.15000780
v -0.02030675 -0.10633100 0.45000300
v 0.10880750 -0.02905700 0.43016940
v 0.10880750 -0.02905700 0.16984080
v -0.00087825 -0.06321550 0.04120740
v -0.00087825 -0.06321550 0.55880280
v 0.11990575 0.02905675 0.34819080
v 0.11990575 0.02905675 0.25181940
v -0.03454800 -0.05590150 0.04481460
v -0.03454800 -0.05590150 0.55519560
v 0.08385200 0.03454925 0.09354960
v 0.08385200 0.03454925 0.50646060
v 0.01727475 -0.03454950 0.01469040
v 0.01727475 -0.03454950 0.58531980
v -0.01055500 -0.12024175 0.37797120
v -0.01055500 -0.12024175 0.22203900
v 0.09227125 0.08432575 0.30000540
v 0.06267125 0.06321550 0.51061680
v 0.06267125 0.06321550 0.08939340
v -0.07347275 0.00000000 0.54270900
v -0.07347275 0.00000000 0.05730180
v -0.02851275 -0.08432650 0.08939400
v -0.02851275 -0.08432650 0.51061620
v 0.06571575 0.10633075 0.30000540
v 0.05614775 0.02905700 0.55880400
v 0.05614775 0.02905700 0.04120620
v 0.03415800 0.12024150 0.30000540
v 0.05590075 -0.11180300 0.30000540
v 0.10772475 0.03454925 0.17240940
v 0.10772475 0.03454925 0.42760080
v 0.08385150 -0.09045075 0.25126860
v 0.08385150 -0.09045075 0.34874220
v -0.08520450 0.02905700 0.50813760
v -0.08520450 0.02905700 0.09187260
v -0.10633025 0.06571650 0.30000540
vn 0.00000000 0.00000000 1.00000000
vn 0.00000000 0.00000000 -1.00000000
vn -0.00476070 0.99998867 0.00000012
vn 0.00476070 -0.99998867 0.00000012
vn 0.85064710 -0.52573711 0.00000005
vn 0.87276224 -0.30099729 0.38430028
vn 0.87276317 -0.30099349 -0.38430113
vn -0.67292231 0.73678323 -0.06577260
vn -0.67292230 0.73678322 0.06577281
vn -0.93422216 -0.29350142 -0.20269651
vn -0.93422245 -0.29350115 0.20269557
vn -0.45455580 0.89071827 0.00000000
vn -0.27297097 -0.96202227 0.00000019
vn -0.70853527 -0.36676005 0.60288045
vn -0.70853537 -0.36675729 -0.60288201
vn -0.52572920 -0.85065199 0.00000010
vn 0.29851557 0.86956826 -0.39336942
vn 0.29851518 0.86956772 0.39337090
vn 0.85608435 -0.00381550 0.51682205
vn 0.85608590 -0.00381539 -0.51681948
vn -0.64425444 -0.65589162 0.39337310
vn -0.64425475 -0.65589220 -0.39337163
vn -0.73838171 -0.67438301 0.00000009
vn 0.08170340 0.99028623 0.11250656
vn 0.08170308 0.99028625 -0.11250668
vn -0.27633799 0.51042535 -0.81431153
vn -0.27634443 0.51042834 0.81430748
vn -0.86094146 -0.34218458 -0.37641667
vn -0.86094051 -0.34218699 0.37641667
vn 0.42884355 0.69390406 -0.57843786
vn 0.42884466 0.69390585 0.57843489
vn -0.96919703 -0.23619769 0.06976937
vn -0.96919706 -0.23619761 -0.06976919
vn 0.01115833 0.79775588 -0.60287731
vn 0.01115706 0.79775736 0.60287537
vn -0.94662279 0.25233454 0.20058058
vn -0.94662283 0.25233419 -0.20058085
vn 0.17996842 0.95391015 -0.24013913
vn 0.17996676 0.95391031 0.24013971
vn 0.50894777 0.82350881 0.25061008
vn 0.50894811 0.82350901 -0.25060872
vn -0.58011300 0.01889556 -0.81431681
vn -0.58011711 0.01889994 0.81431378
vn 0.44232051 -0.88630175 -0.13719250
vn 0.44232041 -0.88630168 0.13719324
vn 0.77271489 0.58757441 0.24014164
vn 0.77271387 0.58757615 -0.24014069
vn -0.64903256 0.73384263 0.20057849
vn -0.64903147 0.73384366 -0.20057825
vn 0.99996617 -0.00822566 0.00000020
vn -0.38135473 -0.91696531 -0.11723139
vn -0.38135410 -0.91696564 0.11723083
vn 0.82169180 -0.50784140 -0.25868843
vn 0.82169171 -0.50784135 0.25868881
vn 0.99054399 0.00074419 -0.13719346
vn 0.99054403 0.00074418 0.13719322
vn 0.89654746 0.44294768 0.00000020
vn -0.28049917 -0.45387656 0.84576373
vn -0.28049866 -0.45387574 -0.84576434
vn 0.15528307 -0.96685154 -0.20269502
vn 0.15528244 -0.96685174 0.20269452
vn 0.38626916 -0.76400036 0.51681678
vn 0.38626932 -0.76400071 -0.51681614
vn 0.84919699 0.51595220 -0.11250688
vn 0.84919757 0.51595134 0.11250645
vn -0.84404458 0.52165803 0.12434488
vn -0.84404432 0.52165863 -0.12434415
vn -0.95993649 0.27238919 0.06577290
vn -0.95993639 0.27238949 -0.06577302
vn 0.41792902 -0.85842793 0.29738329
vn 0.41792879 -0.85842844 -0.29738216
vn -0.07897010 0.92307986 0.37641372
vn -0.07897122 0.92308019 -0.37641269
vn -0.95470361 -0.01009575 -0.29738710
vn -0.95470358 -0.01009530 0.29738723
vn 0.68514823 -0.42344920 0.59267418
vn 0.68514990 -0.42344655 -0.59267414
vn 0.65952573 -0.64601983 -0.38429700
vn 0.65952700 -0.64601824 0.38429750
vn -0.22217948 0.97250632 -0.06976914
vn -0.22217906 0.97250639 0.06976953
vn 0.64960729 0.75117719 0.11723139
vn 0.64960726 0.75117725 -0.11723114
vn -0.64960729 -0.75117719 0.11723139
vn -0.64960726 -0.75117725 -0.11723114
vn 0.22217948 -0.97250632 -0.06976914
vn 0.22217906 -0.97250639 0.06976953
vn -0.65952573 0.64601983 -0.38429700
vn -0.65952700 0.64601824 0.38429750
vn -0.68514823 0.42344920 0.59267418
vn -0.68514990 0.42344655 -0.59267414
vn 0.95470361 0.01009575 -0.29738710
vn 0.95470358 0.01009530 0.29738723
vn 0.07897010 -0.92307986 0.37641372
vn 0.07897122 -0.92308019 -0.37641269
vn -0.41792902 0.85842793 0.29738329
vn -0.41792879 0.85842844 -0.29738216
vn 0.95993649 -0.27238919 0.06577290
vn 0.95993639 -0.27238949 -0.06577302
vn 0.84404458 -0.52165803 0.12434488
vn 0.84404432 -0.52165863 -0.12434415
vn -0.84919699 -0.51595220 -0.11250688
vn -0.84919757 -0.51595134 0.11250645
vn -0.38626916 0.76400036 0.51681678
vn -0.38626932 0.76400071 -0.51681614
vn -0.15528307 0.96685154 -0.20269502
vn -0.15528244 0.96685174 0.20269452
vn 0.28049917 0.45387656 0.84576373
vn 0.28049866 0.45387574 -0.84576434
vn -0.89654746 -0.44294768 0.00000020
vn -0.99054399 -0.00074419 -0.13719346
vn -0.99054403 -0.00074418 0.13719322
vn -0.82169180 0.50784140 -0.25868843
vn -0.82169171 0.50784135 0.25868881
vn 0.38135473 0.91696531 -0.11723139
vn 0.38135410 0.91696564 0.11723083
vn -0.99996617 0.00822566 0.00000020
vn 0.64903256 -0.73384263 0.20057849
vn 0.64903147 -0.73384366 -0.20057825
vn -0.77271489 -0.58757441 0.24014164
vn -0.77271387 -0.58757615 -0.24014069
vn -0.44232051 0.88630175 -0.13719250
vn -0.44232041 0.88630168 0.13719324
vn 0.58011300 -0.01889556 -0.81431681
vn 0.58011711 -0.01889994 0.81431378
vn -0.50894777 -0.82350881 0.25061008
vn -0.50894811 -0.82350901 -0.25060872
vn -0.17996842 -0.95391015 -0.24013913
vn -0.17996676 -0.95391031 0.24013971
vn 0.94662279 -0.25233454 0.20058058
vn 0.94662283 -0.25233419 -0.20058085
vn -0.01115833 -0.79775588 -0.60287731
vn -0.01115706 -0.79775736 0.60287537
vn 0.96919703 0.23619769 0.06976937
vn 0.96919706 0.23619761 -0.06976919
vn -0.42884355 -0.69390406 -0.57843786
vn -0.42884466 -0.69390585 0.57843489
vn 0.86094146 0.34218458 -0.37641667
vn 0.86094051 0.34218699 0.37641667
vn 0.27633799 -0.51042535 -0.81431153
vn 0.27634443 -0.51042834 0.81430748
vn -0.08170340 -0.99028623 0.11250656
vn -0.08170308 -0.99028625 -0.11250668
vn 0.73838171 0.67438301 0.00000009
vn 0.64425444 0.65589162 0.39337310
vn 0.64425475 0.65589220 -0.39337163
vn -0.85608435 0.00381550 0.51682205
vn -0.85608590 0.00381539 -0.51681948
vn -0.29851557 -0.86956826 -0.39336942
vn -0.29851518 -0.86956772 0.39337090
vn 0.52572920 0.85065199 0.00000010
vn 0.70853527 0.36676005 0.60288045
vn 0.70853537 0.36675729 -0.60288201
vn 0.27297097 0.96202227 0.00000019
vn 0.45455580 -0.89071827 0.00000000
vn 0.93422216 0.29350142 -0.20269651
vn 0.93422245 0.29350115 0.20269557
vn 0.67292231 -0.73678323 -0.06577260
vn 0.67292230 -0.73678322 0.06577281
vn -0.87276224 0.30099729 0.38430028
vn -0.87276317 0.30099349 -0.38430113
vn -0.85064710 0.52573711 0.00000005
f 71//71 60//60 95//95
f 159//159 155//155 158//158
f 127//127 51//51 85//85
f 84//84 52//52 126//126
f 94//94 61//61 70//70
f 50//50 98//98 99//99
f 124//124 77//77 140//140
f 74//74 28//28 10//10
f 75//75 11//11 29//29
f 125//125 141//141 76//76
f 156//156 92//92 138//138
f 26//26 42//42 91//91
f 69//69 117//117 68//68
f 90//90 43//43 27//27
f 139//139 93//93 157//157
f 115//115 83//83 41//41
f 106//106 73//73 97//97
f 12//12 8//8 9//9
f 107//107 96//96 72//72
f 116//116 40//40 82//82
f 40//40 18//18 145//145
f 116//116 154//154 24//24
f 82//82 65//65 144//144
f 96//96 48//48 89//89
f 107//107 24//24 81//81
f 72//72 35//35 18//18
f 8//8 49//49 67//67
f 12//12 81//81 80//80
f 9//9 66//66 48//48
f 73//73 17//17 34//34
f 106//106 80//80 25//25
f 97//97 88//88 49//49
f 83//83 144//144 64//64
f 115//115 25//25 154//154
f 41//41 146//146 17//17
f 6//6 130//130 93//93
f 134//134 65//65 157//157
f 145//145 152//152 139//139
f 14//14 58//58 43//43
f 108//108 35//35 27//27
f 89//89 160//160 90//90
f 33//33 32//32 117//117
f 36//36 66//66 68//68
f 67//67 37//37 69//69
f 59//59 15//15 42//42
f 161//161 88//88 91//91
f 34//34 109//109 26//26
f 131//131 7//7 92//92
f 153//153 146//146 138//138
f 64//64 135//135 156//156
f 141//141 58//58 133//133
f 125//125 152//152 108//108
f 76//76 79//79 6//6
f 11//11 32//32 103//103
f 75//75 160//160 36//36
f 29//29 21//21 14//14
f 28//28 15//15 22//22
f 74//74 37//37 161//161
f 10//10 102//102 33//33
f 77//77 7//7 78//78
f 124//124 109//109 153//153
f 140//140 132//132 59//59
f 98//98 130//130 100//100
f 50//50 135//135 134//134
f 99//99 101//101 131//131
f 142//142 87//87 61//61
f 118//118 79//79 70//70
f 133//133 150//150 94//94
f 13//13 142//142 52//52
f 150//150 21//21 126//126
f 103//103 23//23 84//84
f 143//143 13//13 51//51
f 23//23 102//102 85//85
f 22//22 149//149 127//127
f 155//155 87//87 86//86
f 159//159 100//100 118//118
f 158//158 119//119 101//101
f 86//86 143//143 60//60
f 149//149 132//132 95//95
f 78//78 119//119 71//71
f 119//119 44//44 71//71
f 71//71 63//63 78//78
f 78//78 53//53 119//119
f 132//132 63//63 95//95
f 95//95 128//128 149//149
f 149//149 136//136 132//132
f 143//143 128//128 60//60
f 60//60 44//44 86//86
f 86//86 4//4 143//143
f 158//158 44//44 119//119
f 101//101 5//5 158//158
f 119//119 53//53 101//101
f 159//159 5//5 100//100
f 118//118 45//45 159//159
f 100//100 54//54 118//118
f 155//155 45//45 87//87
f 86//86 44//44 155//155
f 87//87 4//4 86//86
f 149//149 128//128 127//127
f 127//127 121//121 22//22
f 22//22 136//136 149//149
f 102//102 121//121 85//85
f 85//85 16//16 23//23
f 23//23 110//110 102//102
f 13//13 16//16 51//51
f 51//51 128//128 143//143
f 143//143 4//4 13//13
f 23//23 16//16 84//84
f 84//84 120//120 103//103
f 103//103 110//110 23//23
f 21//21 120//120 126//126
f 126//126 129//129 150//150
f 150//150 137//137 21//21
f 142//142 129//129 52//52
f 52//52 16//16 13//13
f 13//13 4//4 142//142
f 150//150 129//129 94//94
f 94//94 62//62 133//133
f 133//133 137//137 150//150
f 79//79 62//62 70//70
f 70//70 45//45 118//118
f 118//118 54//54 79//79
f 87//87 45//45 61//61
f 61//61 129//129 142//142
f 142//142 4//4 87//87
f 99//99 5//5 101//101
f 131//131 55//55 99//99
f 101//101 53//53 131//131
f 50//50 55//55 135//135
f 134//134 56//56 50//50
f 135//135 57//57 134//134
f 98//98 56//56 130//130
f 100//100 5//5 98//98
f 130//130 54//54 100//100
f 140//140 63//63 132//132
f 59//59 2//2 140//140
f 132//132 136//136 59//59
f 124//124 2//2 109//109
f 153//153 20//20 124//124
f 109//109 30//30 153//153
f 77//77 20//20 7//7
f 78//78 63//63 77//77
f 7//7 53//53 78//78
f 10//10 121//121 102//102
f 33//33 111//111 10//10
f 102//102 110//110 33//33
f 74//74 111//111 37//37
f 161//161 148//148 74//74
f 37//37 113//113 161//161
f 28//28 148//148 15//15
f 22//22 121//121 28//28
f 15//15 136//136 22//22
f 29//29 120//120 21//21
f 14//14 147//147 29//29
f 21//21 137//137 14//14
f 75//75 147//147 160//160
f 36//36 112//112 75//75
f 160//160 114//114 36//36
f 11//11 112//112 32//32
f 103//103 120//120 11//11
f 32//32 110//110 103//103
f 76//76 62//62 79//79
f 6//6 19//19 76//76
f 79//79 54//54 6//6
f 125//125 19//19 152//152
f 108//108 1//1 125//125
f 152//152 31//31 108//108
f 141//141 1//1 58//58
f 133//133 62//62 141//141
f 58//58 137//137 133//133
f 135//135 55//55 156//156
f 156//156 47//47 64//64
f 64//64 57//57 135//135
f 146//146 47//47 138//138
f 138//138 20//20 153//153
f 153//153 30//30 146//146
f 7//7 20//20 92//92
f 92//92 55//55 131//131
f 131//131 53//53 7//7
f 109//109 2//2 26//26
f 26//26 105//105 34//34
f 34//34 30//30 109//109
f 88//88 105//105 91//91
f 91//91 148//148 161//161
f 161//161 113//113 88//88
f 15//15 148//148 42//42
f 42//42 2//2 59//59
f 59//59 136//136 15//15
f 37//37 111//111 69//69
f 69//69 162//162 67//67
f 67//67 113//113 37//37
f 66//66 162//162 68//68
f 68//68 112//112 36//36
f 36//36 114//114 66//66
f 32//32 112//112 117//117
f 117//117 111//111 33//33
f 33//33 110//110 32//32
f 160//160 147//147 90//90
f 90//90 104//104 89//89
f 89//89 114//114 160//160
f 35//35 104//104 27//27
f 27//27 1//1 108//108
f 108//108 31//31 35//35
f 58//58 1//1 43//43
f 43//43 147//147 14//14
f 14//14 137//137 58//58
f 152//152 19//19 139//139
f 139//139 46//46 145//145
f 145//145 31//31 152//152
f 65//65 46//46 157//157
f 157//157 56//56 134//134
f 134//134 57//57 65//65
f 130//130 56//56 93//93
f 93//93 19//19 6//6
f 6//6 54//54 130//130
f 41//41 47//47 146//146
f 17//17 38//38 41//41
f 146//146 30//30 17//17
f 115//115 38//38 25//25
f 154//154 151//151 115//115
f 25//25 3//3 154//154
f 83//83 151//151 144//144
f 64//64 47//47 83//83
f 144//144 57//57 64//64
f 97//97 105//105 88//88
f 49//49 122//122 97//97
f 88//88 113//113 49//49
f 106//106 122//122 80//80
f 25//25 38//38 106//106
f 80//80 3//3 25//25
f 73//73 38//38 17//17
f 34//34 105//105 73//73
f 17//17 30//30 34//34
f 9//9 162//162 66//66
f 48//48 123//123 9//9
f 66//66 114//114 48//48
f 12//12 123//123 81//81
f 80//80 122//122 12//12
f 81//81 3//3 80//80
f 8//8 122//122 49//49
f 67//67 162//162 8//8
f 49//49 113//113 67//67
f 72//72 104//104 35//35
f 18//18 39//39 72//72
f 35//35 31//31 18//18
f 107//107 39//39 24//24
f 81//81 123//123 107//107
f 24//24 3//3 81//81
f 96//96 123//123 48//48
f 89//89 104//104 96//96
f 48//48 114//114 89//89
f 82//82 46//46 65//65
f 144//144 151//151 82//82
f 65//65 57//57 144//144
f 116//116 151//151 154//154
f 24//24 39//39 116//116
f 154//154 3//3 24//24
f 40//40 39//39 18//18
f 145//145 46//46 40//40
f 18//18 31//31 145//145
f 116//116 39//39 40//40
f 82//82 151//151 116//116
f 40//40 46//46 82//82
f 107//107 123//123 96//96
f 72//72 39//39 107//107
f 96//96 104//104 72//72
f 12//12 122//122 8//8
f 9//9 123//123 12//12
f 8//8 162//162 9//9
f 106//106 38//38 73//73
f 97//97 122//122 106//106
f 73//73 105//105 97//97
f 115//115 151//151 83//83
f 41//41 38//38 115//115
f 83//83 47//47 41//41
f 93//93 56//56 157//157
f 157//157 46//46 139//139
f 139//139 19//19 93//93
f 43//43 1//1 27//27
f 27//27 104//104 90//90
f 90//90 147//147 43//43
f 117//117 112//112 68//68
f 68//68 162//162 69//69
f 69//69 111//111 117//117
f 42//42 148//148 91//91
f 91//91 105//105 26//26
f 26//26 2//2 42//42
f 92//92 20//20 138//138
f 138//138 47//47 156//156
f 156//156 55//55 92//92
f 125//125 1//1 141//141
f 76//76 19//19 125//125
f 141//141 62//62 76//76
f 75//75 112//112 11//11
f 29//29 147//147 75//75
f 11//11 120//120 29//29
f 74//74 148//148 28//28
f 10//10 111//111 74//74
f 28//28 121//121 10//10
f 124//124 20//20 77//77
f 140//140 2//2 124//124
f 77//77 63//63 140//140
f 50//50 56//56 98//98
f 99//99 55//55 50//50
f 98//98 5//5 99//99
f 61//61 45//45 70//70
f 70//70 62//62 94//94
f 94//94 129//129 61//61
f 52//52 129//129 126//126
f 126//126 120//120 84//84
f 84//84 16//16 52//52
f 51//51 16//16 85//85
f 85//85 121//121 127//127
f 127//127 128//128 51//51
f 159//159 45//45 155//155
f 158//158 5//5 159//159
f 155//155 44//44 158//158
f 60//60 128//128 95//95
f 95//95 63//63 71//71
f 71//71 44//44 60//60