# https://github.com/mikedh/trimesh
v 0.00000000 0.00000000 0.80928498
v 0.00000000 0.00000000 0.00000971
v 0.00000000 0.09556712 0.40464735
v 0.00000000 -0.09556712 0.40464735
v 0.08027770 -0.05024300 0.40464735
v 0.06432808 -0.02221528 0.68537610
v 0.06432808 -0.02221528 0.12391778
v -0.06330659 0.06915336 0.33891114
v -0.06330659 0.06915336 0.47038355
v -0.08133053 -0.02641434 0.23254583
v -0.08133053 -0.02641434 0.57674805
v -0.04220420 0.08547804 0.40464735
v -0.02578876 -0.09192962 0.40464735
v -0.04239069 -0.02221528 0.75371495
v -0.04239069 -0.02221528 0.05557893
v -0.04961438 -0.08129428 0.40464735
v 0.02152669 0.06447111 0.12057465
v 0.02152669 0.06447111 0.68871924
v 0.05547079 0.00000000 0.73200601
v 0.05547079 0.00000000 0.07728868
v -0.04731583 -0.04833088 0.68872004
v -0.04731583 -0.04833088 0.12057384
v -0.06966337 -0.06447054 0.40464735
v 0.00796886 0.09192982 0.50980763
v 0.00796886 0.09192982 0.29948625
v -0.01304217 0.02641453 0.01981441
v -0.01304217 0.02641453 0.78947947
v -0.06330697 -0.02641434 0.12617972
v -0.06330697 -0.02641434 0.68311416
v 0.02608321 0.04273902 0.06044594
v 0.02608321 0.04273902 0.74884794
v -0.09052699 -0.02221509 0.46963982
v -0.09052699 -0.02221509 0.33965406
v 0.00066307 0.04833088 0.05558055
v 0.00066307 0.04833088 0.75371333
v -0.08214798 0.02221528 0.58021258
v -0.08214798 0.02221528 0.22908131
v 0.01533128 0.08129447 0.20233055
v 0.01533128 0.08129447 0.60696414
v 0.04220439 0.06915355 0.61737634
v 0.04220439 0.06915355 0.19191835
v -0.02916279 0.00000000 0.01981361
v -0.02916279 0.00000000 0.78948028
v 0.04013876 -0.08129447 0.27960952
v 0.04013876 -0.08129447 0.52968517
v 0.06494623 0.05024300 0.60696495
v 0.06494623 0.05024300 0.20232974
v -0.05635866 0.06447092 0.58021177
v -0.05635866 0.06447092 0.22908212
v 0.09437251 0.00000000 0.40464735
v -0.03414399 -0.08547804 0.29828285
v -0.03414399 -0.08547804 0.51101103
v 0.06828798 -0.04273902 0.19192078
v 0.06828798 -0.04273902 0.61737310
v 0.08975370 0.00000000 0.27960871
v 0.08975370 0.00000000 0.52968517
v 0.08440916 0.04273902 0.40464735
v -0.01355764 -0.02221528 0.79388357
v -0.01355764 -0.02221528 0.01541112
v 0.01304198 -0.08547804 0.23254664
v 0.01304198 -0.08547804 0.57674724
v 0.02480766 -0.05024319 0.73200358
v 0.02480766 -0.05024319 0.07729030
v 0.07763242 0.04833069 0.29948544
v 0.07763242 0.04833069 0.50980844
v -0.07722228 0.04833088 0.51521929
v -0.07722228 0.04833088 0.29407540
v -0.08939093 0.02641434 0.47038355
v -0.08939093 0.02641434 0.33891033
v 0.03414437 -0.06915355 0.64248506
v 0.03414437 -0.06915355 0.16680963
v -0.00498195 0.06915355 0.68311254
v -0.00498195 0.06915355 0.12618134
v -0.07634914 0.00000000 0.16680801
v -0.07634914 0.00000000 0.64248668
v 0.04220496 -0.02641434 0.74885118
v 0.04220496 -0.02641434 0.06044270
v 0.04838979 -0.04833088 0.12391940
v 0.04838979 -0.04833088 0.68537448
v -0.02086343 0.09192982 0.33965487
v -0.02086343 0.09192982 0.46963982
v 0.06022795 0.06915317 0.51101184
v 0.06022795 0.06915317 0.29828285
v -0.06022795 -0.06915317 0.51101184
v -0.06022795 -0.06915317 0.29828285
v 0.02086343 -0.09192982 0.33965487
v 0.02086343 -0.09192982 0.46963982
v -0.04838979 0.04833088 0.12391940
v -0.04838979 0.04833088 0.68537448
v -0.04220496 0.02641434 0.74885118
v -0.04220496 0.02641434 0.06044270
v 0.07634914 0.00000000 0.16680801
v 0.07634914 0.00000000 0.64248668
v 0.00498195 -0.06915355 0.68311254
v 0.00498195 -0.06915355 0.12618134
v -0.03414437 0.06915355 0.64248506
v -0.03414437 0.06915355 0.16680963
v 0.08939093 -0.02641434 0.47038355
v 0.08939093 -0.02641434 0.33891033
v 0.07722228 -0.04833088 0.51521929
v 0.07722228 -0.04833088 0.29407540
v -0.07763242 -0.04833069 0.29948544
v -0.07763242 -0.04833069 0.50980844
v -0.02480766 0.05024319 0.73200358
v -0.02480766 0.05024319 0.07729030
v -0.01304198 0.08547804 0.23254664
v -0.01304198 0.08547804 0.57674724
v 0.01355764 0.02221528 0.79388357
v 0.01355764 0.02221528 0.01541112
v -0.08440916 -0.04273902 0.40464735
v -0.08975370 0.00000000 0.27960871
v -0.08975370 0.00000000 0.52968517
v -0.06828798 0.04273902 0.19192078
v -0.06828798 0.04273902 0.61737310
v 0.03414399 0.08547804 0.29828285
v 0.03414399 0.08547804 0.51101103
v -0.09437251 0.00000000 0.40464735
v 0.05635866 -0.06447092 0.58021177
v 0.05635866 -0.06447092 0.22908212
v -0.06494623 -0.05024300 0.60696495
v -0.06494623 -0.05024300 0.20232974
v -0.04013876 0.08129447 0.27960952
v -0.04013876 0.08129447 0.52968517
v 0.02916279 0.00000000 0.01981361
v 0.02916279 0.00000000 0.78948028
v -0.04220439 -0.06915355 0.61737634
v -0.04220439 -0.06915355 0.19191835
v -0.01533128 -0.08129447 0.20233055
v -0.01533128 -0.08129447 0.60696414
v 0.08214798 -0.02221528 0.58021258
v 0.08214798 -0.02221528 0.22908131
v -0.00066307 -0.04833088 0.05558055
v -0.00066307 -0.04833088 0.75371333
v 0.09052699 0.02221509 0.46963982
v 0.09052699 0.02221509 0.33965406
v -0.02608321 -0.04273902 0.06044594
v -0.02608321 -0.04273902 0.74884794
v 0.06330697 0.02641434 0.12617972
v 0.06330697 0.02641434 0.68311416
v 0.01304217 -0.02641453 0.01981441
v 0.01304217 -0.02641453 0.78947947
v -0.00796886 -0.09192982 0.50980763
v -0.00796886 -0.09192982 0.29948625
v 0.06966337 0.06447054 0.40464735
v 0.04731583 0.04833088 0.68872004
v 0.04731583 0.04833088 0.12057384
v -0.05547079 0.00000000 0.73200601
v -0.05547079 0.00000000 0.07728868
v -0.02152669 -0.06447111 0.12057465
v -0.02152669 -0.06447111 0.68871924
v 0.04961438 0.08129428 0.40464735
v 0.04239069 0.02221528 0.75371495
v 0.04239069 0.02221528 0.05557893
v 0.02578876 0.09192962 0.40464735
v 0.04220420 -0.08547804 0.40464735
v 0.08133053 0.02641434 0.23254583
v 0.08133053 0.02641434 0.57674805
v 0.06330659 -0.06915336 0.33891114
v 0.06330659 -0.06915336 0.47038355
v -0.06432808 0.02221528 0.68537610
v -0.06432808 0.02221528 0.12391778
v -0.08027770 0.05024300 0.40464735
vn 0.00000000 0.00000000 1.00000000
vn -0.00000000 -0.00000000 -1.00000000
vn -0.00911479 0.99995846 0.00000006
vn 0.00911479 -0.99995846 0.00000006
vn 0.85338987 -0.52127318 0.00000002
vn 0.92176180 -0.31218980 0.22998414
vn 0.92176300 -0.31218589 -0.22998466
vn -0.67782795 0.73430374 -0.03670550
vn -0.67782795 0.73430373 0.03670558
vn -0.94897250 -0.29347771 -0.11542110
vn -0.94897269 -0.29347737 0.11542042
vn -0.45837219 0.88876034 0.00000000
vn -0.27621986 -0.96109447 0.00000010
vn -0.81664219 -0.41289728 0.40325099
vn -0.81664301 -0.41289418 -0.40325251
vn -0.53031698 -0.84779944 0.00000005
vn 0.32089550 0.91659877 -0.23848012
vn 0.32089527 0.91659861 0.23848107
vn 0.94612374 -0.00504996 0.32376590
vn 0.94612446 -0.00504989 -0.32376380
vn -0.68291349 -0.69085971 0.23736476
vn -0.68291354 -0.69085998 -0.23736382
vn -0.74228175 -0.67008791 0.00000005
vn 0.07948765 0.99474979 0.06445594
vn 0.07948717 0.99474983 -0.06445596
vn -0.36148620 0.66239443 -0.65617174
vn -0.36149503 0.66239713 0.65616415
vn -0.90833291 -0.35266664 -0.22485012
vn -0.90833182 -0.35266939 0.22485016
vn 0.49049922 0.78509446 -0.37820260
vn 0.49049982 0.78509542 0.37819983
vn -0.97159970 -0.23337503 0.03911670
vn -0.97159973 -0.23337495 -0.03911654
vn 0.00790322 0.91360135 -0.40653427
vn 0.00790189 0.91360226 0.40653224
vn -0.96105024 0.25194780 0.11359903
vn -0.96105032 0.25194745 -0.11359917
vn 0.18362001 0.97298068 -0.13997245
vn 0.18361807 0.97298100 0.13997278
vn 0.52442721 0.83872100 0.14670784
vn 0.52442736 0.83872107 -0.14670692
vn -0.75665587 0.02451561 -0.65335356
vn -0.75666157 0.02452217 0.65334671
vn 0.44943729 -0.88991878 -0.07778615
vn 0.44943721 -0.88991878 0.07778665
vn 0.79283315 0.59339736 0.13890706
vn 0.79283191 0.59339914 -0.13890649
vn -0.66157525 0.74111519 0.11430865
vn -0.66157410 0.74111624 -0.11430847
vn 0.99997072 -0.00765245 0.00000008
vn -0.38728986 -0.91953462 -0.06680301
vn -0.38728914 -0.91953495 0.06680262
vn 0.84340340 -0.51522787 -0.15235138
vn 0.84340338 -0.51522786 0.15235153
vn 0.99702935 0.00070781 -0.07701932
vn 0.99702936 0.00070781 0.07701923
vn 0.90044860 0.43496243 0.00000009
vn -0.37457205 -0.60131324 0.70577487
vn -0.37457267 -0.60131398 -0.70577391
vn 0.16045474 -0.98012207 -0.11668335
vn 0.16045409 -0.98012222 0.11668295
vn 0.43093936 -0.84124486 0.32649402
vn 0.43093940 -0.84124496 -0.32649373
vn 0.85735971 0.51073961 -0.06387006
vn 0.85736024 0.51073876 0.06386973
vn -0.85117017 0.51988853 0.07228592
vn -0.85116984 0.51988913 -0.07228553
vn -0.96236983 0.26928200 0.03648998
vn -0.96236975 0.26928226 -0.03649000
vn 0.43593361 -0.88319898 0.17297820
vn 0.43593325 -0.88319926 -0.17297765
vn -0.08807500 0.96987224 0.22713570
vn -0.08807646 0.96987232 -0.22713481
vn -0.98517001 -0.00941756 -0.17132237
vn -0.98517000 -0.00941708 0.17132250
vn 0.78382264 -0.47955082 0.39452893
vn 0.78382473 -0.47954755 -0.39452876
vn 0.69745657 -0.67837115 -0.23101281
vn 0.69745800 -0.67836951 0.23101329
vn -0.22566988 0.97340061 -0.03955191
vn -0.22566950 0.97340069 0.03955211
vn 0.65690036 0.75103266 0.06657223
vn 0.65690032 0.75103273 -0.06657191
vn -0.65690036 -0.75103266 0.06657223
vn -0.65690032 -0.75103273 -0.06657191
vn 0.22566988 -0.97340061 -0.03955191
vn 0.22566950 -0.97340069 0.03955211
vn -0.69745657 0.67837115 -0.23101281
vn -0.69745800 0.67836951 0.23101329
vn -0.78382264 0.47955082 0.39452893
vn -0.78382473 0.47954755 -0.39452876
vn 0.98517001 0.00941756 -0.17132237
vn 0.98517000 0.00941708 0.17132250
vn 0.08807500 -0.96987224 0.22713570
vn 0.08807646 -0.96987232 -0.22713481
vn -0.43593361 0.88319898 0.17297820
vn -0.43593325 0.88319926 -0.17297765
vn 0.96236983 -0.26928200 0.03648998
vn 0.96236975 -0.26928226 -0.03649000
vn 0.85117017 -0.51988853 0.07228592
vn 0.85116984 -0.51988913 -0.07228553
vn -0.85735971 -0.51073961 -0.06387006
vn -0.85736024 -0.51073876 0.06386973
vn -0.43093936 0.84124486 0.32649402
vn -0.43093940 0.84124496 -0.32649373
vn -0.16045474 0.98012207 -0.11668335
vn -0.16045409 0.98012222 0.11668295
vn 0.37457205 0.60131324 0.70577487
vn 0.37457267 0.60131398 -0.70577391
vn -0.90044860 -0.43496243 0.00000009
vn -0.99702935 -0.00070781 -0.07701932
vn -0.99702936 -0.00070781 0.07701923
vn -0.84340340 0.51522787 -0.15235138
vn -0.84340338 0.51522786 0.15235153
vn 0.38728986 0.91953462 -0.06680301
vn 0.38728914 0.91953495 0.06680262
vn -0.99997072 0.00765245 0.00000008
vn 0.66157525 -0.74111519 0.11430865
vn 0.66157410 -0.74111624 -0.11430847
vn -0.79283315 -0.59339736 0.13890706
vn -0.79283191 -0.59339914 -0.13890649
vn -0.44943729 0.88991878 -0.07778615
vn -0.44943721 0.88991878 0.07778665
vn 0.75665587 -0.02451561 -0.65335356
vn 0.75666157 -0.02452217 0.65334671
vn -0.52442721 -0.83872100 0.14670784
vn -0.52442736 -0.83872107 -0.14670692
vn -0.18362001 -0.97298068 -0.13997245
vn -0.18361807 -0.97298100 0.13997278
vn 0.96105024 -0.25194780 0.11359903
vn 0.96105032 -0.25194745 -0.11359917
vn -0.00790322 -0.91360135 -0.40653427
vn -0.00790189 -0.91360226 0.40653224
vn 0.97159970 0.23337503 0.03911670
vn 0.97159973 0.23337495 -0.03911654
vn -0.49049922 -0.78509446 -0.37820260
vn -0.49049982 -0.78509542 0.37819983
vn 0.90833291 0.35266664 -0.22485012
vn 0.90833182 0.35266939 0.22485016
vn 0.36148620 -0.66239443 -0.65617174
vn 0.36149503 -0.66239713 0.65616415
vn -0.07948765 -0.99474979 0.06445594
vn -0.07948717 -0.99474983 -0.06445596
vn 0.74228175 0.67008791 0.00000005
vn 0.68291349 0.69085971 0.23736476
vn 0.68291354 0.69085998 -0.23736382
vn -0.94612374 0.00504996 0.32376590
vn -0.94612446 0.00504989 -0.32376380
vn -0.32089550 -0.91659877 -0.23848012
vn -0.32089527 -0.91659861 0.23848107
vn 0.53031698 0.84779944 0.00000005
vn 0.81664219 0.41289728 0.40325099
vn 0.81664301 0.41289418 -0.40325251
vn 0.27621986 0.96109447 0.00000010
vn 0.45837219 -0.88876034 0.00000000
vn 0.94897250 0.29347771 -0.11542110
vn 0.94897269 0.29347737 0.11542042
vn 0.67782795 -0.73430374 -0.03670550
vn 0.67782795 -0.73430373 0.03670558
vn -0.92176180 0.31218980 0.22998414
vn -0.92176300 0.31218589 -0.22998466
vn -0.85338987 0.52127318 0.00000002
f 71//71 60//60 95//95
f 159//159 155//155 158//158
f 127//127 51//51 85//85
f 84//84 52//52 126//126
f 94//94 61//61 70//70
f 50//50 98//98 99//99
f 124//124 77//77 140//140
f 74//74 28//28 10//10
f 75//75 11//11 29//29
f 125//125 141//141 76//76
f 156//156 92//92 138//138
f 26//26 42//42 91//91
f 69//69 117//117 68//68
f 90//90 43//43 27//27
f 139//139 93//93 157//157
f 115//115 83//83 41//41
f 106//106 73//73 97//97
f 12//12 8//8 9//9
f 107//107 96//96 72//72
f 116//116 40//40 82//82
f 40//40 18//18 145//145
f 116//116 154//154 24//24
f 82//82 65//65 144//144
f 96//96 48//48 89//89
f 107//107 24//24 81//81
f 72//72 35//35 18//18
f 8//8 49//49 67//67
f 12//12 81//81 80//80
f 9//9 66//66 48//48
f 73//73 17//17 34//34
f 106//106 80//80 25//25
f 97//97 88//88 49//49
f 83//83 144//144 64//64
f 115//115 25//25 154//154
f 41//41 146//146 17//17
f 6//6 130//130 93//93
f 134//134 65//65 157//157
f 145//145 152//152 139//139
f 14//14 58//58 43//43
f 108//108 35//35 27//27
f 89//89 160//160 90//90
f 33//33 32//32 117//117
f 36//36 66//66 68//68
f 67//67 37//37 69//69
f 59//59 15//15 42//42
f 161//161 88//88 91//91
f 34//34 109//109 26//26
f 131//131 7//7 92//92
f 153//153 146//146 138//138
f 64//64 135//135 156//156
f 141//141 58//58 133//133
f 125//125 152//152 108//108
f 76//76 79//79 6//6
f 11//11 32//32 103//103
f 75//75 160//160 36//36
f 29//29 21//21 14//14
f 28//28 15//15 22//22
f 74//74 37//37 161//161
f 10//10 102//102 33//33
f 77//77 7//7 78//78
f 124//124 109//109 153//153
f 140//140 132//132 59//59
f 98//98 130//130 100//100
f 50//50 135//135 134//134
f 99//99 101//101 131//131
f 142//142 87//87 61//61
f 118//118 79//79 70//70
f 133//133 150//150 94//94
f 13//13 142//142 52//52
f 150//150 21//21 126//126
f 103//103 23//23 84//84
f 143//143 13//13 51//51
f 23//23 102//102 85//85
f 22//22 149//149 127//127
f 155//155 87//87 86//86
f 159//159 100//100 118//118
f 158//158 119//119 101//101
f 86//86 143//143 60//60
f 149//149 132//132 95//95
f 78//78 119//119 71//71
f 119//119 44//44 71//71
f 71//71 63//63 78//78
f 78//78 53//53 119//119
f 132//132 63//63 95//95
f 95//95 128//128 149//149
f 149//149 136//136 132//132
f 143//143 128//128 60//60
f 60//60 44//44 86//86
f 86//86 4//4 143//143
f 158//158 44//44 119//119
f 101//101 5//5 158//158
f 119//119 53//53 101//101
f 159//159 5//5 100//100
f 118//118 45//45 159//159
f 100//100 54//54 118//118
f 155//155 45//45 87//87
f 86//86 44//44 155//155
f 87//87 4//4 86//86
f 149//149 128//128 127//127
f 127//127 121//121 22//22
f 22//22 136//136 149//149
f 102//102 121//121 85//85
f 85//85 16//16 23//23
f 23//23 110//110 102//102
f 13//13 16//16 51//51
f 51//51 128//128 143//143
f 143//143 4//4 13//13
f 23//23 16//16 84//84
f 84//84 120//120 103//103
f 103//103 110//110 23//23
f 21//21 120//120 126//126
f 126//126 129//129 150//150
f 150//150 137//137 21//21
f 142//142 129//129 52//52
f 52//52 16//16 13//13
f 13//13 4//4 142//142
f 150//150 129//129 94//94
f 94//94 62//62 133//133
f 133//133 137//137 150//150
f 79//79 62//62 70//70
f 70//70 45//45 118//118
f 118//118 54//54 79//79
f 87//87 45//45 61//61
f 61//61 129//129 142//142
f 142//142 4//4 87//87
f 99//99 5//5 101//101
f 131//131 55//55 99//99
f 101//101 53//53 131//131
f 50//50 55//55 135//135
f 134//134 56//56 50//50
f 135//135 57//57 134//134
f 98//98 56//56 130//130
f 100//100 5//5 98//98
f 130//130 54//54 100//100
f 140//140 63//63 132//132
f 59//59 2//2 140//140
f 132//132 136//136 59//59
f 124//124 2//2 109//109
f 153//153 20//20 124//124
f 109//109 30//30 153//153
f 77//77 20//20 7//7
f 78//78 63//63 77//77
f 7//7 53//53 78//78
f 10//10 121//121 102//102
f 33//33 111//111 10//10
f 102//102 110//110 33//33
f 74//74 111//111 37//37
f 161//161 148//148 74//74
f 37//37 113//113 161//161
f 28//28 148//148 15//15
f 22//22 121//121 28//28
f 15//15 136//136 22//22
f 29//29 120//120 21//21
f 14//14 147//147 29//29
f 21//21 137//137 14//14
f 75//75 147//147 160//160
f 36//36 112//112 75//75
f 160//160 114//114 36//36
f 11//11 112//112 32//32
f 103//103 120//120 11//11
f 32//32 110//110 103//103
f 76//76 62//62 79//79
f 6//6 19//19 76//76
f 79//79 54//54 6//6
f 125//125 19//19 152//152
f 108//108 1//1 125//125
f 152//152 31//31 108//108
f 141//141 1//1 58//58
f 133//133 62//62 141//141
f 58//58 137//137 133//133
f 135//135 55//55 156//156
f 156//156 47//47 64//64
f 64//64 57//57 135//135
f 146//146 47//47 138//138
f 138//138 20//20 153//153
f 153//153 30//30 146//146
f 7//7 20//20 92//92
f 92//92 55//55 131//131
f 131//131 53//53 7//7
f 109//109 2//2 26//26
f 26//26 105//105 34//34
f 34//34 30//30 109//109
f 88//88 105//105 91//91
f 91//91 148//148 161//161
f 161//161 113//113 88//88
f 15//15 148//148 42//42
f 42//42 2//2 59//59
f 59//59 136//136 15//15
f 37//37 111//111 69//69
f 69//69 162//162 67//67
f 67//67 113//113 37//37
f 66//66 162//162 68//68
f 68//68 112//112 36//36
f 36//36 114//114 66//66
f 32//32 112//112 117//117
f 117//117 111//111 33//33
f 33//33 110//110 32//32
f 160//160 147//147 90//90
f 90//90 104//104 89//89
f 89//89 114//114 160//160
f 35//35 104//104 27//27
f 27//27 1//1 108//108
f 108//108 31//31 35//35
f 58//58 1//1 43//43
f 43//43 147//147 14//14
f 14//14 137//137 58//58
f 152//152 19//19 139//139
f 139//139 46//46 145//145
f 145//145 31//31 152//152
f 65//65 46//46 157//157
f 157//157 56//56 134//134
f 134//134 57//57 65//65
f 130//130 56//56 93//93
f 93//93 19//19 6//6
f 6//6 54//54 130//130
f 41//41 47//47 146//146
f 17//17 38//38 41//41
f 146//146 30//30 17//17
f 115//115 38//38 25//25
f 154//154 151//151 115//115
f 25//25 3//3 154//154
f 83//83 151//151 144//144
f 64//64 47//47 83//83
f 144//144 57//57 64//64
f 97//97 105//105 88//88
f 49//49 122//122 97//97
f 88//88 113//113 49//49
f 106//106 122//122 80//80
f 25//25 38//38 106//106
f 80//80 3//3 25//25
f 73//73 38//38 17//17
f 34//34 105//105 73//73
f 17//17 30//30 34//34
f 9//9 162//162 66//66
f 48//48 123//123 9//9
f 66//66 114//114 48//48
f 12//12 123//123 81//81
f 80//80 122//122 12//12
f 81//81 3//3 80//80
f 8//8 122//122 49//49
f 67//67 162//162 8//8
f 49//49 113//113 67//67
f 72//72 104//104 35//35
f 18//18 39//39 72//72
f 35//35 31//31 18//18
f 107//107 39//39 24//24
f 81//81 123//123 107//107
f 24//24 3//3 81//81
f 96//96 123//123 48//48
f 89//89 104//104 96//96
f 48//48 114//114 89//89
f 82//82 46//46 65//65
f 144//144 151//151 82//82
f 65//65 57//57 144//144
f 116//116 151//151 154//154
f 24//24 39//39 116//116
f 154//154 3//3 24//24
f 40//40 39//39 18//18
f 145//145 46//46 40//40
f 18//18 31//31 145//145
f 116//116 39//39 40//40
f 82//82 151//151 116//116
f 40//40 46//46 82//82
f 107//107 123//123 96//96
f 72//72 39//39 107//107
f 96//96 104//104 72//72
f 12//12 122//122 8//8
f 9//9 123//123 12//12
f 8//8 162//162 9//9
f 106//106 38//38 73//73
f 97//97 122//122 106//106
f 73//73 105//105 97//97
f 115//115 151//151 83//83
f 41//41 38//38 115//115
f 83//83 47//47 41//41
f 93//93 56//56 157//157
f 157//157 46//46 139//139
f 139//139 19//19 93//93
f 43//43 1//1 27//27
f 27//27 104//104 90//90
f 90//90 147//147 43//43
f 117//117 112//112 68//68
f 68//68 162//162 69//69
f 69//69 111//111 117//117
f 42//42 148//148 91//91
f 91//91 105//105 26//26
f 26//26 2//2 42//42
f 92//92 20//20 138//138
f 138//138 47//47 156//156
f 156//156 55//55 92//92
f 125//125 1//1 141//141
f 76//76 19//19 125//125
f 141//141 62//62 76//76
f 75//75 112//112 11//11
f 29//29 147//147 75//75
f 11//11 120//120 29//29
f 74//74 148//148 28//28
f 10//10 111//111 74//74
f 28//28 121//121 10//10
f 124//124 20//20 77//77
f 140//140 2//2 124//124
f 77//77 63//63 140//140
f 50//50 56//56 98//98
f 99//99 55//55 50//50
f 98//98 5//5 99//99
f 61//61 45//45 70//70
f 70//70 62//62 94//94
f 94//94 129//129 61//61
f 52//52 129//129 126//126
f 126//126 120//120 84//84
f 84//84 16//16 52//52
f 51//51 16//16 85//85
f 85//85 121//121 127//127
f 127//127 128//128 51//51
f 159//159 45//45 155//155
f 158//158 5//5 159//159
f 155//155 44//44 158//158
f 60//60 128//128 95//95
f 95//95 63//63 71//71
f 71//71 44//44 60//60