# https://github.com/mikedh/trimesh
v 0.00000000 0.00000000 0.72796638
v 0.00000000 0.00000000 0.00000874
v 0.00000000 0.08980975 0.36398756
v 0.00000000 -0.08980975 0.36398756
v 0.06322485 -0.04721614 0.36398756
v 0.05066331 -0.02087694 0.61650812
v 0.05066331 -0.02087694 0.11146627
v -0.04985880 0.06498726 0.30485666
v -0.04985880 0.06498726 0.42311846
v -0.06405404 -0.02482302 0.20917916
v -0.06405404 -0.02482302 0.51879523
v -0.03323905 0.08032847 0.36398756
v -0.02031063 -0.08639139 0.36398756
v -0.03338592 -0.02087694 0.67798014
v -0.03338592 -0.02087694 0.04999425
v -0.03907513 -0.07639676 0.36398756
v 0.01695392 0.06058710 0.10845906
v 0.01695392 0.06058710 0.61951533
v 0.04368751 0.00000000 0.65845256
v 0.04368751 0.00000000 0.06952256
v -0.03726485 -0.04541922 0.61951605
v -0.03726485 -0.04541922 0.10845833
v -0.05486526 -0.06058656 0.36398756
v 0.00627609 0.08639157 0.45858112
v 0.00627609 0.08639157 0.26939326
v -0.01027171 0.02482320 0.01782342
v -0.01027171 0.02482320 0.71015096
v -0.04985910 -0.02482302 0.11350092
v -0.04985910 -0.02482302 0.61447346
v 0.02054253 0.04016424 0.05437221
v 0.02054253 0.04016424 0.67360218
v -0.07129696 -0.02087676 0.42244946
v -0.07129696 -0.02087676 0.30552493
v 0.00052221 0.04541922 0.04999570
v 0.00052221 0.04541922 0.67797868
v -0.06469785 0.02087694 0.52191164
v -0.06469785 0.02087694 0.20606275
v 0.01207456 0.07639694 0.18199997
v 0.01207456 0.07639694 0.54597515
v 0.03323920 0.06498744 0.55534111
v 0.03323920 0.06498744 0.17263401
v -0.02296794 0.00000000 0.01782269
v -0.02296794 0.00000000 0.71015169
v 0.03161235 -0.07639694 0.25151379
v 0.03161235 -0.07639694 0.47646133
v 0.05115014 0.04721614 0.54597588
v 0.05115014 0.04721614 0.18199924
v -0.04438677 0.06058692 0.52191091
v -0.04438677 0.06058692 0.20606348
v 0.07432560 0.00000000 0.36398756
v -0.02689101 -0.08032847 0.26831078
v -0.02689101 -0.08032847 0.45966360
v 0.05378203 -0.04016424 0.17263619
v 0.05378203 -0.04016424 0.55533820
v 0.07068793 0.00000000 0.25151306
v 0.07068793 0.00000000 0.47646133
v 0.06647870 0.04016424 0.36398756
v -0.01067768 -0.02087694 0.71411253
v -0.01067768 -0.02087694 0.01386258
v 0.01027156 -0.08032847 0.20917988
v 0.01027156 -0.08032847 0.51879450
v 0.01953794 -0.04721632 0.65845037
v 0.01953794 -0.04721632 0.06952401
v 0.06114150 0.04541904 0.26939253
v 0.06114150 0.04541904 0.45858185
v -0.06081847 0.04541922 0.46344901
v -0.06081847 0.04541922 0.26452611
v -0.07040222 0.02482302 0.42311846
v -0.07040222 0.02482302 0.30485593
v 0.02689131 -0.06498744 0.57792686
v 0.02689131 -0.06498744 0.15004826
v -0.00392367 0.06498744 0.61447201
v -0.00392367 0.06498744 0.11350238
v -0.06013081 0.00000000 0.15004680
v -0.06013081 0.00000000 0.57792831
v 0.03323965 -0.02482302 0.67360509
v 0.03323965 -0.02482302 0.05436930
v 0.03811068 -0.04541922 0.11146773
v 0.03811068 -0.04541922 0.61650666
v -0.01643156 0.08639157 0.30552566
v -0.01643156 0.08639157 0.42244946
v 0.04743414 0.06498708 0.45966433
v 0.04743414 0.06498708 0.26831078
v -0.04743414 -0.06498708 0.45966433
v -0.04743414 -0.06498708 0.26831078
v 0.01643156 -0.08639157 0.30552566
v 0.01643156 -0.08639157 0.42244946
v -0.03811068 0.04541922 0.11146773
v -0.03811068 0.04541922 0.61650666
v -0.03323965 0.02482302 0.67360509
v -0.03323965 0.02482302 0.05436930
v 0.06013081 0.00000000 0.15004680
v 0.06013081 0.00000000 0.57792831
v 0.00392367 -0.06498744 0.61447201
v 0.00392367 -0.06498744 0.11350238
v -0.02689131 0.06498744 0.57792686
v -0.02689131 0.06498744 0.15004826
v 0.07040222 -0.02482302 0.42311846
v 0.07040222 -0.02482302 0.30485593
v 0.06081847 -0.04541922 0.46344901
v 0.06081847 -0.04541922 0.26452611
v -0.06114150 -0.04541904 0.26939253
v -0.06114150 -0.04541904 0.45858185
v -0.01953794 0.04721632 0.65845037
v -0.01953794 0.04721632 0.06952401
v -0.01027156 0.08032847 0.20917988
v -0.01027156 0.08032847 0.51879450
v 0.01067768 0.02087694 0.71411253
v 0.01067768 0.02087694 0.01386258
v -0.06647870 -0.04016424 0.36398756
v -0.07068793 0.00000000 0.25151306
v -0.07068793 0.00000000 0.47646133
v -0.05378203 0.04016424 0.17263619
v -0.05378203 0.04016424 0.55533820
v 0.02689101 0.08032847 0.26831078
v 0.02689101 0.08032847 0.45966360
v -0.07432560 0.00000000 0.36398756
v 0.04438677 -0.06058692 0.52191091
v 0.04438677 -0.06058692 0.20606348
v -0.05115014 -0.04721614 0.54597588
v -0.05115014 -0.04721614 0.18199924
v -0.03161235 0.07639694 0.25151379
v -0.03161235 0.07639694 0.47646133
v 0.02296794 0.00000000 0.01782269
v 0.02296794 0.00000000 0.71015169
v -0.03323920 -0.06498744 0.55534111
v -0.03323920 -0.06498744 0.17263401
v -0.01207456 -0.07639694 0.18199997
v -0.01207456 -0.07639694 0.54597515
v 0.06469785 -0.02087694 0.52191164
v 0.06469785 -0.02087694 0.20606275
v -0.00052221 -0.04541922 0.04999570
v -0.00052221 -0.04541922 0.67797868
v 0.07129696 0.02087676 0.42244946
v 0.07129696 0.02087676 0.30552493
v -0.02054253 -0.04016424 0.05437221
v -0.02054253 -0.04016424 0.67360218
v 0.04985910 0.02482302 0.11350092
v 0.04985910 0.02482302 0.61447346
v 0.01027171 -0.02482320 0.01782342
v 0.01027171 -0.02482320 0.71015096
v -0.00627609 -0.08639157 0.45858112
v -0.00627609 -0.08639157 0.26939326
v 0.05486526 0.06058656 0.36398756
v 0.03726485 0.04541922 0.61951605
v 0.03726485 0.04541922 0.10845833
v -0.04368751 0.00000000 0.65845256
v -0.04368751 0.00000000 0.06952256
v -0.01695392 -0.06058710 0.10845906
v -0.01695392 -0.06058710 0.61951533
v 0.03907513 0.07639676 0.36398756
v 0.03338592 0.02087694 0.67798014
v 0.03338592 0.02087694 0.04999425
v 0.02031063 0.08639139 0.36398756
v 0.03323905 -0.08032847 0.36398756
v 0.06405404 0.02482302 0.20917916
v 0.06405404 0.02482302 0.51879523
v 0.04985880 -0.06498726 0.30485666
v 0.04985880 -0.06498726 0.42311846
v -0.05066331 0.02087694 0.61650812
v -0.05066331 0.02087694 0.11146627
v -0.06322485 0.04721614 0.36398756
vn 0.00000000 0.00000000 1.00000000
vn 0.00000000 0.00000000 -1.00000000
vn -0.01168185 0.99993176 0.00000006
vn 0.01168185 -0.99993176 0.00000006
vn 0.88815414 -0.45954567 0.00000002
vn 0.94021002 -0.27122740 0.20601168
vn 0.94021090 -0.27122405 -0.20601207
vn -0.73620423 0.67584699 -0.03513083
vn -0.73620423 0.67584699 0.03513090
vn -0.96223461 -0.25215169 -0.10258694
vn -0.96223477 -0.25215133 0.10258633
vn -0.51925510 0.85461930 -0.00000000
vn -0.32189580 -0.94677510 0.00000010
vn -0.85100457 -0.37082531 0.37185994
vn -0.85100498 -0.37082278 -0.37186150
vn -0.59508466 -0.80366302 0.00000005
vn 0.36815656 0.89721846 -0.24384377
vn 0.36815633 0.89721829 0.24384473
vn 0.95760604 -0.00463807 0.28804367
vn 0.95760665 -0.00463799 -0.28804166
vn -0.73760896 -0.63616724 0.22632780
vn -0.73760900 -0.63616750 -0.22632691
vn -0.79538652 -0.60610253 0.00000004
vn 0.09279850 0.99340918 0.06728026
vn 0.09279791 0.99340924 -0.06728026
vn -0.39239183 0.64564424 -0.65511233
vn -0.39240186 0.64564643 0.65510417
vn -0.92982209 -0.30742176 -0.20229371
vn -0.92982129 -0.30742412 0.20229382
vn 0.54501512 0.75020559 -0.37436626
vn 0.54501574 0.75020649 0.37436354
vn -0.97941172 -0.19888974 0.03457683
vn -0.97941174 -0.19888967 -0.03457669
vn 0.00748167 0.90661930 -0.42188325
vn 0.00748032 0.90662026 0.42188121
vn -0.97130318 0.21552838 0.10058657
vn -0.97130322 0.21552811 -0.10058668
vn 0.21365785 0.96604349 -0.14529383
vn 0.21365549 0.96604396 0.14529418
vn 0.58636736 0.79689553 0.14536446
vn 0.58636754 0.79689557 -0.14536355
vn -0.79024818 0.02382270 -0.61232368
vn -0.79025390 0.02382891 0.61231607
vn 0.50999312 -0.85663145 -0.07803577
vn 0.50999296 -0.85663149 0.07803628
vn 0.83708674 0.53169446 0.12878977
vn 0.83708576 0.53169611 -0.12878927
vn -0.72054241 0.68464698 0.10989610
vn -0.72054121 0.68464826 -0.10989597
vn 0.99997895 -0.00648815 0.00000007
vn -0.44416311 -0.89338655 -0.06767280
vn -0.44416238 -0.89338694 0.06767240
vn 0.87917860 -0.45559537 -0.13956307
vn 0.87917858 -0.45559536 0.13956321
vn 0.99771645 0.00061433 -0.06753898
vn 0.99771645 0.00061432 0.06753889
vn 0.92589065 0.37779162 0.00000008
vn -0.40469031 -0.58342987 0.70415576
vn -0.40469290 -0.58342963 -0.70415447
vn 0.18765228 -0.97475509 -0.12099233
vn 0.18765160 -0.97475527 0.12099191
vn 0.48336198 -0.81235752 0.32624601
vn 0.48336202 -0.81235760 -0.32624574
vn 0.89158891 0.44907358 -0.05832776
vn 0.89158936 0.44907273 0.05832744
vn -0.88636079 0.45825183 0.06610446
vn -0.88636056 0.45825234 -0.06610411
vn -0.97260353 0.23021203 0.03232340
vn -0.97260347 0.23021228 -0.03232342
vn 0.49305544 -0.85250898 0.17356489
vn 0.49305538 -0.85250912 -0.17356437
vn -0.10353928 0.96616009 0.23625050
vn -0.10354100 0.96616015 -0.23624952
vn -0.98854432 -0.00806600 -0.15071519
vn -0.98854430 -0.00806561 0.15071530
vn 0.82212827 -0.43546350 0.36671058
vn 0.82212992 -0.43546061 -0.36671030
vn 0.75062334 -0.62316530 -0.21961242
vn 0.75062474 -0.62316346 0.21961284
vn -0.26345155 0.96380782 -0.04083825
vn -0.26345111 0.96380793 0.04083846
vn 0.71719744 0.69392251 0.06402646
vn 0.71719747 0.69392250 -0.06402614
vn -0.71719744 -0.69392251 0.06402646
vn -0.71719747 -0.69392250 -0.06402614
vn 0.26345155 -0.96380782 -0.04083825
vn 0.26345111 -0.96380793 0.04083846
vn -0.75062334 0.62316530 -0.21961242
vn -0.75062474 0.62316346 0.21961284
vn -0.82212827 0.43546350 0.36671058
vn -0.82212992 0.43546061 -0.36671030
vn 0.98854432 0.00806600 -0.15071519
vn 0.98854430 0.00806561 0.15071530
vn 0.10353928 -0.96616009 0.23625050
vn 0.10354100 -0.96616015 -0.23624952
vn -0.49305544 0.85250898 0.17356489
vn -0.49305538 0.85250912 -0.17356437
vn 0.97260353 -0.23021203 0.03232340
vn 0.97260347 -0.23021228 -0.03232342
vn 0.88636079 -0.45825183 0.06610446
vn 0.88636056 -0.45825234 -0.06610411
vn -0.89158891 -0.44907358 -0.05832776
vn -0.89158936 -0.44907273 0.05832744
vn -0.48336198 0.81235752 0.32624601
vn -0.48336202 0.81235760 -0.32624574
vn -0.18765228 0.97475509 -0.12099233
vn -0.18765160 0.97475527 0.12099191
vn 0.40469031 0.58342987 0.70415576
vn 0.40469290 0.58342963 -0.70415447
vn -0.92589065 -0.37779162 0.00000008
vn -0.99771645 -0.00061433 -0.06753898
vn -0.99771645 -0.00061432 0.06753889
vn -0.87917860 0.45559537 -0.13956307
vn -0.87917858 0.45559536 0.13956321
vn 0.44416311 0.89338655 -0.06767280
vn 0.44416238 0.89338694 0.06767240
vn -0.99997895 0.00648815 0.00000007
vn 0.72054241 -0.68464698 0.10989610
vn 0.72054121 -0.68464826 -0.10989597
vn -0.83708674 -0.53169446 0.12878977
vn -0.83708576 -0.53169611 -0.12878927
vn -0.50999312 0.85663145 -0.07803577
vn -0.50999296 0.85663149 0.07803628
vn 0.79024818 -0.02382270 -0.61232368
vn 0.79025390 -0.02382891 0.61231607
vn -0.58636736 -0.79689553 0.14536446
vn -0.58636754 -0.79689557 -0.14536355
vn -0.21365785 -0.96604349 -0.14529383
vn -0.21365549 -0.96604396 0.14529418
vn 0.97130318 -0.21552838 0.10058657
vn 0.97130322 -0.21552811 -0.10058668
vn -0.00748167 -0.90661930 -0.42188325
vn -0.00748032 -0.90662026 0.42188121
vn 0.97941172 0.19888974 0.03457683
vn 0.97941174 0.19888967 -0.03457669
vn -0.54501512 -0.75020559 -0.37436626
vn -0.54501574 -0.75020649 0.37436354
vn 0.92982209 0.30742176 -0.20229371
vn 0.92982129 0.30742412 0.20229382
vn 0.39239183 -0.64564424 -0.65511233
vn 0.39240186 -0.64564643 0.65510417
vn -0.09279850 -0.99340918 0.06728026
vn -0.09279791 -0.99340924 -0.06728026
vn 0.79538652 0.60610253 0.00000004
vn 0.73760896 0.63616724 0.22632780
vn 0.73760900 0.63616750 -0.22632691
vn -0.95760604 0.00463807 0.28804367
vn -0.95760665 0.00463799 -0.28804166
vn -0.36815656 -0.89721846 -0.24384377
vn -0.36815633 -0.89721829 0.24384473
vn 0.59508466 0.80366302 0.00000005
vn 0.85100457 0.37082531 0.37185994
vn 0.85100498 0.37082278 -0.37186150
vn 0.32189580 0.94677510 0.00000010
vn 0.51925510 -0.85461930 -0.00000000
vn 0.96223461 0.25215169 -0.10258694
vn 0.96223477 0.25215133 0.10258633
vn 0.73620423 -0.67584699 -0.03513083
vn 0.73620423 -0.67584699 0.03513090
vn -0.94021002 0.27122740 0.20601168
vn -0.94021090 0.27122405 -0.20601207
vn -0.88815414 0.45954567 0.00000002
f 71//71 60//60 95//95
f 159//159 155//155 158//158
f 127//127 51//51 85//85
f 84//84 52//52 126//126
f 94//94 61//61 70//70
f 50//50 98//98 99//99
f 124//124 77//77 140//140
f 74//74 28//28 10//10
f 75//75 11//11 29//29
f 125//125 141//141 76//76
f 156//156 92//92 138//138
f 26//26 42//42 91//91
f 69//69 117//117 68//68
f 90//90 43//43 27//27
f 139//139 93//93 157//157
f 115//115 83//83 41//41
f 106//106 73//73 97//97
f 12//12 8//8 9//9
f 107//107 96//96 72//72
f 116//116 40//40 82//82
f 40//40 18//18 145//145
f 116//116 154//154 24//24
f 82//82 65//65 144//144
f 96//96 48//48 89//89
f 107//107 24//24 81//81
f 72//72 35//35 18//18
f 8//8 49//49 67//67
f 12//12 81//81 80//80
f 9//9 66//66 48//48
f 73//73 17//17 34//34
f 106//106 80//80 25//25
f 97//97 88//88 49//49
f 83//83 144//144 64//64
f 115//115 25//25 154//154
f 41//41 146//146 17//17
f 6//6 130//130 93//93
f 134//134 65//65 157//157
f 145//145 152//152 139//139
f 14//14 58//58 43//43
f 108//108 35//35 27//27
f 89//89 160//160 90//90
f 33//33 32//32 117//117
f 36//36 66//66 68//68
f 67//67 37//37 69//69
f 59//59 15//15 42//42
f 161//161 88//88 91//91
f 34//34 109//109 26//26
f 131//131 7//7 92//92
f 153//153 146//146 138//138
f 64//64 135//135 156//156
f 141//141 58//58 133//133
f 125//125 152//152 108//108
f 76//76 79//79 6//6
f 11//11 32//32 103//103
f 75//75 160//160 36//36
f 29//29 21//21 14//14
f 28//28 15//15 22//22
f 74//74 37//37 161//161
f 10//10 102//102 33//33
f 77//77 7//7 78//78
f 124//124 109//109 153//153
f 140//140 132//132 59//59
f 98//98 130//130 100//100
f 50//50 135//135 134//134
f 99//99 101//101 131//131
f 142//142 87//87 61//61
f 118//118 79//79 70//70
f 133//133 150//150 94//94
f 13//13 142//142 52//52
f 150//150 21//21 126//126
f 103//103 23//23 84//84
f 143//143 13//13 51//51
f 23//23 102//102 85//85
f 22//22 149//149 127//127
f 155//155 87//87 86//86
f 159//159 100//100 118//118
f 158//158 119//119 101//101
f 86//86 143//143 60//60
f 149//149 132//132 95//95
f 78//78 119//119 71//71
f 119//119 44//44 71//71
f 71//71 63//63 78//78
f 78//78 53//53 119//119
f 132//132 63//63 95//95
f 95//95 128//128 149//149
f 149//149 136//136 132//132
f 143//143 128//128 60//60
f 60//60 44//44 86//86
f 86//86 4//4 143//143
f 158//158 44//44 119//119
f 101//101 5//5 158//158
f 119//119 53//53 101//101
f 159//159 5//5 100//100
f 118//118 45//45 159//159
f 100//100 54//54 118//118
f 155//155 45//45 87//87
f 86//86 44//44 155//155
f 87//87 4//4 86//86
f 149//149 128//128 127//127
f 127//127 121//121 22//22
f 22//22 136//136 149//149
f 102//102 121//121 85//85
f 85//85 16//16 23//23
f 23//23 110//110 102//102
f 13//13 16//16 51//51
f 51//51 128//128 143//143
f 143//143 4//4 13//13
f 23//23 16//16 84//84
f 84//84 120//120 103//103
f 103//103 110//110 23//23
f 21//21 120//120 126//126
f 126//126 129//129 150//150
f 150//150 137//137 21//21
f 142//142 129//129 52//52
f 52//52 16//16 13//13
f 13//13 4//4 142//142
f 150//150 129//129 94//94
f 94//94 62//62 133//133
f 133//133 137//137 150//150
f 79//79 62//62 70//70
f 70//70 45//45 118//118
f 118//118 54//54 79//79
f 87//87 45//45 61//61
f 61//61 129//129 142//142
f 142//142 4//4 87//87
f 99//99 5//5 101//101
f 131//131 55//55 99//99
f 101//101 53//53 131//131
f 50//50 55//55 135//135
f 134//134 56//56 50//50
f 135//135 57//57 134//134
f 98//98 56//56 130//130
f 100//100 5//5 98//98
f 130//130 54//54 100//100
f 140//140 63//63 132//132
f 59//59 2//2 140//140
f 132//132 136//136 59//59
f 124//124 2//2 109//109
f 153//153 20//20 124//124
f 109//109 30//30 153//153
f 77//77 20//20 7//7
f 78//78 63//63 77//77
f 7//7 53//53 78//78
f 10//10 121//121 102//102
f 33//33 111//111 10//10
f 102//102 110//110 33//33
f 74//74 111//111 37//37
f 161//161 148//148 74//74
f 37//37 113//113 161//161
f 28//28 148//148 15//15
f 22//22 121//121 28//28
f 15//15 136//136 22//22
f 29//29 120//120 21//21
f 14//14 147//147 29//29
f 21//21 137//137 14//14
f 75//75 147//147 160//160
f 36//36 112//112 75//75
f 160//160 114//114 36//36
f 11//11 112//112 32//32
f 103//103 120//120 11//11
f 32//32 110//110 103//103
f 76//76 62//62 79//79
f 6//6 19//19 76//76
f 79//79 54//54 6//6
f 125//125 19//19 152//152
f 108//108 1//1 125//125
f 152//152 31//31 108//108
f 141//141 1//1 58//58
f 133//133 62//62 141//141
f 58//58 137//137 133//133
f 135//135 55//55 156//156
f 156//156 47//47 64//64
f 64//64 57//57 135//135
f 146//146 47//47 138//138
f 138//138 20//20 153//153
f 153//153 30//30 146//146
f 7//7 20//20 92//92
f 92//92 55//55 131//131
f 131//131 53//53 7//7
f 109//109 2//2 26//26
f 26//26 105//105 34//34
f 34//34 30//30 109//109
f 88//88 105//105 91//91
f 91//91 148//148 161//161
f 161//161 113//113 88//88
f 15//15 148//148 42//42
f 42//42 2//2 59//59
f 59//59 136//136 15//15
f 37//37 111//111 69//69
f 69//69 162//162 67//67
f 67//67 113//113 37//37
f 66//66 162//162 68//68
f 68//68 112//112 36//36
f 36//36 114//114 66//66
f 32//32 112//112 117//117
f 117//117 111//111 33//33
f 33//33 110//110 32//32
f 160//160 147//147 90//90
f 90//90 104//104 89//89
f 89//89 114//114 160//160
f 35//35 104//104 27//27
f 27//27 1//1 108//108
f 108//108 31//31 35//35
f 58//58 1//1 43//43
f 43//43 147//147 14//14
f 14//14 137//137 58//58
f 152//152 19//19 139//139
f 139//139 46//46 145//145
f 145//145 31//31 152//152
f 65//65 46//46 157//157
f 157//157 56//56 134//134
f 134//134 57//57 65//65
f 130//130 56//56 93//93
f 93//93 19//19 6//6
f 6//6 54//54 130//130
f 41//41 47//47 146//146
f 17//17 38//38 41//41
f 146//146 30//30 17//17
f 115//115 38//38 25//25
f 154//154 151//151 115//115
f 25//25 3//3 154//154
f 83//83 151//151 144//144
f 64//64 47//47 83//83
f 144//144 57//57 64//64
f 97//97 105//105 88//88
f 49//49 122//122 97//97
f 88//88 113//113 49//49
f 106//106 122//122 80//80
f 25//25 38//38 106//106
f 80//80 3//3 25//25
f 73//73 38//38 17//17
f 34//34 105//105 73//73
f 17//17 30//30 34//34
f 9//9 162//162 66//66
f 48//48 123//123 9//9
f 66//66 114//114 48//48
f 12//12 123//123 81//81
f 80//80 122//122 12//12
f 81//81 3//3 80//80
f 8//8 122//122 49//49
f 67//67 162//162 8//8
f 49//49 113//113 67//67
f 72//72 104//104 35//35
f 18//18 39//39 72//72
f 35//35 31//31 18//18
f 107//107 39//39 24//24
f 81//81 123//123 107//107
f 24//24 3//3 81//81
f 96//96 123//123 48//48
f 89//89 104//104 96//96
f 48//48 114//114 89//89
f 82//82 46//46 65//65
f 144//144 151//151 82//82
f 65//65 57//57 144//144
f 116//116 151//151 154//154
f 24//24 39//39 116//116
f 154//154 3//3 24//24
f 40//40 39//39 18//18
f 145//145 46//46 40//40
f 18//18 31//31 145//145
f 116//116 39//39 40//40
f 82//82 151//151 116//116
f 40//40 46//46 82//82
f 107//107 123//123 96//96
f 72//72 39//39 107//107
f 96//96 104//104 72//72
f 12//12 122//122 8//8
f 9//9 123//123 12//12
f 8//8 162//162 9//9
f 106//106 38//38 73//73
f 97//97 122//122 106//106
f 73//73 105//105 97//97
f 115//115 151//151 83//83
f 41//41 38//38 115//115
f 83//83 47//47 41//41
f 93//93 56//56 157//157
f 157//157 46//46 139//139
f 139//139 19//19 93//93
f 43//43 1//1 27//27
f 27//27 104//104 90//90
f 90//90 147//147 43//43
f 117//117 112//112 68//68
f 68//68 162//162 69//69
f 69//69 111//111 117//117
f 42//42 148//148 91//91
f 91//91 105//105 26//26
f 26//26 2//2 42//42
f 92//92 20//20 138//138
f 138//138 47//47 156//156
f 156//156 55//55 92//92
f 125//125 1//1 141//141
f 76//76 19//19 125//125
f 141//141 62//62 76//76
f 75//75 112//112 11//11
f 29//29 147//147 75//75
f 11//11 120//120 29//29
f 74//74 148//148 28//28
f 10//10 111//111 74//74
f 28//28 121//121 10//10
f 124//124 20//20 77//77
f 140//140 2//2 124//124
f 77//77 63//63 140//140
f 50//50 56//56 98//98
f 99//99 55//55 50//50
f 98//98 5//5 99//99
f 61//61 45//45 70//70
f 70//70 62//62 94//94
f 94//94 129//129 61//61
f 52//52 129//129 126//126
f 126//126 120//120 84//84
f 84//84 16//16 52//52
f 51//51 16//16 85//85
f 85//85 121//121 127//127
f 127//127 128//128 51//51
f 159//159 45//45 155//155
f 158//158 5//5 159//159
f 155//155 44//44 158//158
f 60//60 128//128 95//95
f 95//95 63//63 71//71
f 71//71 44//44 60//60