# https://github.com/mikedh/trimesh
v 0.00000000 0.00000000 0.78521683
v 0.00000000 0.00000000 0.00000942
v 0.00000000 0.11078761 0.39261312
v 0.00000000 -0.11078761 0.39261312
v 0.11149180 -0.05824494 0.39261312
v 0.08934055 -0.02575340 0.66499300
v 0.08934055 -0.02575340 0.12023246
v -0.08792187 0.08016706 0.32883191
v -0.08792187 0.08016706 0.45639433
v -0.11295399 -0.03062121 0.22562992
v -0.11295399 -0.03062121 0.55959555
v -0.05861432 0.09909169 0.39261312
v -0.03581612 -0.10657078 0.39261312
v -0.05887331 -0.02575340 0.73129945
v -0.05887331 -0.02575340 0.05392601
v -0.06890577 -0.09424160 0.39261312
v 0.02989683 0.07473910 0.11698875
v 0.02989683 0.07473910 0.66823671
v 0.07703931 0.00000000 0.71023614
v 0.07703931 0.00000000 0.07499011
v -0.06571348 -0.05602829 0.66823750
v -0.06571348 -0.05602829 0.11698797
v -0.09675034 -0.07473843 0.39261312
v 0.01106737 0.10657101 0.49464594
v 0.01106737 0.10657101 0.29057952
v -0.01811331 0.03062144 0.01922513
v -0.01811331 0.03062144 0.76600033
v -0.08792240 -0.03062121 0.12242713
v -0.08792240 -0.03062121 0.66279833
v 0.03622505 0.04954584 0.05864828
v 0.03622505 0.04954584 0.72657719
v -0.12572629 -0.02575318 0.45567272
v -0.12572629 -0.02575318 0.32955274
v 0.00092088 0.05602829 0.05392758
v 0.00092088 0.05602829 0.73129788
v -0.11408930 0.02575340 0.56295704
v -0.11408930 0.02575340 0.22226842
v 0.02129249 0.09424182 0.19631324
v 0.02129249 0.09424182 0.58891301
v 0.05861458 0.08016728 0.59901555
v 0.05861458 0.08016728 0.18621070
v -0.04050206 0.00000000 0.01922435
v -0.04050206 0.00000000 0.76600112
v 0.05574577 -0.09424182 0.27129393
v 0.05574577 -0.09424182 0.51393232
v 0.09019905 0.05824494 0.58891380
v 0.09019905 0.05824494 0.19631245
v -0.07827240 0.07473888 0.56295626
v -0.07827240 0.07473888 0.22226921
v 0.13106704 0.00000000 0.39261312
v -0.04742008 -0.09909169 0.28941191
v -0.04742008 -0.09909169 0.49581355
v 0.09484016 -0.04954584 0.18621305
v 0.09484016 -0.04954584 0.59901241
v 0.12465232 0.00000000 0.27129314
v 0.12465232 0.00000000 0.51393232
v 0.11722969 0.04954584 0.39261312
v -0.01882920 -0.02575340 0.77027345
v -0.01882920 -0.02575340 0.01495279
v 0.01811305 -0.09909169 0.22563070
v 0.01811305 -0.09909169 0.55959476
v 0.03445354 -0.05824516 0.71023378
v 0.03445354 -0.05824516 0.07499168
v 0.10781797 0.05602807 0.29057874
v 0.10781797 0.05602807 0.49464673
v -0.10724835 0.05602829 0.49989666
v -0.10724835 0.05602829 0.28532959
v -0.12414850 0.03062121 0.45639433
v -0.12414850 0.03062121 0.32883113
v 0.04742060 -0.08016728 0.62337754
v 0.04742060 -0.08016728 0.16184871
v -0.00691907 0.08016728 0.66279676
v -0.00691907 0.08016728 0.12242870
v -0.10603571 0.00000000 0.16184714
v -0.10603571 0.00000000 0.62337911
v 0.05861537 -0.03062121 0.72658033
v 0.05861537 -0.03062121 0.05864514
v 0.06720503 -0.05602829 0.12023403
v 0.06720503 -0.05602829 0.66499143
v -0.02897569 0.10657101 0.32955352
v -0.02897569 0.10657101 0.45567272
v 0.08364618 0.08016684 0.49581434
v 0.08364618 0.08016684 0.28941191
v -0.08364618 -0.08016684 0.49581434
v -0.08364618 -0.08016684 0.28941191
v 0.02897569 -0.10657101 0.32955352
v 0.02897569 -0.10657101 0.45567272
v -0.06720503 0.05602829 0.12023403
v -0.06720503 0.05602829 0.66499143
v -0.05861537 0.03062121 0.72658033
v -0.05861537 0.03062121 0.05864514
v 0.10603571 0.00000000 0.16184714
v 0.10603571 0.00000000 0.62337911
v 0.00691907 -0.08016728 0.66279676
v 0.00691907 -0.08016728 0.12242870
v -0.04742060 0.08016728 0.62337754
v -0.04742060 0.08016728 0.16184871
v 0.12414850 -0.03062121 0.45639433
v 0.12414850 -0.03062121 0.32883113
v 0.10724835 -0.05602829 0.49989666
v 0.10724835 -0.05602829 0.28532959
v -0.10781797 -0.05602807 0.29057874
v -0.10781797 -0.05602807 0.49464673
v -0.03445354 0.05824516 0.71023378
v -0.03445354 0.05824516 0.07499168
v -0.01811305 0.09909169 0.22563070
v -0.01811305 0.09909169 0.55959476
v 0.01882920 0.02575340 0.77027345
v 0.01882920 0.02575340 0.01495279
v -0.11722969 -0.04954584 0.39261312
v -0.12465232 0.00000000 0.27129314
v -0.12465232 0.00000000 0.51393232
v -0.09484016 0.04954584 0.18621305
v -0.09484016 0.04954584 0.59901241
v 0.04742008 0.09909169 0.28941191
v 0.04742008 0.09909169 0.49581355
v -0.13106704 0.00000000 0.39261312
v 0.07827240 -0.07473888 0.56295626
v 0.07827240 -0.07473888 0.22226921
v -0.09019905 -0.05824494 0.58891380
v -0.09019905 -0.05824494 0.19631245
v -0.05574577 0.09424182 0.27129393
v -0.05574577 0.09424182 0.51393232
v 0.04050206 0.00000000 0.01922435
v 0.04050206 0.00000000 0.76600112
v -0.05861458 -0.08016728 0.59901555
v -0.05861458 -0.08016728 0.18621070
v -0.02129249 -0.09424182 0.19631324
v -0.02129249 -0.09424182 0.58891301
v 0.11408930 -0.02575340 0.56295704
v 0.11408930 -0.02575340 0.22226842
v -0.00092088 -0.05602829 0.05392758
v -0.00092088 -0.05602829 0.73129788
v 0.12572629 0.02575318 0.45567272
v 0.12572629 0.02575318 0.32955274
v -0.03622505 -0.04954584 0.05864828
v -0.03622505 -0.04954584 0.72657719
v 0.08792240 0.03062121 0.12242713
v 0.08792240 0.03062121 0.66279833
v 0.01811331 -0.03062144 0.01922513
v 0.01811331 -0.03062144 0.76600033
v -0.01106737 -0.10657101 0.49464594
v -0.01106737 -0.10657101 0.29057952
v 0.09675034 0.07473843 0.39261312
v 0.06571348 0.05602829 0.66823750
v 0.06571348 0.05602829 0.11698797
v -0.07703931 0.00000000 0.71023614
v -0.07703931 0.00000000 0.07499011
v -0.02989683 -0.07473910 0.11698875
v -0.02989683 -0.07473910 0.66823671
v 0.06890577 0.09424160 0.39261312
v 0.05887331 0.02575340 0.73129945
v 0.05887331 0.02575340 0.05392601
v 0.03581612 0.10657078 0.39261312
v 0.05861432 -0.09909169 0.39261312
v 0.11295399 0.03062121 0.22562992
v 0.11295399 0.03062121 0.55959555
v 0.08792187 -0.08016706 0.32883191
v 0.08792187 -0.08016706 0.45639433
v -0.08934055 0.02575340 0.66499300
v -0.08934055 0.02575340 0.12023246
v -0.11149180 0.05824494 0.39261312
vn 0.00000000 0.00000000 1.00000000
vn 0.00000000 0.00000000 -1.00000000
vn -0.00555132 0.99998459 0.00000008
vn 0.00555132 -0.99998459 0.00000008
vn 0.81055990 -0.58565575 0.00000003
vn 0.88228349 -0.35190188 0.31263543
vn 0.88228498 -0.35189739 -0.31263628
vn -0.61396802 0.78789658 -0.04756315
vn -0.61396801 0.78789657 0.04756328
vn -0.92691510 -0.33889773 -0.16117298
vn -0.92691535 -0.33889746 0.16117210
vn -0.39909507 0.91690955 0.00000000
vn -0.23473057 -0.97206047 0.00000013
vn -0.74028068 -0.43758276 0.51039773
vn -0.74028170 -0.43757922 -0.51039928
vn -0.46547450 -0.88506129 0.00000007
vn 0.27148397 0.91943723 -0.28448486
vn 0.27148372 0.91943696 0.28448597
vn 0.89935120 -0.00496650 0.43719876
vn 0.89935237 -0.00496641 -0.43719636
vn -0.61374583 -0.72978549 0.30121287
vn -0.61374595 -0.72978587 -0.30121169
vn -0.68180358 -0.73153529 0.00000007
vn 0.06871746 0.99467500 0.07680852
vn 0.06871714 0.99467502 -0.07680858
vn -0.29904636 0.62298204 -0.72281717
vn -0.29905338 0.62298542 0.72281135
vn -0.86595802 -0.39684522 -0.30435272
vn -0.86595665 -0.39684828 0.30435262
vn 0.41917863 0.78637039 -0.45377404
vn 0.41917939 0.78637175 0.45377099
vn -0.96034982 -0.27325102 0.05533631
vn -0.96034986 -0.27325091 -0.05533612
vn 0.00951857 0.88551962 -0.46450447
vn 0.00951723 0.88552074 0.46450236
vn -0.94280705 0.29260897 0.15967107
vn -0.94280715 0.29260853 -0.15967130
vn 0.15620661 0.97353363 -0.16682854
vn 0.15620511 0.97353380 0.16682895
vn 0.45944354 0.86956416 0.18102433
vn 0.45944370 0.86956429 -0.18102327
vn -0.65228472 0.02270094 -0.75763403
vn -0.65228971 0.02270685 0.75762955
vn 0.38989074 -0.91583682 -0.09606321
vn 0.38989071 -0.91583677 0.09606378
vn 0.73588570 0.65177678 0.18346461
vn 0.73588428 0.65177862 -0.18346379
vn -0.59575194 0.78970060 0.14646704
vn -0.59575090 0.78970143 -0.14646678
vn 0.99995807 -0.00915795 0.00000012
vn -0.33310750 -0.93934775 -0.08164065
vn -0.33310686 -0.93934802 0.08164022
vn 0.79415409 -0.57300258 -0.20245324
vn 0.79415405 -0.57300256 0.20245349
vn 0.99392969 0.00082116 -0.11001408
vn 0.99392971 0.00082116 0.11001393
vn 0.86682681 0.49860934 0.00000013
vn -0.30858766 -0.56313046 0.76658838
vn -0.30858656 -0.56313121 -0.76658827
vn 0.13502006 -0.98093679 -0.13975906
vn 0.13501946 -0.98093693 0.13975865
vn 0.36795025 -0.84266095 0.39310956
vn 0.36795033 -0.84266112 -0.39310913
vn 0.81301606 0.57582323 -0.08621189
vn 0.81301669 0.57582240 0.08621153
vn -0.80653576 0.58324250 0.09658287
vn -0.80653532 0.58324320 -0.09658233
vn -0.94802630 0.31397005 0.05166175
vn -0.94802621 0.31397033 -0.05166180
vn 0.37659687 -0.90170806 0.21236140
vn 0.37659636 -0.90170847 -0.21236060
vn -0.07169459 0.96079177 0.26784149
vn -0.07169570 0.96079193 -0.26784063
vn -0.97030589 -0.01113713 -0.24162459
vn -0.97030586 -0.01113658 0.24162474
vn 0.70817500 -0.50182061 0.49665303
vn 0.70817737 -0.50181722 -0.49665309
vn 0.62963980 -0.71894705 -0.29439576
vn 0.62964116 -0.71894563 0.29439632
vn -0.19117052 0.98039590 -0.04772543
vn -0.19117018 0.98039595 0.04772569
vn 0.59131945 0.80192427 0.08519844
vn 0.59131933 0.80192439 -0.08519816
vn -0.59131945 -0.80192427 0.08519844
vn -0.59131933 -0.80192439 -0.08519816
vn 0.19117052 -0.98039590 -0.04772543
vn 0.19117018 -0.98039595 0.04772569
vn -0.62963980 0.71894705 -0.29439576
vn -0.62964116 0.71894563 0.29439632
vn -0.70817500 0.50182061 0.49665303
vn -0.70817737 0.50181722 -0.49665309
vn 0.97030589 0.01113713 -0.24162459
vn 0.97030586 0.01113658 0.24162474
vn 0.07169459 -0.96079177 0.26784149
vn 0.07169570 -0.96079193 -0.26784063
vn -0.37659687 0.90170806 0.21236140
vn -0.37659636 0.90170847 -0.21236060
vn 0.94802630 -0.31397005 0.05166175
vn 0.94802621 -0.31397033 -0.05166180
vn 0.80653576 -0.58324250 0.09658287
vn 0.80653532 -0.58324320 -0.09658233
vn -0.81301606 -0.57582323 -0.08621189
vn -0.81301669 -0.57582240 0.08621153
vn -0.36795025 0.84266095 0.39310956
vn -0.36795033 0.84266112 -0.39310913
vn -0.13502006 0.98093679 -0.13975906
vn -0.13501946 0.98093693 0.13975865
vn 0.30858766 0.56313046 0.76658838
vn 0.30858656 0.56313121 -0.76658827
vn -0.86682681 -0.49860934 0.00000013
vn -0.99392969 -0.00082116 -0.11001408
vn -0.99392971 -0.00082116 0.11001393
vn -0.79415409 0.57300258 -0.20245324
vn -0.79415405 0.57300256 0.20245349
vn 0.33310750 0.93934775 -0.08164065
vn 0.33310686 0.93934802 0.08164022
vn -0.99995807 0.00915795 0.00000012
vn 0.59575194 -0.78970060 0.14646704
vn 0.59575090 -0.78970143 -0.14646678
vn -0.73588570 -0.65177678 0.18346461
vn -0.73588428 -0.65177862 -0.18346379
vn -0.38989074 0.91583682 -0.09606321
vn -0.38989071 0.91583677 0.09606378
vn 0.65228472 -0.02270094 -0.75763403
vn 0.65228971 -0.02270685 0.75762955
vn -0.45944354 -0.86956416 0.18102433
vn -0.45944370 -0.86956429 -0.18102327
vn -0.15620661 -0.97353363 -0.16682854
vn -0.15620511 -0.97353380 0.16682895
vn 0.94280705 -0.29260897 0.15967107
vn 0.94280715 -0.29260853 -0.15967130
vn -0.00951857 -0.88551962 -0.46450447
vn -0.00951723 -0.88552074 0.46450236
vn 0.96034982 0.27325102 0.05533631
vn 0.96034986 0.27325091 -0.05533612
vn -0.41917863 -0.78637039 -0.45377404
vn -0.41917939 -0.78637175 0.45377099
vn 0.86595802 0.39684522 -0.30435272
vn 0.86595665 0.39684828 0.30435262
vn 0.29904636 -0.62298204 -0.72281717
vn 0.29905338 -0.62298542 0.72281135
vn -0.06871746 -0.99467500 0.07680852
vn -0.06871714 -0.99467502 -0.07680858
vn 0.68180358 0.73153529 0.00000007
vn 0.61374583 0.72978549 0.30121287
vn 0.61374595 0.72978587 -0.30121169
vn -0.89935120 0.00496650 0.43719876
vn -0.89935237 0.00496641 -0.43719636
vn -0.27148397 -0.91943723 -0.28448486
vn -0.27148372 -0.91943696 0.28448597
vn 0.46547450 0.88506129 0.00000007
vn 0.74028068 0.43758276 0.51039773
vn 0.74028170 0.43757922 -0.51039928
vn 0.23473057 0.97206047 0.00000013
vn 0.39909507 -0.91690955 0.00000000
vn 0.92691510 0.33889773 -0.16117298
vn 0.92691535 0.33889746 0.16117210
vn 0.61396802 -0.78789658 -0.04756315
vn 0.61396801 -0.78789657 0.04756328
vn -0.88228349 0.35190188 0.31263543
vn -0.88228498 0.35189739 -0.31263628
vn -0.81055990 0.58565575 0.00000003
f 71//71 60//60 95//95
f 159//159 155//155 158//158
f 127//127 51//51 85//85
f 84//84 52//52 126//126
f 94//94 61//61 70//70
f 50//50 98//98 99//99
f 124//124 77//77 140//140
f 74//74 28//28 10//10
f 75//75 11//11 29//29
f 125//125 141//141 76//76
f 156//156 92//92 138//138
f 26//26 42//42 91//91
f 69//69 117//117 68//68
f 90//90 43//43 27//27
f 139//139 93//93 157//157
f 115//115 83//83 41//41
f 106//106 73//73 97//97
f 12//12 8//8 9//9
f 107//107 96//96 72//72
f 116//116 40//40 82//82
f 40//40 18//18 145//145
f 116//116 154//154 24//24
f 82//82 65//65 144//144
f 96//96 48//48 89//89
f 107//107 24//24 81//81
f 72//72 35//35 18//18
f 8//8 49//49 67//67
f 12//12 81//81 80//80
f 9//9 66//66 48//48
f 73//73 17//17 34//34
f 106//106 80//80 25//25
f 97//97 88//88 49//49
f 83//83 144//144 64//64
f 115//115 25//25 154//154
f 41//41 146//146 17//17
f 6//6 130//130 93//93
f 134//134 65//65 157//157
f 145//145 152//152 139//139
f 14//14 58//58 43//43
f 108//108 35//35 27//27
f 89//89 160//160 90//90
f 33//33 32//32 117//117
f 36//36 66//66 68//68
f 67//67 37//37 69//69
f 59//59 15//15 42//42
f 161//161 88//88 91//91
f 34//34 109//109 26//26
f 131//131 7//7 92//92
f 153//153 146//146 138//138
f 64//64 135//135 156//156
f 141//141 58//58 133//133
f 125//125 152//152 108//108
f 76//76 79//79 6//6
f 11//11 32//32 103//103
f 75//75 160//160 36//36
f 29//29 21//21 14//14
f 28//28 15//15 22//22
f 74//74 37//37 161//161
f 10//10 102//102 33//33
f 77//77 7//7 78//78
f 124//124 109//109 153//153
f 140//140 132//132 59//59
f 98//98 130//130 100//100
f 50//50 135//135 134//134
f 99//99 101//101 131//131
f 142//142 87//87 61//61
f 118//118 79//79 70//70
f 133//133 150//150 94//94
f 13//13 142//142 52//52
f 150//150 21//21 126//126
f 103//103 23//23 84//84
f 143//143 13//13 51//51
f 23//23 102//102 85//85
f 22//22 149//149 127//127
f 155//155 87//87 86//86
f 159//159 100//100 118//118
f 158//158 119//119 101//101
f 86//86 143//143 60//60
f 149//149 132//132 95//95
f 78//78 119//119 71//71
f 119//119 44//44 71//71
f 71//71 63//63 78//78
f 78//78 53//53 119//119
f 132//132 63//63 95//95
f 95//95 128//128 149//149
f 149//149 136//136 132//132
f 143//143 128//128 60//60
f 60//60 44//44 86//86
f 86//86 4//4 143//143
f 158//158 44//44 119//119
f 101//101 5//5 158//158
f 119//119 53//53 101//101
f 159//159 5//5 100//100
f 118//118 45//45 159//159
f 100//100 54//54 118//118
f 155//155 45//45 87//87
f 86//86 44//44 155//155
f 87//87 4//4 86//86
f 149//149 128//128 127//127
f 127//127 121//121 22//22
f 22//22 136//136 149//149
f 102//102 121//121 85//85
f 85//85 16//16 23//23
f 23//23 110//110 102//102
f 13//13 16//16 51//51
f 51//51 128//128 143//143
f 143//143 4//4 13//13
f 23//23 16//16 84//84
f 84//84 120//120 103//103
f 103//103 110//110 23//23
f 21//21 120//120 126//126
f 126//126 129//129 150//150
f 150//150 137//137 21//21
f 142//142 129//129 52//52
f 52//52 16//16 13//13
f 13//13 4//4 142//142
f 150//150 129//129 94//94
f 94//94 62//62 133//133
f 133//133 137//137 150//150
f 79//79 62//62 70//70
f 70//70 45//45 118//118
f 118//118 54//54 79//79
f 87//87 45//45 61//61
f 61//61 129//129 142//142
f 142//142 4//4 87//87
f 99//99 5//5 101//101
f 131//131 55//55 99//99
f 101//101 53//53 131//131
f 50//50 55//55 135//135
f 134//134 56//56 50//50
f 135//135 57//57 134//134
f 98//98 56//56 130//130
f 100//100 5//5 98//98
f 130//130 54//54 100//100
f 140//140 63//63 132//132
f 59//59 2//2 140//140
f 132//132 136//136 59//59
f 124//124 2//2 109//109
f 153//153 20//20 124//124
f 109//109 30//30 153//153
f 77//77 20//20 7//7
f 78//78 63//63 77//77
f 7//7 53//53 78//78
f 10//10 121//121 102//102
f 33//33 111//111 10//10
f 102//102 110//110 33//33
f 74//74 111//111 37//37
f 161//161 148//148 74//74
f 37//37 113//113 161//161
f 28//28 148//148 15//15
f 22//22 121//121 28//28
f 15//15 136//136 22//22
f 29//29 120//120 21//21
f 14//14 147//147 29//29
f 21//21 137//137 14//14
f 75//75 147//147 160//160
f 36//36 112//112 75//75
f 160//160 114//114 36//36
f 11//11 112//112 32//32
f 103//103 120//120 11//11
f 32//32 110//110 103//103
f 76//76 62//62 79//79
f 6//6 19//19 76//76
f 79//79 54//54 6//6
f 125//125 19//19 152//152
f 108//108 1//1 125//125
f 152//152 31//31 108//108
f 141//141 1//1 58//58
f 133//133 62//62 141//141
f 58//58 137//137 133//133
f 135//135 55//55 156//156
f 156//156 47//47 64//64
f 64//64 57//57 135//135
f 146//146 47//47 138//138
f 138//138 20//20 153//153
f 153//153 30//30 146//146
f 7//7 20//20 92//92
f 92//92 55//55 131//131
f 131//131 53//53 7//7
f 109//109 2//2 26//26
f 26//26 105//105 34//34
f 34//34 30//30 109//109
f 88//88 105//105 91//91
f 91//91 148//148 161//161
f 161//161 113//113 88//88
f 15//15 148//148 42//42
f 42//42 2//2 59//59
f 59//59 136//136 15//15
f 37//37 111//111 69//69
f 69//69 162//162 67//67
f 67//67 113//113 37//37
f 66//66 162//162 68//68
f 68//68 112//112 36//36
f 36//36 114//114 66//66
f 32//32 112//112 117//117
f 117//117 111//111 33//33
f 33//33 110//110 32//32
f 160//160 147//147 90//90
f 90//90 104//104 89//89
f 89//89 114//114 160//160
f 35//35 104//104 27//27
f 27//27 1//1 108//108
f 108//108 31//31 35//35
f 58//58 1//1 43//43
f 43//43 147//147 14//14
f 14//14 137//137 58//58
f 152//152 19//19 139//139
f 139//139 46//46 145//145
f 145//145 31//31 152//152
f 65//65 46//46 157//157
f 157//157 56//56 134//134
f 134//134 57//57 65//65
f 130//130 56//56 93//93
f 93//93 19//19 6//6
f 6//6 54//54 130//130
f 41//41 47//47 146//146
f 17//17 38//38 41//41
f 146//146 30//30 17//17
f 115//115 38//38 25//25
f 154//154 151//151 115//115
f 25//25 3//3 154//154
f 83//83 151//151 144//144
f 64//64 47//47 83//83
f 144//144 57//57 64//64
f 97//97 105//105 88//88
f 49//49 122//122 97//97
f 88//88 113//113 49//49
f 106//106 122//122 80//80
f 25//25 38//38 106//106
f 80//80 3//3 25//25
f 73//73 38//38 17//17
f 34//34 105//105 73//73
f 17//17 30//30 34//34
f 9//9 162//162 66//66
f 48//48 123//123 9//9
f 66//66 114//114 48//48
f 12//12 123//123 81//81
f 80//80 122//122 12//12
f 81//81 3//3 80//80
f 8//8 122//122 49//49
f 67//67 162//162 8//8
f 49//49 113//113 67//67
f 72//72 104//104 35//35
f 18//18 39//39 72//72
f 35//35 31//31 18//18
f 107//107 39//39 24//24
f 81//81 123//123 107//107
f 24//24 3//3 81//81
f 96//96 123//123 48//48
f 89//89 104//104 96//96
f 48//48 114//114 89//89
f 82//82 46//46 65//65
f 144//144 151//151 82//82
f 65//65 57//57 144//144
f 116//116 151//151 154//154
f 24//24 39//39 116//116
f 154//154 3//3 24//24
f 40//40 39//39 18//18
f 145//145 46//46 40//40
f 18//18 31//31 145//145
f 116//116 39//39 40//40
f 82//82 151//151 116//116
f 40//40 46//46 82//82
f 107//107 123//123 96//96
f 72//72 39//39 107//107
f 96//96 104//104 72//72
f 12//12 122//122 8//8
f 9//9 123//123 12//12
f 8//8 162//162 9//9
f 106//106 38//38 73//73
f 97//97 122//122 106//106
f 73//73 105//105 97//97
f 115//115 151//151 83//83
f 41//41 38//38 115//115
f 83//83 47//47 41//41
f 93//93 56//56 157//157
f 157//157 46//46 139//139
f 139//139 19//19 93//93
f 43//43 1//1 27//27
f 27//27 104//104 90//90
f 90//90 147//147 43//43
f 117//117 112//112 68//68
f 68//68 162//162 69//69
f 69//69 111//111 117//117
f 42//42 148//148 91//91
f 91//91 105//105 26//26
f 26//26 2//2 42//42
f 92//92 20//20 138//138
f 138//138 47//47 156//156
f 156//156 55//55 92//92
f 125//125 1//1 141//141
f 76//76 19//19 125//125
f 141//141 62//62 76//76
f 75//75 112//112 11//11
f 29//29 147//147 75//75
f 11//11 120//120 29//29
f 74//74 148//148 28//28
f 10//10 111//111 74//74
f 28//28 121//121 10//10
f 124//124 20//20 77//77
f 140//140 2//2 124//124
f 77//77 63//63 140//140
f 50//50 56//56 98//98
f 99//99 55//55 50//50
f 98//98 5//5 99//99
f 61//61 45//45 70//70
f 70//70 62//62 94//94
f 94//94 129//129 61//61
f 52//52 129//129 126//126
f 126//126 120//120 84//84
f 84//84 16//16 52//52
f 51//51 16//16 85//85
f 85//85 121//121 127//127
f 127//127 128//128 51//51
f 159//159 45//45 155//155
f 158//158 5//5 159//159
f 155//155 44//44 158//158
f 60//60 128//128 95//95
f 95//95 63//63 71//71
f 71//71 44//44 60//60