# https://github.com/mikedh/trimesh
v 0.00000000 0.01301171 0.50594457
v 0.00000000 0.01301171 0.01529774
v 0.00000000 -0.00713473 0.12618182
v 0.00000000 -0.00713473 0.39507769
v 0.00000000 -0.01768050 0.09708515
v 0.00000000 -0.01768050 0.42416288
v 0.00000000 -0.01281537 0.01461532
v 0.00000000 -0.01281537 0.50663897
v 0.00000000 0.00675096 0.39470546
v 0.00000000 0.00675096 0.12654257
v 0.00000000 -0.01992645 0.46826117
v 0.00000000 -0.01992645 0.05298113
v 0.00000000 0.01744739 0.09803918
v 0.00000000 0.01744739 0.42320938
v 0.00000000 -0.00003240 -0.00002607
v 0.00000000 -0.00003240 0.52127410
v 0.00000000 0.01992126 0.46717786
v 0.00000000 0.01992126 0.05407591
v 0.10756412 -0.01281537 0.35476473
v 0.09076562 -0.01992645 0.18115806
v -0.08208341 0.01301171 0.08714402
v -0.04486081 0.00675096 0.16580610
v -0.05877578 -0.00713473 0.20916567
v -0.09077376 -0.01992645 0.18115232
v -0.02961077 -0.01768050 0.10952603
v -0.04442566 0.01301171 0.48726969
v -0.02434323 -0.00713473 0.13641072
v 0.04487167 0.00675096 0.35543672
v -0.02944278 0.01744739 0.41083054
v 0.04719696 -0.00003240 0.01981709
v 0.04442837 0.01301171 0.48726969
v -0.08231826 -0.01281537 0.43457216
v -0.09077622 -0.01992645 0.34007330
v 0.05441087 0.01744739 0.37559007
v -0.07107839 0.01744739 0.19839460
v 0.05876270 -0.00713473 0.20917089
v 0.09031171 0.01992126 0.33966145
v 0.06910266 0.01992126 0.11457037
v -0.05472318 -0.01768050 0.37625580
v 0.07694933 0.01744739 0.26060994
v 0.02943735 0.01744739 0.11041750
v 0.10724096 0.01301171 0.16673719
v 0.04442023 0.01301171 0.03397313
v -0.05861839 0.00675096 0.31191919
v -0.04455122 -0.01281537 0.48790675
v 0.11396100 -0.00003240 0.36036219
v 0.11393954 -0.00003240 0.16087490
v 0.11609683 0.01301171 0.26060994
v 0.05472861 -0.01768050 0.37626153
v 0.07150565 -0.01768050 0.32319751
v 0.07148419 -0.01768050 0.19803905
v 0.09028778 0.01992126 0.18157564
v 0.08207798 0.01301171 0.08714976
v -0.07738720 -0.01768050 0.26060994
v -0.08231308 -0.01281537 0.08665867
v -0.10754809 -0.01281537 0.16646610
v -0.02428181 0.00675096 0.38449324
v 0.09826520 -0.01992645 0.26060994
v 0.02427662 0.00675096 0.13674958
v -0.09825459 -0.01992645 0.26060994
v 0.03760176 -0.01992645 0.45245775
v 0.08232369 -0.01281537 0.43458363
v -0.04442294 0.01301171 0.03396740
v -0.09773926 0.01992126 0.26060994
v 0.07739781 -0.01768050 0.26060994
v -0.02944006 0.01744739 0.11041228
v -0.12333739 -0.00003240 0.26060994
v 0.08720664 -0.00003240 0.07631716
v 0.06346138 0.00675096 0.26060994
v 0.08209130 0.01301171 0.43408733
v -0.04486624 0.00675096 0.35542525
v -0.11608623 0.01301171 0.26060994
v -0.03740416 0.01992126 0.45145368
v -0.11395040 -0.00003240 0.36036219
v 0.05862900 0.00675096 0.31193013
v 0.05439212 0.01744739 0.14565797
v -0.02961620 -0.01768050 0.41171053
v -0.02434866 -0.00713473 0.38483732
v -0.04498367 -0.00713473 0.16555222
v -0.04719967 -0.00003240 0.50143094
v -0.04719967 -0.00003240 0.01981136
v 0.11642789 -0.01281537 0.26060994
v -0.06947664 -0.01992645 0.40743932
v -0.09030110 0.01992126 0.33965572
v -0.06911351 0.01992126 0.40667246
v -0.07149751 -0.01768050 0.32319178
v 0.04499699 -0.00713473 0.35569582
v 0.06946850 -0.01992645 0.11379724
v -0.03760176 -0.01992645 0.45245202
v -0.05861568 0.00675096 0.20930070
v -0.02427662 0.00675096 0.13674385
v 0.02428181 0.00675096 0.38450419
v 0.05860507 0.00675096 0.20930643
v -0.08721478 -0.00003240 0.44492566
v 0.06948182 -0.01992645 0.40744506
v 0.12335071 -0.00003240 0.26060994
v 0.10725700 0.01301171 0.35449417
v -0.05440273 0.01744739 0.37558433
v 0.09078436 -0.01992645 0.34007851
v 0.07106506 0.01744739 0.19840033
v 0.04455122 -0.01281537 0.48791248
v 0.05879206 -0.00713473 0.31207141
v 0.08230494 -0.01281537 0.08666441
v 0.04485563 0.00675096 0.16581184
v -0.08208612 0.01301171 0.43408733
v 0.06363776 -0.00713473 0.26060994
v 0.04720238 -0.00003240 0.50143668
v 0.02435137 -0.00713473 0.38484305
v 0.02944524 0.01744739 0.41083627
v 0.02961891 -0.01768050 0.41171627
v -0.05877849 -0.00713473 0.31205994
v -0.03740145 0.01992126 0.06979488
v -0.11394768 -0.00003240 0.16086916
v -0.10755351 -0.01281537 0.35475378
v 0.10753748 -0.01281537 0.16647183
v 0.03740687 0.01992126 0.45145368
v 0.04454308 -0.01281537 0.03334129
v 0.03759633 -0.01992645 0.06879029
v -0.07693601 0.01744739 0.26060994
v -0.10724910 0.01301171 0.35449417
v -0.10724910 0.01301171 0.16673145
v -0.06947392 -0.01992645 0.11379151
v -0.09029839 0.01992126 0.18156990
v -0.06911080 0.01992126 0.11456463
v -0.07149480 -0.01768050 0.19802811
v -0.11641186 -0.01281537 0.26060994
v -0.05471775 -0.01768050 0.14497555
v 0.07109171 0.01744739 0.32283623
v 0.02961077 -0.01768050 0.10953750
v -0.03759904 -0.01992645 0.06878455
v -0.04454579 -0.01281537 0.03333555
v 0.03739873 0.01992126 0.06980009
v -0.07108110 0.01744739 0.32283102
v 0.05471257 -0.01768050 0.14498650
v -0.06361902 -0.00713473 0.26060994
v 0.08722021 -0.00003240 0.44493139
v -0.06344535 0.00675096 0.26060994
v -0.04498909 -0.00713473 0.35568487
v 0.06912140 0.01992126 0.40667819
v -0.08721207 -0.00003240 0.07631143
v 0.04497577 -0.00713473 0.16555743
v 0.02434076 -0.00713473 0.13641645
v 0.09775529 0.01992126 0.26060994
v -0.05440002 0.01744739 0.14565223
vn -0.00001961 0.87868522 0.47740159
vn 0.00003476 0.87863925 -0.47748619
vn -0.00010083 -0.66134368 0.75008302
vn 0.00011577 -0.66158128 -0.74987345
vn -0.00002368 -0.98686804 0.16152856
vn 0.00001356 -0.98685972 -0.16157937
vn 0.00002976 -0.87383577 -0.48622119
vn -0.00004552 -0.87378599 0.48631064
vn 0.00015781 0.63651348 -0.77126556
vn -0.00008461 0.63681874 0.77101354
vn -0.00001034 -0.99543632 0.09542815
vn 0.00000642 -0.99543284 -0.09546440
vn -0.00001373 0.98560914 0.16904028
vn 0.00001640 0.98561001 -0.16903522
vn 0.00004774 0.00534507 -0.99998571
vn -0.00005419 0.00550522 0.99998484
vn -0.00000241 0.99601277 0.08921072
vn 0.00000988 0.99601586 -0.08917632
vn 0.64462988 -0.75398759 0.12631326
vn 0.14348501 -0.98944164 -0.02042793
vn -0.54357360 0.79992893 -0.25424683
vn 0.78887084 0.49253134 0.36755364
vn 0.86653648 -0.47106291 0.16496744
vn -0.14349593 -0.98944058 -0.02040239
vn 0.12117858 -0.97953540 0.16070518
vn -0.34989268 0.85004415 0.39370047
vn 0.52283145 -0.59585717 0.60959126
vn -0.78894906 0.49239019 -0.36757485
vn 0.12701106 0.97763048 -0.16765094
vn 0.58458015 0.00573823 -0.81131567
vn 0.34982477 0.85009602 0.39364882
vn -0.55110748 -0.79339957 0.25845243
vn -0.14348341 -0.98944250 0.02039746
vn -0.25540942 0.95721602 -0.13602762
vn 0.34104774 0.93708192 0.07459165
vn -0.86650073 -0.47103733 0.16522807
vn 0.13234792 0.99103624 0.01819874
vn 0.11747628 0.99217287 -0.04233571
vn 0.24516966 -0.96058178 -0.13105142
vn -0.37017528 0.92896192 0.00008606
vn -0.12703933 0.97762264 0.16767522
vn 0.63609834 0.76152278 -0.12434611
vn 0.34988598 0.85003763 -0.39372050
vn 0.87661288 0.45156584 -0.16624725
vn -0.35507289 -0.84461155 0.40069262
vn 0.97629324 0.00569284 0.21637720
vn 0.97628301 0.00538208 -0.21643134
vn 0.66466938 0.74713761 -0.00007047
vn -0.24518826 -0.96057247 -0.13108491
vn -0.32871933 -0.94166388 -0.07219936
vn -0.32859576 -0.94170421 0.07223576
vn 0.13224756 0.99104956 -0.01820309
vn 0.54358003 0.79993087 -0.25422698
vn 0.35725793 -0.93400577 0.00001059
vn -0.55108587 -0.79340023 -0.25849650
vn -0.64459862 -0.75401463 -0.12631140
vn 0.53600086 0.57184170 -0.62104762
vn 0.14652000 -0.98920771 -0.00002450
vn -0.53582839 0.57211311 0.62094648
vn -0.14655051 -0.98920319 -0.00000329
vn 0.08272914 -0.99362565 0.07657647
vn 0.55110626 -0.79338234 0.25850793
vn -0.34985642 0.85004005 -0.39374155
vn -0.13451778 0.99091118 -0.00000029
vn -0.35735135 -0.93397003 0.00006051
vn 0.12700045 0.97762840 0.16767110
vn -0.99998610 0.00527287 -0.00001894
vn 0.87751117 0.00581140 -0.47952099
vn -0.89801276 0.43996934 0.00025146
vn 0.54351622 0.79998307 0.25419914
vn 0.78898019 0.49242414 -0.36746255
vn -0.66468524 0.74712351 -0.00000799
vn -0.07780574 0.99443990 0.07096156
vn -0.97629525 0.00555393 0.21637175
vn -0.87664523 0.45147020 -0.16633641
vn -0.25546223 0.95720239 0.13602434
vn 0.12126122 -0.97951709 -0.16075445
vn 0.52287138 -0.59600934 -0.60940823
vn 0.77712581 -0.51365759 0.36363630
vn -0.58454657 0.00583821 0.81133915
vn -0.58451510 0.00573480 -0.81136256
vn 0.67347788 -0.73920737 -0.00010076
vn -0.12627530 -0.99090483 0.04649912
vn -0.13232422 0.99103966 0.01818496
vn -0.11750835 0.99216863 0.04234621
vn 0.32864065 -0.94169401 -0.07216445
vn -0.77708371 -0.51372544 -0.36363043
vn 0.12631322 -0.99089927 -0.04651461
vn -0.08274390 -0.99362466 0.07657333
vn 0.87657210 0.45161158 0.16633804
vn 0.53570635 0.57211395 0.62105099
vn -0.53578704 0.57191840 -0.62116148
vn -0.87652445 0.45163105 0.16653611
vn -0.87749206 0.00591046 0.47955474
vn 0.12625134 -0.99090788 0.04649921
vn 0.99998530 0.00542087 -0.00011580
vn 0.63605631 0.76157162 0.12426196
vn 0.25542880 0.95721285 -0.13601357
vn 0.14345109 -0.98944721 0.02039607
vn -0.34109151 0.93706157 0.07464721
vn 0.35499533 -0.84464572 0.40068930
vn -0.86652080 -0.47108441 -0.16498845
vn 0.55105435 -0.79343394 -0.25846022
vn -0.78891107 0.49254513 0.36744879
vn -0.54356832 0.79994593 0.25420463
vn -0.88839414 -0.45908147 0.00023760
vn 0.58449918 0.00589391 0.81137290
vn -0.52278430 -0.59596031 -0.60953088
vn -0.12698752 0.97763046 -0.16766891
vn -0.12122616 -0.97952143 -0.16075440
vn 0.86654082 -0.47107337 -0.16491480
vn -0.07776869 0.99444449 -0.07093785
vn -0.97629594 0.00544995 -0.21637130
vn -0.64462627 -0.75399961 0.12625989
vn 0.64451262 -0.75407838 -0.12636963
vn 0.07779478 0.99444083 0.07096064
vn 0.35499484 -0.84465828 -0.40066326
vn 0.08276035 -0.99362191 -0.07659125
vn 0.37018543 0.92895788 0.00000683
vn -0.63609788 0.76153796 0.12425551
vn -0.63615451 0.76148450 -0.12429315
vn -0.12628686 -0.99090275 -0.04651195
vn -0.13229789 0.99104313 -0.01818744
vn -0.11749096 0.99217071 -0.04234560
vn 0.32859611 -0.94170776 0.07218787
vn -0.67343202 -0.73924916 -0.00001599
vn 0.24510553 -0.96059811 0.13105168
vn -0.34105129 0.93708103 -0.07458656
vn -0.12123725 -0.97952630 0.16071640
vn -0.08275093 -0.99362219 -0.07659787
vn -0.35496091 -0.84466100 -0.40068759
vn 0.07777823 0.99444406 -0.07093349
vn 0.34104153 0.93708580 -0.07457124
vn -0.24513459 -0.96059282 0.13103610
vn 0.88840516 -0.45906021 0.00003129
vn 0.87747145 0.00603717 0.47959088
vn 0.89797245 0.44005169 0.00002424
vn 0.77714315 -0.51369547 -0.36354572
vn 0.11753714 0.99216446 0.04236393
vn -0.87748735 0.00585945 -0.47956398
vn -0.77720490 -0.51357696 0.36358114
vn -0.52296673 -0.59576820 0.60956219
vn 0.13460519 0.99089931 -0.00002122
vn 0.25541442 0.95721480 0.13602683
f 97//97 46//46 96//96
f 97//97 96//96 48//48
f 37//37 97//97 48//48
f 37//37 48//48 143//143
f 128//128 37//37 143//143
f 128//128 143//143 40//40
f 75//75 128//128 40//40
f 75//75 40//40 69//69
f 102//102 75//75 69//69
f 102//102 69//69 106//106
f 50//50 102//102 106//106
f 50//50 106//106 65//65
f 99//99 50//50 65//65
f 99//99 65//65 58//58
f 19//19 99//99 58//58
f 19//19 58//58 82//82
f 96//96 46//46 19//19
f 82//82 96//96 19//19
f 70//70 136//136 46//46
f 70//70 46//46 97//97
f 139//139 70//70 97//97
f 139//139 97//97 37//37
f 34//34 139//139 37//37
f 34//34 37//37 128//128
f 28//28 34//34 128//128
f 28//28 128//128 75//75
f 87//87 28//28 75//75
f 87//87 75//75 102//102
f 49//49 87//87 102//102
f 49//49 102//102 50//50
f 95//95 49//49 50//50
f 95//95 50//50 99//99
f 62//62 95//95 99//99
f 62//62 99//99 19//19
f 62//62 46//46 136//136
f 62//62 19//19 46//46
f 31//31 107//107 136//136
f 31//31 136//136 70//70
f 116//116 31//31 70//70
f 116//116 70//70 139//139
f 109//109 116//116 139//139
f 109//109 139//139 34//34
f 92//92 109//109 34//34
f 92//92 34//34 28//28
f 108//108 92//92 28//28
f 108//108 28//28 87//87
f 110//110 108//108 87//87
f 110//110 87//87 49//49
f 61//61 110//110 49//49
f 61//61 49//49 95//95
f 101//101 61//61 95//95
f 101//101 95//95 62//62
f 101//101 136//136 107//107
f 101//101 62//62 136//136
f 1//1 16//16 107//107
f 1//1 107//107 31//31
f 17//17 1//1 31//31
f 17//17 31//31 116//116
f 14//14 17//17 116//116
f 14//14 116//116 109//109
f 9//9 14//14 109//109
f 9//9 109//109 92//92
f 4//4 9//9 92//92
f 4//4 92//92 108//108
f 6//6 4//4 108//108
f 6//6 108//108 110//110
f 11//11 6//6 110//110
f 11//11 110//110 61//61
f 8//8 11//11 61//61
f 8//8 61//61 101//101
f 8//8 107//107 16//16
f 8//8 101//101 107//107
f 26//26 80//80 16//16
f 26//26 16//16 1//1
f 73//73 26//26 1//1
f 73//73 1//1 17//17
f 29//29 73//73 17//17
f 29//29 17//17 14//14
f 57//57 29//29 14//14
f 57//57 14//14 9//9
f 78//78 57//57 9//9
f 78//78 9//9 4//4
f 77//77 78//78 4//4
f 77//77 4//4 6//6
f 89//89 77//77 6//6
f 89//89 6//6 11//11
f 45//45 89//89 11//11
f 45//45 11//11 8//8
f 45//45 16//16 80//80
f 45//45 8//8 16//16
f 105//105 94//94 80//80
f 105//105 80//80 26//26
f 85//85 105//105 26//26
f 85//85 26//26 73//73
f 98//98 85//85 73//73
f 98//98 73//73 29//29
f 71//71 98//98 29//29
f 71//71 29//29 57//57
f 138//138 71//71 57//57
f 138//138 57//57 78//78
f 39//39 138//138 78//78
f 39//39 78//78 77//77
f 83//83 39//39 77//77
f 83//83 77//77 89//89
f 32//32 83//83 89//89
f 32//32 89//89 45//45
f 32//32 80//80 94//94
f 32//32 45//45 80//80
f 120//120 74//74 94//94
f 120//120 94//94 105//105
f 84//84 120//120 105//105
f 84//84 105//105 85//85
f 133//133 84//84 85//85
f 133//133 85//85 98//98
f 44//44 133//133 98//98
f 44//44 98//98 71//71
f 111//111 44//44 71//71
f 111//111 71//71 138//138
f 86//86 111//111 138//138
f 86//86 138//138 39//39
f 33//33 86//86 39//39
f 33//33 39//39 83//83
f 114//114 33//33 83//83
f 114//114 83//83 32//32
f 114//114 94//94 74//74
f 114//114 32//32 94//94
f 72//72 67//67 74//74
f 72//72 74//74 120//120
f 64//64 72//72 120//120
f 64//64 120//120 84//84
f 119//119 64//64 84//84
f 119//119 84//84 133//133
f 137//137 119//119 133//133
f 137//137 133//133 44//44
f 135//135 137//137 44//44
f 135//135 44//44 111//111
f 54//54 135//135 111//111
f 54//54 111//111 86//86
f 60//60 54//54 86//86
f 60//60 86//86 33//33
f 126//126 60//60 33//33
f 126//126 33//33 114//114
f 126//126 74//74 67//67
f 126//126 114//114 74//74
f 121//121 113//113 67//67
f 121//121 67//67 72//72
f 123//123 121//121 72//72
f 123//123 72//72 64//64
f 35//35 123//123 64//64
f 35//35 64//64 119//119
f 90//90 35//35 119//119
f 90//90 119//119 137//137
f 23//23 90//90 137//137
f 23//23 137//137 135//135
f 125//125 23//23 135//135
f 125//125 135//135 54//54
f 24//24 125//125 54//54
f 24//24 54//54 60//60
f 56//56 24//24 60//60
f 56//56 60//60 126//126
f 56//56 67//67 113//113
f 56//56 126//126 67//67
f 21//21 140//140 113//113
f 21//21 113//113 121//121
f 124//124 21//21 121//121
f 124//124 121//121 123//123
f 144//144 124//124 123//123
f 144//144 123//123 35//35
f 22//22 144//144 35//35
f 22//22 35//35 90//90
f 79//79 22//22 90//90
f 79//79 90//90 23//23
f 127//127 79//79 23//23
f 127//127 23//23 125//125
f 122//122 127//127 125//125
f 122//122 125//125 24//24
f 55//55 122//122 24//24
f 55//55 24//24 56//56
f 55//55 113//113 140//140
f 55//55 56//56 113//113
f 63//63 81//81 140//140
f 63//63 140//140 21//21
f 112//112 63//63 21//21
f 112//112 21//21 124//124
f 66//66 112//112 124//124
f 66//66 124//124 144//144
f 91//91 66//66 144//144
f 91//91 144//144 22//22
f 27//27 91//91 22//22
f 27//27 22//22 79//79
f 25//25 27//27 79//79
f 25//25 79//79 127//127
f 130//130 25//25 127//127
f 130//130 127//127 122//122
f 131//131 130//130 122//122
f 131//131 122//122 55//55
f 131//131 140//140 81//81
f 131//131 55//55 140//140
f 2//2 15//15 81//81
f 2//2 81//81 63//63
f 18//18 2//2 63//63
f 18//18 63//63 112//112
f 13//13 18//18 112//112
f 13//13 112//112 66//66
f 10//10 13//13 66//66
f 10//10 66//66 91//91
f 3//3 10//10 91//91
f 3//3 91//91 27//27
f 5//5 3//3 27//27
f 5//5 27//27 25//25
f 12//12 5//5 25//25
f 12//12 25//25 130//130
f 7//7 12//12 130//130
f 7//7 130//130 131//131
f 7//7 81//81 15//15
f 7//7 131//131 81//81
f 43//43 30//30 15//15
f 43//43 15//15 2//2
f 132//132 43//43 2//2
f 132//132 2//2 18//18
f 41//41 132//132 18//18
f 41//41 18//18 13//13
f 59//59 41//41 13//13
f 59//59 13//13 10//10
f 142//142 59//59 10//10
f 142//142 10//10 3//3
f 129//129 142//142 3//3
f 129//129 3//3 5//5
f 118//118 129//129 5//5
f 118//118 5//5 12//12
f 117//117 118//118 12//12
f 117//117 12//12 7//7
f 117//117 15//15 30//30
f 117//117 7//7 15//15
f 53//53 68//68 30//30
f 53//53 30//30 43//43
f 38//38 53//53 43//43
f 38//38 43//43 132//132
f 76//76 38//38 132//132
f 76//76 132//132 41//41
f 104//104 76//76 41//41
f 104//104 41//41 59//59
f 141//141 104//104 59//59
f 141//141 59//59 142//142
f 134//134 141//141 142//142
f 134//134 142//142 129//129
f 88//88 134//134 129//129
f 88//88 129//129 118//118
f 103//103 88//88 118//118
f 103//103 118//118 117//117
f 103//103 30//30 68//68
f 103//103 117//117 30//30
f 42//42 47//47 68//68
f 42//42 68//68 53//53
f 52//52 42//42 53//53
f 52//52 53//53 38//38
f 100//100 52//52 38//38
f 100//100 38//38 76//76
f 93//93 100//100 76//76
f 93//93 76//76 104//104
f 36//36 93//93 104//104
f 36//36 104//104 141//141
f 51//51 36//36 141//141
f 51//51 141//141 134//134
f 20//20 51//51 134//134
f 20//20 134//134 88//88
f 115//115 20//20 88//88
f 115//115 88//88 103//103
f 115//115 68//68 47//47
f 115//115 103//103 68//68
f 47//47 42//42 96//96
f 42//42 48//48 96//96
f 96//96 115//115 47//47
f 96//96 82//82 115//115
f 42//42 52//52 48//48
f 52//52 143//143 48//48
f 52//52 100//100 143//143
f 100//100 40//40 143//143
f 100//100 93//93 40//40
f 93//93 69//69 40//40
f 93//93 36//36 69//69
f 36//36 106//106 69//69
f 36//36 51//51 106//106
f 51//51 65//65 106//106
f 51//51 20//20 65//65
f 20//20 58//58 65//65
f 20//20 115//115 58//58
f 115//115 82//82 58//58