# https://github.com/mikedh/trimesh
v 0.00000000 0.01674607 0.54690781
v 0.00000000 0.01674607 0.01653630
v 0.00000000 -0.00918240 0.13639799
v 0.00000000 -0.00918240 0.42706471
v 0.00000000 -0.02275480 0.10494555
v 0.00000000 -0.02275480 0.45850476
v 0.00000000 -0.01649337 0.01579864
v 0.00000000 -0.01649337 0.54765843
v 0.00000000 0.00868848 0.42666235
v 0.00000000 0.00868848 0.13678795
v 0.00000000 -0.02564533 0.50617342
v 0.00000000 -0.02564533 0.05727069
v 0.00000000 0.02245478 0.10597681
v 0.00000000 0.02245478 0.45747406
v 0.00000000 -0.00004170 -0.00002818
v 0.00000000 -0.00004170 0.56347848
v 0.00000000 0.02563866 0.50500240
v 0.00000000 0.02563866 0.05845411
v 0.04941183 -0.01649337 0.38348787
v 0.04169508 -0.02564533 0.19582532
v -0.03770673 0.01674607 0.09419954
v -0.02060775 0.00868848 0.17923041
v -0.02699988 -0.00918240 0.22610054
v -0.04169882 -0.02564533 0.19581912
v -0.01360233 -0.02275480 0.11839369
v -0.02040785 0.01674607 0.52672094
v -0.01118257 -0.00918240 0.14745506
v 0.02061274 0.00868848 0.38421426
v -0.01352516 0.02245478 0.44409298
v 0.02168091 -0.00004170 0.02142156
v 0.02040910 0.01674607 0.52672094
v -0.03781461 -0.01649337 0.46975682
v -0.04169996 -0.02564533 0.36760696
v 0.02499477 0.02245478 0.40599930
v -0.03265134 0.02245478 0.21445740
v 0.02699388 -0.00918240 0.22610618
v 0.04148657 0.02563866 0.36716176
v 0.03174375 0.02563866 0.12384643
v -0.02513824 -0.02275480 0.40671893
v 0.03534828 0.02245478 0.28170994
v 0.01352266 0.02245478 0.11935733
v 0.04926338 0.01674607 0.18023688
v 0.02040536 0.01674607 0.03672373
v -0.02692758 0.00868848 0.33717338
v -0.02046553 -0.01649337 0.52740958
v 0.05235037 -0.00004170 0.38953852
v 0.05234051 -0.00004170 0.17389996
v 0.05333151 0.01674607 0.28170994
v 0.02514073 -0.02275480 0.40672513
v 0.03284762 -0.02275480 0.34936484
v 0.03283776 -0.02275480 0.21407307
v 0.04147558 0.02563866 0.19627671
v 0.03770424 0.01674607 0.09420574
v -0.03554943 -0.02275480 0.28170994
v -0.03781223 -0.01649337 0.09367489
v -0.04940446 -0.01649337 0.17994384
v -0.01115435 0.00868848 0.41562331
v 0.04514017 -0.02564533 0.28170994
v 0.01115198 0.00868848 0.14782136
v -0.04513530 -0.02564533 0.28170994
v 0.01727315 -0.02564533 0.48909049
v 0.03781711 -0.01649337 0.46976921
v -0.02040661 0.01674607 0.03671753
v -0.04489857 0.02563866 0.28170994
v 0.03555430 -0.02275480 0.28170994
v -0.01352391 0.02245478 0.11935169
v -0.05665761 -0.00004170 0.28170994
v 0.04006019 -0.00004170 0.08249610
v 0.02915231 0.00868848 0.28170994
v 0.03771036 0.01674607 0.46923273
v -0.02061025 0.00868848 0.38420186
v -0.05332663 0.01674607 0.28170994
v -0.01718238 0.02563866 0.48800513
v -0.05234550 -0.00004170 0.38953852
v 0.02693246 0.00868848 0.33718521
v 0.02498616 0.02245478 0.15745100
v -0.01360482 -0.02275480 0.44504422
v -0.01118506 -0.00918240 0.41599524
v -0.02066419 -0.00918240 0.17895597
v -0.02168215 -0.00004170 0.54202874
v -0.02168215 -0.00004170 0.02141537
v 0.05348359 -0.01649337 0.28170994
v -0.03191555 -0.02564533 0.44042720
v -0.04148170 0.02563866 0.36715557
v -0.03174874 0.02563866 0.43959824
v -0.03284388 -0.02275480 0.34935864
v 0.02067031 -0.00918240 0.38449434
v 0.03191181 -0.02564533 0.12301071
v -0.01727315 -0.02564533 0.48908429
v -0.02692634 0.00868848 0.22624650
v -0.01115198 0.00868848 0.14781516
v 0.01115435 0.00868848 0.41563515
v 0.02692146 0.00868848 0.22625270
v -0.04006393 -0.00004170 0.48094857
v 0.03191792 -0.02564533 0.44043340
v 0.05666373 -0.00004170 0.28170994
v 0.04927074 0.01674607 0.38319539
v -0.02499103 0.02245478 0.40599310
v 0.04170370 -0.02564533 0.36761259
v 0.03264522 0.02245478 0.21446360
v 0.02046553 -0.01649337 0.52741578
v 0.02700736 -0.00918240 0.33733793
v 0.03780849 -0.01649337 0.09368109
v 0.02060537 0.00868848 0.17923661
v -0.03770798 0.01674607 0.46923273
v 0.02923334 -0.00918240 0.28170994
v 0.02168340 -0.00004170 0.54203494
v 0.01118631 -0.00918240 0.41600144
v 0.01352629 0.02245478 0.44409918
v 0.01360607 -0.02275480 0.44505042
v -0.02700113 -0.00918240 0.33732553
v -0.01718114 0.02563866 0.07544574
v -0.05234425 -0.00004170 0.17389376
v -0.04940696 -0.01649337 0.38347603
v 0.04939959 -0.01649337 0.17995004
v 0.01718363 0.02563866 0.48800513
v 0.02046179 -0.01649337 0.03604073
v 0.01727066 -0.02564533 0.07435981
v -0.03534216 0.02245478 0.28170994
v -0.04926712 0.01674607 0.38319539
v -0.04926712 0.01674607 0.18023068
v -0.03191430 -0.02564533 0.12300451
v -0.04148045 0.02563866 0.19627051
v -0.03174749 0.02563866 0.12384023
v -0.03284263 -0.02275480 0.21406123
v -0.05347622 -0.01649337 0.28170994
v -0.02513574 -0.02275480 0.15671334
v 0.03265746 0.02245478 0.34897431
v 0.01360233 -0.02275480 0.11840609
v -0.01727191 -0.02564533 0.07435362
v -0.02046304 -0.01649337 0.03603453
v 0.01717989 0.02563866 0.07545138
v -0.03265259 0.02245478 0.34896868
v 0.02513336 -0.02275480 0.15672517
v -0.02922472 -0.00918240 0.28170994
v 0.04006643 -0.00004170 0.48095477
v -0.02914495 0.00868848 0.28170994
v -0.02066668 -0.00918240 0.38448250
v 0.03175236 0.02563866 0.43960444
v -0.04006269 -0.00004170 0.08248990
v 0.02066056 -0.00918240 0.17896161
v 0.01118144 -0.00918240 0.14746126
v 0.04490594 0.02563866 0.28170994
v -0.02498978 0.02245478 0.15744480
vn -0.00003816 0.82005287 0.57228776
vn 0.00007307 0.81998820 -0.57238042
vn -0.00017858 -0.71122187 0.70296759
vn 0.00017221 -0.71135228 -0.70283561
vn -0.00004116 -0.98893925 0.14832110
vn 0.00002434 -0.98893292 -0.14836331
vn 0.00006415 -0.81408488 -0.58074591
vn -0.00009109 -0.81402380 0.58083152
vn 0.00027039 0.69033635 -0.72348853
vn -0.00014030 0.69054459 0.72328981
vn -0.00003570 -0.98938348 0.14532837
vn 0.00002770 -0.98937669 -0.14537459
vn -0.00002510 0.98770625 0.15632136
vn 0.00002430 0.98770649 -0.15631985
vn 0.00006343 0.00497093 -0.99998764
vn -0.00006929 0.00511450 0.99998692
vn -0.00000825 0.99044303 0.13792246
vn 0.00003550 0.99044939 -0.13787679
vn 0.87494926 -0.47756172 0.07999127
vn 0.28794079 -0.95760306 -0.00929933
vn -0.79896179 0.57620071 -0.17219989
vn 0.94847787 0.25864873 0.18300430
vn 0.97042573 -0.22931885 0.07541066
vn -0.28794486 -0.95760217 -0.00926537
vn 0.28217175 -0.94176400 0.18291986
vn -0.61804711 0.71382314 0.32935435
vn 0.81280960 -0.40645377 0.41729592
vn -0.94849644 0.25858316 -0.18300072
vn 0.29585832 0.93619124 -0.18977305
vn 0.81211712 0.00542025 -0.58346929
vn 0.61799883 0.71387157 0.32934000
vn -0.80545125 -0.56648050 0.17420713
vn -0.28792504 -0.95760816 0.00926227
vn -0.54554191 0.82834800 -0.12737195
vn 0.64142627 0.76489245 0.05926122
vn -0.97040215 -0.22937506 0.07554301
vn 0.26662383 0.96377479 0.00706342
vn 0.26694311 0.96325126 -0.02980593
vn 0.52846732 -0.83978387 -0.12444013
vn -0.66465672 0.74714888 0.00006759
vn -0.29592073 0.93616697 0.18979551
vn 0.86908267 0.48826873 -0.07930302
vn 0.61804131 0.71382824 -0.32935420
vn 0.97300662 0.21807785 -0.07549952
vn -0.62326638 -0.70699935 0.33420193
vn 0.99532830 0.00277707 0.09650838
vn 0.99532670 0.00262652 -0.09652908
vn 0.88975885 0.45643092 -0.00004422
vn -0.52848544 -0.83976871 -0.12446545
vn -0.62496156 -0.77846906 -0.05838640
vn -0.62483104 -0.77857091 0.05842525
vn 0.26648552 0.96381292 -0.00708011
vn 0.79896565 0.57620031 -0.17218333
vn 0.64868590 -0.76105624 0.00000827
vn -0.80543921 -0.56648781 -0.17423903
vn -0.87496349 -0.47753543 -0.07999258
vn 0.82136406 0.38716726 -0.41888256
vn 0.27864602 -0.96039387 -0.00001967
vn -0.82126864 0.38732173 0.41892685
vn -0.27869865 -0.96037860 -0.00000260
vn 0.23502390 -0.96894392 0.07688597
vn 0.80542517 -0.56650766 0.17423937
vn -0.61800162 0.71384601 -0.32939015
vn -0.25562928 0.96677488 0.00000052
vn -0.64875543 -0.76099697 0.00004692
vn 0.29582088 0.93619864 0.18979491
vn -0.99999709 0.00241341 -0.00000829
vn 0.97123703 0.00357542 -0.23808791
vn -0.97796105 0.20878739 0.00011359
vn 0.79896810 0.57619457 0.17219115
vn 0.94851034 0.25857320 -0.18294270
vn -0.88974270 0.45646240 -0.00000402
vn -0.22391649 0.97201702 0.07102340
vn -0.99532887 0.00270922 0.09650436
vn -0.97301189 0.21804106 -0.07553784
vn -0.54561121 0.82830506 0.12735433
vn 0.28236661 -0.94169658 -0.18296623
vn 0.81288563 -0.40644500 -0.41715635
vn 0.94480844 -0.27186649 0.18282678
vn -0.81209760 0.00551216 0.58349560
vn -0.81204713 0.00541344 -0.58356675
vn 0.89515634 -0.44575232 -0.00005667
vn -0.28453650 -0.95806884 0.03380948
vn -0.26658708 0.96378503 0.00705220
vn -0.26699583 0.96323643 0.02981273
vn 0.62490253 -0.77851785 -0.05836769
vn -0.94480988 -0.27185390 -0.18283801
vn 0.28460313 -0.95804859 -0.03382230
vn -0.23505002 -0.96893834 0.07687638
vn 0.97299842 0.21809906 0.07554384
vn 0.82117330 0.38739293 0.41904789
vn -0.82121344 0.38727947 -0.41907409
vn -0.97298567 0.21812131 0.07564371
vn -0.97123207 0.00363391 0.23810724
vn 0.28450148 -0.95807915 0.03381199
vn 0.99999692 0.00248091 -0.00005069
vn 0.86910918 0.48822689 0.07927000
vn 0.54556887 0.82833321 -0.12735263
vn 0.28788400 -0.95762050 0.00926139
vn -0.64142495 0.76489088 0.05929563
vn 0.62320111 -0.70704431 0.33422854
vn -0.97043383 -0.22928012 -0.07542416
vn 0.80544442 -0.56648593 -0.17422105
vn -0.94849691 0.25861710 0.18295029
vn -0.79898271 0.57617838 0.17217752
vn -0.97558820 -0.21960794 0.00010620
vn 0.81204367 0.00557169 0.58357007
vn -0.81280310 -0.40647175 -0.41729106
vn -0.29578799 0.93620926 -0.18979379
vn -0.28227380 -0.94172433 -0.18296662
vn 0.97042862 -0.22931480 -0.07538579
vn -0.22383697 0.97203654 -0.07100680
vn -0.99532897 0.00265931 -0.09650480
vn -0.87496803 -0.47753164 0.07996553
vn 0.87494994 -0.47755496 -0.08002412
vn 0.22389458 0.97202182 0.07102669
vn 0.62322418 -0.70703239 -0.33421075
vn 0.23508247 -0.96892910 -0.07689359
vn 0.66466380 0.74714257 0.00000545
vn -0.86910606 0.48823395 0.07926071
vn -0.86910754 0.48822854 -0.07927783
vn -0.28456123 -0.95806109 -0.03382092
vn -0.26655089 0.96379503 -0.00705446
vn -0.26697386 0.96324251 -0.02981334
vn 0.62486489 -0.77854617 0.05839298
vn -0.89517008 -0.44572473 -0.00000873
vn 0.52837647 -0.83983918 0.12445263
vn -0.64142771 0.76489153 -0.05925738
vn -0.28232227 -0.94171792 0.18292484
vn -0.23507328 -0.96893045 -0.07690472
vn -0.62317721 -0.70705568 -0.33424905
vn 0.22384905 0.97203450 -0.07099676
vn 0.64142412 0.76489547 -0.05924548
vn -0.52841541 -0.83981751 0.12443352
vn 0.97557572 -0.21966339 0.00001455
vn 0.97122612 0.00370985 0.23813034
vn 0.97794825 0.20884736 0.00001051
vn 0.94482267 -0.27184998 -0.18277778
vn 0.26705329 0.96322016 0.02982407
vn -0.97123020 0.00360116 -0.23811535
vn -0.94483096 -0.27181850 0.18278171
vn -0.81292260 -0.40633509 0.41719137
vn 0.25574769 0.96674356 -0.00001391
vn 0.54554820 0.82834436 0.12736866
f 97//97 46//46 96//96
f 97//97 96//96 48//48
f 37//37 97//97 48//48
f 37//37 48//48 143//143
f 128//128 37//37 143//143
f 128//128 143//143 40//40
f 75//75 128//128 40//40
f 75//75 40//40 69//69
f 102//102 75//75 69//69
f 102//102 69//69 106//106
f 50//50 102//102 106//106
f 50//50 106//106 65//65
f 99//99 50//50 65//65
f 99//99 65//65 58//58
f 19//19 99//99 58//58
f 19//19 58//58 82//82
f 96//96 46//46 19//19
f 82//82 96//96 19//19
f 70//70 136//136 46//46
f 70//70 46//46 97//97
f 139//139 70//70 97//97
f 139//139 97//97 37//37
f 34//34 139//139 37//37
f 34//34 37//37 128//128
f 28//28 34//34 128//128
f 28//28 128//128 75//75
f 87//87 28//28 75//75
f 87//87 75//75 102//102
f 49//49 87//87 102//102
f 49//49 102//102 50//50
f 95//95 49//49 50//50
f 95//95 50//50 99//99
f 62//62 95//95 99//99
f 62//62 99//99 19//19
f 62//62 46//46 136//136
f 62//62 19//19 46//46
f 31//31 107//107 136//136
f 31//31 136//136 70//70
f 116//116 31//31 70//70
f 116//116 70//70 139//139
f 109//109 116//116 139//139
f 109//109 139//139 34//34
f 92//92 109//109 34//34
f 92//92 34//34 28//28
f 108//108 92//92 28//28
f 108//108 28//28 87//87
f 110//110 108//108 87//87
f 110//110 87//87 49//49
f 61//61 110//110 49//49
f 61//61 49//49 95//95
f 101//101 61//61 95//95
f 101//101 95//95 62//62
f 101//101 136//136 107//107
f 101//101 62//62 136//136
f 1//1 16//16 107//107
f 1//1 107//107 31//31
f 17//17 1//1 31//31
f 17//17 31//31 116//116
f 14//14 17//17 116//116
f 14//14 116//116 109//109
f 9//9 14//14 109//109
f 9//9 109//109 92//92
f 4//4 9//9 92//92
f 4//4 92//92 108//108
f 6//6 4//4 108//108
f 6//6 108//108 110//110
f 11//11 6//6 110//110
f 11//11 110//110 61//61
f 8//8 11//11 61//61
f 8//8 61//61 101//101
f 8//8 107//107 16//16
f 8//8 101//101 107//107
f 26//26 80//80 16//16
f 26//26 16//16 1//1
f 73//73 26//26 1//1
f 73//73 1//1 17//17
f 29//29 73//73 17//17
f 29//29 17//17 14//14
f 57//57 29//29 14//14
f 57//57 14//14 9//9
f 78//78 57//57 9//9
f 78//78 9//9 4//4
f 77//77 78//78 4//4
f 77//77 4//4 6//6
f 89//89 77//77 6//6
f 89//89 6//6 11//11
f 45//45 89//89 11//11
f 45//45 11//11 8//8
f 45//45 16//16 80//80
f 45//45 8//8 16//16
f 105//105 94//94 80//80
f 105//105 80//80 26//26
f 85//85 105//105 26//26
f 85//85 26//26 73//73
f 98//98 85//85 73//73
f 98//98 73//73 29//29
f 71//71 98//98 29//29
f 71//71 29//29 57//57
f 138//138 71//71 57//57
f 138//138 57//57 78//78
f 39//39 138//138 78//78
f 39//39 78//78 77//77
f 83//83 39//39 77//77
f 83//83 77//77 89//89
f 32//32 83//83 89//89
f 32//32 89//89 45//45
f 32//32 80//80 94//94
f 32//32 45//45 80//80
f 120//120 74//74 94//94
f 120//120 94//94 105//105
f 84//84 120//120 105//105
f 84//84 105//105 85//85
f 133//133 84//84 85//85
f 133//133 85//85 98//98
f 44//44 133//133 98//98
f 44//44 98//98 71//71
f 111//111 44//44 71//71
f 111//111 71//71 138//138
f 86//86 111//111 138//138
f 86//86 138//138 39//39
f 33//33 86//86 39//39
f 33//33 39//39 83//83
f 114//114 33//33 83//83
f 114//114 83//83 32//32
f 114//114 94//94 74//74
f 114//114 32//32 94//94
f 72//72 67//67 74//74
f 72//72 74//74 120//120
f 64//64 72//72 120//120
f 64//64 120//120 84//84
f 119//119 64//64 84//84
f 119//119 84//84 133//133
f 137//137 119//119 133//133
f 137//137 133//133 44//44
f 135//135 137//137 44//44
f 135//135 44//44 111//111
f 54//54 135//135 111//111
f 54//54 111//111 86//86
f 60//60 54//54 86//86
f 60//60 86//86 33//33
f 126//126 60//60 33//33
f 126//126 33//33 114//114
f 126//126 74//74 67//67
f 126//126 114//114 74//74
f 121//121 113//113 67//67
f 121//121 67//67 72//72
f 123//123 121//121 72//72
f 123//123 72//72 64//64
f 35//35 123//123 64//64
f 35//35 64//64 119//119
f 90//90 35//35 119//119
f 90//90 119//119 137//137
f 23//23 90//90 137//137
f 23//23 137//137 135//135
f 125//125 23//23 135//135
f 125//125 135//135 54//54
f 24//24 125//125 54//54
f 24//24 54//54 60//60
f 56//56 24//24 60//60
f 56//56 60//60 126//126
f 56//56 67//67 113//113
f 56//56 126//126 67//67
f 21//21 140//140 113//113
f 21//21 113//113 121//121
f 124//124 21//21 121//121
f 124//124 121//121 123//123
f 144//144 124//124 123//123
f 144//144 123//123 35//35
f 22//22 144//144 35//35
f 22//22 35//35 90//90
f 79//79 22//22 90//90
f 79//79 90//90 23//23
f 127//127 79//79 23//23
f 127//127 23//23 125//125
f 122//122 127//127 125//125
f 122//122 125//125 24//24
f 55//55 122//122 24//24
f 55//55 24//24 56//56
f 55//55 113//113 140//140
f 55//55 56//56 113//113
f 63//63 81//81 140//140
f 63//63 140//140 21//21
f 112//112 63//63 21//21
f 112//112 21//21 124//124
f 66//66 112//112 124//124
f 66//66 124//124 144//144
f 91//91 66//66 144//144
f 91//91 144//144 22//22
f 27//27 91//91 22//22
f 27//27 22//22 79//79
f 25//25 27//27 79//79
f 25//25 79//79 127//127
f 130//130 25//25 127//127
f 130//130 127//127 122//122
f 131//131 130//130 122//122
f 131//131 122//122 55//55
f 131//131 140//140 81//81
f 131//131 55//55 140//140
f 2//2 15//15 81//81
f 2//2 81//81 63//63
f 18//18 2//2 63//63
f 18//18 63//63 112//112
f 13//13 18//18 112//112
f 13//13 112//112 66//66
f 10//10 13//13 66//66
f 10//10 66//66 91//91
f 3//3 10//10 91//91
f 3//3 91//91 27//27
f 5//5 3//3 27//27
f 5//5 27//27 25//25
f 12//12 5//5 25//25
f 12//12 25//25 130//130
f 7//7 12//12 130//130
f 7//7 130//130 131//131
f 7//7 81//81 15//15
f 7//7 131//131 81//81
f 43//43 30//30 15//15
f 43//43 15//15 2//2
f 132//132 43//43 2//2
f 132//132 2//2 18//18
f 41//41 132//132 18//18
f 41//41 18//18 13//13
f 59//59 41//41 13//13
f 59//59 13//13 10//10
f 142//142 59//59 10//10
f 142//142 10//10 3//3
f 129//129 142//142 3//3
f 129//129 3//3 5//5
f 118//118 129//129 5//5
f 118//118 5//5 12//12
f 117//117 118//118 12//12
f 117//117 12//12 7//7
f 117//117 15//15 30//30
f 117//117 7//7 15//15
f 53//53 68//68 30//30
f 53//53 30//30 43//43
f 38//38 53//53 43//43
f 38//38 43//43 132//132
f 76//76 38//38 132//132
f 76//76 132//132 41//41
f 104//104 76//76 41//41
f 104//104 41//41 59//59
f 141//141 104//104 59//59
f 141//141 59//59 142//142
f 134//134 141//141 142//142
f 134//134 142//142 129//129
f 88//88 134//134 129//129
f 88//88 129//129 118//118
f 103//103 88//88 118//118
f 103//103 118//118 117//117
f 103//103 30//30 68//68
f 103//103 117//117 30//30
f 42//42 47//47 68//68
f 42//42 68//68 53//53
f 52//52 42//42 53//53
f 52//52 53//53 38//38
f 100//100 52//52 38//38
f 100//100 38//38 76//76
f 93//93 100//100 76//76
f 93//93 76//76 104//104
f 36//36 93//93 104//104
f 36//36 104//104 141//141
f 51//51 36//36 141//141
f 51//51 141//141 134//134
f 20//20 51//51 134//134
f 20//20 134//134 88//88
f 115//115 20//20 88//88
f 115//115 88//88 103//103
f 115//115 68//68 47//47
f 115//115 103//103 68//68
f 47//47 42//42 96//96
f 42//42 48//48 96//96
f 96//96 115//115 47//47
f 96//96 82//82 115//115
f 42//42 52//52 48//48
f 52//52 143//143 48//48
f 52//52 100//100 143//143
f 100//100 40//40 143//143
f 100//100 93//93 40//40
f 93//93 69//69 40//40
f 93//93 36//36 69//69
f 36//36 106//106 69//69
f 36//36 51//51 106//106
f 51//51 65//65 106//106
f 51//51 20//20 65//65
f 20//20 58//58 65//65
f 20//20 115//115 58//58
f 115//115 82//82 58//58