# https://github.com/mikedh/trimesh
v 0.00000000 0.01069367 0.55756489
v 0.00000000 0.01069367 0.01685853
v 0.00000000 -0.00586368 0.13905585
v 0.00000000 -0.00586368 0.43538653
v 0.00000000 -0.01453071 0.10699052
v 0.00000000 -0.01453071 0.46743921
v 0.00000000 -0.01053230 0.01610649
v 0.00000000 -0.01053230 0.55833014
v 0.00000000 0.00554827 0.43497632
v 0.00000000 0.00554827 0.13945341
v 0.00000000 -0.01637654 0.51603675
v 0.00000000 -0.01637654 0.05838667
v 0.00000000 0.01433912 0.10804188
v 0.00000000 0.01433912 0.46638843
v 0.00000000 -0.00002663 -0.00002873
v 0.00000000 -0.00002663 0.57445846
v 0.00000000 0.01637228 0.51484291
v 0.00000000 0.01637228 0.05959315
v 0.11013820 -0.01053230 0.39096054
v 0.09293769 -0.01637654 0.19964118
v -0.08404772 0.01069367 0.09603512
v -0.04593436 0.00554827 0.18272291
v -0.06018232 -0.00586368 0.23050635
v -0.09294603 -0.01637654 0.19963486
v -0.03031938 -0.01453071 0.12070071
v -0.04548879 0.01069367 0.53698466
v -0.02492578 -0.00586368 0.15032838
v 0.04594548 0.00554827 0.39170108
v -0.03014736 0.01433912 0.45274660
v 0.04832641 -0.00002663 0.02183899
v 0.04549157 0.01069367 0.53698466
v -0.08428819 -0.01053230 0.47891053
v -0.09294856 -0.01637654 0.37477017
v 0.05571296 0.01433912 0.41391063
v -0.07277934 0.01433912 0.21863633
v 0.06016893 -0.00586368 0.23051210
v 0.09247293 0.01637228 0.37431630
v 0.07075633 0.01637228 0.12625971
v -0.05603274 -0.01453071 0.41464429
v 0.07879077 0.01433912 0.28719936
v 0.03014180 0.01433912 0.12168313
v 0.10980731 0.01069367 0.18374899
v 0.04548323 0.01069367 0.03743933
v -0.06002117 0.00554827 0.34374356
v -0.04561736 -0.01053230 0.53768672
v 0.11668816 -0.00002663 0.39712909
v 0.11666619 -0.00002663 0.17728858
v 0.11887511 0.01069367 0.28719936
v 0.05603830 -0.01453071 0.41465061
v 0.07321683 -0.01453071 0.35617259
v 0.07319485 -0.01453071 0.21824451
v 0.09244842 0.01637228 0.20010137
v 0.08404216 0.01069367 0.09604144
v -0.07923912 -0.01453071 0.28719936
v -0.08428288 -0.01053230 0.09550025
v -0.11012178 -0.01053230 0.18345024
v -0.02486288 0.00554827 0.42372218
v 0.10061674 -0.01637654 0.28719936
v 0.02485758 0.00554827 0.15070182
v -0.10060588 -0.01637654 0.28719936
v 0.03850159 -0.01637654 0.49862094
v 0.08429374 -0.01053230 0.47892317
v -0.04548601 0.01069367 0.03743301
v -0.10007822 0.01637228 0.28719936
v 0.07924999 -0.01453071 0.28719936
v -0.03014458 0.01433912 0.12167739
v -0.12628893 -0.00002663 0.28719936
v 0.08929355 -0.00002663 0.08410362
v 0.06498005 0.00554827 0.28719936
v 0.08405580 0.01069367 0.47837623
v -0.04593992 0.00554827 0.39168844
v -0.11886424 0.01069367 0.28719936
v -0.03829926 0.01637228 0.49751443
v -0.11667730 -0.00002663 0.39712909
v 0.06003203 0.00554827 0.34375563
v 0.05569376 0.01433912 0.16051910
v -0.03032493 -0.01453071 0.45371638
v -0.02493134 -0.00586368 0.42410135
v -0.04606015 -0.00586368 0.18244312
v -0.04832919 -0.00002663 0.55259075
v -0.04832919 -0.00002663 0.02183267
v 0.11921408 -0.01053230 0.28719936
v -0.07113926 -0.01637654 0.44900939
v -0.09246206 0.01637228 0.37430998
v -0.07076744 0.01637228 0.44816428
v -0.07320849 -0.01453071 0.35616627
v 0.04607379 -0.00586368 0.39198662
v 0.07113092 -0.01637654 0.12540770
v -0.03850159 -0.01637654 0.49861462
v -0.06001839 0.00554827 0.23065515
v -0.02485758 0.00554827 0.15069550
v 0.02486288 0.00554827 0.42373424
v 0.06000753 0.00554827 0.23066147
v -0.08930189 -0.00002663 0.49032037
v 0.07114456 -0.01637654 0.44901571
v 0.12630257 -0.00002663 0.28719936
v 0.10982372 0.01069367 0.39066236
v -0.05570462 0.01433912 0.41390431
v 0.09295689 -0.01637654 0.37477591
v 0.07276570 0.01433912 0.21864265
v 0.04561736 -0.01053230 0.53769304
v 0.06019899 -0.00586368 0.34391132
v 0.08427455 -0.01053230 0.09550657
v 0.04592906 0.00554827 0.18272923
v -0.08405050 0.01069367 0.47837623
v 0.06516066 -0.00586368 0.28719936
v 0.04833197 -0.00002663 0.55259707
v 0.02493412 -0.00586368 0.42410767
v 0.03014989 0.01433912 0.45275292
v 0.03032771 -0.01453071 0.45372270
v -0.06018510 -0.00586368 0.34389868
v -0.03829649 0.01637228 0.07691588
v -0.11667452 -0.00002663 0.17728226
v -0.11012734 -0.01053230 0.39094847
v 0.11011092 -0.01053230 0.18345656
v 0.03830204 0.01637228 0.49751443
v 0.04560902 -0.01053230 0.03674302
v 0.03849603 -0.01637654 0.07580879
v -0.07877713 0.01433912 0.28719936
v -0.10981564 0.01069367 0.39066236
v -0.10981564 0.01069367 0.18374267
v -0.07113648 -0.01637654 0.12540138
v -0.09245929 0.01637228 0.20009505
v -0.07076466 0.01637228 0.12625339
v -0.07320571 -0.01453071 0.21823244
v -0.11919767 -0.01053230 0.28719936
v -0.05602718 -0.01453071 0.15976707
v 0.07279298 0.01433912 0.35577445
v 0.03031938 -0.01453071 0.12071335
v -0.03849881 -0.01637654 0.07580248
v -0.04561180 -0.01053230 0.03673670
v 0.03829371 0.01637228 0.07692163
v -0.07278212 0.01433912 0.35576870
v 0.05602188 -0.01453071 0.15977913
v -0.06514146 -0.00586368 0.28719936
v 0.08930744 -0.00002663 0.49032669
v -0.06496363 0.00554827 0.28719936
v -0.04606571 -0.00586368 0.39197455
v 0.07077552 0.01637228 0.44817060
v -0.08929911 -0.00002663 0.08409730
v 0.04605207 -0.00586368 0.18244886
v 0.02492325 -0.00586368 0.15033470
v 0.10009464 0.01637228 0.28719936
v -0.05570184 0.01433912 0.16051278
vn -0.00001833 0.92046349 0.39082856
vn 0.00003145 0.92042637 -0.39091596
vn -0.00009812 -0.71023115 0.70396854
vn 0.00011870 -0.71055339 -0.70364328
vn -0.00001859 -0.99273091 0.12035505
vn 0.00001067 -0.99272618 -0.12039409
vn 0.00002700 -0.91691004 -0.39909396
vn -0.00004197 -0.91686918 0.39918781
vn 0.00015822 0.68194127 -0.73140692
vn -0.00008574 0.68232632 0.73104773
vn -0.00000860 -0.99731726 0.07320024
vn 0.00000548 -0.99731522 -0.07322802
vn -0.00001081 0.99201605 0.12611171
vn 0.00001276 0.99201652 -0.12610802
vn 0.00004897 0.00479984 -0.99998848
vn -0.00005565 0.00494411 0.99998778
vn -0.00000201 0.99765173 0.06849106
vn 0.00000825 0.99765354 -0.06846468
vn 0.58280655 -0.80598809 0.10353610
vn 0.11742186 -0.99297042 -0.01489456
vn -0.48938057 0.84703619 -0.20745206
vn 0.77530928 0.53475857 0.33604878
vn 0.84259021 -0.51758482 0.14882104
vn -0.11743025 -0.99296973 -0.01487423
vn 0.09736132 -0.98770250 0.12232968
vn -0.31502694 0.89321951 0.32080669
vn 0.51750378 -0.63996416 0.56801032
vn -0.77541732 0.53458593 -0.33607418
vn 0.10218836 0.98652540 -0.12777003
vn 0.60020569 0.00545643 -0.79982708
vn 0.31495399 0.89326413 0.32075408
vn -0.49717751 -0.84151653 0.21133966
vn -0.11741935 -0.99297108 0.01487043
vn -0.21096459 0.97172058 -0.10608040
vn 0.28650667 0.95623688 0.05937137
vn -0.84257846 -0.51753524 0.14905975
vn 0.10819026 0.99404259 0.01319861
vn 0.09624266 0.99486301 -0.03138388
vn 0.20218471 -0.97401819 -0.10202900
vn -0.31324826 0.94967127 0.00006780
vn -0.10221191 0.98652041 0.12778969
vn 0.57398024 0.81253093 -0.10168667
vn 0.31502349 0.89321320 -0.32082765
vn 0.85501978 0.49639009 -0.15012679
vn -0.32048752 -0.88891550 0.32728733
vn 0.97840649 0.00620391 0.20659682
vn 0.97839958 0.00586559 -0.20663943
vn 0.60025563 0.79980821 -0.00005880
vn -0.20220124 -0.97401191 -0.10205613
vn -0.27562048 -0.95955422 -0.05735031
vn -0.27550538 -0.95958591 0.05737299
vn 0.10810648 0.99405165 -0.01320256
vn 0.48938644 0.84703665 -0.20743630
vn 0.30170104 -0.95340258 0.00000844
vn -0.49715554 -0.84152031 -0.21137629
vn -0.58276077 -0.80602158 -0.10353306
vn 0.53500311 0.61272403 -0.58167082
vn 0.11957872 -0.99282472 -0.00001852
vn -0.53475492 0.61307800 0.58152605
vn -0.11960620 -0.99282141 -0.00000248
vn 0.06838410 -0.99598917 0.05769916
vn 0.49718616 -0.84149890 0.21138950
vn -0.31499838 0.89321581 -0.32084504
vn -0.10962790 0.99397270 -0.00000020
vn -0.30179332 -0.95337337 0.00004757
vn 0.10217955 0.98652431 0.12778551
vn -0.99998312 0.00581103 -0.00001760
vn 0.88708446 0.00604552 -0.46156756
vn -0.87399695 0.48593135 0.00022988
vn 0.48930770 0.84709004 0.20740405
vn 0.77543143 0.53463523 -0.33596320
vn -0.60028486 0.79978628 -0.00000697
vn -0.06433431 0.99649630 0.05344367
vn -0.97840776 0.00605058 0.20659535
vn -0.85507194 0.49627457 -0.15021163
vn -0.21101051 0.97171077 0.10607896
vn 0.09743032 -0.98769065 -0.12237037
vn 0.51747381 -0.64018666 -0.56778684
vn 0.76056590 -0.55803726 0.33186432
vn -0.60017072 0.00555099 0.79985267
vn -0.60013795 0.00545310 -0.79987793
vn 0.60942291 -0.79284532 -0.00008523
vn -0.10351286 -0.99402789 0.03454898
vn -0.10817035 0.99404489 0.01318814
vn -0.09626945 0.99486016 0.03139193
vn 0.27554705 -0.95957707 -0.05732082
vn -0.76049182 -0.55814686 -0.33184978
vn 0.10354458 -0.99402418 -0.03456091
vn -0.06839615 -0.99598849 0.05769659
vn 0.85497325 0.49644399 0.15021353
vn 0.53464332 0.61306614 0.58164114
vn -0.53477186 0.61282276 -0.58177944
vn -0.85492030 0.49648093 0.15039274
vn -0.88706538 0.00614579 0.46160290
vn 0.10349294 -0.99402997 0.03454894
vn 0.99998214 0.00597611 -0.00010757
vn 0.57391023 0.81259040 0.10160658
vn 0.21098101 0.97171821 -0.10606948
vn 0.11739215 -0.99297431 0.01486934
vn -0.28654711 0.95622218 0.05941296
vn 0.32040967 -0.88894669 0.32727883
vn -0.84254886 -0.51764636 -0.14884107
vn 0.49711215 -0.84155447 -0.21134234
vn -0.77533145 0.53479315 0.33594259
vn -0.48936696 0.84705356 0.20741321
vn -0.86214507 -0.50666146 0.00021626
vn 0.60012422 0.00560485 0.79988719
vn -0.51741587 -0.64012195 -0.56791258
vn -0.10216875 0.98652569 -0.12778345
vn -0.09740096 -0.98769369 -0.12236923
vn 0.84258543 -0.51760505 -0.14877770
vn -0.06430366 0.99649923 -0.05342582
vn -0.97840958 0.00593916 -0.20658997
vn -0.58279571 -0.80600235 0.10348612
vn 0.58266205 -0.80608662 -0.10358231
vn 0.06432536 0.99649690 0.05344316
vn 0.32040055 -0.88895992 -0.32725181
vn 0.06840970 -0.99598676 -0.05771029
vn 0.31325136 0.94967025 0.00000527
vn -0.57396432 0.81255255 0.10160367
vn -0.57403605 0.81249741 -0.10163939
vn -0.10352262 -0.99402654 -0.03455870
vn -0.10814812 0.99404729 -0.01318993
vn -0.09625508 0.99486157 -0.03139138
vn 0.27550653 -0.95958761 0.05733901
vn -0.60936123 -0.79289274 -0.00001351
vn 0.20212869 -0.97402997 0.10202746
vn -0.28650997 0.95623614 -0.05936735
vn -0.09741026 -0.98769639 0.12234004
vn -0.06840237 -0.99598697 -0.05771545
vn -0.32037215 -0.88896278 -0.32727183
vn 0.06431128 0.99649893 -0.05342233
vn 0.28649992 0.95623991 -0.05935510
vn -0.20215401 -0.97402588 0.10201639
vn 0.86217532 -0.50661002 0.00002825
vn 0.88704615 0.00628041 0.46163804
vn 0.87394448 0.48602577 0.00002249
vn 0.76055811 -0.55809760 -0.33178070
vn 0.09629371 0.99485739 0.03140521
vn -0.88706115 0.00609472 -0.46161171
vn -0.76065489 -0.55794255 0.33181960
vn -0.51764286 -0.63986759 0.56799238
vn 0.10969891 0.99396486 -0.00001597
vn 0.21096908 0.97171970 0.10607960
f 97//97 46//46 96//96
f 97//97 96//96 48//48
f 37//37 97//97 48//48
f 37//37 48//48 143//143
f 128//128 37//37 143//143
f 128//128 143//143 40//40
f 75//75 128//128 40//40
f 75//75 40//40 69//69
f 102//102 75//75 69//69
f 102//102 69//69 106//106
f 50//50 102//102 106//106
f 50//50 106//106 65//65
f 99//99 50//50 65//65
f 99//99 65//65 58//58
f 19//19 99//99 58//58
f 19//19 58//58 82//82
f 96//96 46//46 19//19
f 82//82 96//96 19//19
f 70//70 136//136 46//46
f 70//70 46//46 97//97
f 139//139 70//70 97//97
f 139//139 97//97 37//37
f 34//34 139//139 37//37
f 34//34 37//37 128//128
f 28//28 34//34 128//128
f 28//28 128//128 75//75
f 87//87 28//28 75//75
f 87//87 75//75 102//102
f 49//49 87//87 102//102
f 49//49 102//102 50//50
f 95//95 49//49 50//50
f 95//95 50//50 99//99
f 62//62 95//95 99//99
f 62//62 99//99 19//19
f 62//62 46//46 136//136
f 62//62 19//19 46//46
f 31//31 107//107 136//136
f 31//31 136//136 70//70
f 116//116 31//31 70//70
f 116//116 70//70 139//139
f 109//109 116//116 139//139
f 109//109 139//139 34//34
f 92//92 109//109 34//34
f 92//92 34//34 28//28
f 108//108 92//92 28//28
f 108//108 28//28 87//87
f 110//110 108//108 87//87
f 110//110 87//87 49//49
f 61//61 110//110 49//49
f 61//61 49//49 95//95
f 101//101 61//61 95//95
f 101//101 95//95 62//62
f 101//101 136//136 107//107
f 101//101 62//62 136//136
f 1//1 16//16 107//107
f 1//1 107//107 31//31
f 17//17 1//1 31//31
f 17//17 31//31 116//116
f 14//14 17//17 116//116
f 14//14 116//116 109//109
f 9//9 14//14 109//109
f 9//9 109//109 92//92
f 4//4 9//9 92//92
f 4//4 92//92 108//108
f 6//6 4//4 108//108
f 6//6 108//108 110//110
f 11//11 6//6 110//110
f 11//11 110//110 61//61
f 8//8 11//11 61//61
f 8//8 61//61 101//101
f 8//8 107//107 16//16
f 8//8 101//101 107//107
f 26//26 80//80 16//16
f 26//26 16//16 1//1
f 73//73 26//26 1//1
f 73//73 1//1 17//17
f 29//29 73//73 17//17
f 29//29 17//17 14//14
f 57//57 29//29 14//14
f 57//57 14//14 9//9
f 78//78 57//57 9//9
f 78//78 9//9 4//4
f 77//77 78//78 4//4
f 77//77 4//4 6//6
f 89//89 77//77 6//6
f 89//89 6//6 11//11
f 45//45 89//89 11//11
f 45//45 11//11 8//8
f 45//45 16//16 80//80
f 45//45 8//8 16//16
f 105//105 94//94 80//80
f 105//105 80//80 26//26
f 85//85 105//105 26//26
f 85//85 26//26 73//73
f 98//98 85//85 73//73
f 98//98 73//73 29//29
f 71//71 98//98 29//29
f 71//71 29//29 57//57
f 138//138 71//71 57//57
f 138//138 57//57 78//78
f 39//39 138//138 78//78
f 39//39 78//78 77//77
f 83//83 39//39 77//77
f 83//83 77//77 89//89
f 32//32 83//83 89//89
f 32//32 89//89 45//45
f 32//32 80//80 94//94
f 32//32 45//45 80//80
f 120//120 74//74 94//94
f 120//120 94//94 105//105
f 84//84 120//120 105//105
f 84//84 105//105 85//85
f 133//133 84//84 85//85
f 133//133 85//85 98//98
f 44//44 133//133 98//98
f 44//44 98//98 71//71
f 111//111 44//44 71//71
f 111//111 71//71 138//138
f 86//86 111//111 138//138
f 86//86 138//138 39//39
f 33//33 86//86 39//39
f 33//33 39//39 83//83
f 114//114 33//33 83//83
f 114//114 83//83 32//32
f 114//114 94//94 74//74
f 114//114 32//32 94//94
f 72//72 67//67 74//74
f 72//72 74//74 120//120
f 64//64 72//72 120//120
f 64//64 120//120 84//84
f 119//119 64//64 84//84
f 119//119 84//84 133//133
f 137//137 119//119 133//133
f 137//137 133//133 44//44
f 135//135 137//137 44//44
f 135//135 44//44 111//111
f 54//54 135//135 111//111
f 54//54 111//111 86//86
f 60//60 54//54 86//86
f 60//60 86//86 33//33
f 126//126 60//60 33//33
f 126//126 33//33 114//114
f 126//126 74//74 67//67
f 126//126 114//114 74//74
f 121//121 113//113 67//67
f 121//121 67//67 72//72
f 123//123 121//121 72//72
f 123//123 72//72 64//64
f 35//35 123//123 64//64
f 35//35 64//64 119//119
f 90//90 35//35 119//119
f 90//90 119//119 137//137
f 23//23 90//90 137//137
f 23//23 137//137 135//135
f 125//125 23//23 135//135
f 125//125 135//135 54//54
f 24//24 125//125 54//54
f 24//24 54//54 60//60
f 56//56 24//24 60//60
f 56//56 60//60 126//126
f 56//56 67//67 113//113
f 56//56 126//126 67//67
f 21//21 140//140 113//113
f 21//21 113//113 121//121
f 124//124 21//21 121//121
f 124//124 121//121 123//123
f 144//144 124//124 123//123
f 144//144 123//123 35//35
f 22//22 144//144 35//35
f 22//22 35//35 90//90
f 79//79 22//22 90//90
f 79//79 90//90 23//23
f 127//127 79//79 23//23
f 127//127 23//23 125//125
f 122//122 127//127 125//125
f 122//122 125//125 24//24
f 55//55 122//122 24//24
f 55//55 24//24 56//56
f 55//55 113//113 140//140
f 55//55 56//56 113//113
f 63//63 81//81 140//140
f 63//63 140//140 21//21
f 112//112 63//63 21//21
f 112//112 21//21 124//124
f 66//66 112//112 124//124
f 66//66 124//124 144//144
f 91//91 66//66 144//144
f 91//91 144//144 22//22
f 27//27 91//91 22//22
f 27//27 22//22 79//79
f 25//25 27//27 79//79
f 25//25 79//79 127//127
f 130//130 25//25 127//127
f 130//130 127//127 122//122
f 131//131 130//130 122//122
f 131//131 122//122 55//55
f 131//131 140//140 81//81
f 131//131 55//55 140//140
f 2//2 15//15 81//81
f 2//2 81//81 63//63
f 18//18 2//2 63//63
f 18//18 63//63 112//112
f 13//13 18//18 112//112
f 13//13 112//112 66//66
f 10//10 13//13 66//66
f 10//10 66//66 91//91
f 3//3 10//10 91//91
f 3//3 91//91 27//27
f 5//5 3//3 27//27
f 5//5 27//27 25//25
f 12//12 5//5 25//25
f 12//12 25//25 130//130
f 7//7 12//12 130//130
f 7//7 130//130 131//131
f 7//7 81//81 15//15
f 7//7 131//131 81//81
f 43//43 30//30 15//15
f 43//43 15//15 2//2
f 132//132 43//43 2//2
f 132//132 2//2 18//18
f 41//41 132//132 18//18
f 41//41 18//18 13//13
f 59//59 41//41 13//13
f 59//59 13//13 10//10
f 142//142 59//59 10//10
f 142//142 10//10 3//3
f 129//129 142//142 3//3
f 129//129 3//3 5//5
f 118//118 129//129 5//5
f 118//118 5//5 12//12
f 117//117 118//118 12//12
f 117//117 12//12 7//7
f 117//117 15//15 30//30
f 117//117 7//7 15//15
f 53//53 68//68 30//30
f 53//53 30//30 43//43
f 38//38 53//53 43//43
f 38//38 43//43 132//132
f 76//76 38//38 132//132
f 76//76 132//132 41//41
f 104//104 76//76 41//41
f 104//104 41//41 59//59
f 141//141 104//104 59//59
f 141//141 59//59 142//142
f 134//134 141//141 142//142
f 134//134 142//142 129//129
f 88//88 134//134 129//129
f 88//88 129//129 118//118
f 103//103 88//88 118//118
f 103//103 118//118 117//117
f 103//103 30//30 68//68
f 103//103 117//117 30//30
f 42//42 47//47 68//68
f 42//42 68//68 53//53
f 52//52 42//42 53//53
f 52//52 53//53 38//38
f 100//100 52//52 38//38
f 100//100 38//38 76//76
f 93//93 100//100 76//76
f 93//93 76//76 104//104
f 36//36 93//93 104//104
f 36//36 104//104 141//141
f 51//51 36//36 141//141
f 51//51 141//141 134//134
f 20//20 51//51 134//134
f 20//20 134//134 88//88
f 115//115 20//20 88//88
f 115//115 88//88 103//103
f 115//115 68//68 47//47
f 115//115 103//103 68//68
f 47//47 42//42 96//96
f 42//42 48//48 96//96
f 96//96 115//115 47//47
f 96//96 82//82 115//115
f 42//42 52//52 48//48
f 52//52 143//143 48//48
f 52//52 100//100 143//143
f 100//100 40//40 143//143
f 100//100 93//93 40//40
f 93//93 69//69 40//40
f 93//93 36//36 69//69
f 36//36 106//106 69//69
f 36//36 51//51 106//106
f 51//51 65//65 106//106
f 51//51 20//20 65//65
f 20//20 58//58 65//65
f 20//20 115//115 58//58
f 115//115 82//82 58//58