# https://github.com/mikedh/trimesh
v 0.00000000 0.02162173 0.33529117
v 0.00000000 0.02162173 0.01013786
v 0.00000000 -0.01185588 0.08362112
v 0.00000000 -0.01185588 0.26181932
v 0.00000000 -0.02937993 0.06433866
v 0.00000000 -0.02937993 0.28109417
v 0.00000000 -0.02129547 0.00968562
v 0.00000000 -0.02129547 0.33575135
v 0.00000000 0.01121816 0.26157264
v 0.00000000 0.01121816 0.08386019
v 0.00000000 -0.03311204 0.31031826
v 0.00000000 -0.03311204 0.03511077
v 0.00000000 0.02899256 0.06497089
v 0.00000000 0.02899256 0.28046228
v 0.00000000 -0.00005384 -0.00001727
v 0.00000000 -0.00005384 0.34545011
v 0.00000000 0.03310343 0.30960034
v 0.00000000 0.03310343 0.03583629
v 0.06477758 -0.02129547 0.23510379
v 0.05466113 -0.03311204 0.12005406
v -0.04943251 0.02162173 0.05775064
v -0.02701621 0.01121816 0.10988026
v -0.03539612 -0.01185588 0.13861480
v -0.05466604 -0.03311204 0.12005025
v -0.01783229 -0.02937993 0.07258327
v -0.02675415 0.02162173 0.32291527
v -0.01466005 -0.01185588 0.09039984
v 0.02702275 0.01121816 0.23554911
v -0.01773111 0.02899256 0.27225878
v 0.02842309 -0.00005384 0.01313286
v 0.02675578 0.02162173 0.32291527
v -0.04957394 -0.02129547 0.28799244
v -0.05466752 -0.03311204 0.22536772
v 0.03276747 0.02899256 0.24890481
v -0.04280503 0.02899256 0.13147677
v 0.03538825 -0.01185588 0.13861825
v 0.05438778 0.03310343 0.22509479
v 0.04161520 0.03310343 0.07592617
v -0.03295555 -0.02937993 0.24934599
v 0.04634065 0.02899256 0.17270709
v 0.01772785 0.02899256 0.07317405
v 0.06458296 0.02162173 0.11049730
v 0.02675088 0.02162173 0.02251411
v -0.03530134 0.01121816 0.20670990
v -0.02682977 -0.02129547 0.32333745
v 0.06862993 -0.00005384 0.23881324
v 0.06861700 -0.00005384 0.10661234
v 0.06991617 0.02162173 0.17270709
v 0.03295882 -0.02937993 0.24934979
v 0.04306234 -0.02937993 0.21418408
v 0.04304942 -0.02937993 0.13124115
v 0.05437337 0.03310343 0.12033079
v 0.04942924 0.02162173 0.05775444
v -0.04660434 -0.02937993 0.17270709
v -0.04957082 -0.02129547 0.05742899
v -0.06476792 -0.02129547 0.11031765
v -0.01462306 0.01121816 0.25480497
v 0.05917755 -0.03311204 0.17270709
v 0.01461994 0.01121816 0.09062441
v -0.05917116 -0.03311204 0.17270709
v 0.02264464 -0.03311204 0.29984528
v 0.04957721 -0.02129547 0.28800004
v -0.02675251 0.02162173 0.02251031
v -0.05886082 0.03310343 0.17270709
v 0.04661073 -0.02937993 0.17270709
v -0.01772948 0.02899256 0.07317059
v -0.07427660 -0.00005384 0.17270709
v 0.05251784 -0.00005384 0.05057564
v 0.03821790 0.01121816 0.17270709
v 0.04943726 0.02162173 0.28767114
v -0.02701948 0.01121816 0.23554151
v -0.06990978 0.02162173 0.17270709
v -0.02252564 0.03310343 0.29917988
v -0.06862354 -0.00005384 0.23881324
v 0.03530773 0.01121816 0.20671715
v 0.03275618 0.02899256 0.09652803
v -0.01783555 -0.02937993 0.27284196
v -0.01466332 -0.01185588 0.25503299
v -0.02709019 -0.01185588 0.10971201
v -0.02842472 -0.00005384 0.33229998
v -0.02842472 -0.00005384 0.01312906
v 0.07011554 -0.02129547 0.17270709
v -0.04184042 -0.03311204 0.27001141
v -0.05438139 0.03310343 0.22509099
v -0.04162174 0.03310343 0.26950321
v -0.04305744 -0.02937993 0.21418028
v 0.02709822 -0.01185588 0.23572082
v 0.04183552 -0.03311204 0.07541382
v -0.02264464 -0.03311204 0.29984148
v -0.03529970 0.01121816 0.13870428
v -0.01461994 0.01121816 0.09062061
v 0.01462306 0.01121816 0.25481222
v 0.03529332 0.01121816 0.13870808
v -0.05252274 -0.00005384 0.29485374
v 0.04184354 -0.03311204 0.27001522
v 0.07428462 -0.00005384 0.17270709
v 0.06459262 0.02162173 0.23492448
v -0.03276257 0.02899256 0.24890101
v 0.05467242 -0.03311204 0.22537118
v 0.04279701 0.02899256 0.13148057
v 0.02682977 -0.02129547 0.32334125
v 0.03540592 -0.01185588 0.20681078
v 0.04956592 -0.02129547 0.05743279
v 0.02701309 0.01121816 0.10988406
v -0.04943414 0.02162173 0.28767114
v 0.03832412 -0.01185588 0.17270709
v 0.02842636 -0.00005384 0.33230378
v 0.01466495 -0.01185588 0.25503679
v 0.01773260 0.02899256 0.27226258
v 0.01783719 -0.02937993 0.27284576
v -0.03539775 -0.01185588 0.20680318
v -0.02252401 0.03310343 0.04625330
v -0.06862190 -0.00005384 0.10660854
v -0.06477119 -0.02129547 0.23509653
v 0.06476153 -0.02129547 0.11032145
v 0.02252728 0.03310343 0.29917988
v 0.02682486 -0.02129547 0.02209538
v 0.02264137 -0.03311204 0.04558755
v -0.04633262 0.02899256 0.17270709
v -0.06458786 0.02162173 0.23492448
v -0.06458786 0.02162173 0.11049350
v -0.04183879 -0.03311204 0.07541002
v -0.05437976 0.03310343 0.12032699
v -0.04162010 0.03310343 0.07592237
v -0.04305580 -0.02937993 0.13123389
v -0.07010589 -0.02129547 0.17270709
v -0.03295228 -0.02937993 0.09607579
v 0.04281305 0.02899256 0.21394466
v 0.01783229 -0.02937993 0.07259087
v -0.02264300 -0.03311204 0.04558375
v -0.02682650 -0.02129547 0.02209158
v 0.02252237 0.03310343 0.04625676
v -0.04280667 0.02899256 0.21394121
v 0.03294916 -0.02937993 0.09608304
v -0.03831283 -0.01185588 0.17270709
v 0.05252601 -0.00005384 0.29485754
v -0.03820824 0.01121816 0.17270709
v -0.02709346 -0.01185588 0.23571356
v 0.04162649 0.03310343 0.26950701
v -0.05252110 -0.00005384 0.05057184
v 0.02708544 -0.01185588 0.10971547
v 0.01465857 -0.01185588 0.09040364
v 0.05887047 0.03310343 0.17270709
v -0.03276094 0.02899256 0.09652423
vn -0.00002305 0.66919860 0.74308360
vn 0.00005277 0.66916479 -0.74311405
vn -0.00013209 -0.45565421 0.89015685
vn 0.00012997 -0.45569581 -0.89013556
vn -0.00005746 -0.93809506 0.34637791
vn 0.00003333 -0.93806553 -0.34645786
vn 0.00004606 -0.66090757 -0.75046731
vn -0.00006093 -0.66087802 0.75049333
vn 0.00019774 0.43676798 -0.89957417
vn -0.00010297 0.43691044 0.89950501
vn -0.00002605 -0.97415630 0.22587498
vn 0.00001719 -0.97413885 -0.22595021
vn -0.00003362 0.93273640 0.36055901
vn 0.00003722 0.93273971 -0.36055046
vn 0.00005527 0.00436356 -0.99999048
vn -0.00006082 0.00448837 0.99998993
vn -0.00000604 0.97718250 0.21240142
vn 0.00002531 0.97719830 -0.21232873
vn 0.86723072 -0.46984486 0.16479286
vn 0.29103255 -0.95602508 -0.03627809
vn -0.76256995 0.54389602 -0.35023448
vn 0.88675212 0.26330360 0.37992354
vn 0.95728452 -0.23533658 0.16799716
vn -0.29104965 -0.95602172 -0.03622936
vn 0.27899065 -0.90199932 0.32948663
vn -0.51634197 0.62717661 0.58312990
vn 0.63593696 -0.36794152 0.67838280
vn -0.88676777 0.26324381 -0.37992844
vn 0.29054242 0.89411466 -0.34079917
vn 0.63080721 0.00402859 -0.77592914
vn 0.51630062 0.62722332 0.58311626
vn -0.76826910 -0.53378475 0.35332200
vn -0.29103330 -0.95602698 0.03622190
vn -0.51808938 0.82088712 -0.24026597
vn 0.62514919 0.77171587 0.11680369
vn -0.95723220 -0.23537151 0.16824616
vn 0.26997695 0.96233867 0.03188633
vn 0.25745744 0.96281345 -0.08188976
vn 0.50224821 -0.83239168 -0.23424525
vn -0.65406882 0.75643503 0.00013974
vn -0.29059266 0.89408697 0.34082900
vn 0.86160911 0.48046105 -0.16366711
vn 0.51632968 0.62719149 -0.58312478
vn 0.95996535 0.22384234 -0.16840762
vn -0.52029736 -0.61833116 0.58903076
vn 0.98183709 0.00270701 0.18970661
vn 0.98182490 0.00256101 -0.18977173
vn 0.88903759 0.45783420 -0.00009054
vn -0.50226179 -0.83237164 -0.23428732
vn -0.60880642 -0.78502073 -0.11444303
vn -0.60869286 -0.78509423 0.11454282
vn 0.26982762 0.96238004 -0.03190162
vn 0.76257832 0.54390357 -0.35020451
vn 0.63777298 -0.77022440 0.00001616
vn -0.76824823 -0.53377866 -0.35337656
vn -0.86724395 -0.46981973 -0.16479487
vn 0.64066497 0.35134353 -0.68271965
vn 0.29077758 -0.95679067 -0.00004435
vn -0.64060695 0.35143921 0.68272485
vn -0.29080990 -0.95678085 -0.00000592
vn 0.19961866 -0.96541269 0.16772220
vn 0.76823270 -0.53379937 0.35337904
vn -0.51628108 0.62719707 -0.58316180
vn -0.26818569 0.96336724 0.00000021
vn -0.63782474 -0.77018153 0.00009821
vn 0.29051280 0.89411065 0.34083493
vn -0.99999704 0.00243277 -0.00001747
vn 0.90209980 0.00314492 -0.43151600
vn -0.97707376 0.21290095 0.00023784
vn 0.76257726 0.54389605 0.35021853
vn 0.88681287 0.26324348 -0.37982338
vn -0.88902278 0.45786297 -0.00000788
vn -0.18940297 0.96941649 0.15607106
vn -0.98184037 0.00264301 0.18969054
vn -0.95996038 0.22380405 -0.16848684
vn -0.51815935 0.82085082 0.24023908
vn 0.27914282 -0.90193296 -0.32953942
vn 0.63608713 -0.36792913 -0.67824872
vn 0.88333325 -0.27645634 0.37854228
vn -0.63078549 0.00409846 0.77594643
vn -0.63074200 0.00402476 -0.77598217
vn 0.89439975 -0.44726847 -0.00011989
vn -0.27457315 -0.95733474 0.09010985
vn -0.26994063 0.96234967 0.03186187
vn -0.25750939 0.96279823 0.08190537
vn 0.60875236 -0.78506809 -0.11440566
vn -0.88333359 -0.27643767 -0.37855511
vn 0.27463717 -0.95731387 -0.09013642
vn -0.19964902 -0.96540831 0.16771125
vn 0.95994546 0.22386423 0.16849191
vn 0.64047267 0.35147382 0.68283301
vn -0.64046941 0.35138678 -0.68288086
vn -0.95991220 0.22386332 0.16868247
vn -0.90208923 0.00320175 0.43153767
vn 0.27453588 -0.95734494 0.09011504
vn 0.99999688 0.00249627 -0.00010672
vn 0.86164704 0.48041595 0.16359982
vn 0.51812086 0.82087614 -0.24023559
vn 0.29098958 -0.95604034 0.03622065
vn -0.62515985 0.77169293 0.11689816
vn 0.52022534 -0.61836331 0.58906061
vn -0.95729282 -0.23529204 -0.16801225
vn 0.76826030 -0.53378329 -0.35334333
vn -0.88680091 0.26327734 0.37982785
vn -0.76259663 0.54388285 0.35019684
vn -0.97460415 -0.22393460 0.00023350
vn 0.63072942 0.00413783 0.77599180
vn -0.63594446 -0.36792346 -0.67838557
vn -0.29048699 0.89411885 -0.34083543
vn -0.27907251 -0.90195108 -0.32954937
vn 0.95729751 -0.23532995 -0.16793241
vn -0.18932784 0.96943789 -0.15602934
vn -0.98183786 0.00259374 -0.18970422
vn -0.86725111 -0.46982331 0.16474702
vn 0.86721621 -0.46984521 -0.16486818
vn 0.18937902 0.96942116 0.15607113
vn 0.52026330 -0.61834798 -0.58904319
vn 0.19967972 -0.96539618 -0.16774452
vn 0.65409895 0.75640899 0.00001227
vn -0.86164652 0.48042348 0.16358041
vn -0.86164650 0.48041327 -0.16361053
vn -0.27459439 -0.95732626 -0.09013517
vn -0.26990405 0.96235972 -0.03186804
vn -0.25748409 0.96280479 -0.08190779
vn 0.60871092 -0.78509378 0.11444990
vn -0.89440984 -0.44724830 -0.00001903
vn 0.50216401 -0.83243621 0.23426753
vn -0.62515137 0.77171529 -0.11679589
vn -0.27910725 -0.90196389 0.32948487
vn -0.19966007 -0.96539715 -0.16776232
vn -0.52020513 -0.61835648 -0.58908563
vn 0.18934749 0.96943621 -0.15601590
vn 0.62515148 0.77171892 -0.11677128
vn -0.50220334 -0.83242317 0.23422951
vn 0.97459650 -0.22396801 0.00003057
vn 0.90207207 0.00326236 0.43157309
vn 0.97706301 0.21295040 0.00002236
vn 0.88338073 -0.27644372 -0.37844069
vn 0.25756095 0.96278172 0.08193725
vn -0.90208237 0.00316914 -0.43155226
vn -0.88338061 -0.27641187 0.37846423
vn -0.63607164 -0.36786296 0.67829913
vn 0.26833370 0.96332602 -0.00003517
vn 0.51809533 0.82088380 0.24026449
f 97//97 46//46 96//96
f 97//97 96//96 48//48
f 37//37 97//97 48//48
f 37//37 48//48 143//143
f 128//128 37//37 143//143
f 128//128 143//143 40//40
f 75//75 128//128 40//40
f 75//75 40//40 69//69
f 102//102 75//75 69//69
f 102//102 69//69 106//106
f 50//50 102//102 106//106
f 50//50 106//106 65//65
f 99//99 50//50 65//65
f 99//99 65//65 58//58
f 19//19 99//99 58//58
f 19//19 58//58 82//82
f 96//96 46//46 19//19
f 82//82 96//96 19//19
f 70//70 136//136 46//46
f 70//70 46//46 97//97
f 139//139 70//70 97//97
f 139//139 97//97 37//37
f 34//34 139//139 37//37
f 34//34 37//37 128//128
f 28//28 34//34 128//128
f 28//28 128//128 75//75
f 87//87 28//28 75//75
f 87//87 75//75 102//102
f 49//49 87//87 102//102
f 49//49 102//102 50//50
f 95//95 49//49 50//50
f 95//95 50//50 99//99
f 62//62 95//95 99//99
f 62//62 99//99 19//19
f 62//62 46//46 136//136
f 62//62 19//19 46//46
f 31//31 107//107 136//136
f 31//31 136//136 70//70
f 116//116 31//31 70//70
f 116//116 70//70 139//139
f 109//109 116//116 139//139
f 109//109 139//139 34//34
f 92//92 109//109 34//34
f 92//92 34//34 28//28
f 108//108 92//92 28//28
f 108//108 28//28 87//87
f 110//110 108//108 87//87
f 110//110 87//87 49//49
f 61//61 110//110 49//49
f 61//61 49//49 95//95
f 101//101 61//61 95//95
f 101//101 95//95 62//62
f 101//101 136//136 107//107
f 101//101 62//62 136//136
f 1//1 16//16 107//107
f 1//1 107//107 31//31
f 17//17 1//1 31//31
f 17//17 31//31 116//116
f 14//14 17//17 116//116
f 14//14 116//116 109//109
f 9//9 14//14 109//109
f 9//9 109//109 92//92
f 4//4 9//9 92//92
f 4//4 92//92 108//108
f 6//6 4//4 108//108
f 6//6 108//108 110//110
f 11//11 6//6 110//110
f 11//11 110//110 61//61
f 8//8 11//11 61//61
f 8//8 61//61 101//101
f 8//8 107//107 16//16
f 8//8 101//101 107//107
f 26//26 80//80 16//16
f 26//26 16//16 1//1
f 73//73 26//26 1//1
f 73//73 1//1 17//17
f 29//29 73//73 17//17
f 29//29 17//17 14//14
f 57//57 29//29 14//14
f 57//57 14//14 9//9
f 78//78 57//57 9//9
f 78//78 9//9 4//4
f 77//77 78//78 4//4
f 77//77 4//4 6//6
f 89//89 77//77 6//6
f 89//89 6//6 11//11
f 45//45 89//89 11//11
f 45//45 11//11 8//8
f 45//45 16//16 80//80
f 45//45 8//8 16//16
f 105//105 94//94 80//80
f 105//105 80//80 26//26
f 85//85 105//105 26//26
f 85//85 26//26 73//73
f 98//98 85//85 73//73
f 98//98 73//73 29//29
f 71//71 98//98 29//29
f 71//71 29//29 57//57
f 138//138 71//71 57//57
f 138//138 57//57 78//78
f 39//39 138//138 78//78
f 39//39 78//78 77//77
f 83//83 39//39 77//77
f 83//83 77//77 89//89
f 32//32 83//83 89//89
f 32//32 89//89 45//45
f 32//32 80//80 94//94
f 32//32 45//45 80//80
f 120//120 74//74 94//94
f 120//120 94//94 105//105
f 84//84 120//120 105//105
f 84//84 105//105 85//85
f 133//133 84//84 85//85
f 133//133 85//85 98//98
f 44//44 133//133 98//98
f 44//44 98//98 71//71
f 111//111 44//44 71//71
f 111//111 71//71 138//138
f 86//86 111//111 138//138
f 86//86 138//138 39//39
f 33//33 86//86 39//39
f 33//33 39//39 83//83
f 114//114 33//33 83//83
f 114//114 83//83 32//32
f 114//114 94//94 74//74
f 114//114 32//32 94//94
f 72//72 67//67 74//74
f 72//72 74//74 120//120
f 64//64 72//72 120//120
f 64//64 120//120 84//84
f 119//119 64//64 84//84
f 119//119 84//84 133//133
f 137//137 119//119 133//133
f 137//137 133//133 44//44
f 135//135 137//137 44//44
f 135//135 44//44 111//111
f 54//54 135//135 111//111
f 54//54 111//111 86//86
f 60//60 54//54 86//86
f 60//60 86//86 33//33
f 126//126 60//60 33//33
f 126//126 33//33 114//114
f 126//126 74//74 67//67
f 126//126 114//114 74//74
f 121//121 113//113 67//67
f 121//121 67//67 72//72
f 123//123 121//121 72//72
f 123//123 72//72 64//64
f 35//35 123//123 64//64
f 35//35 64//64 119//119
f 90//90 35//35 119//119
f 90//90 119//119 137//137
f 23//23 90//90 137//137
f 23//23 137//137 135//135
f 125//125 23//23 135//135
f 125//125 135//135 54//54
f 24//24 125//125 54//54
f 24//24 54//54 60//60
f 56//56 24//24 60//60
f 56//56 60//60 126//126
f 56//56 67//67 113//113
f 56//56 126//126 67//67
f 21//21 140//140 113//113
f 21//21 113//113 121//121
f 124//124 21//21 121//121
f 124//124 121//121 123//123
f 144//144 124//124 123//123
f 144//144 123//123 35//35
f 22//22 144//144 35//35
f 22//22 35//35 90//90
f 79//79 22//22 90//90
f 79//79 90//90 23//23
f 127//127 79//79 23//23
f 127//127 23//23 125//125
f 122//122 127//127 125//125
f 122//122 125//125 24//24
f 55//55 122//122 24//24
f 55//55 24//24 56//56
f 55//55 113//113 140//140
f 55//55 56//56 113//113
f 63//63 81//81 140//140
f 63//63 140//140 21//21
f 112//112 63//63 21//21
f 112//112 21//21 124//124
f 66//66 112//112 124//124
f 66//66 124//124 144//144
f 91//91 66//66 144//144
f 91//91 144//144 22//22
f 27//27 91//91 22//22
f 27//27 22//22 79//79
f 25//25 27//27 79//79
f 25//25 79//79 127//127
f 130//130 25//25 127//127
f 130//130 127//127 122//122
f 131//131 130//130 122//122
f 131//131 122//122 55//55
f 131//131 140//140 81//81
f 131//131 55//55 140//140
f 2//2 15//15 81//81
f 2//2 81//81 63//63
f 18//18 2//2 63//63
f 18//18 63//63 112//112
f 13//13 18//18 112//112
f 13//13 112//112 66//66
f 10//10 13//13 66//66
f 10//10 66//66 91//91
f 3//3 10//10 91//91
f 3//3 91//91 27//27
f 5//5 3//3 27//27
f 5//5 27//27 25//25
f 12//12 5//5 25//25
f 12//12 25//25 130//130
f 7//7 12//12 130//130
f 7//7 130//130 131//131
f 7//7 81//81 15//15
f 7//7 131//131 81//81
f 43//43 30//30 15//15
f 43//43 15//15 2//2
f 132//132 43//43 2//2
f 132//132 2//2 18//18
f 41//41 132//132 18//18
f 41//41 18//18 13//13
f 59//59 41//41 13//13
f 59//59 13//13 10//10
f 142//142 59//59 10//10
f 142//142 10//10 3//3
f 129//129 142//142 3//3
f 129//129 3//3 5//5
f 118//118 129//129 5//5
f 118//118 5//5 12//12
f 117//117 118//118 12//12
f 117//117 12//12 7//7
f 117//117 15//15 30//30
f 117//117 7//7 15//15
f 53//53 68//68 30//30
f 53//53 30//30 43//43
f 38//38 53//53 43//43
f 38//38 43//43 132//132
f 76//76 38//38 132//132
f 76//76 132//132 41//41
f 104//104 76//76 41//41
f 104//104 41//41 59//59
f 141//141 104//104 59//59
f 141//141 59//59 142//142
f 134//134 141//141 142//142
f 134//134 142//142 129//129
f 88//88 134//134 129//129
f 88//88 129//129 118//118
f 103//103 88//88 118//118
f 103//103 118//118 117//117
f 103//103 30//30 68//68
f 103//103 117//117 30//30
f 42//42 47//47 68//68
f 42//42 68//68 53//53
f 52//52 42//42 53//53
f 52//52 53//53 38//38
f 100//100 52//52 38//38
f 100//100 38//38 76//76
f 93//93 100//100 76//76
f 93//93 76//76 104//104
f 36//36 93//93 104//104
f 36//36 104//104 141//141
f 51//51 36//36 141//141
f 51//51 141//141 134//134
f 20//20 51//51 134//134
f 20//20 134//134 88//88
f 115//115 20//20 88//88
f 115//115 88//88 103//103
f 115//115 68//68 47//47
f 115//115 103//103 68//68
f 47//47 42//42 96//96
f 42//42 48//48 96//96
f 96//96 115//115 47//47
f 96//96 82//82 115//115
f 42//42 52//52 48//48
f 52//52 143//143 48//48
f 52//52 100//100 143//143
f 100//100 40//40 143//143
f 100//100 93//93 40//40
f 93//93 69//69 40//40
f 93//93 36//36 69//69
f 36//36 106//106 69//69
f 36//36 51//51 106//106
f 51//51 65//65 106//106
f 51//51 20//20 65//65
f 20//20 58//58 65//65
f 20//20 115//115 58//58
f 115//115 82//82 58//58