# https://github.com/mikedh/trimesh
v 0.00000000 0.02008000 0.58229940
v 0.00000000 0.02008000 0.01760640
v 0.00000000 -0.01101050 0.14522460
v 0.00000000 -0.01101050 0.45470100
v 0.00000000 -0.02728500 0.11173680
v 0.00000000 -0.02728500 0.48817560
v 0.00000000 -0.01977700 0.01682100
v 0.00000000 -0.01977700 0.58309860
v 0.00000000 0.01041825 0.45427260
v 0.00000000 0.01041825 0.14563980
v 0.00000000 -0.03075100 0.53892900
v 0.00000000 -0.03075100 0.06097680
v 0.00000000 0.02692525 0.11283480
v 0.00000000 0.02692525 0.48707820
v 0.00000000 -0.00005000 -0.00003000
v 0.00000000 -0.00005000 0.59994240
v 0.00000000 0.03074300 0.53768220
v 0.00000000 0.03074300 0.06223680
v 0.10900800 -0.01977700 0.40830420
v 0.09198400 -0.03075100 0.20849760
v -0.08318525 0.02008000 0.10029540
v -0.04546300 0.01041825 0.19082880
v -0.05956475 -0.01101050 0.24073200
v -0.09199225 -0.03075100 0.20849100
v -0.03000825 -0.02728500 0.12605520
v -0.04502200 0.02008000 0.56080620
v -0.02467000 -0.01101050 0.15699720
v 0.04547400 0.01041825 0.40907760
v -0.02983800 0.02692525 0.47283120
v 0.04783050 -0.00005000 0.02280780
v 0.04502475 0.02008000 0.56080620
v -0.08342325 -0.01977700 0.50015580
v -0.09199475 -0.03075100 0.39139560
v 0.05514125 0.02692525 0.43227240
v -0.07203250 0.02692525 0.22833540
v 0.05955150 -0.01101050 0.24073800
v 0.09152400 0.03074300 0.39092160
v 0.07003025 0.03074300 0.13186080
v -0.05545775 -0.02728500 0.43303860
v 0.07798225 0.02692525 0.29994000
v 0.02983250 0.02692525 0.12708120
v 0.10868050 0.02008000 0.19190040
v 0.04501650 0.02008000 0.03910020
v -0.05940525 0.01041825 0.35899260
v -0.04514925 -0.01977700 0.56153940
v 0.11549075 -0.00005000 0.41474640
v 0.11546900 -0.00005000 0.18515340
v 0.11765525 0.02008000 0.29994000
v 0.05546325 -0.02728500 0.43304520
v 0.07246550 -0.02728500 0.37197300
v 0.07244375 -0.02728500 0.22792620
v 0.09149975 0.03074300 0.20897820
v 0.08317975 0.02008000 0.10030200
v -0.07842600 -0.02728500 0.29994000
v -0.08341800 -0.01977700 0.09973680
v -0.10899175 -0.01977700 0.19158840
v -0.02460775 0.01041825 0.44251920
v 0.09958425 -0.03075100 0.29994000
v 0.02460250 0.01041825 0.15738720
v -0.09957350 -0.03075100 0.29994000
v 0.03810650 -0.03075100 0.52074060
v 0.08342875 -0.01977700 0.50016900
v -0.04501925 0.02008000 0.03909360
v -0.09905125 0.03074300 0.29994000
v 0.07843675 -0.02728500 0.29994000
v -0.02983525 0.02692525 0.12707520
v -0.12499300 -0.00005000 0.29994000
v 0.08837725 -0.00005000 0.08783460
v 0.06431325 0.01041825 0.29994000
v 0.08319325 0.02008000 0.49959780
v -0.04546850 0.01041825 0.40906440
v -0.11764450 0.02008000 0.29994000
v -0.03790625 0.03074300 0.51958500
v -0.11548000 -0.00005000 0.41474640
v 0.05941600 0.01041825 0.35900520
v 0.05512225 0.02692525 0.16764000
v -0.03001375 -0.02728500 0.47384400
v -0.02467550 -0.01101050 0.44291520
v -0.04558750 -0.01101050 0.19053660
v -0.04783325 -0.00005000 0.57710460
v -0.04783325 -0.00005000 0.02280120
v 0.11799075 -0.01977700 0.29994000
v -0.07040925 -0.03075100 0.46892820
v -0.09151325 0.03074300 0.39091500
v -0.07004125 0.03074300 0.46804560
v -0.07245725 -0.02728500 0.37196640
v 0.04560100 -0.01101050 0.40937580
v 0.07040100 -0.03075100 0.13097100
v -0.03810650 -0.03075100 0.52073400
v -0.05940250 0.01041825 0.24088740
v -0.02460250 0.01041825 0.15738060
v 0.02460775 0.01041825 0.44253180
v 0.05939175 0.01041825 0.24089400
v -0.08838550 -0.00005000 0.51207180
v 0.07041450 -0.03075100 0.46893480
v 0.12500650 -0.00005000 0.29994000
v 0.10869675 0.02008000 0.40799280
v -0.05513300 0.02692525 0.43226580
v 0.09200300 -0.03075100 0.39140160
v 0.07201900 0.02692525 0.22834200
v 0.04514925 -0.01977700 0.56154600
v 0.05958125 -0.01101050 0.35916780
v 0.08340975 -0.01977700 0.09974340
v 0.04545775 0.01041825 0.19083540
v -0.08318800 0.02008000 0.49959780
v 0.06449200 -0.01101050 0.29994000
v 0.04783600 -0.00005000 0.57711120
v 0.02467825 -0.01101050 0.44292180
v 0.02984050 0.02692525 0.47283780
v 0.03001650 -0.02728500 0.47385060
v -0.05956750 -0.01101050 0.35915460
v -0.03790350 0.03074300 0.08032800
v -0.11547725 -0.00005000 0.18514680
v -0.10899725 -0.01977700 0.40829160
v 0.10898100 -0.01977700 0.19159500
v 0.03790900 0.03074300 0.51958500
v 0.04514100 -0.01977700 0.03837300
v 0.03810100 -0.03075100 0.07917180
v -0.07796875 0.02692525 0.29994000
v -0.10868875 0.02008000 0.40799280
v -0.10868875 0.02008000 0.19189380
v -0.07040650 -0.03075100 0.13096440
v -0.09151050 0.03074300 0.20897160
v -0.07003850 0.03074300 0.13185420
v -0.07245450 -0.02728500 0.22791360
v -0.11797450 -0.01977700 0.29994000
v -0.05545225 -0.02728500 0.16685460
v 0.07204600 0.02692525 0.37155720
v 0.03000825 -0.02728500 0.12606840
v -0.03810375 -0.03075100 0.07916520
v -0.04514375 -0.01977700 0.03836640
v 0.03790075 0.03074300 0.08033400
v -0.07203525 0.02692525 0.37155120
v 0.05544700 -0.02728500 0.16686720
v -0.06447300 -0.01101050 0.29994000
v 0.08839100 -0.00005000 0.51207840
v -0.06429700 0.01041825 0.29994000
v -0.04559300 -0.01101050 0.40936320
v 0.07004925 0.03074300 0.46805220
v -0.08838275 -0.00005000 0.08782800
v 0.04557950 -0.01101050 0.19054260
v 0.02466750 -0.01101050 0.15700380
v 0.09906750 0.03074300 0.29994000
v -0.05513025 0.02692525 0.16763340
vn -0.00002386 0.81904702 0.57372639
vn 0.00004499 0.81899451 -0.57380134
vn -0.00012023 -0.61588534 0.78783579
vn 0.00012775 -0.61604143 -0.78771374
vn -0.00003361 -0.97863784 0.20559175
vn 0.00001939 -0.97862510 -0.20565241
vn 0.00003881 -0.81286354 -0.58245418
vn -0.00005692 -0.81280929 0.58252988
vn 0.00018368 0.59360850 -0.80475395
vn -0.00009701 0.59384412 0.80458011
vn -0.00001609 -0.99140836 0.13080314
vn 0.00001051 -0.99140206 -0.13085085
vn -0.00001963 0.97660563 0.21503826
vn 0.00002250 0.97660688 -0.21503255
vn 0.00005272 0.00537726 -0.99998554
vn -0.00005916 0.00553607 0.99998467
vn -0.00000375 0.99245001 0.12264982
vn 0.00001551 0.99245564 -0.12260425
vn 0.75117972 -0.64631117 0.13420470
vn 0.20180667 -0.97913738 -0.02374994
vn -0.64923246 0.70852338 -0.27657158
vn 0.84867713 0.39939853 0.34673902
vn 0.91644378 -0.36986509 0.15274362
vn -0.20181937 -0.97913558 -0.02371610
vn 0.17401485 -0.96280501 0.20670109
vn -0.43753456 0.77814147 0.45062107
vn 0.59588380 -0.52014449 0.61185963
vn -0.84872163 0.39929663 -0.34674746
vn 0.18221123 0.95943296 -0.21514522
vn 0.62604411 0.00554263 -0.77976795
vn 0.43747411 0.77819719 0.45058355
vn -0.65629329 -0.70048439 0.28035825
vn -0.20180312 -0.97913907 0.02371031
vn -0.35771549 0.91861816 -0.16786988
vn 0.45969457 0.88372988 0.08776334
vn -0.91639413 -0.36988777 0.15298637
vn 0.18651139 0.98222960 0.02094053
vn 0.17041193 0.98401004 -0.05180745
vn 0.34453862 -0.92460428 -0.16248093
vn -0.49106236 0.87112441 0.00010154
vn -0.18224986 0.95941929 0.21517347
vn 0.74346134 0.65551348 -0.13254174
vn 0.43752591 0.77813918 -0.45063343
vn 0.92278162 0.35344174 -0.15346995
vn -0.44244856 -0.77144261 0.45729155
vn 0.98174180 0.00445446 0.19016624
vn 0.98173286 0.00421204 -0.19021790
vn 0.77209553 0.63550649 -0.00007420
vn -0.34455832 -0.92459038 -0.16251826
vn -0.44505207 -0.89141722 -0.08546340
vn -0.44491735 -0.89147950 0.08551514
vn 0.18638240 0.98225391 -0.02094902
vn 0.64923883 0.70852654 -0.27654851
vn 0.47619864 -0.87933774 0.00001239
vn -0.65627388 -0.70048368 -0.28040544
vn -0.75117440 -0.64631705 -0.13420612
vn 0.60608514 0.49884327 -0.61952901
vn 0.20382064 -0.97900825 -0.00002988
vn -0.60596559 0.49903457 0.61949189
vn -0.20386006 -0.97900004 -0.00000400
vn 0.12558065 -0.98704852 0.09982344
vn 0.65627672 -0.70047881 0.28041096
vn -0.43748920 0.77814352 -0.45066159
vn -0.18736365 0.98229062 -0.00000017
vn -0.47628855 -0.87928904 0.00007141
vn 0.18219396 0.95943075 0.21516970
vn -0.99999188 0.00402893 -0.00001687
vn 0.90127084 0.00494909 -0.43322787
vn -0.94009994 0.34089888 0.00022803
vn 0.64920480 0.70856105 0.27653998
vn 0.84875863 0.39930669 -0.34664529
vn -0.77209094 0.63551206 -0.00000761
vn -0.11852324 0.98862467 0.09259318
vn -0.98174398 0.00434678 0.19015749
vn -0.92279398 0.35337564 -0.15354777
vn -0.35778079 0.91859448 0.16786032
vn 0.17412984 -0.96277190 -0.20675847
vn 0.59597915 -0.52021074 -0.61171042
vn 0.84085868 -0.41750291 0.34445319
vn -0.62601550 0.00563879 0.77979023
vn -0.62597602 0.00553852 -0.77982264
vn 0.77987749 -0.62593218 -0.00010196
vn -0.18266701 -0.98151804 0.05705352
vn -0.18648036 0.98223585 0.02092370
vn -0.17045487 0.98400196 0.05181970
vn 0.44497270 -0.89146026 -0.08542779
vn -0.84084731 -0.41751902 -0.34446142
vn 0.18271825 -0.98150740 -0.05707240
vn -0.12560154 -0.98704641 0.09981805
vn 0.92275482 0.35347571 0.15355279
vn 0.60583561 0.49906148 0.61959734
vn -0.60588214 0.49891459 -0.61967012
vn -0.92271888 0.35348897 0.15373811
vn -0.90125641 0.00503408 0.43325690
vn 0.18263560 -0.98152382 0.05705459
vn 0.99999142 0.00414038 -0.00010311
vn 0.74346334 0.65552542 0.13247142
vn 0.35774090 0.91861174 -0.16785088
vn 0.20176244 -0.97914749 0.02370888
vn -0.45973123 0.88370459 0.08782592
vn 0.44237222 -0.77148021 0.45730199
vn -0.91645075 -0.36983932 -0.15276422
vn 0.65626183 -0.70050784 -0.28037328
vn -0.84872266 0.39938311 0.34664533
vn -0.64924143 0.70852995 0.27653368
vn -0.93414522 -0.35689307 0.00021630
vn 0.62596309 0.00569375 0.77983190
vn -0.59586714 -0.52018894 -0.61183806
vn -0.18217549 0.95943477 -0.21516739
vn -0.17407933 -0.96278098 -0.20675872
vn 0.91645275 -0.36986439 -0.15269148
vn -0.11847006 0.98863374 -0.09256439
vn -0.98174355 0.00426521 -0.19016152
vn -0.75119033 -0.64630857 0.13415778
vn 0.75112032 -0.64636732 -0.13426673
vn 0.11850744 0.98862660 0.09259286
vn 0.44238547 -0.77148613 -0.45727917
vn 0.12562443 -0.98704121 -0.09984061
vn 0.49107688 0.87111624 0.00000821
vn -0.74348141 0.65550735 0.13245945
vn -0.74350883 0.65546983 -0.13249119
vn -0.18268321 -0.98151408 -0.05706965
vn -0.18644667 0.98224218 -0.02092701
vn -0.17043255 0.98400583 -0.05181959
vn 0.44492459 -0.89148134 0.08545836
vn -0.77986543 -0.62594720 -0.00001609
vn 0.34445874 -0.92463311 0.16248624
vn -0.45969809 0.88372865 -0.08775730
vn -0.17409858 -0.96278734 0.20671289
vn -0.12561187 -0.98704183 -0.09985030
vn -0.44234267 -0.77149164 -0.45731129
vn 0.11848318 0.98863282 -0.09255745
vn 0.45969014 0.88373454 -0.08773956
vn -0.34449515 -0.92462327 0.16246506
vn 0.93413437 -0.35692152 0.00002888
vn 0.90123892 0.00513884 0.43329206
vn 0.94007313 0.34097289 0.00002153
vn 0.84089161 -0.41750859 -0.34436590
vn 0.17049495 0.98399389 0.05184100
vn -0.90125138 0.00498856 -0.43326788
vn -0.84091765 -0.41743782 0.34438811
vn -0.59602281 -0.52005201 0.61180285
vn 0.18747655 0.98226908 -0.00002511
vn 0.35772180 0.91861597 0.16786844
f 97//97 46//46 96//96
f 97//97 96//96 48//48
f 37//37 97//97 48//48
f 37//37 48//48 143//143
f 128//128 37//37 143//143
f 128//128 143//143 40//40
f 75//75 128//128 40//40
f 75//75 40//40 69//69
f 102//102 75//75 69//69
f 102//102 69//69 106//106
f 50//50 102//102 106//106
f 50//50 106//106 65//65
f 99//99 50//50 65//65
f 99//99 65//65 58//58
f 19//19 99//99 58//58
f 19//19 58//58 82//82
f 96//96 46//46 19//19
f 82//82 96//96 19//19
f 70//70 136//136 46//46
f 70//70 46//46 97//97
f 139//139 70//70 97//97
f 139//139 97//97 37//37
f 34//34 139//139 37//37
f 34//34 37//37 128//128
f 28//28 34//34 128//128
f 28//28 128//128 75//75
f 87//87 28//28 75//75
f 87//87 75//75 102//102
f 49//49 87//87 102//102
f 49//49 102//102 50//50
f 95//95 49//49 50//50
f 95//95 50//50 99//99
f 62//62 95//95 99//99
f 62//62 99//99 19//19
f 62//62 46//46 136//136
f 62//62 19//19 46//46
f 31//31 107//107 136//136
f 31//31 136//136 70//70
f 116//116 31//31 70//70
f 116//116 70//70 139//139
f 109//109 116//116 139//139
f 109//109 139//139 34//34
f 92//92 109//109 34//34
f 92//92 34//34 28//28
f 108//108 92//92 28//28
f 108//108 28//28 87//87
f 110//110 108//108 87//87
f 110//110 87//87 49//49
f 61//61 110//110 49//49
f 61//61 49//49 95//95
f 101//101 61//61 95//95
f 101//101 95//95 62//62
f 101//101 136//136 107//107
f 101//101 62//62 136//136
f 1//1 16//16 107//107
f 1//1 107//107 31//31
f 17//17 1//1 31//31
f 17//17 31//31 116//116
f 14//14 17//17 116//116
f 14//14 116//116 109//109
f 9//9 14//14 109//109
f 9//9 109//109 92//92
f 4//4 9//9 92//92
f 4//4 92//92 108//108
f 6//6 4//4 108//108
f 6//6 108//108 110//110
f 11//11 6//6 110//110
f 11//11 110//110 61//61
f 8//8 11//11 61//61
f 8//8 61//61 101//101
f 8//8 107//107 16//16
f 8//8 101//101 107//107
f 26//26 80//80 16//16
f 26//26 16//16 1//1
f 73//73 26//26 1//1
f 73//73 1//1 17//17
f 29//29 73//73 17//17
f 29//29 17//17 14//14
f 57//57 29//29 14//14
f 57//57 14//14 9//9
f 78//78 57//57 9//9
f 78//78 9//9 4//4
f 77//77 78//78 4//4
f 77//77 4//4 6//6
f 89//89 77//77 6//6
f 89//89 6//6 11//11
f 45//45 89//89 11//11
f 45//45 11//11 8//8
f 45//45 16//16 80//80
f 45//45 8//8 16//16
f 105//105 94//94 80//80
f 105//105 80//80 26//26
f 85//85 105//105 26//26
f 85//85 26//26 73//73
f 98//98 85//85 73//73
f 98//98 73//73 29//29
f 71//71 98//98 29//29
f 71//71 29//29 57//57
f 138//138 71//71 57//57
f 138//138 57//57 78//78
f 39//39 138//138 78//78
f 39//39 78//78 77//77
f 83//83 39//39 77//77
f 83//83 77//77 89//89
f 32//32 83//83 89//89
f 32//32 89//89 45//45
f 32//32 80//80 94//94
f 32//32 45//45 80//80
f 120//120 74//74 94//94
f 120//120 94//94 105//105
f 84//84 120//120 105//105
f 84//84 105//105 85//85
f 133//133 84//84 85//85
f 133//133 85//85 98//98
f 44//44 133//133 98//98
f 44//44 98//98 71//71
f 111//111 44//44 71//71
f 111//111 71//71 138//138
f 86//86 111//111 138//138
f 86//86 138//138 39//39
f 33//33 86//86 39//39
f 33//33 39//39 83//83
f 114//114 33//33 83//83
f 114//114 83//83 32//32
f 114//114 94//94 74//74
f 114//114 32//32 94//94
f 72//72 67//67 74//74
f 72//72 74//74 120//120
f 64//64 72//72 120//120
f 64//64 120//120 84//84
f 119//119 64//64 84//84
f 119//119 84//84 133//133
f 137//137 119//119 133//133
f 137//137 133//133 44//44
f 135//135 137//137 44//44
f 135//135 44//44 111//111
f 54//54 135//135 111//111
f 54//54 111//111 86//86
f 60//60 54//54 86//86
f 60//60 86//86 33//33
f 126//126 60//60 33//33
f 126//126 33//33 114//114
f 126//126 74//74 67//67
f 126//126 114//114 74//74
f 121//121 113//113 67//67
f 121//121 67//67 72//72
f 123//123 121//121 72//72
f 123//123 72//72 64//64
f 35//35 123//123 64//64
f 35//35 64//64 119//119
f 90//90 35//35 119//119
f 90//90 119//119 137//137
f 23//23 90//90 137//137
f 23//23 137//137 135//135
f 125//125 23//23 135//135
f 125//125 135//135 54//54
f 24//24 125//125 54//54
f 24//24 54//54 60//60
f 56//56 24//24 60//60
f 56//56 60//60 126//126
f 56//56 67//67 113//113
f 56//56 126//126 67//67
f 21//21 140//140 113//113
f 21//21 113//113 121//121
f 124//124 21//21 121//121
f 124//124 121//121 123//123
f 144//144 124//124 123//123
f 144//144 123//123 35//35
f 22//22 144//144 35//35
f 22//22 35//35 90//90
f 79//79 22//22 90//90
f 79//79 90//90 23//23
f 127//127 79//79 23//23
f 127//127 23//23 125//125
f 122//122 127//127 125//125
f 122//122 125//125 24//24
f 55//55 122//122 24//24
f 55//55 24//24 56//56
f 55//55 113//113 140//140
f 55//55 56//56 113//113
f 63//63 81//81 140//140
f 63//63 140//140 21//21
f 112//112 63//63 21//21
f 112//112 21//21 124//124
f 66//66 112//112 124//124
f 66//66 124//124 144//144
f 91//91 66//66 144//144
f 91//91 144//144 22//22
f 27//27 91//91 22//22
f 27//27 22//22 79//79
f 25//25 27//27 79//79
f 25//25 79//79 127//127
f 130//130 25//25 127//127
f 130//130 127//127 122//122
f 131//131 130//130 122//122
f 131//131 122//122 55//55
f 131//131 140//140 81//81
f 131//131 55//55 140//140
f 2//2 15//15 81//81
f 2//2 81//81 63//63
f 18//18 2//2 63//63
f 18//18 63//63 112//112
f 13//13 18//18 112//112
f 13//13 112//112 66//66
f 10//10 13//13 66//66
f 10//10 66//66 91//91
f 3//3 10//10 91//91
f 3//3 91//91 27//27
f 5//5 3//3 27//27
f 5//5 27//27 25//25
f 12//12 5//5 25//25
f 12//12 25//25 130//130
f 7//7 12//12 130//130
f 7//7 130//130 131//131
f 7//7 81//81 15//15
f 7//7 131//131 81//81
f 43//43 30//30 15//15
f 43//43 15//15 2//2
f 132//132 43//43 2//2
f 132//132 2//2 18//18
f 41//41 132//132 18//18
f 41//41 18//18 13//13
f 59//59 41//41 13//13
f 59//59 13//13 10//10
f 142//142 59//59 10//10
f 142//142 10//10 3//3
f 129//129 142//142 3//3
f 129//129 3//3 5//5
f 118//118 129//129 5//5
f 118//118 5//5 12//12
f 117//117 118//118 12//12
f 117//117 12//12 7//7
f 117//117 15//15 30//30
f 117//117 7//7 15//15
f 53//53 68//68 30//30
f 53//53 30//30 43//43
f 38//38 53//53 43//43
f 38//38 43//43 132//132
f 76//76 38//38 132//132
f 76//76 132//132 41//41
f 104//104 76//76 41//41
f 104//104 41//41 59//59
f 141//141 104//104 59//59
f 141//141 59//59 142//142
f 134//134 141//141 142//142
f 134//134 142//142 129//129
f 88//88 134//134 129//129
f 88//88 129//129 118//118
f 103//103 88//88 118//118
f 103//103 118//118 117//117
f 103//103 30//30 68//68
f 103//103 117//117 30//30
f 42//42 47//47 68//68
f 42//42 68//68 53//53
f 52//52 42//42 53//53
f 52//52 53//53 38//38
f 100//100 52//52 38//38
f 100//100 38//38 76//76
f 93//93 100//100 76//76
f 93//93 76//76 104//104
f 36//36 93//93 104//104
f 36//36 104//104 141//141
f 51//51 36//36 141//141
f 51//51 141//141 134//134
f 20//20 51//51 134//134
f 20//20 134//134 88//88
f 115//115 20//20 88//88
f 115//115 88//88 103//103
f 115//115 68//68 47//47
f 115//115 103//103 68//68
f 47//47 42//42 96//96
f 42//42 48//48 96//96
f 96//96 115//115 47//47
f 96//96 82//82 115//115
f 42//42 52//52 48//48
f 52//52 143//143 48//48
f 52//52 100//100 143//143
f 100//100 40//40 143//143
f 100//100 93//93 40//40
f 93//93 69//69 40//40
f 93//93 36//36 69//69
f 36//36 106//106 69//69
f 36//36 51//51 106//106
f 51//51 65//65 106//106
f 51//51 20//20 65//65
f 20//20 58//58 65//65
f 20//20 115//115 58//58
f 115//115 82//82 58//58