# https://github.com/mikedh/trimesh
v 0.00000000 0.01761065 0.69579389
v 0.00000000 0.01761065 0.02103802
v 0.00000000 -0.00965648 0.17352996
v 0.00000000 -0.00965648 0.54332561
v 0.00000000 -0.02392961 0.13351513
v 0.00000000 -0.02392961 0.58332466
v 0.00000000 -0.01734491 0.02009954
v 0.00000000 -0.01734491 0.69674886
v 0.00000000 0.00913706 0.54281371
v 0.00000000 0.00913706 0.17402608
v 0.00000000 -0.02696937 0.64397027
v 0.00000000 -0.02696937 0.07286163
v 0.00000000 0.02361410 0.13482714
v 0.00000000 0.02361410 0.58201337
v 0.00000000 -0.00004385 -0.00003585
v 0.00000000 -0.00004385 0.71687564
v 0.00000000 0.02696236 0.64248046
v 0.00000000 0.02696236 0.07436722
v 0.06802870 -0.01734491 0.48788573
v 0.05740452 -0.02696937 0.24913533
v -0.05191348 0.01761065 0.11984372
v -0.02837213 0.00913706 0.22802275
v -0.03717262 -0.00965648 0.28765246
v -0.05740967 -0.02696937 0.24912745
v -0.01872727 -0.02392961 0.15062430
v -0.02809691 0.01761065 0.67011150
v -0.01539582 -0.00965648 0.18759712
v 0.02837899 0.00913706 0.48880987
v -0.01862102 0.02361410 0.56498952
v 0.02984962 -0.00004385 0.02725321
v 0.02809863 0.01761065 0.67011150
v -0.05206201 -0.01734491 0.59763989
v -0.05741123 -0.02696937 0.46768152
v 0.03441204 0.02361410 0.51652551
v -0.04495337 0.02361410 0.27283967
v 0.03716435 -0.00965648 0.28765963
v 0.05711745 0.02696236 0.46711513
v 0.04370383 0.02696236 0.15756145
v -0.03460956 -0.02392961 0.51744105
v 0.04866644 0.02361410 0.35840054
v 0.01861759 0.02361410 0.15185027
v 0.06782432 0.01761065 0.22930322
v 0.02809348 0.01761065 0.04672112
v -0.03707308 0.00913706 0.42896293
v -0.02817633 -0.01734491 0.67098761
v 0.07207440 -0.00004385 0.49558356
v 0.07206082 -0.00004385 0.22124118
v 0.07342520 0.01761065 0.35840054
v 0.03461299 -0.02392961 0.51744893
v 0.04522360 -0.02392961 0.44447331
v 0.04521002 -0.02392961 0.27235071
v 0.05710232 0.02696236 0.24970961
v 0.05191005 0.01761065 0.11985161
v -0.04894337 -0.02392961 0.35840054
v -0.05205873 -0.01734491 0.11917624
v -0.06801856 -0.01734491 0.22893041
v -0.01535698 0.00913706 0.52876949
v 0.06214762 -0.02696937 0.35840054
v 0.01535370 0.00913706 0.18806314
v -0.06214091 -0.02696937 0.35840054
v 0.02378115 -0.02696937 0.62223682
v 0.05206544 -0.01734491 0.59765566
v -0.02809520 0.01761065 0.04671323
v -0.06181499 0.02696236 0.35840054
v 0.04895008 -0.02392961 0.35840054
v -0.01861931 0.02361410 0.15184310
v -0.07800447 -0.00004385 0.35840054
v 0.05515365 -0.00004385 0.10495422
v 0.04013602 0.00913706 0.35840054
v 0.05191847 0.01761065 0.59697313
v -0.02837556 0.00913706 0.48879410
v -0.07341849 0.01761065 0.35840054
v -0.02365618 0.02696236 0.62085598
v -0.07206769 -0.00004385 0.49558356
v 0.03707979 0.00913706 0.42897799
v 0.03440018 0.02361410 0.20031428
v -0.01873070 -0.02392961 0.56619972
v -0.01539926 -0.00965648 0.52924267
v -0.02844982 -0.00965648 0.22767360
v -0.02985133 -0.00004385 0.68958658
v -0.02985133 -0.00004385 0.02724532
v 0.07363457 -0.01734491 0.35840054
v -0.04394035 -0.02696937 0.56032580
v -0.05711074 0.02696236 0.46710724
v -0.04371069 0.02696236 0.55927117
v -0.04521845 -0.02392961 0.44446542
v 0.02845825 -0.00965648 0.48916619
v 0.04393520 -0.02696937 0.15649822
v -0.02378115 -0.02696937 0.62222893
v -0.03707136 0.00913706 0.28783815
v -0.01535370 0.00913706 0.18805525
v 0.01535698 0.00913706 0.52878454
v 0.03706465 0.00913706 0.28784603
v -0.05515880 -0.00004385 0.61187841
v 0.04394363 -0.02696937 0.56033368
v 0.07801290 -0.00004385 0.35840054
v 0.06783446 0.01761065 0.48751363
v -0.03440689 0.02361410 0.51651762
v 0.05741638 -0.02696937 0.46768869
v 0.04494495 0.02361410 0.27284756
v 0.02817633 -0.01734491 0.67099550
v 0.03718291 -0.00965648 0.42917228
v 0.05205358 -0.01734491 0.11918413
v 0.02836885 0.00913706 0.22803064
v -0.05191520 0.01761065 0.59697313
v 0.04024757 -0.00965648 0.35840054
v 0.02985305 -0.00004385 0.68959447
v 0.01540097 -0.00965648 0.52925056
v 0.01862258 0.02361410 0.56499741
v 0.01873242 -0.02392961 0.56620761
v -0.03717433 -0.00965648 0.42915651
v -0.02365446 0.02696236 0.09598453
v -0.07206597 -0.00004385 0.22123329
v -0.06802199 -0.01734491 0.48787067
v 0.06801185 -0.01734491 0.22893829
v 0.02365790 0.02696236 0.62085598
v 0.02817118 -0.01734491 0.04585218
v 0.02377772 -0.02696937 0.09460297
v -0.04865801 0.02361410 0.35840054
v -0.06782947 0.01761065 0.48751363
v -0.06782947 0.01761065 0.22929533
v -0.04393864 -0.02696937 0.15649034
v -0.05710902 0.02696236 0.24970172
v -0.04370898 0.02696236 0.15755357
v -0.04521673 -0.02392961 0.27233566
v -0.07362443 -0.01734491 0.35840054
v -0.03460613 -0.02392961 0.19937580
v 0.04496180 0.02361410 0.44397646
v 0.01872727 -0.02392961 0.15064007
v -0.02377944 -0.02696937 0.09459509
v -0.02817289 -0.01734491 0.04584430
v 0.02365275 0.02696236 0.09599169
v -0.04495509 0.02361410 0.44396929
v 0.03460285 -0.02392961 0.19939086
v -0.04023571 -0.00965648 0.35840054
v 0.05516224 -0.00004385 0.61188629
v -0.04012588 0.00913706 0.35840054
v -0.02845326 -0.00965648 0.48915113
v 0.04371569 0.02696236 0.55927906
v -0.05515709 -0.00004385 0.10494633
v 0.02844483 -0.00965648 0.22768077
v 0.01539426 -0.00965648 0.18760501
v 0.06182513 0.02696236 0.35840054
v -0.03440518 0.02361410 0.20030640
vn -0.00003691 0.86033593 0.50972746
vn 0.00006700 0.86027704 -0.50982684
vn -0.00016155 -0.74085630 0.67166355
vn 0.00016198 -0.74103103 -0.67147076
vn -0.00003315 -0.99182063 0.12763945
vn 0.00001956 -0.99181577 -0.12767723
vn 0.00005844 -0.85515760 -0.51836809
vn -0.00008599 -0.85509938 0.51846411
vn 0.00024834 0.71926794 -0.69473273
vn -0.00012980 0.71951119 0.69448083
vn -0.00002752 -0.99295682 0.11847678
vn 0.00002102 -0.99295218 -0.11851567
vn -0.00002012 0.99091852 0.13446369
vn 0.00001989 0.99091874 -0.13446211
vn 0.00006230 0.00486156 -0.99998818
vn -0.00006848 0.00500331 0.99998748
vn -0.00000637 0.99368053 0.11224528
vn 0.00002724 0.99368484 -0.11220712
vn 0.82596788 -0.55805193 0.07971889
vn 0.25077943 -0.96799435 -0.00982943
vn -0.74377111 0.64694541 -0.16812547
vn 0.92862412 0.31673928 0.19321874
vn 0.95501590 -0.28563378 0.07973688
vn -0.25078579 -0.96799301 -0.00979918
vn 0.22412797 -0.96180497 0.15715547
vn -0.56512361 0.76447051 0.31019372
vn 0.77149588 -0.47111156 0.42760730
vn -0.92865333 0.31665600 -0.19321480
vn 0.23537940 0.95805807 -0.16346641
vn 0.78904508 0.00581063 -0.61430782
vn 0.56506485 0.76452228 0.31017318
vn -0.75078990 -0.63817896 0.17041753
vn -0.25076582 -0.96799822 0.00979572
vn -0.46331329 0.87814649 -0.11916183
vn 0.56578569 0.82248079 0.05841151
vn -0.95498612 -0.28569343 0.07987975
vn 0.23199758 0.97268454 0.00786783
vn 0.22494603 0.97395300 -0.02854548
vn 0.44742597 -0.88677380 -0.11594064
vn -0.59331612 0.80496955 0.00006532
vn -0.23543215 0.95804130 0.16348874
vn 0.81904369 0.56829292 -0.07880737
vn 0.56511957 0.76447147 -0.31019871
vn 0.95895034 0.27210158 -0.07984351
vn -0.57064369 -0.75831864 0.31514856
vn 0.99435661 0.00352445 0.10603067
vn 0.99435519 0.00333327 -0.10605020
vn 0.84263684 0.53848226 -0.00004452
vn -0.44744573 -0.88676046 -0.11596642
vn -0.54982609 -0.83330875 -0.05733934
vn -0.54968375 -0.83340060 0.05736914
vn 0.23185943 0.97271737 -0.00788145
vn 0.74377518 0.64694476 -0.16810996
vn 0.57773359 -0.81622540 0.00000814
vn -0.75077615 -0.63818684 -0.17044863
vn -0.82597696 -0.55803823 -0.07972075
vn 0.78300195 0.44939091 -0.43006483
vn 0.24489796 -0.96954886 -0.00001855
vn -0.78287140 0.44958769 0.43009682
vn -0.24495221 -0.96953515 -0.00000246
vn 0.18834968 -0.97976921 0.06765130
vn 0.75076923 -0.63819473 0.17044956
vn -0.56508423 0.76448524 -0.31022917
vn -0.22463434 0.97444313 0.00000029
vn -0.57782143 -0.81616321 0.00004552
vn 0.23534922 0.95806241 0.16348448
vn -0.99999528 0.00307266 -0.00000896
vn 0.96569870 0.00439977 -0.25962795
vn -0.96503844 0.26210836 0.00012215
vn 0.74376373 0.64695704 0.16811334
vn 0.92866834 0.31664948 -0.19315334
vn -0.84262289 0.53850409 -0.00000428
vn -0.17893281 0.98187319 0.06251464
vn -0.99435723 0.00343744 0.10602771
vn -0.95896037 0.27205408 -0.07988484
vn -0.46338473 0.87811052 0.11914910
vn 0.22429174 -0.96175888 -0.15720392
vn 0.77155476 -0.47114191 -0.42746761
vn 0.92319739 -0.33238167 0.19294818
vn -0.78902342 0.00590905 0.61433470
vn -0.78897136 0.00580378 -0.61440256
vn 0.84928736 -0.52793084 -0.00005819
vn -0.24032361 -0.97016122 0.03212114
vn -0.23196228 0.97269305 0.00785733
vn -0.22499639 0.97394116 0.02855249
vn 0.54975358 -0.83335801 -0.05731861
vn -0.92319585 -0.33237918 -0.19295984
vn 0.24038543 -0.97014550 -0.03213341
vn -0.18837334 -0.97976516 0.06764406
vn 0.95893882 0.27212800 0.07989179
vn 0.78276916 0.44965201 0.43021565
vn -0.78283331 0.44951035 -0.43024697
vn -0.95892131 0.27215792 0.07999986
vn -0.96569253 0.00447072 0.25964967
vn 0.24028896 -0.97016975 0.03212269
vn 0.99999501 0.00315949 -0.00005477
vn 0.81906080 0.56827341 0.07877022
vn 0.46334045 0.87813446 -0.11914484
vn 0.25072338 -0.96800922 0.00979500
vn -0.56579944 0.82246916 0.05844211
vn 0.57057307 -0.75836381 0.31516775
vn -0.95502532 -0.28559792 -0.07975258
vn 0.75077280 -0.63819560 -0.17043056
vn -0.92864624 0.31670953 0.19316116
vn -0.74378645 0.64693369 0.16810268
vn -0.96138870 -0.27519403 0.00011358
vn 0.78896926 0.00597255 0.61440364
vn -0.77147491 -0.47115593 -0.42759625
vn -0.23532177 0.95806953 -0.16348221
vn -0.22421453 -0.96177738 -0.15720085
vn 0.95501860 -0.28563168 -0.07971208
vn -0.17886353 0.98188685 -0.06249837
vn -0.99435761 0.00337469 -0.10602621
vn -0.82598568 -0.55802955 0.07969111
vn 0.82595286 -0.55806907 -0.07975448
vn 0.17891377 0.98187652 0.06251689
vn 0.57058588 -0.75836200 -0.31514890
vn 0.18840199 -0.97975857 -0.06765972
vn 0.59331754 0.80496851 0.00000513
vn -0.81906407 0.56826990 0.07876142
vn -0.81907421 0.56825274 -0.07877980
vn -0.24034528 -0.97015551 -0.03213156
vn -0.23192539 0.97270183 -0.00785930
vn -0.22497342 0.97394646 -0.02855264
vn 0.54970969 -0.83338534 0.05734221
vn -0.84929641 -0.52791629 -0.00000899
vn 0.44733373 -0.88681937 0.11594799
vn -0.56578812 0.82247939 -0.05840761
vn -0.22425307 -0.96177412 0.15716587
vn -0.18839295 -0.97975969 -0.06766872
vn -0.57054452 -0.75837955 -0.31518154
vn 0.17887514 0.98188524 -0.06249051
vn 0.56578099 0.82248512 -0.05839607
vn -0.44737410 -0.88680103 0.11593253
vn 0.96137182 -0.27525300 0.00001557
vn 0.96568544 0.00456621 0.25967436
vn 0.96501869 0.26218111 0.00001135
vn 0.92321177 -0.33237031 -0.19289895
vn 0.22504819 0.97392886 0.02856369
vn -0.96569041 0.00443169 -0.25965823
vn -0.92322769 -0.33232421 0.19290218
vn -0.77162222 -0.47098933 0.42751398
vn 0.22474596 0.97441739 -0.00001401
vn 0.46332043 0.87814312 0.11915890
f 97//97 46//46 96//96
f 97//97 96//96 48//48
f 37//37 97//97 48//48
f 37//37 48//48 143//143
f 128//128 37//37 143//143
f 128//128 143//143 40//40
f 75//75 128//128 40//40
f 75//75 40//40 69//69
f 102//102 75//75 69//69
f 102//102 69//69 106//106
f 50//50 102//102 106//106
f 50//50 106//106 65//65
f 99//99 50//50 65//65
f 99//99 65//65 58//58
f 19//19 99//99 58//58
f 19//19 58//58 82//82
f 96//96 46//46 19//19
f 82//82 96//96 19//19
f 70//70 136//136 46//46
f 70//70 46//46 97//97
f 139//139 70//70 97//97
f 139//139 97//97 37//37
f 34//34 139//139 37//37
f 34//34 37//37 128//128
f 28//28 34//34 128//128
f 28//28 128//128 75//75
f 87//87 28//28 75//75
f 87//87 75//75 102//102
f 49//49 87//87 102//102
f 49//49 102//102 50//50
f 95//95 49//49 50//50
f 95//95 50//50 99//99
f 62//62 95//95 99//99
f 62//62 99//99 19//19
f 62//62 46//46 136//136
f 62//62 19//19 46//46
f 31//31 107//107 136//136
f 31//31 136//136 70//70
f 116//116 31//31 70//70
f 116//116 70//70 139//139
f 109//109 116//116 139//139
f 109//109 139//139 34//34
f 92//92 109//109 34//34
f 92//92 34//34 28//28
f 108//108 92//92 28//28
f 108//108 28//28 87//87
f 110//110 108//108 87//87
f 110//110 87//87 49//49
f 61//61 110//110 49//49
f 61//61 49//49 95//95
f 101//101 61//61 95//95
f 101//101 95//95 62//62
f 101//101 136//136 107//107
f 101//101 62//62 136//136
f 1//1 16//16 107//107
f 1//1 107//107 31//31
f 17//17 1//1 31//31
f 17//17 31//31 116//116
f 14//14 17//17 116//116
f 14//14 116//116 109//109
f 9//9 14//14 109//109
f 9//9 109//109 92//92
f 4//4 9//9 92//92
f 4//4 92//92 108//108
f 6//6 4//4 108//108
f 6//6 108//108 110//110
f 11//11 6//6 110//110
f 11//11 110//110 61//61
f 8//8 11//11 61//61
f 8//8 61//61 101//101
f 8//8 107//107 16//16
f 8//8 101//101 107//107
f 26//26 80//80 16//16
f 26//26 16//16 1//1
f 73//73 26//26 1//1
f 73//73 1//1 17//17
f 29//29 73//73 17//17
f 29//29 17//17 14//14
f 57//57 29//29 14//14
f 57//57 14//14 9//9
f 78//78 57//57 9//9
f 78//78 9//9 4//4
f 77//77 78//78 4//4
f 77//77 4//4 6//6
f 89//89 77//77 6//6
f 89//89 6//6 11//11
f 45//45 89//89 11//11
f 45//45 11//11 8//8
f 45//45 16//16 80//80
f 45//45 8//8 16//16
f 105//105 94//94 80//80
f 105//105 80//80 26//26
f 85//85 105//105 26//26
f 85//85 26//26 73//73
f 98//98 85//85 73//73
f 98//98 73//73 29//29
f 71//71 98//98 29//29
f 71//71 29//29 57//57
f 138//138 71//71 57//57
f 138//138 57//57 78//78
f 39//39 138//138 78//78
f 39//39 78//78 77//77
f 83//83 39//39 77//77
f 83//83 77//77 89//89
f 32//32 83//83 89//89
f 32//32 89//89 45//45
f 32//32 80//80 94//94
f 32//32 45//45 80//80
f 120//120 74//74 94//94
f 120//120 94//94 105//105
f 84//84 120//120 105//105
f 84//84 105//105 85//85
f 133//133 84//84 85//85
f 133//133 85//85 98//98
f 44//44 133//133 98//98
f 44//44 98//98 71//71
f 111//111 44//44 71//71
f 111//111 71//71 138//138
f 86//86 111//111 138//138
f 86//86 138//138 39//39
f 33//33 86//86 39//39
f 33//33 39//39 83//83
f 114//114 33//33 83//83
f 114//114 83//83 32//32
f 114//114 94//94 74//74
f 114//114 32//32 94//94
f 72//72 67//67 74//74
f 72//72 74//74 120//120
f 64//64 72//72 120//120
f 64//64 120//120 84//84
f 119//119 64//64 84//84
f 119//119 84//84 133//133
f 137//137 119//119 133//133
f 137//137 133//133 44//44
f 135//135 137//137 44//44
f 135//135 44//44 111//111
f 54//54 135//135 111//111
f 54//54 111//111 86//86
f 60//60 54//54 86//86
f 60//60 86//86 33//33
f 126//126 60//60 33//33
f 126//126 33//33 114//114
f 126//126 74//74 67//67
f 126//126 114//114 74//74
f 121//121 113//113 67//67
f 121//121 67//67 72//72
f 123//123 121//121 72//72
f 123//123 72//72 64//64
f 35//35 123//123 64//64
f 35//35 64//64 119//119
f 90//90 35//35 119//119
f 90//90 119//119 137//137
f 23//23 90//90 137//137
f 23//23 137//137 135//135
f 125//125 23//23 135//135
f 125//125 135//135 54//54
f 24//24 125//125 54//54
f 24//24 54//54 60//60
f 56//56 24//24 60//60
f 56//56 60//60 126//126
f 56//56 67//67 113//113
f 56//56 126//126 67//67
f 21//21 140//140 113//113
f 21//21 113//113 121//121
f 124//124 21//21 121//121
f 124//124 121//121 123//123
f 144//144 124//124 123//123
f 144//144 123//123 35//35
f 22//22 144//144 35//35
f 22//22 35//35 90//90
f 79//79 22//22 90//90
f 79//79 90//90 23//23
f 127//127 79//79 23//23
f 127//127 23//23 125//125
f 122//122 127//127 125//125
f 122//122 125//125 24//24
f 55//55 122//122 24//24
f 55//55 24//24 56//56
f 55//55 113//113 140//140
f 55//55 56//56 113//113
f 63//63 81//81 140//140
f 63//63 140//140 21//21
f 112//112 63//63 21//21
f 112//112 21//21 124//124
f 66//66 112//112 124//124
f 66//66 124//124 144//144
f 91//91 66//66 144//144
f 91//91 144//144 22//22
f 27//27 91//91 22//22
f 27//27 22//22 79//79
f 25//25 27//27 79//79
f 25//25 79//79 127//127
f 130//130 25//25 127//127
f 130//130 127//127 122//122
f 131//131 130//130 122//122
f 131//131 122//122 55//55
f 131//131 140//140 81//81
f 131//131 55//55 140//140
f 2//2 15//15 81//81
f 2//2 81//81 63//63
f 18//18 2//2 63//63
f 18//18 63//63 112//112
f 13//13 18//18 112//112
f 13//13 112//112 66//66
f 10//10 13//13 66//66
f 10//10 66//66 91//91
f 3//3 10//10 91//91
f 3//3 91//91 27//27
f 5//5 3//3 27//27
f 5//5 27//27 25//25
f 12//12 5//5 25//25
f 12//12 25//25 130//130
f 7//7 12//12 130//130
f 7//7 130//130 131//131
f 7//7 81//81 15//15
f 7//7 131//131 81//81
f 43//43 30//30 15//15
f 43//43 15//15 2//2
f 132//132 43//43 2//2
f 132//132 2//2 18//18
f 41//41 132//132 18//18
f 41//41 18//18 13//13
f 59//59 41//41 13//13
f 59//59 13//13 10//10
f 142//142 59//59 10//10
f 142//142 10//10 3//3
f 129//129 142//142 3//3
f 129//129 3//3 5//5
f 118//118 129//129 5//5
f 118//118 5//5 12//12
f 117//117 118//118 12//12
f 117//117 12//12 7//7
f 117//117 15//15 30//30
f 117//117 7//7 15//15
f 53//53 68//68 30//30
f 53//53 30//30 43//43
f 38//38 53//53 43//43
f 38//38 43//43 132//132
f 76//76 38//38 132//132
f 76//76 132//132 41//41
f 104//104 76//76 41//41
f 104//104 41//41 59//59
f 141//141 104//104 59//59
f 141//141 59//59 142//142
f 134//134 141//141 142//142
f 134//134 142//142 129//129
f 88//88 134//134 129//129
f 88//88 129//129 118//118
f 103//103 88//88 118//118
f 103//103 118//118 117//117
f 103//103 30//30 68//68
f 103//103 117//117 30//30
f 42//42 47//47 68//68
f 42//42 68//68 53//53
f 52//52 42//42 53//53
f 52//52 53//53 38//38
f 100//100 52//52 38//38
f 100//100 38//38 76//76
f 93//93 100//100 76//76
f 93//93 76//76 104//104
f 36//36 93//93 104//104
f 36//36 104//104 141//141
f 51//51 36//36 141//141
f 51//51 141//141 134//134
f 20//20 51//51 134//134
f 20//20 134//134 88//88
f 115//115 20//20 88//88
f 115//115 88//88 103//103
f 115//115 68//68 47//47
f 115//115 103//103 68//68
f 47//47 42//42 96//96
f 42//42 48//48 96//96
f 96//96 115//115 47//47
f 96//96 82//82 115//115
f 42//42 52//52 48//48
f 52//52 143//143 48//48
f 52//52 100//100 143//143
f 100//100 40//40 143//143
f 100//100 93//93 40//40
f 93//93 69//69 40//40
f 93//93 36//36 69//69
f 36//36 106//106 69//69
f 36//36 51//51 106//106
f 51//51 65//65 106//106
f 51//51 20//20 65//65
f 20//20 58//58 65//65
f 20//20 115//115 58//58
f 115//115 82//82 58//58