# https://github.com/mikedh/trimesh
v 0.00000000 0.01086380 0.35994436
v 0.00000000 0.01086380 0.01088327
v 0.00000000 -0.00595696 0.08976958
v 0.00000000 -0.00595696 0.28107029
v 0.00000000 -0.01476189 0.06906933
v 0.00000000 -0.01476189 0.30176238
v 0.00000000 -0.01069987 0.01039779
v 0.00000000 -0.01069987 0.36043838
v 0.00000000 0.00563654 0.28080547
v 0.00000000 0.00563654 0.09002624
v 0.00000000 -0.01663708 0.33313524
v 0.00000000 -0.01663708 0.03769239
v 0.00000000 0.01456725 0.06974805
v 0.00000000 0.01456725 0.30108403
v 0.00000000 -0.00002705 -0.00001854
v 0.00000000 -0.00002705 0.37085025
v 0.00000000 0.01663275 0.33236454
v 0.00000000 0.01663275 0.03847125
v 0.10348034 -0.01069987 0.25239042
v 0.08731960 -0.01663708 0.12888135
v -0.07896703 0.01086380 0.06199691
v -0.04315763 0.00563654 0.11795951
v -0.05654429 -0.00595696 0.14880682
v -0.08732744 -0.01663708 0.12887727
v -0.02848657 -0.01476189 0.07792015
v -0.04273899 0.01086380 0.34665848
v -0.02341901 -0.00595696 0.09704674
v 0.04316807 0.00563654 0.25286850
v -0.02832495 0.01456725 0.29227734
v 0.04540507 -0.00002705 0.01409848
v 0.04274160 0.01086380 0.34665848
v -0.07919296 -0.01069987 0.30916786
v -0.08732981 -0.01663708 0.24193849
v 0.05234510 0.01456725 0.26720620
v -0.06837982 0.01456725 0.14114395
v 0.05653172 -0.00595696 0.14881053
v 0.08688293 0.01663275 0.24164549
v 0.06647910 0.01663275 0.08150884
v -0.05264556 -0.01476189 0.26767982
v 0.07402787 0.01456725 0.18540584
v 0.02831973 0.01456725 0.07855437
v 0.10316945 0.01086380 0.11862191
v 0.04273377 0.01086380 0.02416952
v -0.05639288 0.00563654 0.22190880
v -0.04285979 -0.01069987 0.34711171
v 0.10963436 -0.00002705 0.25637263
v 0.10961371 -0.00002705 0.11445130
v 0.11168910 0.01086380 0.18540584
v 0.05265078 -0.01476189 0.26768390
v 0.06879086 -0.01476189 0.22993254
v 0.06877022 -0.01476189 0.14089101
v 0.08685991 0.01663275 0.12917843
v 0.07896181 0.01086380 0.06200099
v -0.07444911 -0.01476189 0.18540584
v -0.07918798 -0.01069987 0.06165161
v -0.10346491 -0.01069987 0.11842905
v -0.02335992 0.00563654 0.27354019
v 0.09453446 -0.01663708 0.18540584
v 0.02335494 0.00563654 0.09728781
v -0.09452425 -0.01663708 0.18540584
v 0.03617417 -0.01663708 0.32189221
v 0.07919818 -0.01069987 0.30917602
v -0.04273638 0.01086380 0.02416544
v -0.09402848 0.01663275 0.18540584
v 0.07445932 -0.01476189 0.18540584
v -0.02832234 0.01456725 0.07855066
v -0.11865476 -0.00002705 0.18540584
v 0.08389575 -0.00002705 0.05429435
v 0.06105200 0.00563654 0.18540584
v 0.07897462 0.01086380 0.30882293
v -0.04316285 0.00563654 0.25286034
v -0.11167889 0.01086380 0.18540584
v -0.03598407 0.01663275 0.32117788
v -0.10962415 -0.00002705 0.25637263
v 0.05640309 0.00563654 0.22191659
v 0.05232707 0.01456725 0.10362551
v -0.02849179 -0.01476189 0.29290340
v -0.02342424 -0.00595696 0.27378497
v -0.04327581 -0.00595696 0.11777888
v -0.04540768 -0.00002705 0.35673323
v -0.04540768 -0.00002705 0.01409440
v 0.11200758 -0.01069987 0.18540584
v -0.06683888 -0.01663708 0.28986473
v -0.08687273 0.01663275 0.24164141
v -0.06648954 0.01663275 0.28931916
v -0.06878303 -0.01476189 0.22992846
v 0.04328863 -0.00595696 0.25305283
v 0.06683105 -0.01663708 0.08095882
v -0.03617417 -0.01663708 0.32188813
v -0.05639027 0.00563654 0.14890288
v -0.02335494 0.00563654 0.09728373
v 0.02335992 0.00563654 0.27354798
v 0.05638007 0.00563654 0.14890696
v -0.08390358 -0.00002705 0.31653365
v 0.06684387 -0.01663708 0.28986881
v 0.11866757 -0.00002705 0.18540584
v 0.10318487 0.01086380 0.25219793
v -0.05233727 0.01456725 0.26720212
v 0.08733764 -0.01663708 0.24194220
v 0.06836700 0.01456725 0.14114803
v 0.04285979 -0.01069987 0.34711578
v 0.05655996 -0.00595696 0.22201710
v 0.07918014 -0.01069987 0.06165569
v 0.04315264 0.00563654 0.11796359
v -0.07896964 0.01086380 0.30882293
v 0.06122169 -0.00595696 0.18540584
v 0.04541030 -0.00002705 0.35673731
v 0.02342685 -0.00595696 0.27378905
v 0.02832732 0.01456725 0.29228142
v 0.02849440 -0.01476189 0.29290748
v -0.05654691 -0.00595696 0.22200894
v -0.03598146 0.01663275 0.04965420
v -0.10962154 -0.00002705 0.11444722
v -0.10347013 -0.01069987 0.25238264
v 0.10345471 -0.01069987 0.11843313
v 0.03598668 0.01663275 0.32117788
v 0.04285196 -0.01069987 0.02372001
v 0.03616895 -0.01663708 0.04893950
v -0.07401505 0.01456725 0.18540584
v -0.10317728 0.01086380 0.25219793
v -0.10317728 0.01086380 0.11861783
v -0.06683627 -0.01663708 0.08095474
v -0.08687011 0.01663275 0.12917435
v -0.06648693 0.01663275 0.08150476
v -0.06878042 -0.01476189 0.14088322
v -0.11199216 -0.01069987 0.18540584
v -0.05264033 -0.01476189 0.10314002
v 0.06839264 0.01456725 0.22967552
v 0.02848657 -0.01476189 0.07792831
v -0.03617156 -0.01663708 0.04893542
v -0.04285457 -0.01069987 0.02371593
v 0.03597885 0.01663275 0.04965791
v -0.06838243 0.01456725 0.22967181
v 0.05263535 -0.01476189 0.10314781
v -0.06120365 -0.00595696 0.18540584
v 0.08390880 -0.00002705 0.31653773
v -0.06103658 0.00563654 0.18540584
v -0.04328103 -0.00595696 0.25304504
v 0.06649714 0.01663275 0.28932324
v -0.08390097 -0.00002705 0.05429027
v 0.04326822 -0.00595696 0.11778259
v 0.02341664 -0.00595696 0.09705082
v 0.09404391 0.01663275 0.18540584
v -0.05233466 0.01456725 0.10362143
vn -0.00001560 0.85690020 0.51548234
vn 0.00002787 0.85685531 -0.51555696
vn -0.00008182 -0.61412446 0.78920919
vn 0.00009442 -0.61432990 -0.78904928
vn -0.00002265 -0.98030522 0.19748841
vn 0.00001278 -0.98029291 -0.19754951
vn 0.00002348 -0.85144883 -0.52443769
vn -0.00003638 -0.85139971 0.52451743
vn 0.00012632 0.59042317 -0.80709384
vn -0.00006779 0.59070013 0.80689117
vn -0.00000806 -0.99467693 0.10304278
vn 0.00000437 -0.99467272 -0.10308335
vn -0.00001293 0.97850391 0.20622825
vn 0.00001659 0.97850536 -0.20622138
vn 0.00003913 0.00562916 -0.99998416
vn -0.00004486 0.00579910 0.99998318
vn -0.00000186 0.99539461 0.09586225
vn 0.00000757 0.99539830 -0.09582393
vn 0.60443066 -0.78045232 0.15986792
vn 0.12823596 -0.99133212 -0.02856860
vn -0.49191871 0.81256438 -0.31265815
vn 0.72319854 0.51573673 0.45934681
vn 0.83474443 -0.50542980 0.21850047
vn -0.12824973 -0.99133107 -0.02854326
vn 0.11160366 -0.97582282 0.18792137
vn -0.29464225 0.84230442 0.45134158
vn 0.43862010 -0.58550156 0.68176267
vn -0.72327821 0.51559048 -0.45938555
vn 0.11669509 0.97365068 -0.19592499
vn 0.50254908 0.00575341 -0.86452954
vn 0.29458342 0.84235634 0.45128306
vn -0.49914147 -0.80616110 0.31774530
vn -0.12823970 -0.99133254 0.02853713
vn -0.22574798 0.96167150 -0.15564631
vn 0.30125674 0.94968868 0.08564920
vn -0.83470222 -0.50535687 0.21883018
vn 0.11836264 0.99263216 0.02591697
vn 0.10049227 0.99344053 -0.05456392
vn 0.21670264 -0.96468469 -0.14974451
vn -0.32769713 0.94478282 0.00010081
vn -0.11672027 0.97364223 0.19595201
vn 0.59584934 0.78752022 -0.15740227
vn 0.29463195 0.84229651 -0.45136305
vn 0.84615902 0.48499140 -0.22090327
vn -0.29914814 -0.83653789 0.45903677
vn 0.96112548 0.00589249 0.27604906
vn 0.96110260 0.00556928 -0.27613542
vn 0.62828953 0.77797960 -0.00008813
vn -0.21672106 -0.96467441 -0.14978403
vn -0.28998869 -0.95345456 -0.08264957
vn -0.28988312 -0.95348205 0.08270279
vn 0.11826892 0.99264333 -0.02591685
vn 0.49192647 0.81256853 -0.31263515
vn 0.31568313 -0.94886467 0.00001212
vn -0.49911749 -0.80615583 -0.31779634
vn -0.60439089 -0.78048428 -0.15986225
vn 0.44850855 0.56238045 -0.69467137
vn 0.13349495 -0.99104949 -0.00003062
vn -0.44837989 0.56263222 0.69455055
vn -0.13351692 -0.99104653 -0.00000413
vn 0.06589963 -0.99385098 0.08898014
vn 0.49913876 -0.80613649 0.31781199
vn -0.29460377 0.84229638 -0.45138169
vn -0.12282853 0.99242791 -0.00000065
vn -0.31576189 -0.94883846 0.00007113
vn 0.11668718 0.97364675 0.19594923
vn -0.99998448 0.00557203 -0.00002508
vn 0.81907998 0.00577089 -0.57365031
vn -0.87993224 0.47509909 0.00033300
vn 0.49185953 0.81262471 0.31259444
vn 0.72332562 0.51564002 -0.45925529
vn -0.62831079 0.77796244 -0.00001027
vn -0.06165092 0.99468951 0.08241326
vn -0.96112902 0.00575047 0.27603973
vn -0.84619056 0.48488275 -0.22102093
vn -0.22579453 0.96166095 0.15564397
vn 0.11167548 -0.97580461 -0.18797328
vn 0.43868194 -0.58565620 -0.68159003
vn 0.71144306 -0.53722981 0.45302639
vn -0.50251351 0.00585534 0.86454953
vn -0.50249445 0.00575081 -0.86456131
vn 0.63726746 -0.77064270 -0.00012919
vn -0.10822515 -0.99234372 0.05950842
vn -0.11834152 0.99263511 0.02590011
vn -0.10052061 0.99343694 0.05457704
vn 0.28991524 -0.95348047 -0.08260840
vn -0.71139719 -0.53730707 -0.45300680
vn 0.10825815 -0.99233902 -0.05952678
vn -0.06591242 -0.99385032 0.08897808
vn 0.84610260 0.48503985 0.22101300
vn 0.44825836 0.56261748 0.69464093
vn -0.44830880 0.56243074 -0.69475959
vn -0.84603901 0.48503663 0.22126334
vn -0.81905571 0.00587477 0.57368391
vn 0.10820313 -0.99234615 0.05950796
vn 0.99998359 0.00572647 -0.00015330
vn 0.59580134 0.78757827 0.15729348
vn 0.22576495 0.96166994 -0.15563132
vn 0.12820960 -0.99133649 0.02853532
vn -0.30130571 0.94966614 0.08572681
vn 0.29907693 -0.83656764 0.45902895
vn -0.83471693 -0.50546738 -0.21851860
vn 0.49908707 -0.80619238 -0.31775138
vn -0.72325421 0.51576588 0.45922642
vn -0.49191355 0.81258728 0.31260674
vn -0.86871545 -0.49531139 0.00031779
vn 0.50247164 0.00590739 0.86457351
vn -0.43858861 -0.58559576 -0.68170202
vn -0.11667621 0.97364841 -0.19594753
vn -0.11164619 -0.97580730 -0.18797669
vn 0.83475489 -0.50544376 -0.21842821
vn -0.06161992 0.99469386 -0.08238388
vn -0.96112828 0.00564035 -0.27604460
vn -0.60442207 -0.78047266 0.15980106
vn 0.60428669 -0.78055060 -0.15993234
vn 0.06164163 0.99469029 0.08241082
vn 0.29907891 -0.83658028 -0.45900462
vn 0.06592698 -0.99384748 -0.08899899
vn 0.32771987 0.94477494 0.00000828
vn -0.59585061 0.78754206 0.15728810
vn -0.59591591 0.78748288 -0.15733705
vn -0.10823445 -0.99234179 -0.05952369
vn -0.11831764 0.99263788 -0.02590322
vn -0.10050400 0.99343869 -0.05457577
vn 0.28987437 -0.95349076 0.08263307
vn -0.63720255 -0.77069638 -0.00002072
vn 0.21664725 -0.96469685 0.14974631
vn -0.30126002 0.94968817 -0.08564331
vn -0.11165380 -0.97581536 0.18793032
vn -0.06591732 -0.99384756 -0.08900524
vn -0.29904630 -0.83657987 -0.45902660
vn 0.06162879 0.99469359 -0.08238053
vn 0.30125143 0.94969253 -0.08562520
vn -0.21667212 -0.96469437 0.14972632
vn 0.86875312 -0.49524540 0.00004122
vn 0.81902838 0.00599832 0.57372165
vn 0.87989590 0.47516650 0.00003242
vn 0.71147356 -0.53728152 -0.45291714
vn 0.10054422 0.99343332 0.05459942
vn -0.81905003 0.00582259 -0.57369255
vn -0.71153518 -0.53715177 0.45297425
vn -0.43873862 -0.58542673 0.68175066
vn 0.12291571 0.99241711 -0.00002761
vn 0.22575177 0.96167058 0.15564648
f 97//97 46//46 96//96
f 97//97 96//96 48//48
f 37//37 97//97 48//48
f 37//37 48//48 143//143
f 128//128 37//37 143//143
f 128//128 143//143 40//40
f 75//75 128//128 40//40
f 75//75 40//40 69//69
f 102//102 75//75 69//69
f 102//102 69//69 106//106
f 50//50 102//102 106//106
f 50//50 106//106 65//65
f 99//99 50//50 65//65
f 99//99 65//65 58//58
f 19//19 99//99 58//58
f 19//19 58//58 82//82
f 96//96 46//46 19//19
f 82//82 96//96 19//19
f 70//70 136//136 46//46
f 70//70 46//46 97//97
f 139//139 70//70 97//97
f 139//139 97//97 37//37
f 34//34 139//139 37//37
f 34//34 37//37 128//128
f 28//28 34//34 128//128
f 28//28 128//128 75//75
f 87//87 28//28 75//75
f 87//87 75//75 102//102
f 49//49 87//87 102//102
f 49//49 102//102 50//50
f 95//95 49//49 50//50
f 95//95 50//50 99//99
f 62//62 95//95 99//99
f 62//62 99//99 19//19
f 62//62 46//46 136//136
f 62//62 19//19 46//46
f 31//31 107//107 136//136
f 31//31 136//136 70//70
f 116//116 31//31 70//70
f 116//116 70//70 139//139
f 109//109 116//116 139//139
f 109//109 139//139 34//34
f 92//92 109//109 34//34
f 92//92 34//34 28//28
f 108//108 92//92 28//28
f 108//108 28//28 87//87
f 110//110 108//108 87//87
f 110//110 87//87 49//49
f 61//61 110//110 49//49
f 61//61 49//49 95//95
f 101//101 61//61 95//95
f 101//101 95//95 62//62
f 101//101 136//136 107//107
f 101//101 62//62 136//136
f 1//1 16//16 107//107
f 1//1 107//107 31//31
f 17//17 1//1 31//31
f 17//17 31//31 116//116
f 14//14 17//17 116//116
f 14//14 116//116 109//109
f 9//9 14//14 109//109
f 9//9 109//109 92//92
f 4//4 9//9 92//92
f 4//4 92//92 108//108
f 6//6 4//4 108//108
f 6//6 108//108 110//110
f 11//11 6//6 110//110
f 11//11 110//110 61//61
f 8//8 11//11 61//61
f 8//8 61//61 101//101
f 8//8 107//107 16//16
f 8//8 101//101 107//107
f 26//26 80//80 16//16
f 26//26 16//16 1//1
f 73//73 26//26 1//1
f 73//73 1//1 17//17
f 29//29 73//73 17//17
f 29//29 17//17 14//14
f 57//57 29//29 14//14
f 57//57 14//14 9//9
f 78//78 57//57 9//9
f 78//78 9//9 4//4
f 77//77 78//78 4//4
f 77//77 4//4 6//6
f 89//89 77//77 6//6
f 89//89 6//6 11//11
f 45//45 89//89 11//11
f 45//45 11//11 8//8
f 45//45 16//16 80//80
f 45//45 8//8 16//16
f 105//105 94//94 80//80
f 105//105 80//80 26//26
f 85//85 105//105 26//26
f 85//85 26//26 73//73
f 98//98 85//85 73//73
f 98//98 73//73 29//29
f 71//71 98//98 29//29
f 71//71 29//29 57//57
f 138//138 71//71 57//57
f 138//138 57//57 78//78
f 39//39 138//138 78//78
f 39//39 78//78 77//77
f 83//83 39//39 77//77
f 83//83 77//77 89//89
f 32//32 83//83 89//89
f 32//32 89//89 45//45
f 32//32 80//80 94//94
f 32//32 45//45 80//80
f 120//120 74//74 94//94
f 120//120 94//94 105//105
f 84//84 120//120 105//105
f 84//84 105//105 85//85
f 133//133 84//84 85//85
f 133//133 85//85 98//98
f 44//44 133//133 98//98
f 44//44 98//98 71//71
f 111//111 44//44 71//71
f 111//111 71//71 138//138
f 86//86 111//111 138//138
f 86//86 138//138 39//39
f 33//33 86//86 39//39
f 33//33 39//39 83//83
f 114//114 33//33 83//83
f 114//114 83//83 32//32
f 114//114 94//94 74//74
f 114//114 32//32 94//94
f 72//72 67//67 74//74
f 72//72 74//74 120//120
f 64//64 72//72 120//120
f 64//64 120//120 84//84
f 119//119 64//64 84//84
f 119//119 84//84 133//133
f 137//137 119//119 133//133
f 137//137 133//133 44//44
f 135//135 137//137 44//44
f 135//135 44//44 111//111
f 54//54 135//135 111//111
f 54//54 111//111 86//86
f 60//60 54//54 86//86
f 60//60 86//86 33//33
f 126//126 60//60 33//33
f 126//126 33//33 114//114
f 126//126 74//74 67//67
f 126//126 114//114 74//74
f 121//121 113//113 67//67
f 121//121 67//67 72//72
f 123//123 121//121 72//72
f 123//123 72//72 64//64
f 35//35 123//123 64//64
f 35//35 64//64 119//119
f 90//90 35//35 119//119
f 90//90 119//119 137//137
f 23//23 90//90 137//137
f 23//23 137//137 135//135
f 125//125 23//23 135//135
f 125//125 135//135 54//54
f 24//24 125//125 54//54
f 24//24 54//54 60//60
f 56//56 24//24 60//60
f 56//56 60//60 126//126
f 56//56 67//67 113//113
f 56//56 126//126 67//67
f 21//21 140//140 113//113
f 21//21 113//113 121//121
f 124//124 21//21 121//121
f 124//124 121//121 123//123
f 144//144 124//124 123//123
f 144//144 123//123 35//35
f 22//22 144//144 35//35
f 22//22 35//35 90//90
f 79//79 22//22 90//90
f 79//79 90//90 23//23
f 127//127 79//79 23//23
f 127//127 23//23 125//125
f 122//122 127//127 125//125
f 122//122 125//125 24//24
f 55//55 122//122 24//24
f 55//55 24//24 56//56
f 55//55 113//113 140//140
f 55//55 56//56 113//113
f 63//63 81//81 140//140
f 63//63 140//140 21//21
f 112//112 63//63 21//21
f 112//112 21//21 124//124
f 66//66 112//112 124//124
f 66//66 124//124 144//144
f 91//91 66//66 144//144
f 91//91 144//144 22//22
f 27//27 91//91 22//22
f 27//27 22//22 79//79
f 25//25 27//27 79//79
f 25//25 79//79 127//127
f 130//130 25//25 127//127
f 130//130 127//127 122//122
f 131//131 130//130 122//122
f 131//131 122//122 55//55
f 131//131 140//140 81//81
f 131//131 55//55 140//140
f 2//2 15//15 81//81
f 2//2 81//81 63//63
f 18//18 2//2 63//63
f 18//18 63//63 112//112
f 13//13 18//18 112//112
f 13//13 112//112 66//66
f 10//10 13//13 66//66
f 10//10 66//66 91//91
f 3//3 10//10 91//91
f 3//3 91//91 27//27
f 5//5 3//3 27//27
f 5//5 27//27 25//25
f 12//12 5//5 25//25
f 12//12 25//25 130//130
f 7//7 12//12 130//130
f 7//7 130//130 131//131
f 7//7 81//81 15//15
f 7//7 131//131 81//81
f 43//43 30//30 15//15
f 43//43 15//15 2//2
f 132//132 43//43 2//2
f 132//132 2//2 18//18
f 41//41 132//132 18//18
f 41//41 18//18 13//13
f 59//59 41//41 13//13
f 59//59 13//13 10//10
f 142//142 59//59 10//10
f 142//142 10//10 3//3
f 129//129 142//142 3//3
f 129//129 3//3 5//5
f 118//118 129//129 5//5
f 118//118 5//5 12//12
f 117//117 118//118 12//12
f 117//117 12//12 7//7
f 117//117 15//15 30//30
f 117//117 7//7 15//15
f 53//53 68//68 30//30
f 53//53 30//30 43//43
f 38//38 53//53 43//43
f 38//38 43//43 132//132
f 76//76 38//38 132//132
f 76//76 132//132 41//41
f 104//104 76//76 41//41
f 104//104 41//41 59//59
f 141//141 104//104 59//59
f 141//141 59//59 142//142
f 134//134 141//141 142//142
f 134//134 142//142 129//129
f 88//88 134//134 129//129
f 88//88 129//129 118//118
f 103//103 88//88 118//118
f 103//103 118//118 117//117
f 103//103 30//30 68//68
f 103//103 117//117 30//30
f 42//42 47//47 68//68
f 42//42 68//68 53//53
f 52//52 42//42 53//53
f 52//52 53//53 38//38
f 100//100 52//52 38//38
f 100//100 38//38 76//76
f 93//93 100//100 76//76
f 93//93 76//76 104//104
f 36//36 93//93 104//104
f 36//36 104//104 141//141
f 51//51 36//36 141//141
f 51//51 141//141 134//134
f 20//20 51//51 134//134
f 20//20 134//134 88//88
f 115//115 20//20 88//88
f 115//115 88//88 103//103
f 115//115 68//68 47//47
f 115//115 103//103 68//68
f 47//47 42//42 96//96
f 42//42 48//48 96//96
f 96//96 115//115 47//47
f 96//96 82//82 115//115
f 42//42 52//52 48//48
f 52//52 143//143 48//48
f 52//52 100//100 143//143
f 100//100 40//40 143//143
f 100//100 93//93 40//40
f 93//93 69//69 40//40
f 93//93 36//36 69//69
f 36//36 106//106 69//69
f 36//36 51//51 106//106
f 51//51 65//65 106//106
f 51//51 20//20 65//65
f 20//20 58//58 65//65
f 20//20 115//115 58//58
f 115//115 82//82 58//58