# https://github.com/mikedh/trimesh
v 0.00000000 0.02146057 0.41334124
v 0.00000000 0.02146057 0.01249778
v 0.00000000 -0.01176751 0.10308669
v 0.00000000 -0.01176751 0.32276639
v 0.00000000 -0.02916094 0.07931560
v 0.00000000 -0.02916094 0.34652810
v 0.00000000 -0.02113674 0.01194027
v 0.00000000 -0.02113674 0.41390854
v 0.00000000 0.01113454 0.32246229
v 0.00000000 0.01113454 0.10338141
v 0.00000000 -0.03286524 0.38255506
v 0.00000000 -0.03286524 0.04328396
v 0.00000000 0.02877646 0.08009501
v 0.00000000 0.02877646 0.34574912
v 0.00000000 -0.00005344 -0.00002130
v 0.00000000 -0.00005344 0.42586500
v 0.00000000 0.03285669 0.38167002
v 0.00000000 0.03285669 0.04417837
v 0.10251408 -0.02113674 0.28983194
v 0.08650425 -0.03286524 0.14800059
v -0.07822967 0.02146057 0.07119400
v -0.04275464 0.01113454 0.13545852
v -0.05601631 -0.01176751 0.17088196
v -0.08651201 -0.03286524 0.14799591
v -0.02822057 -0.02916094 0.08947942
v -0.04233991 0.02146057 0.39808444
v -0.02320034 -0.01176751 0.11144339
v 0.04276498 0.01113454 0.29038093
v -0.02806047 0.02877646 0.33563599
v 0.04498110 -0.00005344 0.01618996
v 0.04234250 0.02146057 0.39808444
v -0.07845349 -0.02113674 0.35503217
v -0.08651436 -0.03286524 0.27782948
v 0.05185633 0.02877646 0.30684560
v -0.06774132 0.02877646 0.16208232
v 0.05600385 -0.01176751 0.17088622
v 0.08607166 0.03285669 0.27749302
v 0.06585835 0.03285669 0.09360048
v -0.05215397 -0.02916094 0.30738948
v 0.07333663 0.02877646 0.21291035
v 0.02805529 0.02877646 0.09020772
v 0.10220609 0.02146057 0.13621918
v 0.04233474 0.02146057 0.02775501
v -0.05586631 0.01113454 0.25482844
v -0.04245958 -0.02113674 0.39860489
v 0.10861064 -0.00005344 0.29440489
v 0.10859018 -0.00005344 0.13142987
v 0.11064619 0.02146057 0.21291035
v 0.05215915 -0.02916094 0.30739417
v 0.06814852 -0.02916094 0.26404248
v 0.06812807 -0.02916094 0.16179185
v 0.08604885 0.03285669 0.14834174
v 0.07822450 0.02146057 0.07119869
v -0.07375394 -0.02916094 0.21291035
v -0.07844855 -0.02113674 0.07079748
v -0.10249880 -0.02113674 0.13599771
v -0.02314180 0.01113454 0.31411922
v 0.09365173 -0.03286524 0.21291035
v 0.02313686 0.01113454 0.11172022
v -0.09364162 -0.03286524 0.21291035
v 0.03583639 -0.03286524 0.36964414
v 0.07845866 -0.02113674 0.35504154
v -0.04233733 0.02146057 0.02775032
v -0.09315049 0.03285669 0.21291035
v 0.07376405 -0.02916094 0.21291035
v -0.02805788 0.02877646 0.09020346
v -0.11754681 -0.00005344 0.21291035
v 0.08311237 -0.00005344 0.06234879
v 0.06048193 0.01113454 0.21291035
v 0.07823719 0.02146057 0.35463607
v -0.04275981 0.01113454 0.29037156
v -0.11063608 0.02146057 0.21291035
v -0.03564807 0.03285669 0.36882385
v -0.10860053 -0.00005344 0.29440489
v 0.05587642 0.01113454 0.25483738
v 0.05183846 0.02877646 0.11899810
v -0.02822575 -0.02916094 0.33635491
v -0.02320551 -0.01176751 0.31440032
v -0.04287172 -0.01176751 0.13525110
v -0.04498369 -0.00005344 0.40965374
v -0.04498369 -0.00005344 0.01618528
v 0.11096171 -0.02113674 0.21291035
v -0.06621477 -0.03286524 0.33286547
v -0.08606155 0.03285669 0.27748833
v -0.06586869 0.03285669 0.33223896
v -0.06814077 -0.02916094 0.26403780
v 0.04288442 -0.01176751 0.29059261
v 0.06620701 -0.03286524 0.09296887
v -0.03583639 -0.03286524 0.36963946
v -0.05586372 0.01113454 0.17099227
v -0.02313686 0.01113454 0.11171554
v 0.02314180 0.01113454 0.31412816
v 0.05585362 0.01113454 0.17099695
v -0.08312013 -0.00005344 0.36349066
v 0.06621971 -0.03286524 0.33287015
v 0.11755951 -0.00005344 0.21291035
v 0.10222138 0.02146057 0.28961089
v -0.05184857 0.02877646 0.30684091
v 0.08652212 -0.03286524 0.27783374
v 0.06772862 0.02877646 0.16208700
v 0.04245958 -0.02113674 0.39860958
v 0.05603183 -0.01176751 0.25495280
v 0.07844079 -0.02113674 0.07080217
v 0.04274970 0.01113454 0.13546320
v -0.07823226 0.02146057 0.35463607
v 0.06065003 -0.01176751 0.21291035
v 0.04498627 -0.00005344 0.40965843
v 0.02320810 -0.01176751 0.31440500
v 0.02806282 0.02877646 0.33564067
v 0.02822833 -0.02916094 0.33635960
v -0.05601890 -0.01176751 0.25494343
v -0.03564548 0.03285669 0.05702028
v -0.10859794 -0.00005344 0.13142519
v -0.10250398 -0.02113674 0.28982299
v 0.10248869 -0.02113674 0.13600240
v 0.03565065 0.03285669 0.36882385
v 0.04245182 -0.02113674 0.02723881
v 0.03583122 -0.03286524 0.05619956
v -0.07332393 0.02877646 0.21291035
v -0.10221385 0.02146057 0.28961089
v -0.10221385 0.02146057 0.13621450
v -0.06621219 -0.03286524 0.09296418
v -0.08605896 0.03285669 0.14833706
v -0.06586611 0.03285669 0.09359580
v -0.06813818 -0.02916094 0.16178291
v -0.11094642 -0.02113674 0.21291035
v -0.05214880 -0.02916094 0.11844059
v 0.06775402 0.02877646 0.26374733
v 0.02822057 -0.02916094 0.08948879
v -0.03583380 -0.03286524 0.05619487
v -0.04245441 -0.02113674 0.02723413
v 0.03564289 0.03285669 0.05702454
v -0.06774391 0.02877646 0.26374307
v 0.05214387 -0.02916094 0.11844954
v -0.06063216 -0.01176751 0.21291035
v 0.08312530 -0.00005344 0.36349534
v -0.06046665 0.01113454 0.21291035
v -0.04287690 -0.01176751 0.29058366
v 0.06587622 0.03285669 0.33224365
v -0.08311754 -0.00005344 0.06234410
v 0.04286420 -0.01176751 0.13525536
v 0.02319799 -0.01176751 0.11144807
v 0.09316577 0.03285669 0.21291035
v -0.05184598 0.02877646 0.11899342
vn -0.00001974 0.73306871 0.68015459
vn 0.00004027 0.73302859 -0.68019782
vn -0.00010450 -0.50270968 0.86445530
vn 0.00010736 -0.50278907 -0.86440913
vn -0.00004084 -0.95175963 0.30684458
vn 0.00002335 -0.95173403 -0.30692398
vn 0.00003432 -0.72540927 -0.68831780
vn -0.00004910 -0.72536938 0.68835983
vn 0.00015630 0.48276018 -0.87575258
vn -0.00008202 0.48293379 0.87565686
vn -0.00001591 -0.98437680 0.17607475
vn 0.00000934 -0.98436533 -0.17613886
vn -0.00002355 0.94759977 0.31945997
vn 0.00002817 0.94760290 -0.31945069
vn 0.00004568 0.00496486 -0.99998767
vn -0.00005130 0.00511076 0.99998694
vn -0.00000369 0.98636691 0.16456099
vn 0.00001517 0.98637712 -0.16449976
vn 0.77657970 -0.60254712 0.18401342
vn 0.22394663 -0.97375510 -0.04060688
vn -0.65600448 0.65556484 -0.37402254
vn 0.81698851 0.36372515 0.44747490
vn 0.91745611 -0.33998677 0.20659933
vn -0.22396665 -0.97375221 -0.04056560
vn 0.19733204 -0.93625173 0.29067638
vn -0.41450171 0.70746374 0.57243637
vn 0.53233662 -0.45220350 0.71563239
vn -0.81701978 0.36363967 -0.44748728
vn 0.20570704 0.93096678 -0.30163797
vn 0.55267722 0.00481786 -0.83338148
vn 0.41445297 0.70751699 0.57240584
vn -0.66238217 -0.64666309 0.37825481
vn -0.22395159 -0.97375603 0.04055703
vn -0.38474163 0.89420319 -0.22885483
vn 0.49026412 0.86338423 0.11920049
vn -0.91738255 -0.33999861 0.20690628
vn 0.20739207 0.97757398 0.03657365
vn 0.18436730 0.97940281 -0.08233370
vn 0.37143829 -0.90157795 -0.22178999
vn -0.52304718 0.85230372 0.00014156
vn -0.20574599 0.93094755 0.30167076
vn 0.76940209 0.61224827 -0.18213315
vn 0.41448798 0.70746825 -0.57244073
vn 0.92280470 0.32455200 -0.20759935
vn -0.41857378 -0.69945916 0.57926925
vn 0.97092061 0.00395579 0.23936901
vn 0.97090129 0.00374074 -0.23945082
vn 0.80314089 0.59578914 -0.00010087
vn -0.37145606 -0.90155899 -0.22183731
vn -0.47526610 -0.87215627 -0.11604129
vn -0.47514514 -0.87221018 0.11613135
vn 0.20725011 0.97760387 -0.03657951
vn 0.65601347 0.65557283 -0.37399277
vn 0.50768394 -0.86154339 0.00001669
vn -0.66235844 -0.64665433 -0.37831134
vn -0.77658053 -0.60254547 -0.18401531
vn 0.53853000 0.43324722 -0.72269100
vn 0.22934232 -0.97334583 -0.00004498
vn -0.53846156 0.43337935 0.72266277
vn -0.22937374 -0.97333842 -0.00000604
vn 0.12836584 -0.98105263 0.14511356
vn 0.66235323 -0.64665676 0.37831632
vn -0.41444777 0.70746953 -0.57246827
vn -0.21153300 0.97737086 -0.00000057
vn -0.50775506 -0.86150147 0.00010002
vn 0.20568876 0.93096006 0.30167117
vn -0.99999342 0.00362758 -0.00002212
vn 0.85559853 0.00426552 -0.51762242
vn -0.94983429 0.31275347 0.00030090
vn 0.65599086 0.65559621 0.37399143
vn 0.81707828 0.36365319 -0.44736948
vn -0.80313158 0.59580170 -0.00000986
vn -0.12085481 0.98347848 0.13477461
vn -0.97092506 0.00386157 0.23935248
vn -0.92280345 0.32449185 -0.20769889
vn -0.38480730 0.89417865 0.22884030
vn 0.19744711 -0.93620842 -0.29073773
vn 0.53247085 -0.45223794 -0.71551076
vn 0.81093074 -0.38049367 0.44454011
vn -0.55265127 0.00490236 0.83339819
vn -0.55261783 0.00481457 -0.83342088
vn 0.81040762 -0.58586643 -0.00013929
vn -0.19757920 -0.97615522 0.08990799
vn -0.20735958 0.97758180 0.03654904
vn -0.18441266 0.97939277 0.08235147
vn 0.47519340 -0.87220195 -0.11599566
vn -0.81092692 -0.38049141 -0.44454900
vn 0.19763275 -0.97614192 -0.08993468
vn -0.12838883 -0.98105041 0.14510823
vn 0.92277120 0.32458175 0.20770170
vn 0.53832632 0.43339599 0.72275354
vn -0.53833518 0.43328077 -0.72281602
vn -0.92272088 0.32457370 0.20793769
vn -0.85558260 0.00434314 0.51764810
vn 0.19754479 -0.97616202 0.08990973
vn 0.99999306 0.00372445 -0.00013518
vn 0.76942532 0.61224514 0.18204548
vn 0.38476916 0.89419770 -0.22882999
vn 0.22390772 -0.97376620 0.04055529
vn -0.49030268 0.86334845 0.11930104
vn 0.41850148 -0.69949089 0.57928318
vn -0.91746584 -0.33994843 -0.20661922
vn 0.66235852 -0.64667617 -0.37827387
vn -0.81705361 0.36370972 0.44736858
vn -0.65602295 0.65557090 0.37397954
vn -0.94474664 -0.32780130 0.00029196
vn 0.55260179 0.00494744 0.83343073
vn -0.53233724 -0.45220979 -0.71562796
vn -0.20567009 0.93096455 -0.30167004
vn -0.19739668 -0.93621700 -0.29074437
vn 0.91747444 -0.33998314 -0.20652387
vn -0.12079938 0.98349117 -0.13473167
vn -0.97092199 0.00378853 -0.23936612
vn -0.77659550 -0.60254397 0.18395706
vn 0.77652471 -0.60259160 -0.18409981
vn 0.12083753 0.98348097 0.13477195
vn 0.41852663 -0.69948975 -0.57926639
vn 0.12841317 -0.98104257 -0.14513968
vn 0.52308037 0.85228336 0.00001207
vn -0.76943839 0.61223410 0.18202740
vn -0.76945630 0.61220034 -0.18206525
vn -0.19759501 -0.97614985 -0.08993152
vn -0.20732392 0.97758916 -0.03655444
vn -0.18438741 0.97939753 -0.08235147
vn 0.47514518 -0.87222291 0.11603553
vn -0.81039926 -0.58587801 -0.00002225
vn 0.37136021 -0.90160714 0.22180210
vn -0.49026763 0.86338338 -0.11919226
vn -0.19741652 -0.93623203 0.29068248
vn -0.12839670 -0.98104298 -0.14515153
vn -0.41847885 -0.69949174 -0.57929851
vn 0.12081501 0.98349028 -0.13472414
vn 0.49026289 0.86338947 -0.11916759
vn -0.37139667 -0.90160006 0.22176981
vn 0.94473988 -0.32782092 0.00003834
vn 0.85555915 0.00442921 0.51768613
vn 0.94981459 0.31281343 0.00002845
vn 0.81098855 -0.38049641 -0.44443229
vn 0.18445265 0.97938249 0.08238419
vn -0.85557445 0.00430117 -0.51766191
vn -0.81099802 -0.38043950 0.44446372
vn -0.53246748 -0.45213016 0.71558138
vn 0.21166756 0.97734172 -0.00003902
vn 0.38474734 0.89420081 0.22885454
f 97//97 46//46 96//96
f 97//97 96//96 48//48
f 37//37 97//97 48//48
f 37//37 48//48 143//143
f 128//128 37//37 143//143
f 128//128 143//143 40//40
f 75//75 128//128 40//40
f 75//75 40//40 69//69
f 102//102 75//75 69//69
f 102//102 69//69 106//106
f 50//50 102//102 106//106
f 50//50 106//106 65//65
f 99//99 50//50 65//65
f 99//99 65//65 58//58
f 19//19 99//99 58//58
f 19//19 58//58 82//82
f 96//96 46//46 19//19
f 82//82 96//96 19//19
f 70//70 136//136 46//46
f 70//70 46//46 97//97
f 139//139 70//70 97//97
f 139//139 97//97 37//37
f 34//34 139//139 37//37
f 34//34 37//37 128//128
f 28//28 34//34 128//128
f 28//28 128//128 75//75
f 87//87 28//28 75//75
f 87//87 75//75 102//102
f 49//49 87//87 102//102
f 49//49 102//102 50//50
f 95//95 49//49 50//50
f 95//95 50//50 99//99
f 62//62 95//95 99//99
f 62//62 99//99 19//19
f 62//62 46//46 136//136
f 62//62 19//19 46//46
f 31//31 107//107 136//136
f 31//31 136//136 70//70
f 116//116 31//31 70//70
f 116//116 70//70 139//139
f 109//109 116//116 139//139
f 109//109 139//139 34//34
f 92//92 109//109 34//34
f 92//92 34//34 28//28
f 108//108 92//92 28//28
f 108//108 28//28 87//87
f 110//110 108//108 87//87
f 110//110 87//87 49//49
f 61//61 110//110 49//49
f 61//61 49//49 95//95
f 101//101 61//61 95//95
f 101//101 95//95 62//62
f 101//101 136//136 107//107
f 101//101 62//62 136//136
f 1//1 16//16 107//107
f 1//1 107//107 31//31
f 17//17 1//1 31//31
f 17//17 31//31 116//116
f 14//14 17//17 116//116
f 14//14 116//116 109//109
f 9//9 14//14 109//109
f 9//9 109//109 92//92
f 4//4 9//9 92//92
f 4//4 92//92 108//108
f 6//6 4//4 108//108
f 6//6 108//108 110//110
f 11//11 6//6 110//110
f 11//11 110//110 61//61
f 8//8 11//11 61//61
f 8//8 61//61 101//101
f 8//8 107//107 16//16
f 8//8 101//101 107//107
f 26//26 80//80 16//16
f 26//26 16//16 1//1
f 73//73 26//26 1//1
f 73//73 1//1 17//17
f 29//29 73//73 17//17
f 29//29 17//17 14//14
f 57//57 29//29 14//14
f 57//57 14//14 9//9
f 78//78 57//57 9//9
f 78//78 9//9 4//4
f 77//77 78//78 4//4
f 77//77 4//4 6//6
f 89//89 77//77 6//6
f 89//89 6//6 11//11
f 45//45 89//89 11//11
f 45//45 11//11 8//8
f 45//45 16//16 80//80
f 45//45 8//8 16//16
f 105//105 94//94 80//80
f 105//105 80//80 26//26
f 85//85 105//105 26//26
f 85//85 26//26 73//73
f 98//98 85//85 73//73
f 98//98 73//73 29//29
f 71//71 98//98 29//29
f 71//71 29//29 57//57
f 138//138 71//71 57//57
f 138//138 57//57 78//78
f 39//39 138//138 78//78
f 39//39 78//78 77//77
f 83//83 39//39 77//77
f 83//83 77//77 89//89
f 32//32 83//83 89//89
f 32//32 89//89 45//45
f 32//32 80//80 94//94
f 32//32 45//45 80//80
f 120//120 74//74 94//94
f 120//120 94//94 105//105
f 84//84 120//120 105//105
f 84//84 105//105 85//85
f 133//133 84//84 85//85
f 133//133 85//85 98//98
f 44//44 133//133 98//98
f 44//44 98//98 71//71
f 111//111 44//44 71//71
f 111//111 71//71 138//138
f 86//86 111//111 138//138
f 86//86 138//138 39//39
f 33//33 86//86 39//39
f 33//33 39//39 83//83
f 114//114 33//33 83//83
f 114//114 83//83 32//32
f 114//114 94//94 74//74
f 114//114 32//32 94//94
f 72//72 67//67 74//74
f 72//72 74//74 120//120
f 64//64 72//72 120//120
f 64//64 120//120 84//84
f 119//119 64//64 84//84
f 119//119 84//84 133//133
f 137//137 119//119 133//133
f 137//137 133//133 44//44
f 135//135 137//137 44//44
f 135//135 44//44 111//111
f 54//54 135//135 111//111
f 54//54 111//111 86//86
f 60//60 54//54 86//86
f 60//60 86//86 33//33
f 126//126 60//60 33//33
f 126//126 33//33 114//114
f 126//126 74//74 67//67
f 126//126 114//114 74//74
f 121//121 113//113 67//67
f 121//121 67//67 72//72
f 123//123 121//121 72//72
f 123//123 72//72 64//64
f 35//35 123//123 64//64
f 35//35 64//64 119//119
f 90//90 35//35 119//119
f 90//90 119//119 137//137
f 23//23 90//90 137//137
f 23//23 137//137 135//135
f 125//125 23//23 135//135
f 125//125 135//135 54//54
f 24//24 125//125 54//54
f 24//24 54//54 60//60
f 56//56 24//24 60//60
f 56//56 60//60 126//126
f 56//56 67//67 113//113
f 56//56 126//126 67//67
f 21//21 140//140 113//113
f 21//21 113//113 121//121
f 124//124 21//21 121//121
f 124//124 121//121 123//123
f 144//144 124//124 123//123
f 144//144 123//123 35//35
f 22//22 144//144 35//35
f 22//22 35//35 90//90
f 79//79 22//22 90//90
f 79//79 90//90 23//23
f 127//127 79//79 23//23
f 127//127 23//23 125//125
f 122//122 127//127 125//125
f 122//122 125//125 24//24
f 55//55 122//122 24//24
f 55//55 24//24 56//56
f 55//55 113//113 140//140
f 55//55 56//56 113//113
f 63//63 81//81 140//140
f 63//63 140//140 21//21
f 112//112 63//63 21//21
f 112//112 21//21 124//124
f 66//66 112//112 124//124
f 66//66 124//124 144//144
f 91//91 66//66 144//144
f 91//91 144//144 22//22
f 27//27 91//91 22//22
f 27//27 22//22 79//79
f 25//25 27//27 79//79
f 25//25 79//79 127//127
f 130//130 25//25 127//127
f 130//130 127//127 122//122
f 131//131 130//130 122//122
f 131//131 122//122 55//55
f 131//131 140//140 81//81
f 131//131 55//55 140//140
f 2//2 15//15 81//81
f 2//2 81//81 63//63
f 18//18 2//2 63//63
f 18//18 63//63 112//112
f 13//13 18//18 112//112
f 13//13 112//112 66//66
f 10//10 13//13 66//66
f 10//10 66//66 91//91
f 3//3 10//10 91//91
f 3//3 91//91 27//27
f 5//5 3//3 27//27
f 5//5 27//27 25//25
f 12//12 5//5 25//25
f 12//12 25//25 130//130
f 7//7 12//12 130//130
f 7//7 130//130 131//131
f 7//7 81//81 15//15
f 7//7 131//131 81//81
f 43//43 30//30 15//15
f 43//43 15//15 2//2
f 132//132 43//43 2//2
f 132//132 2//2 18//18
f 41//41 132//132 18//18
f 41//41 18//18 13//13
f 59//59 41//41 13//13
f 59//59 13//13 10//10
f 142//142 59//59 10//10
f 142//142 10//10 3//3
f 129//129 142//142 3//3
f 129//129 3//3 5//5
f 118//118 129//129 5//5
f 118//118 5//5 12//12
f 117//117 118//118 12//12
f 117//117 12//12 7//7
f 117//117 15//15 30//30
f 117//117 7//7 15//15
f 53//53 68//68 30//30
f 53//53 30//30 43//43
f 38//38 53//53 43//43
f 38//38 43//43 132//132
f 76//76 38//38 132//132
f 76//76 132//132 41//41
f 104//104 76//76 41//41
f 104//104 41//41 59//59
f 141//141 104//104 59//59
f 141//141 59//59 142//142
f 134//134 141//141 142//142
f 134//134 142//142 129//129
f 88//88 134//134 129//129
f 88//88 129//129 118//118
f 103//103 88//88 118//118
f 103//103 118//118 117//117
f 103//103 30//30 68//68
f 103//103 117//117 30//30
f 42//42 47//47 68//68
f 42//42 68//68 53//53
f 52//52 42//42 53//53
f 52//52 53//53 38//38
f 100//100 52//52 38//38
f 100//100 38//38 76//76
f 93//93 100//100 76//76
f 93//93 76//76 104//104
f 36//36 93//93 104//104
f 36//36 104//104 141//141
f 51//51 36//36 141//141
f 51//51 141//141 134//134
f 20//20 51//51 134//134
f 20//20 134//134 88//88
f 115//115 20//20 88//88
f 115//115 88//88 103//103
f 115//115 68//68 47//47
f 115//115 103//103 68//68
f 47//47 42//42 96//96
f 42//42 48//48 96//96
f 96//96 115//115 47//47
f 96//96 82//82 115//115
f 42//42 52//52 48//48
f 52//52 143//143 48//48
f 52//52 100//100 143//143
f 100//100 40//40 143//143
f 100//100 93//93 40//40
f 93//93 69//69 40//40
f 93//93 36//36 69//69
f 36//36 106//106 69//69
f 36//36 51//51 106//106
f 51//51 65//65 106//106
f 51//51 20//20 65//65
f 20//20 58//58 65//65
f 20//20 115//115 58//58
f 115//115 82//82 58//58