# https://github.com/mikedh/trimesh
v 0.00000000 0.00000000 0.34094566
v 0.00000000 0.00000000 -0.00001125
v 0.00000000 -0.12554295 0.34094566
v 0.00000000 0.12554295 0.34094566
v 0.06417662 0.02449289 -0.00001125
v 0.02504056 -0.11598651 0.34094566
v 0.02504056 0.11598651 0.34094566
v 0.05440626 0.06974854 -0.00001125
v -0.01276547 0.12313061 0.34094566
v -0.05440656 0.06974769 -0.00001125
v 0.03635326 0.10438505 0.34094566
v 0.03635326 -0.10438505 0.34094566
v 0.06045305 0.04804381 -0.00001125
v -0.00000030 0.12554295 -0.00001125
v -0.03635311 0.10438505 0.34094566
v 0.05440671 -0.06974712 -0.00001125
v 0.02504026 0.11598679 -0.00001125
v -0.04626901 0.08877193 -0.00001125
v 0.01276562 0.12313061 0.34094566
v 0.01276562 -0.12313061 0.34094566
v -0.01276576 0.12313061 -0.00001125
v 0.04626886 0.08877222 0.34094566
v 0.04626886 -0.08877222 0.34094566
v -0.02504041 0.11598651 0.34094566
v 0.03635296 0.10438561 -0.00001125
v 0.06417676 -0.02449233 0.34094566
v 0.06417676 0.02449204 0.34094566
v -0.06543409 0.00000000 0.34094566
v -0.06543409 0.00000000 -0.00001125
v -0.06045319 0.04804324 0.34094566
v -0.06045319 0.04804295 -0.00001125
v -0.06045319 -0.04804324 0.34094566
v -0.06045319 -0.04804324 -0.00001125
v -0.03635341 0.10438476 -0.00001125
v 0.05440641 0.06974769 0.34094566
v 0.05440641 -0.06974797 0.34094566
v 0.01276532 0.12313061 -0.00001125
v 0.01276532 -0.12313061 -0.00001125
v 0.04626857 0.08877278 -0.00001125
v -0.05440641 0.06974797 0.34094566
v -0.05440641 -0.06974797 0.34094566
v -0.05440641 -0.06974797 -0.00001125
v -0.02504071 0.11598623 -0.00001125
v 0.06045319 -0.04804352 0.34094566
v 0.06045319 0.04804295 0.34094566
v 0.06543409 0.00000085 -0.00001125
v 0.06543409 -0.00000028 0.34094566
v -0.06417676 -0.02449204 0.34094566
v -0.06417676 0.02449233 0.34094566
v -0.06417676 -0.02449233 -0.00001125
v -0.06417676 0.02449204 -0.00001125
v -0.00000015 -0.12554295 -0.00001125
v 0.02504041 -0.11598651 -0.00001125
v -0.04626886 0.08877222 0.34094566
v -0.04626886 -0.08877222 0.34094566
v -0.04626886 -0.08877222 -0.00001125
v -0.01276562 -0.12313061 0.34094566
v -0.01276562 -0.12313061 -0.00001125
v 0.03635311 -0.10438533 -0.00001125
v 0.06417691 -0.02449119 -0.00001125
v -0.03635326 -0.10438505 0.34094566
v -0.03635326 -0.10438505 -0.00001125
v 0.04626872 -0.08877250 -0.00001125
v -0.02504056 -0.11598651 0.34094566
v -0.02504056 -0.11598651 -0.00001125
v 0.06045334 -0.04804210 -0.00001125
vn 0.00000000 0.00000000 1.00000000
vn 0.00000000 0.00000000 -1.00000000
vn 0.00000002 -0.74451701 0.66760349
vn -0.00000071 0.74451718 0.66760330
vn 0.71470863 0.07463735 -0.69542853
vn 0.45218920 -0.57959164 0.67793692
vn 0.45218901 0.57959145 0.67793720
vn 0.68060618 0.23918838 -0.69250570
vn -0.25909303 0.69480750 0.67090487
vn -0.68060760 0.23918411 -0.69250578
vn 0.57167033 0.45226701 0.68457840
vn 0.57167034 -0.45226725 0.68457823
vn 0.70312691 0.15299781 -0.69440926
vn -0.00000086 0.74451718 -0.66760330
vn -0.57166824 0.45226868 0.68457904
vn 0.68060824 -0.23918239 -0.69250574
vn 0.45218090 0.57959846 -0.67793662
vn -0.64085502 0.33772713 -0.68938033
vn 0.25909236 0.69480804 0.67090456
vn 0.25909257 -0.69480808 0.67090445
vn -0.25909958 0.69480682 -0.67090305
vn 0.64085624 0.33772572 0.68937988
vn 0.64085502 -0.33772713 0.68938033
vn -0.45218917 0.57959140 0.67793714
vn 0.57166859 0.45227138 -0.68457696
vn 0.71470941 -0.07463463 0.69542802
vn 0.71470961 0.07463505 0.69542777
vn -0.71828652 -0.00000020 0.69574742
vn -0.71828652 0.00000020 -0.69574742
vn -0.70312689 0.15299766 0.69440931
vn -0.70312667 0.15299533 -0.69441005
vn -0.70312719 -0.15299714 0.69440912
vn -0.70312689 -0.15299773 -0.69440930
vn -0.57167035 0.45226718 -0.68457828
vn 0.68060628 0.23918385 0.69250717
vn 0.68060550 -0.23918707 0.69250682
vn 0.25908581 0.69480873 -0.67090639
vn 0.25909110 -0.69480775 -0.67090535
vn 0.64085327 0.33772902 -0.68938102
vn -0.68060622 0.23918600 0.69250649
vn -0.68060627 -0.23918599 0.69250644
vn -0.68060627 -0.23918599 -0.69250644
vn -0.45219318 0.57958624 -0.67793887
vn 0.70312734 -0.15299830 0.69440871
vn 0.70312686 0.15299766 0.69440934
vn 0.71828650 0.00000430 -0.69574744
vn 0.71828644 -0.00000019 0.69574750
vn -0.71470941 -0.07463449 0.69542804
vn -0.71470966 0.07463503 0.69542772
vn -0.71470965 -0.07463499 -0.69542774
vn -0.71470953 0.07463518 -0.69542784
vn -0.00000006 -0.74451736 -0.66760311
vn 0.45218376 -0.57959489 -0.67793777
vn -0.64085444 0.33772958 0.68937967
vn -0.64085500 -0.33772716 0.68938032
vn -0.64085500 -0.33772716 -0.68938032
vn -0.25909246 -0.69480802 0.67090454
vn -0.25909311 -0.69480759 -0.67090474
vn 0.57166857 -0.45227148 -0.68457692
vn 0.71471036 -0.07463313 -0.69542720
vn -0.57167037 -0.45226716 0.68457827
vn -0.57167037 -0.45226716 -0.68457827
vn 0.64085544 -0.33772670 -0.68938014
vn -0.45218914 -0.57959152 0.67793705
vn -0.45218914 -0.57959152 -0.67793705
vn 0.70312653 -0.15299394 -0.69441050
f 63//63 23//23 59//59
f 59//59 23//23 12//12
f 59//59 12//12 53//53
f 53//53 12//12 6//6
f 53//53 6//6 38//38
f 38//38 6//6 20//20
f 38//38 20//20 52//52
f 52//52 20//20 3//3
f 52//52 3//3 58//58
f 58//58 3//3 57//57
f 58//58 57//57 65//65
f 65//65 57//57 64//64
f 65//65 64//64 62//62
f 62//62 64//64 61//61
f 62//62 61//61 56//56
f 56//56 61//61 55//55
f 56//56 55//55 42//42
f 42//42 55//55 41//41
f 42//42 41//41 33//33
f 33//33 41//41 32//32
f 33//33 32//32 50//50
f 50//50 32//32 48//48
f 50//50 48//48 29//29
f 29//29 48//48 28//28
f 29//29 28//28 51//51
f 51//51 28//28 49//49
f 51//51 49//49 31//31
f 31//31 49//49 30//30
f 31//31 30//30 10//10
f 10//10 30//30 40//40
f 10//10 40//40 18//18
f 18//18 40//40 54//54
f 18//18 54//54 34//34
f 34//34 54//54 15//15
f 34//34 15//15 43//43
f 43//43 15//15 24//24
f 43//43 24//24 21//21
f 21//21 24//24 9//9
f 21//21 9//9 14//14
f 14//14 9//9 4//4
f 14//14 4//4 37//37
f 37//37 4//4 19//19
f 37//37 19//19 17//17
f 17//17 19//19 7//7
f 17//17 7//7 25//25
f 25//25 7//7 11//11
f 25//25 11//11 39//39
f 39//39 11//11 22//22
f 39//39 22//22 8//8
f 8//8 22//22 35//35
f 8//8 35//35 13//13
f 13//13 35//35 45//45
f 13//13 45//45 5//5
f 5//5 45//45 27//27
f 5//5 27//27 46//46
f 46//46 27//27 47//47
f 46//46 47//47 60//60
f 60//60 47//47 26//26
f 60//60 26//26 66//66
f 66//66 26//26 44//44
f 66//66 44//44 16//16
f 16//16 44//44 36//36
f 23//23 63//63 36//36
f 36//36 63//63 16//16
f 23//23 1//1 12//12
f 59//59 2//2 63//63
f 12//12 1//1 6//6
f 53//53 2//2 59//59
f 6//6 1//1 20//20
f 38//38 2//2 53//53
f 20//20 1//1 3//3
f 52//52 2//2 38//38
f 3//3 1//1 57//57
f 58//58 2//2 52//52
f 57//57 1//1 64//64
f 65//65 2//2 58//58
f 64//64 1//1 61//61
f 62//62 2//2 65//65
f 61//61 1//1 55//55
f 56//56 2//2 62//62
f 55//55 1//1 41//41
f 42//42 2//2 56//56
f 41//41 1//1 32//32
f 33//33 2//2 42//42
f 32//32 1//1 48//48
f 50//50 2//2 33//33
f 48//48 1//1 28//28
f 29//29 2//2 50//50
f 28//28 1//1 49//49
f 51//51 2//2 29//29
f 49//49 1//1 30//30
f 31//31 2//2 51//51
f 30//30 1//1 40//40
f 10//10 2//2 31//31
f 40//40 1//1 54//54
f 18//18 2//2 10//10
f 54//54 1//1 15//15
f 34//34 2//2 18//18
f 15//15 1//1 24//24
f 43//43 2//2 34//34
f 24//24 1//1 9//9
f 21//21 2//2 43//43
f 9//9 1//1 4//4
f 14//14 2//2 21//21
f 4//4 1//1 19//19
f 37//37 2//2 14//14
f 19//19 1//1 7//7
f 17//17 2//2 37//37
f 7//7 1//1 11//11
f 25//25 2//2 17//17
f 11//11 1//1 22//22
f 39//39 2//2 25//25
f 22//22 1//1 35//35
f 8//8 2//2 39//39
f 35//35 1//1 45//45
f 13//13 2//2 8//8
f 45//45 1//1 27//27
f 5//5 2//2 13//13
f 27//27 1//1 47//47
f 46//46 2//2 5//5
f 47//47 1//1 26//26
f 60//60 2//2 46//46
f 26//26 1//1 44//44
f 66//66 2//2 60//60
f 44//44 1//1 36//36
f 16//16 2//2 66//66
f 23//23 36//36 1//1
f 63//63 2//2 16//16